<svg width="18" height="21" viewBox="0 0 18 21" fill="none" xmlns="http://www.w3.org/2000/svg">
<path d="M13.9016 1.32812V16.7945C13.9016 17.1468 13.7616 17.4846 13.5126 17.7337C13.2635 17.9827 12.9257 18.1227 12.5734 18.1227H1.32812C0.975884 18.1227 0.638071 17.9827 0.388999 17.7337C0.139927 17.4846 0 17.1468 0 16.7945V1.32812C0 0.975884 0.139927 0.638071 0.388999 0.388999C0.638071 0.139927 0.975884 0 1.32812 0H12.5734C12.9257 0 13.2635 0.139927 13.5126 0.388999C13.7616 0.638071 13.9016 0.975884 13.9016 1.32812Z" fill="#78A2FF"/>
<path d="M12.2813 1.64453V15.2211H1.62109V1.64453H12.2813Z" fill="#DFF1F4"/>
<path d="M10.3507 7.14844H3.54384C3.48249 7.14898 3.42187 7.16169 3.36546 7.18582C3.30906 7.20995 3.258 7.24503 3.21524 7.28902C3.17249 7.33301 3.13888 7.38505 3.11636 7.44212C3.09385 7.49918 3.08287 7.56015 3.08407 7.62148V7.62187C3.08298 7.73187 3.12073 7.83873 3.19069 7.92362C3.26065 8.00851 3.35832 8.06599 3.46649 8.08594H10.436C10.5442 8.06599 10.6419 8.00851 10.7118 7.92362C10.7818 7.83873 10.8195 7.73187 10.8184 7.62187V7.62148C10.8191 7.49675 10.7702 7.37686 10.6824 7.28817C10.5947 7.19947 10.4754 7.14921 10.3507 7.14844Z" fill="#F7AFB6"/>
<path d="M10.4406 8.08203L10.3832 8.46836C10.3575 8.64177 10.2704 8.80017 10.1376 8.91469C10.0049 9.0292 9.83545 9.0922 9.66015 9.0922H4.23516C4.05782 9.09223 3.88653 9.02777 3.75321 8.91084C3.61989 8.7939 3.53364 8.63247 3.51055 8.45665L3.46094 8.08203C3.48812 8.08709 3.51571 8.08957 3.54336 8.08945H10.3582C10.3858 8.08957 10.4134 8.08709 10.4406 8.08203Z" fill="#F58387"/>
<path d="M10.2945 7.15H3.60742C3.73633 5.53828 5.18047 4.27344 6.95078 4.27344C8.72109 4.27344 10.1656 5.53828 10.2945 7.15Z" fill="#7CE5E9"/>
<path d="M6.95079 4.24531C7.24721 4.24531 7.48751 4.00501 7.48751 3.70859C7.48751 3.41217 7.24721 3.17188 6.95079 3.17188C6.65436 3.17188 6.41406 3.41217 6.41406 3.70859C6.41406 4.00501 6.65436 4.24531 6.95079 4.24531Z" fill="#53D8D8"/>
<path d="M1.63867 1.64062H2.81055V15.2344H1.63867V1.64062Z" fill="#BACCCE"/>
<path d="M4.68242 8.45665L4.63379 8.08945H3.54336C3.51571 8.08957 3.48812 8.08709 3.46094 8.08203L3.51055 8.45665C3.53364 8.63247 3.61989 8.7939 3.75321 8.91084C3.88653 9.02777 4.05782 9.09223 4.23516 9.0922H5.40703C5.2297 9.09223 5.0584 9.02777 4.92508 8.91084C4.79176 8.7939 4.70552 8.63247 4.68242 8.45665Z" fill="#D67B81"/>
<path d="M4.25595 7.62187V7.62148C4.25475 7.56015 4.26572 7.49918 4.28824 7.44212C4.31075 7.38505 4.34436 7.33301 4.38712 7.28902C4.42988 7.24503 4.48093 7.20995 4.53734 7.18582C4.59374 7.16169 4.65437 7.14898 4.71571 7.14844H3.54384C3.48249 7.14898 3.42187 7.16169 3.36546 7.18582C3.30906 7.20995 3.258 7.24503 3.21524 7.28902C3.17249 7.33301 3.13888 7.38505 3.11636 7.44212C3.09385 7.49918 3.08287 7.56015 3.08407 7.62148V7.62187C3.08298 7.73187 3.12073 7.83873 3.19069 7.92362C3.26065 8.00851 3.35832 8.06599 3.46649 8.08594H4.63837C4.53019 8.06599 4.43252 8.00851 4.36256 7.92362C4.29261 7.83873 4.25485 7.73187 4.25595 7.62187Z" fill="#D898A1"/>
<path d="M7.53672 4.32137C7.34302 4.28963 7.14707 4.2736 6.95078 4.27344C5.18047 4.27344 3.73633 5.53828 3.60742 7.15H4.7793C4.89363 5.72043 6.04301 4.56457 7.53672 4.32137Z" fill="#72CECE"/>
<path d="M7.58681 16.7578H6.31641C6.25425 16.7578 6.19463 16.7331 6.15068 16.6892C6.10672 16.6452 6.08203 16.5856 6.08203 16.5234C6.08203 16.4613 6.10672 16.4017 6.15068 16.3577C6.19463 16.3138 6.25425 16.2891 6.31641 16.2891H7.58681C7.64897 16.2891 7.70858 16.3138 7.75254 16.3577C7.79649 16.4017 7.82119 16.4613 7.82119 16.5234C7.82119 16.5856 7.79649 16.6452 7.75254 16.6892C7.70858 16.7331 7.64897 16.7578 7.58681 16.7578Z" fill="#5882BF"/>
<path d="M3.24598 12.3438H3.1543C3.09214 12.3438 3.03252 12.3191 2.98857 12.2751C2.94462 12.2311 2.91992 12.1715 2.91992 12.1094C2.91992 12.0472 2.94462 11.9876 2.98857 11.9436C3.03252 11.8997 3.09214 11.875 3.1543 11.875H3.24598C3.30814 11.875 3.36775 11.8997 3.4117 11.9436C3.45566 11.9876 3.48035 12.0472 3.48035 12.1094C3.48035 12.1715 3.45566 12.2311 3.4117 12.2751C3.36775 12.3191 3.30814 12.3438 3.24598 12.3438Z" fill="#99ACAD"/>
<path d="M4.85273 12.3438H4.16016C4.098 12.3438 4.03838 12.3191 3.99443 12.2751C3.95047 12.2311 3.92578 12.1715 3.92578 12.1094C3.92578 12.0472 3.95047 11.9876 3.99443 11.9436C4.03838 11.8997 4.098 11.875 4.16016 11.875H4.85273C4.91489 11.875 4.97451 11.8997 5.01846 11.9436C5.06242 11.9876 5.08711 12.0472 5.08711 12.1094C5.08711 12.1715 5.06242 12.2311 5.01846 12.2751C4.97451 12.3191 4.91489 12.3438 4.85273 12.3438Z" fill="#99ACAD"/>
<path d="M10.7475 12.3438H5.7832C5.72104 12.3438 5.66143 12.3191 5.61747 12.2751C5.57352 12.2311 5.54883 12.1715 5.54883 12.1094C5.54883 12.0472 5.57352 11.9876 5.61747 11.9436C5.66143 11.8997 5.72104 11.875 5.7832 11.875H10.7475C10.8097 11.875 10.8693 11.8997 10.9132 11.9436C10.9572 11.9876 10.9819 12.0472 10.9819 12.1094C10.9819 12.1715 10.9572 12.2311 10.9132 12.2751C10.8693 12.3191 10.8097 12.3438 10.7475 12.3438Z" fill="#99ACAD"/>
<path d="M3.24598 10.9375H3.1543C3.09214 10.9375 3.03252 10.9128 2.98857 10.8689C2.94462 10.8249 2.91992 10.7653 2.91992 10.7031C2.91992 10.641 2.94462 10.5814 2.98857 10.5374C3.03252 10.4934 3.09214 10.4688 3.1543 10.4688H3.24598C3.30814 10.4688 3.36775 10.4934 3.4117 10.5374C3.45566 10.5814 3.48035 10.641 3.48035 10.7031C3.48035 10.7653 3.45566 10.8249 3.4117 10.8689C3.36775 10.9128 3.30814 10.9375 3.24598 10.9375Z" fill="#99ACAD"/>
<path d="M4.85273 10.9375H4.16016C4.098 10.9375 4.03838 10.9128 3.99443 10.8689C3.95047 10.8249 3.92578 10.7653 3.92578 10.7031C3.92578 10.641 3.95047 10.5814 3.99443 10.5374C4.03838 10.4934 4.098 10.4688 4.16016 10.4688H4.85273C4.91489 10.4688 4.97451 10.4934 5.01846 10.5374C5.06242 10.5814 5.08711 10.641 5.08711 10.7031C5.08711 10.7653 5.06242 10.8249 5.01846 10.8689C4.97451 10.9128 4.91489 10.9375 4.85273 10.9375Z" fill="#99ACAD"/>
<path d="M10.7475 10.9375H5.7832C5.72104 10.9375 5.66143 10.9128 5.61747 10.8689C5.57352 10.8249 5.54883 10.7653 5.54883 10.7031C5.54883 10.641 5.57352 10.5814 5.61747 10.5374C5.66143 10.4934 5.72104 10.4688 5.7832 10.4688H10.7475C10.8097 10.4688 10.8693 10.4934 10.9132 10.5374C10.9572 10.5814 10.9819 10.641 10.9819 10.7031C10.9819 10.7653 10.9572 10.8249 10.9132 10.8689C10.8693 10.9128 10.8097 10.9375 10.7475 10.9375Z" fill="#99ACAD"/>
<path d="M3.24598 13.75H3.1543C3.09214 13.75 3.03252 13.7253 2.98857 13.6814C2.94462 13.6374 2.91992 13.5778 2.91992 13.5156C2.91992 13.4535 2.94462 13.3939 2.98857 13.3499C3.03252 13.3059 3.09214 13.2812 3.1543 13.2812H3.24598C3.30814 13.2812 3.36775 13.3059 3.4117 13.3499C3.45566 13.3939 3.48035 13.4535 3.48035 13.5156C3.48035 13.5778 3.45566 13.6374 3.4117 13.6814C3.36775 13.7253 3.30814 13.75 3.24598 13.75Z" fill="#99ACAD"/>
<path d="M4.85273 13.75H4.16016C4.098 13.75 4.03838 13.7253 3.99443 13.6814C3.95047 13.6374 3.92578 13.5778 3.92578 13.5156C3.92578 13.4535 3.95047 13.3939 3.99443 13.3499C4.03838 13.3059 4.098 13.2812 4.16016 13.2812H4.85273C4.91489 13.2812 4.97451 13.3059 5.01846 13.3499C5.06242 13.3939 5.08711 13.4535 5.08711 13.5156C5.08711 13.5778 5.06242 13.6374 5.01846 13.6814C4.97451 13.7253 4.91489 13.75 4.85273 13.75Z" fill="#99ACAD"/>
<path d="M10.7475 13.75H5.7832C5.72104 13.75 5.66143 13.7253 5.61747 13.6814C5.57352 13.6374 5.54883 13.5778 5.54883 13.5156C5.54883 13.4535 5.57352 13.3939 5.61747 13.3499C5.66143 13.3059 5.72104 13.2812 5.7832 13.2812H10.7475C10.8097 13.2812 10.8693 13.3059 10.9132 13.3499C10.9572 13.3939 10.9819 13.4535 10.9819 13.5156C10.9819 13.5778 10.9572 13.6374 10.9132 13.6814C10.8693 13.7253 10.8097 13.75 10.7475 13.75Z" fill="#99ACAD"/>
<path d="M2.68555 3.0625C2.62339 3.0625 2.56377 3.03781 2.51982 2.99385C2.47586 2.9499 2.45117 2.89029 2.45117 2.82813V2.66016C2.45117 2.598 2.47586 2.53838 2.51982 2.49443C2.56377 2.45047 2.62339 2.42578 2.68555 2.42578C2.74771 2.42578 2.80732 2.45047 2.85128 2.49443C2.89523 2.53838 2.91992 2.598 2.91992 2.66016V2.82813C2.91992 2.89029 2.89523 2.9499 2.85128 2.99385C2.80732 3.03781 2.74771 3.0625 2.68555 3.0625Z" fill="#F4F8FC"/>
<path d="M2.68555 6.49999C2.62339 6.49999 2.56377 6.4753 2.51982 6.43135C2.47586 6.38739 2.45117 6.32778 2.45117 6.26562V3.57031C2.45117 3.50815 2.47586 3.44854 2.51982 3.40458C2.56377 3.36063 2.62339 3.33594 2.68555 3.33594C2.74771 3.33594 2.80732 3.36063 2.85128 3.40458C2.89523 3.44854 2.91992 3.50815 2.91992 3.57031V6.26562C2.91992 6.32778 2.89523 6.38739 2.85128 6.43135C2.80732 6.4753 2.74771 6.49999 2.68555 6.49999Z" fill="#F4F8FC"/>
<circle cx="12" cy="15" r="6" fill="#E1E3EB"/>
<path d="M15.2022 12.5691H10.6811V11.8066C10.6811 11.2995 10.0715 11.0425 9.71664 11.4024L8.39801 12.7368C8.17723 12.9603 8.17723 13.3225 8.39801 13.5459L9.71664 14.8803C10.07 15.238 10.6811 14.9879 10.6811 14.4762V13.7137H15.2022C15.5141 13.7137 15.7673 13.4574 15.7673 13.1418C15.7673 12.8253 15.5141 12.5691 15.2022 12.5691Z" fill="#607D8B"/>
<path d="M15.7673 13.0938H8.23242C8.23242 13.2438 8.28743 13.3938 8.39819 13.5079L9.71679 14.8753C9.83132 14.9941 9.97298 15.0472 10.1124 15.0472C10.4025 15.0472 10.682 14.8152 10.682 14.4604V13.679H15.2029C15.5141 13.6798 15.7673 13.4172 15.7673 13.0938Z" fill="#546D79"/>
<path d="M15.6017 16.517L14.2831 15.2149C13.9252 14.8623 13.3186 15.1167 13.3186 15.6093V16.3533H8.79755C8.4856 16.3533 8.23242 16.6033 8.23242 16.9114C8.23242 17.2194 8.4856 17.4694 8.79755 17.4694H13.3186V18.2134C13.3186 18.7112 13.9297 18.9575 14.2831 18.6078L15.6017 17.3057C15.8225 17.0877 15.8225 16.735 15.6017 16.517Z" fill="#607D8B"/>
<path d="M15.7673 16.9102H8.23242C8.23242 17.2182 8.48559 17.4683 8.79754 17.4683H13.3185V18.2125C13.3185 18.5496 13.598 18.7706 13.8889 18.7706C14.0275 18.7706 14.1692 18.72 14.2837 18.6069L15.6023 17.3046C15.7123 17.1959 15.7673 17.053 15.7673 16.9102Z" fill="#546D79"/>
</svg>
