<svg width="22" height="22" viewBox="0 0 22 22" fill="none" xmlns="http://www.w3.org/2000/svg">
<path d="M12.4463 7.54783C12.5236 7.03217 12.5236 6.51659 12.4463 6.00096L13.3228 5.36932C13.5291 5.20175 13.6065 4.931 13.5033 4.68616L13.0135 3.48725C12.9103 3.25522 12.6654 3.10054 12.3947 3.13925L11.3248 3.30683C11.0154 2.89433 10.6544 2.52046 10.242 2.21108L10.3967 1.15405C10.4482 0.896286 10.2935 0.638474 10.0615 0.535349L8.86272 0.0455062C8.6178 -0.0576615 8.34705 0.0196821 8.17947 0.225975L7.54784 1.10254C7.22557 1.05102 6.90331 1.03808 6.58104 1.05102C6.38764 1.05102 6.19432 1.07675 6.00096 1.10254L5.36932 0.225975C5.20175 0.0196821 4.931 -0.0576615 4.68617 0.0455062L3.48725 0.535349C3.25522 0.638517 3.10054 0.896329 3.13925 1.15405L3.30683 2.22402C2.89433 2.53339 2.52046 2.89437 2.21108 3.30687L1.15405 3.13929C0.896286 3.10058 0.638474 3.25527 0.535349 3.4873L0.0455062 4.68621C-0.0576615 4.93104 0.0196821 5.20179 0.225975 5.36937L1.10254 6.00101C1.02519 6.51667 1.02519 7.03225 1.10254 7.54788L0.225975 8.17952C0.0196821 8.34709 -0.0576615 8.61775 0.0455062 8.86268L0.535349 10.0616C0.638517 10.2936 0.896329 10.4483 1.15405 10.3967L2.22402 10.242C2.53339 10.6545 2.89437 11.0283 3.30687 11.3377L3.13929 12.3947C3.10058 12.6525 3.25527 12.9103 3.4873 13.0134L4.68621 13.5033C4.93104 13.6065 5.21468 13.5291 5.36937 13.3228L6.00101 12.4463C6.19441 12.4721 6.38772 12.4978 6.58108 12.5107C6.90335 12.5107 7.22561 12.4978 7.54788 12.4463L8.17952 13.3228C8.29558 13.4646 8.46315 13.5549 8.64358 13.5549C8.72092 13.5549 8.79827 13.5291 8.86276 13.5033L10.0616 13.0135C10.2936 12.9103 10.4483 12.6525 10.3967 12.3948L10.2421 11.3248C10.6545 11.0154 11.0154 10.6545 11.3377 10.242L12.3947 10.3967C12.6654 10.4483 12.9103 10.2936 13.0135 10.0616L13.5033 8.86268C13.6065 8.61775 13.5291 8.34709 13.3228 8.17952L12.4463 7.54783ZM9.75217 8.0119C9.41702 8.79822 8.79818 9.41702 8.0119 9.75208C7.5994 9.91966 7.1869 9.99701 6.77444 9.99701C6.70995 9.99701 6.64549 9.99701 6.58104 9.9842C5.38222 9.9197 4.28647 9.1849 3.79671 8.0119C3.46156 7.21268 3.46156 6.33612 3.79671 5.53694C4.13178 4.75062 4.75062 4.13183 5.5369 3.79676C5.87206 3.65492 6.22006 3.56464 6.58104 3.55184C7.07088 3.52601 7.54784 3.60335 8.0119 3.79676C8.79822 4.13183 9.41702 4.75066 9.75217 5.53694C10.0872 6.33612 10.0872 7.21268 9.75217 8.0119Z" fill="#17ACE8"/>
<path d="M13.3238 8.17947C13.5301 8.34705 13.6074 8.61771 13.5042 8.86263L13.0144 10.0615C12.9112 10.2936 12.6663 10.4483 12.3957 10.3966L11.3387 10.2419C11.0164 10.6544 10.6554 11.0154 10.243 11.3248L10.3977 12.3947C10.4492 12.6525 10.2945 12.9103 10.0625 13.0134L8.86371 13.5033C8.79921 13.5291 8.72187 13.5548 8.64453 13.5548C8.4641 13.5548 8.29652 13.4646 8.18047 13.3228L7.54883 12.4462C7.22656 12.4977 6.9043 12.5107 6.58203 12.5107V9.98416C6.64648 9.99696 6.71089 9.99696 6.77543 9.99696C7.18785 9.99696 7.60039 9.91962 8.01289 9.75204C8.79921 9.41697 9.41801 8.79814 9.75316 8.01185C10.0882 7.21264 10.0882 6.33608 9.75316 5.5369C9.41801 4.75058 8.79917 4.13178 8.01289 3.79671C7.54883 3.60331 7.07192 3.52597 6.58203 3.55179V1.05102C6.9043 1.03813 7.22656 1.05102 7.54883 1.10254L8.18047 0.225975C8.34804 0.0196821 8.61879 -0.0576615 8.86371 0.0455062L10.0625 0.535349C10.2946 0.638517 10.4493 0.896329 10.3977 1.15405L10.243 2.21108C10.6554 2.52046 11.0164 2.89433 11.3258 3.30683L12.3957 3.13925C12.6664 3.10054 12.9113 3.25522 13.0144 3.48725L13.5043 4.68616C13.6075 4.931 13.5301 5.20175 13.3238 5.36932L12.4473 6.00096C12.5246 6.51663 12.5246 7.03221 12.4473 7.54783L13.3238 8.17947Z" fill="#1689FC"/>
<path d="M21.5746 13.7886L20.5176 13.5308C20.3887 13.0281 20.1953 12.5511 19.9375 12.1L20.4918 11.1847C20.6336 10.9526 20.5949 10.669 20.4016 10.4757L19.4993 9.57335C19.3059 9.37995 19.0223 9.34132 18.7903 9.48311L17.875 10.0374C17.4239 9.7796 16.947 9.58628 16.4442 9.45733L16.1864 8.40039C16.1219 8.14258 15.8899 7.99219 15.6321 7.99219H14.343C14.0852 7.99219 13.8532 8.14258 13.7887 8.40039L13.5309 9.45733C13.0282 9.58628 12.5512 9.7796 12.1 10.0374L11.1848 9.48311C10.9527 9.34132 10.6692 9.37995 10.4758 9.57335L9.57344 10.4757C9.38012 10.669 9.34141 10.9526 9.4832 11.1847L10.0375 12.1C9.77973 12.5511 9.58637 13.028 9.45747 13.5308L8.40043 13.7886C8.14262 13.8531 7.99219 14.0851 7.99219 14.3429V15.632C7.99219 15.8898 8.14258 16.1218 8.40043 16.1863L9.45747 16.4441C9.58633 16.9468 9.77973 17.4238 10.0375 17.8749L9.4832 18.7902C9.34141 19.0222 9.38012 19.3058 9.57344 19.4992L10.4758 20.4015C10.6692 20.5949 10.9527 20.6336 11.1848 20.4917L12.1 19.9374C12.5512 20.1952 13.0281 20.3886 13.5309 20.5175L13.7887 21.5745C13.8532 21.8323 14.0852 21.9999 14.343 21.9999H15.6321C15.8899 21.9999 16.1219 21.8324 16.1864 21.5745L16.4442 20.5175C16.9469 20.3886 17.4239 20.1952 17.875 19.9374L18.7903 20.4917C19.0224 20.6335 19.3059 20.5949 19.4993 20.4015L20.4017 19.4992C20.595 19.3058 20.6337 19.0222 20.4919 18.7902L19.9376 17.8749C20.1954 17.4238 20.3887 16.9468 20.5176 16.4441L21.5747 16.1863C21.8325 16.1218 22.0001 15.8898 22.0001 15.632V14.3429C22 14.0851 21.8325 13.8531 21.5746 13.7886ZM14.9875 18.2101C13.2086 18.2101 11.7649 16.7663 11.7649 14.9874C11.7649 13.2085 13.2086 11.7648 14.9875 11.7648C16.7665 11.7648 18.2102 13.2085 18.2102 14.9874C18.2102 16.7663 16.7665 18.2101 14.9875 18.2101Z" fill="#B7E0F6"/>
<path d="M21.9988 14.343V15.632C21.9988 15.8898 21.8312 16.1219 21.5734 16.1863L20.5164 16.4441C20.3875 16.9468 20.1941 17.4238 19.9363 17.8749L20.4906 18.7902C20.6324 19.0222 20.5937 19.3058 20.4004 19.4992L19.498 20.4015C19.3046 20.5949 19.0211 20.6336 18.7891 20.4917L17.8738 19.9374C17.4227 20.1952 16.9457 20.3886 16.443 20.5175L16.1852 21.5745C16.1207 21.8324 15.8887 22 15.6309 22H14.9863V18.2101C16.7652 18.2101 18.209 16.7664 18.209 14.9875C18.209 13.2086 16.7652 11.7648 14.9863 11.7648V7.99219H15.6309C15.8887 7.99219 16.1207 8.14258 16.1852 8.40039L16.443 9.45733C16.9457 9.58628 17.4227 9.7796 17.8738 10.0374L18.7891 9.48311C19.0211 9.34132 19.3047 9.37995 19.4981 9.57335L20.4004 10.4757C20.5937 10.669 20.6325 10.9526 20.4907 11.1847L19.9364 12.0999C20.1941 12.5511 20.3875 13.028 20.5164 13.5308L21.5734 13.7886C21.8312 13.8531 21.9988 14.0851 21.9988 14.343Z" fill="#A4D9F5"/>
</svg>
