<svg width="20" height="20" viewBox="0 0 20 20" fill="none" xmlns="http://www.w3.org/2000/svg">
<path d="M10 0C15.5228 0 20 4.47716 20 10C20 15.5228 15.5228 20 10 20C4.47716 20 0 15.5228 0 10C0 4.47716 4.47716 0 10 0Z" fill="#FBB42B"/>
<path d="M10.0007 17.5356C14.1626 17.5356 17.5366 14.1617 17.5366 9.99972C17.5366 5.83778 14.1626 2.46387 10.0007 2.46387C5.83876 2.46387 2.46484 5.83778 2.46484 9.99972C2.46484 14.1617 5.83876 17.5356 10.0007 17.5356Z" fill="#FFE054"/>
<path d="M10.0007 9.25884C9.28728 9.25884 8.70889 8.68045 8.70889 7.96698C8.70889 7.25351 9.28728 6.67513 10.0007 6.67513C10.7142 6.67513 11.2926 7.25351 11.2926 7.96698C11.2926 8.23124 11.5068 8.44545 11.7711 8.44545C12.0353 8.44545 12.2495 8.23124 12.2495 7.96698C12.2401 6.917 11.5052 6.01331 10.4792 5.78995V5.21577C10.4792 4.95151 10.265 4.7373 10.0007 4.7373C9.73649 4.7373 9.52227 4.95151 9.52227 5.21577V5.78995C8.31916 6.09816 7.5937 7.32339 7.90196 8.5265C8.14951 9.49274 9.00397 10.1804 10.0007 10.2158C10.7142 10.2158 11.2926 10.7942 11.2926 11.5076C11.2926 12.2211 10.7142 12.7995 10.0007 12.7995C9.28728 12.7995 8.70889 12.2211 8.70889 11.5076C8.70889 11.2434 8.49468 11.0292 8.23042 11.0292C7.96616 11.0292 7.75195 11.2434 7.75195 11.5076C7.75241 12.5609 8.49129 13.4695 9.52227 13.6847V14.5459C9.52227 14.8102 9.73649 15.0244 10.0007 15.0244C10.265 15.0244 10.4792 14.8102 10.4792 14.5459V13.6847C11.6823 13.3764 12.4078 12.1512 12.0995 10.9481C11.852 9.98187 10.9975 9.29414 10.0007 9.25884Z" fill="#FBB42B"/>
</svg>
