<svg width="30" height="22" viewBox="0 0 30 22" fill="none" xmlns="http://www.w3.org/2000/svg">
<path d="M28.336 21.7241H1.66397C0.744828 21.7241 0 20.9793 0 20.0602V1.66397C0 0.744828 0.744828 0 1.66397 0H28.336C29.2552 0 30 0.744828 30 1.66397V20.0602C30 20.9793 29.2552 21.7241 28.336 21.7241Z" fill="#F0C41B"/>
<rect y="2.58643" width="30" height="4.13793" fill="#806F5E"/>
<path d="M7.75835 10.3465H3.10318C2.81766 10.3465 2.58594 10.1148 2.58594 9.82925C2.58594 9.54374 2.81766 9.31201 3.10318 9.31201H7.75835C8.04387 9.31201 8.27559 9.54374 8.27559 9.82925C8.27559 10.1148 8.04387 10.3465 7.75835 10.3465Z" fill="#F9EAB0"/>
<path d="M14.4849 10.3465H9.82974C9.54422 10.3465 9.3125 10.1148 9.3125 9.82925C9.3125 9.54374 9.54422 9.31201 9.82974 9.31201H14.4849C14.7704 9.31201 15.0022 9.54374 15.0022 9.82925C15.0022 10.1148 14.7704 10.3465 14.4849 10.3465Z" fill="#F9EAB0"/>
<path d="M3.62042 12.929H3.10318C2.81766 12.929 2.58594 12.6973 2.58594 12.4118C2.58594 12.1263 2.81766 11.8945 3.10318 11.8945H3.62042C3.90594 11.8945 4.13766 12.1263 4.13766 12.4118C4.13766 12.6973 3.90594 12.929 3.62042 12.929Z" fill="#F9EAB0"/>
<path d="M6.7236 12.929H5.68912C5.4036 12.929 5.17188 12.6973 5.17188 12.4118C5.17188 12.1263 5.4036 11.8945 5.68912 11.8945H6.7236C7.00912 11.8945 7.24084 12.1263 7.24084 12.4118C7.24084 12.6973 7.00912 12.929 6.7236 12.929Z" fill="#F9EAB0"/>
<path d="M9.30792 12.929H8.79068C8.50516 12.929 8.27344 12.6973 8.27344 12.4118C8.27344 12.1263 8.50516 11.8945 8.79068 11.8945H9.30792C9.59344 11.8945 9.82516 12.1263 9.82516 12.4118C9.82516 12.6973 9.59344 12.929 9.30792 12.929Z" fill="#F9EAB0"/>
<path d="M12.4111 12.929H11.3766C11.0911 12.929 10.8594 12.6973 10.8594 12.4118C10.8594 12.1263 11.0911 11.8945 11.3766 11.8945H12.4111C12.6966 11.8945 12.9283 12.1263 12.9283 12.4118C12.9283 12.6973 12.6966 12.929 12.4111 12.929Z" fill="#F9EAB0"/>
<path d="M14.4821 12.9308C14.3476 12.9308 14.2131 12.874 14.1148 12.7808C14.0217 12.6826 13.9648 12.5533 13.9648 12.4136C13.9648 12.2791 14.0217 12.1446 14.1148 12.0464C14.3062 11.855 14.6528 11.855 14.8493 12.0464C14.9424 12.1446 14.9993 12.2791 14.9993 12.4136C14.9993 12.5481 14.9424 12.6826 14.8493 12.7808C14.7511 12.874 14.6166 12.9308 14.4821 12.9308Z" fill="#F9EAB0"/>
<path d="M23.7928 16.0361C23.7928 17.7502 22.4035 19.1395 20.6894 19.1395C18.9752 19.1395 17.5859 17.7502 17.5859 16.0361C17.5859 14.3219 18.9752 12.9326 20.6894 12.9326C22.4035 12.9326 23.7928 14.3219 23.7928 16.0361Z" fill="#DB2215"/>
<path d="M27.4139 16.0361C27.4139 17.7502 26.0246 19.1395 24.3105 19.1395C22.5963 19.1395 21.207 17.7502 21.207 16.0361C21.207 14.3219 22.5963 12.9326 24.3105 12.9326C26.0246 12.9326 27.4139 14.3219 27.4139 16.0361Z" fill="#245EA9"/>
</svg>
