<svg width="14" height="14" viewBox="0 0 14 14" fill="none" xmlns="http://www.w3.org/2000/svg">
<path d="M13.5936 13.5936C13.0516 14.1355 12.1484 14.1355 11.6065 13.5936L7 8.98711L2.39355 13.5936C1.85163 14.1355 0.948354 14.1355 0.406437 13.5936C-0.135479 13.0516 -0.135479 12.1484 0.406437 11.6065L5.01289 7L0.406437 2.39355C-0.135479 1.85163 -0.135479 0.948354 0.406437 0.406437C0.948354 -0.135479 1.85163 -0.135479 2.39355 0.406437L7 5.01289L11.6065 0.406437C12.1484 -0.135479 13.0516 -0.135479 13.5936 0.406437C14.1355 0.948354 14.1355 1.85163 13.5936 2.39355L8.98711 7L13.5936 11.6065C14.1355 12.1484 14.1355 13.0516 13.5936 13.5936Z" fill="#E24C4B"/>
</svg>
