<svg width="38" height="50" viewBox="0 0 38 50" fill="none" xmlns="http://www.w3.org/2000/svg">
<path d="M36.4794 49.9995H7.5376C6.70459 49.9995 6.0293 49.3242 6.0293 48.4912V10.0591C6.0293 9.22607 6.70459 8.55078 7.5376 8.55078H36.4795C37.3125 8.55078 37.9878 9.22607 37.9878 10.0591V48.4912C37.9877 49.3242 37.3124 49.9995 36.4794 49.9995Z" fill="#BDBDBD"/>
<path d="M33.4657 45.7241H4.52392C3.69092 45.7241 3.01562 45.0488 3.01562 44.2158V5.78369C3.01562 4.95068 3.69092 4.27539 4.52392 4.27539H33.4658C34.2988 4.27539 34.9741 4.95068 34.9741 5.78369V44.2158C34.974 45.0489 34.2987 45.7241 33.4657 45.7241Z" fill="#D4D4D4"/>
<path d="M30.4501 41.4487H1.5083C0.675292 41.4487 0 40.7734 0 39.9404V1.5083C0 0.675292 0.675292 0 1.5083 0H30.4502C31.2832 0 31.9585 0.675292 31.9585 1.5083V39.9404C31.9584 40.7734 31.2831 41.4487 30.4501 41.4487Z" fill="#F5F5F5"/>
<path d="M28.9434 0V41.4487H30.4509C31.2834 41.4487 31.9583 40.7731 31.9583 39.9396V1.50908C31.9583 0.675585 31.2834 0 30.4508 0L28.9434 0Z" fill="#E6E6E6"/>
<path d="M10.5929 33.6065H5.36143C5.13916 33.6065 4.95898 33.4264 4.95898 33.2041V27.9728C4.95898 27.7505 5.13916 27.5703 5.36143 27.5703H10.5928C10.815 27.5703 10.9952 27.7505 10.9952 27.9728V33.2041C10.9953 33.4264 10.8151 33.6065 10.5929 33.6065Z" fill="#FF3D7A"/>
<path d="M14.7539 29.5107H26.8824C27.2869 29.5107 27.6148 29.1828 27.6148 28.7783C27.6148 28.3738 27.2869 28.0459 26.8824 28.0459H14.7539C14.3494 28.0459 14.0215 28.3738 14.0215 28.7783C14.0215 29.1828 14.3493 29.5107 14.7539 29.5107Z" fill="#7488ED"/>
<path d="M26.8824 31.1748H14.7539C14.3494 31.1748 14.0215 31.5027 14.0215 31.9072C14.0215 32.3117 14.3494 32.6396 14.7539 32.6396H26.8824C27.2869 32.6396 27.6148 32.3117 27.6148 31.9072C27.6148 31.5027 27.2869 31.1748 26.8824 31.1748Z" fill="#7488ED"/>
<path d="M15.9753 12.3236C17.9755 12.3236 19.5971 10.7021 19.5971 8.70185C19.5971 6.7016 17.9755 5.08008 15.9753 5.08008C13.975 5.08008 12.3535 6.7016 12.3535 8.70185C12.3535 10.7021 13.975 12.3236 15.9753 12.3236Z" fill="#D47F6C"/>
<path d="M15.9759 5.08008C15.4371 5.08008 14.9264 5.19863 14.4668 5.40957C15.7134 5.98193 16.5795 7.24033 16.5795 8.70176C16.5795 10.1632 15.7134 11.4217 14.4668 11.9939C14.9263 12.2049 15.4371 12.3234 15.9759 12.3234C17.9761 12.3234 19.5977 10.7019 19.5977 8.70166C19.5977 6.70137 17.9761 5.08008 15.9759 5.08008Z" fill="#A65D4E"/>
<path d="M19.1949 22.3846H12.7562C11.4228 22.3846 10.3418 21.3036 10.3418 19.9701V16.5496C10.3418 14.216 12.2336 12.3242 14.5672 12.3242H17.3841C19.7177 12.3242 21.6095 14.216 21.6095 16.5496V19.9701C21.6095 21.3036 20.5284 22.3846 19.1949 22.3846Z" fill="#8C9EFF"/>
<path d="M17.3843 12.3242H14.5674C14.5336 12.3242 14.5003 12.326 14.4668 12.3268C16.7538 12.3804 18.5915 14.2497 18.5915 16.5496V19.9701C18.5915 21.3036 17.5105 22.3846 16.177 22.3846H19.1951C20.5286 22.3846 21.6096 21.3036 21.6096 19.9701V16.5496C21.6097 14.216 19.7179 12.3242 17.3843 12.3242Z" fill="#7488ED"/>
</svg>
