<svg width="20" height="20" viewBox="0 0 20 20" fill="none" xmlns="http://www.w3.org/2000/svg">
<g clip-path="url(#clip0)">
<path d="M9.99967 19.9485C15.5072 19.9485 19.972 15.4838 19.972 9.97623C19.972 4.46867 15.5072 0.00390625 9.99967 0.00390625C4.4921 0.00390625 0.0273438 4.46867 0.0273438 9.97623C0.0273438 15.4838 4.4921 19.9485 9.99967 19.9485Z" fill="#CDD6E0"/>
<path d="M10.0009 17.1658C13.9709 17.1658 17.1892 13.9475 17.1892 9.97743C17.1892 6.0074 13.9709 2.78906 10.0009 2.78906C6.03084 2.78906 2.8125 6.0074 2.8125 9.97743C2.8125 13.9475 6.03084 17.1658 10.0009 17.1658Z" fill="#ACB3BA"/>
<path d="M10.2887 0.0053506C10.0809 0.0053506 9.95629 0.213094 9.95629 0.379313V4.1605C9.95629 4.36824 9.79008 4.53446 9.58233 4.53446C9.37459 4.53446 9.20837 4.36824 9.20837 4.1605V0.379313C9.20837 0.171569 9.08372 0.0053506 8.87597 0.0053506C8.66823 -0.0362137 8.46045 0.171569 8.46045 0.379313V4.1605C8.46045 4.36824 8.29423 4.53446 8.08648 4.53446C7.87874 4.53446 7.71252 4.36824 7.71252 4.1605V0.379313C7.71252 0.171569 7.58787 0.0053506 7.38012 0.0053506C7.17238 -0.0362137 6.9646 0.171569 6.9646 0.379313V4.1605C6.9646 4.36824 6.79838 4.53446 6.59064 4.53446C6.38289 4.53446 6.21667 4.36824 6.21667 4.1605V0.379313C6.21667 0.171569 6.09202 0.0053506 5.88428 0.0053506C5.67653 -0.0362137 5.46875 0.171569 5.46875 0.379313V4.57599C5.46875 5.28235 5.75962 5.90562 6.21667 6.40423C6.9646 7.15216 7.38012 8.19095 7.297 9.22971L6.46598 18.2048C6.46598 18.2879 6.46598 18.4125 6.46598 18.4957C6.54907 19.4098 7.42165 20.0746 8.33579 19.9084C9.16681 19.7422 9.70699 18.9528 9.6239 18.1217L8.83441 9.18818C8.75132 8.10786 9.16681 7.11063 9.91473 6.36271C10.3718 5.90565 10.6627 5.24082 10.6627 4.53446V0.379313C10.6627 0.171569 10.4964 0.0053506 10.2887 0.0053506Z" fill="#F2F2F2"/>
<path d="M8.88013 9.35547H7.3012L6.51172 18.2059C6.51172 18.289 6.51172 18.4136 6.51172 18.4968C6.59481 19.4109 7.46738 20.0757 8.38152 19.9095C9.21253 19.7433 9.75271 18.9539 9.66962 18.1228L8.88013 9.35547Z" fill="#40596B"/>
<path d="M13.8646 0.00390625C13.8646 0.00390625 12.0779 0.710266 11.33 6.07039C11.0391 8.2726 11.4962 10.4333 12.3272 12.4693C12.4103 12.6771 12.4519 12.9264 12.4519 13.1757L11.9533 18.5358C11.9533 18.6189 11.9533 18.702 11.9533 18.7851C12.0364 19.4915 12.6596 20.0316 13.4076 19.9486C14.0724 19.8655 14.5294 19.1591 14.4879 18.4943L13.8646 0.00390625Z" fill="#F2F2F2"/>
<path d="M12.4517 13.1367C12.4517 13.1783 12.4517 13.1783 12.4517 13.2198L11.9531 18.5799C11.9531 18.663 11.9531 18.7461 11.9531 18.8292C12.0362 19.5356 12.6595 20.0758 13.4074 19.9927C14.0722 19.9096 14.5293 19.2032 14.4877 18.5384L14.3215 13.1783H12.4517V13.1367H12.4517Z" fill="#FF7058"/>
</g>
<defs>
<clipPath id="clip0">
<rect width="20" height="20" fill="white"/>
</clipPath>
</defs>
</svg>
