<svg width="18" height="17" viewBox="0 0 18 17" fill="none" xmlns="http://www.w3.org/2000/svg">
<path d="M10.2539 2.8125H12.8133V3.85817H10.2539L10.2539 2.8125Z" fill="#003365"/>
<path d="M6.41346 6.41346H0V0H2.68389L3.20673 0.348557L3.72956 0H6.41346V6.41346Z" fill="#FFD700"/>
<path d="M6.41376 0H3.72987L3.20703 0.348557V6.41346H6.41376V0Z" fill="#FFC200"/>
<path d="M4.01134 15.372C3.23678 15.372 2.60634 14.7414 2.60571 13.9657L2.60547 13.6641H5.41854L5.41878 13.9652C5.41909 14.3407 5.27284 14.6939 5.00696 14.9597C4.74129 15.2253 4.38813 15.3717 4.01249 15.372C4.01211 15.372 4.01172 15.372 4.01134 15.372Z" fill="#DAD0CB"/>
<path d="M14.8493 15.3374C14.1059 15.3374 13.5008 14.7326 13.5002 13.9886L13.5 13.6992H16.1983L16.1985 13.9881C16.1991 14.7315 15.5944 15.3368 14.8505 15.3374C14.8501 15.3374 14.8497 15.3374 14.8493 15.3374Z" fill="#C6BCB7"/>
<path d="M2.68359 0H3.72927V1.91707H2.68359V0Z" fill="#FF9A00"/>
<path d="M12.168 12.0684V5.71755C12.5763 5.30918 12.8053 5.08024 13.2136 4.67188H14.8705L16.0892 11.5292L12.168 12.0684Z" fill="#00B0FF"/>
<path d="M14.012 14.0835H6.97115L4.00841 13.3864L1.04567 14.0835H9.89273e-07V10.4278C-0.00132353 8.79337 1.32755 7.46226 2.96232 7.46094H8.92307V10.0751C8.92325 10.3077 9.01408 10.5267 9.17881 10.6915C9.34316 10.856 9.56142 10.9465 9.79332 10.9465H9.79405H14.012V14.0835Z" fill="#57CAFF"/>
<path d="M9.79602 10.9456C9.56413 10.9456 9.34586 10.8551 9.18152 10.6906C9.01679 10.5258 8.92596 10.3068 8.92578 10.0742V14.0826H14.0147V10.9456H9.79672C9.79648 10.9456 9.7963 10.9456 9.79602 10.9456Z" fill="#00B0FF"/>
<path fill-rule="evenodd" clip-rule="evenodd" d="M1.57073 13.5623C1.57181 14.9079 2.66545 16.0018 4.00906 16.0018H4.01105C4.66268 16.0013 5.27534 15.7473 5.73617 15.2866C6.19738 14.8256 6.45106 14.2129 6.45054 13.5615L6.45012 13.0391H1.57031L1.57073 13.5623ZM4.00677 14.956C3.42394 14.956 2.92334 14.5951 2.71609 14.0846H5.3018C5.23264 14.2555 5.12905 14.4125 4.99458 14.5469C4.731 14.8104 4.38059 14.9557 4.00788 14.956H4.00677Z" fill="#003365"/>
<path fill-rule="evenodd" clip-rule="evenodd" d="M12.4067 13.5623C12.4077 14.9079 13.5021 16.0018 14.8466 16.0018H14.8486C16.1939 16.0007 17.2876 14.906 17.2865 13.5615L17.2861 13.0391H12.4062L12.4067 13.5623ZM14.8442 14.956C14.2607 14.956 13.7595 14.5951 13.552 14.0846H16.137C15.9302 14.5946 15.4292 14.9555 14.8453 14.956H14.8442Z" fill="#000A32"/>
<path d="M17.8511 14.0829H11.8559L11.8555 13.5605C11.8548 12.7603 12.1665 12.0077 12.7332 11.4412C13.2994 10.8752 14.0521 10.5632 14.8526 10.5625H14.8552C16.5058 10.5625 17.8493 11.9065 17.8507 13.5597L17.8511 14.0829Z" fill="#007DFD"/>
<path d="M6.97626 14.0811H1.05078V12.5126C1.0496 11.0726 2.22214 9.89962 3.66455 9.89844H4.36208H4.36427C5.06132 9.89844 5.71699 10.1702 6.21034 10.6639C6.70369 11.1575 6.9757 11.8139 6.97626 12.5122V14.0811Z" fill="#00B0FF"/>
<path d="M13.9108 5.71604H12.168V2.23047H13.9108C14.8717 2.23047 15.6535 3.01228 15.6535 3.97326C15.6535 4.93423 14.8717 5.71604 13.9108 5.71604Z" fill="#007DFD"/>
<path d="M8.39933 8.50421H2.82242C1.95754 8.50421 1.25391 7.80057 1.25391 6.9357C1.25391 6.07082 1.95754 5.36719 2.82242 5.36719H8.39933C9.26421 5.36719 9.96784 6.07082 9.96784 6.9357C9.96784 7.80057 9.26425 8.50421 8.39933 8.50421Z" fill="#004984"/>
<path d="M3.20703 0H3.72987V1.91707H3.20703V0Z" fill="#FF6600"/>
</svg>
