<svg width="16" height="12" viewBox="0 0 16 12" fill="none" xmlns="http://www.w3.org/2000/svg">
<path d="M1.05325e-06 0.856375V11.1429C-0.000245151 11.3016 0.0426769 11.4573 0.123969 11.5925C0.205261 11.7277 0.32172 11.8371 0.460325 11.9085C0.59893 11.9799 0.75422 12.0105 0.908833 11.9968C1.06345 11.9831 1.21129 11.9257 1.33584 11.831L7.53665 7.13318V11.1429C7.53641 11.3016 7.57933 11.4573 7.66062 11.5925C7.74191 11.7277 7.85837 11.8371 7.99698 11.9085C8.13558 11.9799 8.29087 12.0105 8.44549 11.9968C8.6001 11.9831 8.74794 11.9257 8.87249 11.831L15.6611 6.68773C15.7662 6.60807 15.8516 6.50432 15.9105 6.3848C15.9693 6.26528 16 6.13331 16 5.99949C16 5.86566 15.9693 5.7337 15.9105 5.61418C15.8516 5.49466 15.7662 5.39091 15.6611 5.31125L8.87249 0.168243C8.74787 0.0738323 8.60007 0.0166705 8.44556 0.00312791C8.29104 -0.0104147 8.13589 0.0201937 7.99738 0.0915423C7.85888 0.162891 7.74246 0.272177 7.66111 0.407219C7.57976 0.542262 7.53668 0.697758 7.53665 0.856375V4.86608L1.33584 0.168243C1.21122 0.0738323 1.06342 0.0166705 0.908904 0.00312791C0.75439 -0.0104147 0.599234 0.0201937 0.460729 0.0915423C0.322224 0.162891 0.20581 0.272177 0.124461 0.407219C0.0431123 0.542262 2.50523e-05 0.697758 1.05325e-06 0.856375ZM8.65319 1.42313L14.6936 5.99963L8.65319 10.5761V1.42313ZM1.11654 1.42313L7.15699 5.99963L1.11654 10.5761V1.42313Z" fill="#9E9E9E"/>
</svg>
