<svg width="16" height="16" viewBox="0 0 16 16" fill="none" xmlns="http://www.w3.org/2000/svg">
<rect width="16" height="16" rx="4" fill="#F9A825"/>
<path d="M5.14258 11.1621L7.66429 11.1535L13.1683 5.70209C13.3843 5.48609 13.5031 5.19923 13.5031 4.89409C13.5031 4.58895 13.3843 4.30209 13.1683 4.08609L12.262 3.1798C11.83 2.7478 11.0763 2.75009 10.6477 3.17809L5.14258 8.63066V11.1621ZM11.454 3.9878L12.362 4.89237L11.4494 5.79637L10.5431 4.89066L11.454 3.9878ZM6.28544 9.10723L9.73115 5.69409L10.6374 6.60037L7.19229 10.0124L6.28544 10.0152V9.10723Z" fill="white"/>
<path d="M4.00028 13.44H12.0003C12.6306 13.44 13.1431 12.9274 13.1431 12.2972V7.34401L12.0003 8.48687V12.2972H5.80485C5.78999 12.2972 5.77456 12.3029 5.75971 12.3029C5.74085 12.3029 5.72199 12.2977 5.70256 12.2972H4.00028V4.29715H7.91285L9.05571 3.1543H4.00028C3.36999 3.1543 2.85742 3.66687 2.85742 4.29715V12.2972C2.85742 12.9274 3.36999 13.44 4.00028 13.44Z" fill="white"/>
</svg>
