<svg width="22" height="20" viewBox="0 0 22 20" fill="none" xmlns="http://www.w3.org/2000/svg">
<path d="M21.5388 7.69197L20.9078 15.7105H0.631019L0 7.69197L3.58966 5.12793H17.9491L21.5388 7.69197Z" fill="#FEB920"/>
<path d="M21.5389 7.69197L20.9079 15.7105H10.7695V5.12793H17.9493L21.5389 7.69197Z" fill="#FC9B28"/>
<path d="M3.58984 0H17.9493V16.1537H3.58984V0Z" fill="#E6F3FF"/>
<path d="M10.7695 0H17.9493V16.1537H10.7695V0Z" fill="#BBE4F2"/>
<path d="M6.1543 2.44629H10.7697V3.70833H6.1543V2.44629Z" fill="#393E9F"/>
<path d="M6.1543 5.52246H15.3848V6.7845H6.1543V5.52246Z" fill="#393E9F"/>
<path d="M6.1543 8.59961H15.3848V9.86165H6.1543V8.59961Z" fill="#393E9F"/>
<path d="M10.7695 5.52246H15.3848V6.7845H10.7695V5.52246Z" fill="#340D66"/>
<path d="M10.7695 8.59961H15.3848V9.86165H10.7695V8.59961Z" fill="#340D66"/>
<path d="M21.5388 7.69238V20.0002L10.7694 18.9998L0 20.0002V7.69238L8.61551 13.8465H12.9233L21.5388 7.69238Z" fill="#FFCF67"/>
<path d="M21.5389 7.69238V20.0002L10.7695 18.9998V13.8465H12.9234L21.5389 7.69238Z" fill="#FEB920"/>
<path d="M21.5388 19.9997H0L10.7694 12.3076L21.5388 19.9997Z" fill="#FEB920"/>
<path d="M21.5389 19.9997H10.7695V12.3076L21.5389 19.9997Z" fill="#FC9B28"/>
</svg>
