<svg width="20" height="20" viewBox="0 0 20 20" fill="none" xmlns="http://www.w3.org/2000/svg">
<path d="M19.3724 4.37237L15.6276 0.627634C15.2258 0.22577 14.6807 2.97177e-06 14.1124 0H2.14286C0.959375 0 0 0.959375 0 2.14286V17.8571C0 19.0406 0.959375 20 2.14286 20H17.8571C19.0406 20 20 19.0406 20 17.8571V5.88759C20 5.31927 19.7742 4.77423 19.3724 4.37237ZM12.1429 2.14286V5.71429H6.42857V2.14286H12.1429ZM17.5893 17.8571H2.41071C2.33967 17.8571 2.27154 17.8289 2.22131 17.7787C2.17108 17.7285 2.14286 17.6603 2.14286 17.5893V2.41071C2.14286 2.33967 2.17108 2.27154 2.22131 2.22131C2.27154 2.17108 2.33967 2.14286 2.41071 2.14286H4.28571V6.78571C4.28571 7.37746 4.7654 7.85714 5.35714 7.85714H13.2143C13.806 7.85714 14.2857 7.37746 14.2857 6.78571V2.31616L17.7787 5.80915C17.8036 5.83403 17.8233 5.86356 17.8368 5.89606C17.8502 5.92856 17.8571 5.96339 17.8571 5.99857V17.5893C17.8571 17.6603 17.8289 17.7285 17.7787 17.7787C17.7285 17.8289 17.6603 17.8571 17.5893 17.8571ZM10 8.92857C7.8338 8.92857 6.07143 10.6909 6.07143 12.8571C6.07143 15.0233 7.8338 16.7857 10 16.7857C12.1662 16.7857 13.9286 15.0233 13.9286 12.8571C13.9286 10.6909 12.1662 8.92857 10 8.92857ZM10 14.6429C9.01536 14.6429 8.21429 13.8418 8.21429 12.8571C8.21429 11.8725 9.01536 11.0714 10 11.0714C10.9846 11.0714 11.7857 11.8725 11.7857 12.8571C11.7857 13.8418 10.9846 14.6429 10 14.6429Z" fill="black"/>
</svg>
