<svg width="12" height="12" viewBox="0 0 12 12" fill="none" xmlns="http://www.w3.org/2000/svg">
<path d="M6 12C2.6862 12 0 9.3138 0 6C0 2.6862 2.6862 0 6 0C9.3138 0 12 2.6862 12 6C12 9.3138 9.3138 12 6 12ZM4.626 10.6002C4.03405 9.34459 3.69112 7.98613 3.6162 6.6H1.2372C1.35395 7.52334 1.73635 8.3929 2.33794 9.10302C2.93953 9.81315 3.73441 10.3333 4.626 10.6002ZM4.818 6.6C4.9086 8.0634 5.3268 9.438 6 10.6512C6.69139 9.40593 7.09527 8.02169 7.182 6.6H4.818ZM10.7628 6.6H8.3838C8.30888 7.98613 7.96595 9.34459 7.374 10.6002C8.26559 10.3333 9.06047 9.81315 9.66206 9.10302C10.2636 8.3929 10.646 7.52334 10.7628 6.6ZM1.2372 5.4H3.6162C3.69112 4.01387 4.03405 2.65541 4.626 1.3998C3.73441 1.66673 2.93953 2.18685 2.33794 2.89698C1.73635 3.6071 1.35395 4.47666 1.2372 5.4ZM4.8186 5.4H7.1814C7.09485 3.97836 6.69118 2.59412 6 1.3488C5.30861 2.59407 4.90473 3.97831 4.818 5.4H4.8186ZM7.374 1.3998C7.96595 2.65541 8.30888 4.01387 8.3838 5.4H10.7628C10.646 4.47666 10.2636 3.6071 9.66206 2.89698C9.06047 2.18685 8.26559 1.66673 7.374 1.3998Z" fill="black"/>
</svg>
