<svg width="10" height="12" viewBox="0 0 10 12" fill="none" xmlns="http://www.w3.org/2000/svg">
<path d="M2.0125 0C2.3175 0 2.61001 0.12116 2.82567 0.336827C3.04134 0.552494 3.1625 0.845001 3.1625 1.15C3.1625 1.455 3.04134 1.74751 2.82567 1.96317C2.61001 2.17884 2.3175 2.3 2.0125 2.3C1.7075 2.3 1.41499 2.17884 1.19933 1.96317C0.983661 1.74751 0.8625 1.455 0.8625 1.15C0.8625 0.845001 0.983661 0.552494 1.19933 0.336827C1.41499 0.12116 1.7075 0 2.0125 0ZM1.15 2.875H2.875C3.18 2.875 3.47251 2.99616 3.68817 3.21183C3.90384 3.42749 4.025 3.72 4.025 4.025V7.1875H3.1625V11.5H0.8625V7.1875H0V4.025C0 3.72 0.121161 3.42749 0.336827 3.21183C0.552494 2.99616 0.845001 2.875 1.15 2.875Z" fill="#424242"/>
<path d="M7.0125 0C7.3175 0 7.61001 0.12116 7.82567 0.336827C8.04134 0.552494 8.1625 0.845001 8.1625 1.15C8.1625 1.455 8.04134 1.74751 7.82567 1.96317C7.61001 2.17884 7.3175 2.3 7.0125 2.3C6.7075 2.3 6.41499 2.17884 6.19933 1.96317C5.98366 1.74751 5.8625 1.455 5.8625 1.15C5.8625 0.845001 5.98366 0.552494 6.19933 0.336827C6.41499 0.12116 6.7075 0 7.0125 0ZM6.15 2.875H7.875C8.18 2.875 8.47251 2.99616 8.68817 3.21183C8.90384 3.42749 9.025 3.72 9.025 4.025V7.1875H8.1625V11.5H5.8625V7.1875H5V4.025C5 3.72 5.12116 3.42749 5.33683 3.21183C5.55249 2.99616 5.845 2.875 6.15 2.875Z" fill="#424242"/>
</svg>
