<svg width="23" height="22" viewBox="0 0 23 22" fill="none" xmlns="http://www.w3.org/2000/svg">
<path d="M14.6626 6.01258C14.6626 6.10972 14.6519 6.20594 14.6317 6.30002H20.4913V4.9253C20.4913 4.7918 20.3831 4.68359 20.2496 4.68359H14.3859C14.3275 4.76168 14.2607 4.83414 14.186 4.8994L14.1484 4.93223L14.186 4.96506C14.4889 5.22957 14.6626 5.61135 14.6626 6.01258Z" fill="#E1E3EB"/>
<path d="M14.2148 4.93223C14.5159 5.19517 14.7063 5.58153 14.7063 6.01258C14.7063 6.09577 14.6988 6.17712 14.6853 6.25643H15.1849V4.9253C15.1849 4.7918 15.2931 4.68359 15.4266 4.68359H14.4397C14.3745 4.77489 14.2992 4.85855 14.2148 4.93223Z" fill="#DDF1FF"/>
<path d="M20.7642 12.8594H15.1564L14.8359 12.903V16.8591H21.0704V12.903L20.7642 12.8594Z" fill="#50BCFB"/>
<path d="M21.041 7.99485L20.4913 6.25391H14.64C14.6091 6.42642 14.5463 6.59249 14.4526 6.74312L14.4355 6.77041L14.8369 7.23276V10.0277L15.1385 10.0713H20.776C20.8745 10.0573 20.973 10.0432 21.0713 10.0277V8.19174C21.0714 8.12495 21.0611 8.05855 21.041 7.99485Z" fill="#50BCFB"/>
<path d="M17.1547 8.72128C16.6742 8.72128 16.2845 8.33169 16.2845 7.85107C16.2845 7.6932 16.3272 7.54562 16.4007 7.41797C16.193 7.57701 16.0586 7.8267 16.0586 8.10843C16.0586 8.589 16.4482 8.97864 16.9288 8.97864C17.2516 8.97864 17.5326 8.8025 17.6828 8.54153C17.5363 8.65383 17.3536 8.72128 17.1547 8.72128Z" fill="#35A9EF"/>
<path d="M14.8379 10.0312H21.0724V12.9059H14.8379V10.0312Z" fill="#E1E3EB"/>
<path d="M17.1554 8.7248C17.636 8.7248 18.0256 8.33519 18.0256 7.85459C18.0256 7.37398 17.636 6.98438 17.1554 6.98438C16.6748 6.98438 16.2852 7.37398 16.2852 7.85459C16.2852 8.33519 16.6748 8.7248 17.1554 8.7248Z" fill="white"/>
<path d="M16.7551 7.85459C16.7551 7.45554 17.024 7.12001 17.3903 7.01738C17.3155 6.99641 17.2369 6.98438 17.1554 6.98438C16.6748 6.98438 16.2852 7.37396 16.2852 7.85459C16.2852 8.33516 16.6747 8.7248 17.1554 8.7248C17.2369 8.7248 17.3155 8.71277 17.3903 8.69179C17.024 8.58917 16.7551 8.25364 16.7551 7.85459Z" fill="#EAF6FF"/>
<path d="M8.76921 1.75251L8.77501 1.75238C8.80971 1.75238 8.84193 1.76607 8.86578 1.79096C8.88962 1.81585 8.90192 1.84881 8.90039 1.88365C8.87916 2.37186 8.64077 2.87803 8.24643 3.27241C8.15274 3.3661 8.05028 3.45286 7.94203 3.53034L7.86133 3.58806L7.95846 3.60846C8.18299 3.65564 8.38302 3.77191 8.53683 3.94473L8.54886 3.95829L8.56696 3.95929C8.61692 3.96208 8.6634 3.96679 8.70904 3.97372L8.7757 3.9838L8.75752 3.91883C8.68685 3.66636 8.69043 3.40783 8.76707 3.18678C8.94883 3.20087 9.13395 3.26448 9.30446 3.37177L9.3491 3.39989L9.36824 3.35071C9.56151 2.85418 10.0286 2.50766 10.5583 2.46786L10.6062 2.46424L10.598 2.41694C10.5841 2.3368 10.5771 2.25628 10.5771 2.17767C10.5771 1.77487 10.7494 1.41166 11.024 1.15748C10.7616 0.868779 10.3831 0.6875 9.96226 0.6875C9.29042 0.6875 8.72666 1.14951 8.57088 1.77313C8.63711 1.76253 8.70333 1.75538 8.76921 1.75251Z" fill="#8BC727"/>
<path d="M9.31055 3.37527C9.47827 3.48239 9.62885 3.62993 9.74517 3.80759C9.80944 3.90568 9.86206 4.01102 9.90165 4.12058L9.94263 4.23411L9.98361 4.12058C10.0232 4.01097 10.0758 3.90568 10.1401 3.80759C10.3741 3.45022 10.7466 3.21422 11.1188 3.18541C11.1954 3.40636 11.199 3.66494 11.1283 3.91746L11.1101 3.98242L11.1768 3.97235C11.2514 3.96105 11.327 3.9553 11.4014 3.9553C11.7152 3.9553 12.0132 4.05854 12.2247 4.2396C12.1713 4.34977 12.0967 4.45292 12.0028 4.54657L11.9632 4.58611L12.0113 4.61489C12.7188 5.03814 13.1583 5.80916 13.1583 6.62697C13.1583 6.70143 13.1545 6.7783 13.1469 6.85551L13.1451 6.87417L13.5696 7.36325L14.2579 6.57021L14.4648 6.80855C14.6167 6.58102 14.7053 6.30766 14.7053 6.01359C14.7053 5.5825 14.5149 5.19613 14.2138 4.93324C14.5149 4.6703 14.7053 4.28394 14.7053 3.85289C14.7053 3.09738 14.1211 2.47882 13.3798 2.42314C13.3937 2.34297 13.4014 2.26061 13.4014 2.17647C13.4014 1.38434 12.7593 0.742188 11.9671 0.742188C11.175 0.742188 10.5329 1.38434 10.5329 2.17647C10.5329 2.26065 10.5405 2.34297 10.5544 2.42314C9.97751 2.4663 9.49579 2.85075 9.31055 3.37527Z" fill="#97D729"/>
<path d="M12.2252 4.23633C12.1632 4.36415 12.0732 4.481 11.9625 4.58162C12.0797 4.64771 12.1909 4.7234 12.2946 4.80798V2.78792C12.2946 2.60734 12.1482 2.46094 11.9676 2.46094C11.787 2.46094 11.6406 2.60734 11.6406 2.78792V3.9726C11.8638 4.01092 12.0683 4.10209 12.2252 4.23633Z" fill="#BBEC6C"/>
<path d="M6.98017 3.58284C7.25087 3.14948 7.41497 2.58284 7.41497 1.96249C7.41497 1.19547 7.16428 0.510421 6.7712 0.0581376C6.7038 -0.0193792 6.58417 -0.0193792 6.51681 0.0581376C6.12373 0.510421 5.87305 1.19547 5.87305 1.96249C5.87305 2.58284 6.03715 3.14948 6.30785 3.58284H6.98017Z" fill="#017B4E"/>
<path d="M5.3706 3.59886C5.43002 3.5887 5.49062 3.58338 5.55196 3.58338H6.58275C6.51434 3.16467 6.29618 2.73188 5.9382 2.3739C5.52044 1.95614 5.00076 1.72808 4.52053 1.7072C4.42073 1.70284 4.3396 1.78402 4.34391 1.88381C4.3648 2.36404 4.59286 2.88373 5.01061 3.30148C5.12397 3.41488 5.24504 3.51376 5.3706 3.59886Z" fill="#026841"/>
<path d="M7.73781 3.58338C7.79911 3.58338 7.85971 3.58875 7.91914 3.59886C8.0447 3.51376 8.16577 3.41488 8.27917 3.30148C8.69692 2.88373 8.92498 2.36404 8.94586 1.88381C8.95022 1.78402 8.86904 1.70284 8.76925 1.7072C8.28902 1.72808 7.76933 1.95614 7.35158 2.3739C6.9936 2.73188 6.77539 3.16467 6.70703 3.58338H7.73781Z" fill="#026841"/>
<path d="M4.77434 6.74319L5.31155 7.36211L5.99991 6.56906L6.68828 7.36211L7.3766 6.56906L8.06501 7.36211L8.49445 6.86736L8.8383 4.84237C8.95405 4.16085 8.42892 3.53906 7.73763 3.53906H5.55225C4.86101 3.53906 4.33588 4.1609 4.45158 4.84237L4.77434 6.74319Z" fill="#FE860A"/>
<path d="M4.7603 6.66049L5.31155 7.29558L5.99991 6.50253L6.11963 6.64048L5.81432 4.84237C5.69861 4.16085 6.2237 3.53906 6.91499 3.53906H5.55225C4.86101 3.53906 4.33588 4.1609 4.45158 4.84237L4.7603 6.66049Z" fill="#FE7701"/>
<path d="M11.9961 4.55078C11.8122 4.72988 11.5648 4.86229 11.2902 4.91957C11.1881 4.94085 11.0846 4.95166 10.9823 4.95166C10.783 4.95166 10.5876 4.9102 10.4174 4.83177L10.3986 4.82309L10.3799 4.8322C10.2406 4.90061 10.0972 4.94024 9.95394 4.94996L9.94191 4.95079L9.9358 4.94996C9.79254 4.94024 9.64919 4.90061 9.50981 4.8322L9.49119 4.82309L9.47232 4.83177C9.30211 4.9102 9.10675 4.95166 8.90742 4.95166C8.80518 4.95166 8.70159 4.94085 8.59953 4.91957C8.32487 4.86229 8.07749 4.72988 7.89364 4.55078C7.17371 4.96295 6.68555 5.73865 6.68555 6.62329C6.68555 6.84411 6.71659 7.05796 6.7734 7.2613L7.37644 6.56648L8.06485 7.35952L8.75321 6.56648L9.44154 7.35952L10.1299 6.56648L10.8183 7.35952L11.5066 6.56648L12.195 7.35952L12.8834 6.56648L13.1855 6.91456C13.1973 6.819 13.2041 6.72195 13.2041 6.62329C13.2041 5.73865 12.7159 4.96295 11.9961 4.55078Z" fill="#FD4755"/>
<path d="M8.05822 6.62375C8.05822 5.98984 8.30917 5.41208 8.71598 4.98356C8.67439 4.97833 8.63258 4.97144 8.59059 4.96267C8.29443 4.9009 8.03995 4.75986 7.85375 4.57422C7.15566 4.99189 6.68555 5.75546 6.68555 6.62375C6.68555 6.82635 6.71131 7.02324 6.7594 7.2114L7.37648 6.50046L8.06485 7.2935L8.13291 7.21511C8.08421 7.02581 8.05822 6.82766 8.05822 6.62375Z" fill="#E41F2D"/>
<path d="M11.1724 3.92211C11.2494 3.64687 11.2409 3.36828 11.1507 3.13281C10.7659 3.15034 10.3645 3.38136 10.1057 3.77662C10.0377 3.88047 9.98441 3.98885 9.94473 4.09868C9.90506 3.98885 9.85174 3.88047 9.78377 3.77662C9.52497 3.38136 9.12357 3.15034 8.73878 3.13281C8.64857 3.36828 8.64003 3.64687 8.71706 3.92211C8.28579 3.8568 7.87606 3.97787 7.60938 4.22132C7.76633 4.57306 8.12806 4.86229 8.59054 4.95877C8.91513 5.02648 9.23191 4.98698 9.49049 4.86787C9.63388 4.93824 9.78425 4.97992 9.93274 4.98999C9.93296 4.9906 9.93314 4.99125 9.9334 4.99186C9.93719 4.99169 9.94098 4.99117 9.94478 4.99095C9.94857 4.99117 9.95236 4.99169 9.95616 4.99186C9.95637 4.99125 9.95655 4.9906 9.95681 4.98999C10.1053 4.97992 10.2557 4.93824 10.3991 4.86787C10.6576 4.98698 10.9744 5.02648 11.299 4.95877C11.7615 4.86229 12.1232 4.57311 12.2802 4.22132C12.0134 3.97787 11.6037 3.8568 11.1724 3.92211Z" fill="#017B4E"/>
<path d="M8.07678 4.67299C8.34351 4.42954 8.7532 4.30843 9.18447 4.37374C9.10743 4.0985 9.11597 3.81991 9.20618 3.58444C9.39958 3.59325 9.59712 3.65607 9.77866 3.76651C9.51965 3.37757 9.12212 3.15021 8.74073 3.13281C8.65052 3.36828 8.64198 3.64687 8.71902 3.92211C8.28775 3.8568 7.87802 3.97787 7.61133 4.22136C7.71143 4.44572 7.89515 4.64439 8.13489 4.78408C8.1134 4.74785 8.09369 4.71088 8.07678 4.67299Z" fill="#026841"/>
<path d="M8.72927 17.647H8.42814C8.21176 17.647 8.03576 17.4709 8.03576 17.2546C8.03576 17.0382 8.21176 16.8622 8.42814 16.8622H9.27058L9.26678 16.8151C9.25985 16.7298 9.25649 16.6543 9.25649 16.5844C9.25649 15.2774 10.1366 14.214 11.2184 14.214C12.3002 14.214 13.1803 15.2774 13.1803 16.5844C13.1803 16.6543 13.1769 16.7298 13.17 16.8151L13.1662 16.8622H13.5432L13.5394 16.8151C13.5324 16.7298 13.5291 16.6543 13.5291 16.5844C13.5291 15.5348 14.0968 14.643 14.8806 14.3321V7.22022L14.2589 6.50391L13.5705 7.29695L12.8821 6.50391L12.1938 7.29695L11.5054 6.50391L10.817 7.29695L10.1287 6.50391L9.4403 7.29695L8.75194 6.50391L8.06357 7.29695L7.37521 6.50391L6.68684 7.29695L5.99848 6.50391L5.31011 7.29695L4.62175 6.50391L4 7.22022V17.6075C4.48053 18.3139 5.04552 18.9603 5.68091 19.533H9.36313L8.72927 17.647Z" fill="#FFB97E"/>
<path d="M5.83111 6.69283L5.31011 7.29304L4.62175 6.5L4 7.21631V17.6036C4.48058 18.3099 5.04556 18.9563 5.68096 19.529H5.83111V6.69283Z" fill="#F4A05D"/>
<path d="M9.59538 15.2553C9.94865 14.6274 10.5445 14.2141 11.2189 14.2141C11.3055 14.2141 11.3905 14.2217 11.4741 14.2348C11.7852 13.8146 11.9694 13.2948 11.9694 12.7318C11.9694 11.3353 10.8373 10.2031 9.44078 10.2031C8.04426 10.2031 6.91211 11.3353 6.91211 12.7318C6.91211 14.1283 8.04426 15.2605 9.44078 15.2605C9.49275 15.2605 9.54419 15.2584 9.59538 15.2553Z" fill="white"/>
<path d="M9.54345 15.2542C9.5901 15.1691 9.64115 15.0878 9.69618 15.0106C8.84371 14.6042 8.25422 13.7353 8.25422 12.7279C8.25422 11.5638 9.04112 10.584 10.1118 10.2899C9.89803 10.2312 9.6732 10.1992 9.44078 10.1992C8.04426 10.1992 6.91211 11.3314 6.91211 12.7279C6.91211 14.1244 8.04426 15.2566 9.44078 15.2566C9.47518 15.2566 9.5094 15.2556 9.54345 15.2542Z" fill="#EAF6FF"/>
<path d="M13.2103 16.8636C13.219 16.7724 13.2239 16.6798 13.2239 16.5859C13.2239 15.2527 12.326 14.1719 11.2184 14.1719C10.1108 14.1719 9.21289 15.2527 9.21289 16.5859C9.21289 16.6799 9.21782 16.7724 9.22649 16.8636H13.2103Z" fill="#F6A96C"/>
<path d="M10.5305 16.82C10.5244 16.7429 10.5208 16.6649 10.5208 16.5859C10.5208 15.5284 11.086 14.6303 11.8724 14.3038C11.6673 14.2187 11.4475 14.1719 11.2184 14.1719C10.1108 14.1719 9.21289 15.2527 9.21289 16.5859C9.21289 16.6649 9.21629 16.743 9.22244 16.82H10.5305Z" fill="#D88A55"/>
<path d="M17.4818 16.8636C17.4904 16.7724 17.4954 16.6798 17.4954 16.5859C17.4954 15.2527 16.5975 14.1719 15.4899 14.1719C14.3823 14.1719 13.4844 15.2527 13.4844 16.5859C13.4844 16.6799 13.4893 16.7724 13.498 16.8636H17.4818Z" fill="#F6A96C"/>
<path d="M14.802 16.82C14.7959 16.7429 14.7923 16.6649 14.7923 16.5859C14.7923 15.5284 15.3575 14.6303 16.1438 14.3038C15.9388 14.2187 15.7189 14.1719 15.4899 14.1719C14.3823 14.1719 13.4844 15.2527 13.4844 16.5859C13.4844 16.6649 13.4878 16.743 13.4939 16.82H14.802Z" fill="#D88A55"/>
<path d="M21.7552 16.8636C21.7639 16.7724 21.7688 16.6798 21.7688 16.5859C21.7688 15.2527 20.8709 14.1719 19.7633 14.1719C18.6557 14.1719 17.7578 15.2527 17.7578 16.5859C17.7578 16.6799 17.7627 16.7724 17.7714 16.8636H21.7552Z" fill="#F6A96C"/>
<path d="M19.0755 16.82C19.0693 16.7429 19.0657 16.6649 19.0657 16.5859C19.0657 15.5284 19.6309 14.6303 20.4173 14.3038C20.2122 14.2187 19.9924 14.1719 19.7633 14.1719C18.6557 14.1719 17.7578 15.2527 17.7578 16.5859C17.7578 16.6649 17.7612 16.743 17.7674 16.82H19.0755Z" fill="#D88A55"/>
<path d="M8.68359 17.6445L9.37492 19.7017C9.43457 19.8793 9.60093 19.9988 9.78819 19.9988H21.1943C21.3816 19.9988 21.5479 19.8792 21.6076 19.7017L22.2989 17.6445H8.68359Z" fill="#9DDAFF"/>
<path d="M11.4468 19.705L10.7701 17.6914H8.69922L9.3759 19.705C9.43554 19.8825 9.60191 20.0021 9.78916 20.0021H11.8601C11.6728 20.0021 11.5064 19.8825 11.4468 19.705Z" fill="#73CAFF"/>
<path d="M22.5538 17.6884H8.42817C8.18737 17.6884 7.99219 17.4932 7.99219 17.2524C7.99219 17.0116 8.18737 16.8164 8.42817 16.8164H22.5538C22.7946 16.8164 22.9898 17.0116 22.9898 17.2524C22.9898 17.4932 22.7946 17.6884 22.5538 17.6884Z" fill="#D2EBFE"/>
<path d="M10.7824 17.2524C10.7824 17.0116 10.9776 16.8164 11.2184 16.8164H8.42817C8.18737 16.8164 7.99219 17.0116 7.99219 17.2524C7.99219 17.4932 8.18737 17.6884 8.42817 17.6884H11.2184C10.9776 17.6884 10.7824 17.4932 10.7824 17.2524Z" fill="#9DDAFF"/>
<circle cx="6" cy="16" r="6" fill="#E1E3EB"/>
<path d="M9.20218 13.5691H4.68113V12.8066C4.68113 12.2995 4.07155 12.0425 3.71664 12.4024L2.39801 13.7368C2.17723 13.9603 2.17723 14.3225 2.39801 14.5459L3.71664 15.8803C4.07004 16.238 4.68113 15.9879 4.68113 15.4762V14.7137H9.20218C9.51413 14.7137 9.76731 14.4574 9.76731 14.1418C9.76731 13.8253 9.51413 13.5691 9.20218 13.5691Z" fill="#607D8B"/>
<path d="M9.76731 14.0938H2.23242C2.23242 14.2438 2.28743 14.3938 2.39819 14.5079L3.71679 15.8753C3.83132 15.9941 3.97298 16.0472 4.11238 16.0472C4.40247 16.0472 4.68201 15.8152 4.68201 15.4604V14.679H9.20294C9.51413 14.6798 9.76731 14.4172 9.76731 14.0938Z" fill="#546D79"/>
<path d="M9.60172 17.517L8.28308 16.2149C7.92517 15.8623 7.31859 16.1167 7.31859 16.6093V17.3533H2.79755C2.4856 17.3533 2.23242 17.6033 2.23242 17.9114C2.23242 18.2194 2.4856 18.4694 2.79755 18.4694H7.31859V19.2134C7.31859 19.7112 7.92969 19.9575 8.28308 19.6078L9.60172 18.3057C9.8225 18.0877 9.8225 17.735 9.60172 17.517Z" fill="#607D8B"/>
<path d="M9.76731 17.9102H2.23242C2.23242 18.2182 2.48559 18.4683 2.79754 18.4683H7.31847V19.2125C7.31847 19.5496 7.59801 19.7706 7.88886 19.7706C8.0275 19.7706 8.16916 19.72 8.28369 19.6069L9.60229 18.3046C9.7123 18.1959 9.76731 18.053 9.76731 17.9102Z" fill="#546D79"/>
</svg>
