<svg width="16" height="20" viewBox="0 0 16 20" fill="none" xmlns="http://www.w3.org/2000/svg">
    <path d="M5.5172 2.75781H0V19.9991H15.1724V2.75781H9.65514" fill="#4DAAF5"/>
    <path d="M13.7927 4.13672H1.37891V18.6194H13.7927V4.13672Z" fill="#B7E5FF"/>
    <path d="M9.65608 4.13793V2.06897C9.65608 0.926203 8.72988 0 7.58711 0C6.44435 0 5.51815 0.926203 5.51815 2.06897V4.13793H3.44922V6.2069H11.725V4.13793H9.65608ZM7.58711 1.37931C7.96814 1.37931 8.27677 1.68794 8.27677 2.06897C8.27677 2.44999 7.96814 2.75862 7.58711 2.75862C7.20608 2.75862 6.89746 2.44999 6.89746 2.06897C6.89746 1.68794 7.20608 1.37931 7.58711 1.37931Z" fill="#FEC007"/>
    <path d="M5.41817 9.31115H6.10783V8.6215H6.79748V7.93184H6.10783V7.24219H5.41817V7.93184H4.72852V8.6215H5.41817V9.31115Z" fill="#3F51B4"/>
    <path d="M9.27889 8.61934H9.43783H9.64494H10.3346V7.92969H9.64494L9.49744 7.92971L9.25902 7.92969H8.95528H8.26562V8.61934H8.95528H9.27889Z" fill="#3F51B4"/>
    <path d="M12.0799 10.6914H3.09961V11.3669H12.0799V10.6914Z" fill="#2195F2"/>
    <path d="M12.069 12.0703H3.10352V12.76H12.069V12.0703Z" fill="#2195F2"/>
    <path d="M12.069 13.4492H3.10352V14.1389H12.069V13.4492Z" fill="#2195F2"/>
    <path d="M12.069 14.8281H3.10352V15.5178H12.069V14.8281Z" fill="#2195F2"/>
    <path d="M9.31038 16.2109H3.10352V16.9006H9.31038V16.2109Z" fill="#2195F2"/>
</svg>
