<svg width="20" height="20" viewBox="0 0 20 20" fill="none" xmlns="http://www.w3.org/2000/svg">
<g clip-path="url(#clip0)">
<path d="M5 7.08203H0.833333C0.373333 7.08203 0 7.45536 0 7.91536V12.082C0 12.542 0.373333 12.9154 0.833333 12.9154H5C5.46 12.9154 5.83333 12.542 5.83333 12.082V7.91536C5.83333 7.45536 5.46 7.08203 5 7.08203Z" fill="#90CAF9"/>
<path d="M12.9173 12.082V7.91536C12.9173 7.45536 12.544 7.08203 12.084 7.08203H7.91732C7.45732 7.08203 7.08398 7.45536 7.08398 7.91536V12.082C7.08398 12.542 7.45732 12.9154 7.91732 12.9154H12.084C12.544 12.9154 12.9173 12.542 12.9173 12.082Z" fill="#90CAF9"/>
<path d="M12.9173 5V0.833333C12.9173 0.373333 12.544 0 12.084 0H7.91732C7.45732 0 7.08398 0.373333 7.08398 0.833333V5C7.08398 5.46 7.45732 5.83333 7.91732 5.83333H12.084C12.544 5.83333 12.9173 5.46 12.9173 5Z" fill="#90CAF9"/>
<path d="M5 0H0.833333C0.373333 0 0 0.373333 0 0.833333V5C0 5.46 0.373333 5.83333 0.833333 5.83333H5C5.46 5.83333 5.83333 5.46 5.83333 5V0.833333C5.83333 0.373333 5.46 0 5 0Z" fill="#90CAF9"/>
<path d="M0 15.0013V19.168C0 19.628 0.373333 20.0013 0.833333 20.0013H5C5.46 20.0013 5.83333 19.628 5.83333 19.168V15.0013C5.83333 14.5413 5.46 14.168 5 14.168H0.833333C0.373333 14.168 0 14.5413 0 15.0013Z" fill="#90CAF9"/>
<path d="M7.08398 15.0013V19.168C7.08398 19.628 7.45732 20.0013 7.91732 20.0013H12.084C12.544 20.0013 12.9173 19.628 12.9173 19.168V15.0013C12.9173 14.5413 12.544 14.168 12.084 14.168H7.91732C7.45732 14.168 7.08398 14.5413 7.08398 15.0013Z" fill="#90CAF9"/>
<path d="M14.166 12.9154V14.1654V19.1654C14.166 19.6254 14.5385 19.9987 14.9993 19.9987H19.166C19.6268 19.9987 19.9993 19.6254 19.9993 19.1654V7.91536C19.9993 7.45536 19.6268 7.08203 19.166 7.08203H14.9993C14.5385 7.08203 14.166 7.45536 14.166 7.91536V12.9154Z" fill="#42A5F5"/>
<path d="M19.166 0H14.9993C14.5385 0 14.166 0.373333 14.166 0.833333V5C14.166 5.46 14.5385 5.83333 14.9993 5.83333H19.166C19.6268 5.83333 19.9993 5.46 19.9993 5V0.833333C19.9993 0.373333 19.6268 0 19.166 0Z" fill="#42A5F5"/>
<path d="M17.0827 7.08203H14.9993C14.5385 7.08203 14.166 7.45536 14.166 7.91536V12.9154V14.1654V19.1654C14.166 19.6254 14.5385 19.9987 14.9993 19.9987H17.0827V7.08203Z" fill="#3990D5"/>
<path d="M17.0827 0H14.9993C14.5385 0 14.166 0.373333 14.166 0.833333V5C14.166 5.46 14.5385 5.83333 14.9993 5.83333H17.0827V0Z" fill="#3990D5"/>
<path d="M10.0007 14.168H7.91732C7.45648 14.168 7.08398 14.5413 7.08398 15.0013V19.168C7.08398 19.628 7.45648 20.0013 7.91732 20.0013H10.0007V14.168Z" fill="#64B5F6"/>
<path d="M10.0007 7.08203H7.91732C7.45648 7.08203 7.08398 7.45536 7.08398 7.91536V12.082C7.08398 12.542 7.45648 12.9154 7.91732 12.9154H10.0007V7.08203Z" fill="#64B5F6"/>
<path d="M2.91667 14.168H0.833333C0.3725 14.168 0 14.5413 0 15.0013V19.168C0 19.628 0.3725 20.0013 0.833333 20.0013H2.91667V14.168Z" fill="#64B5F6"/>
<path d="M2.91667 7.08203H0.833333C0.3725 7.08203 0 7.45536 0 7.91536V12.082C0 12.542 0.3725 12.9154 0.833333 12.9154H2.91667V7.08203Z" fill="#64B5F6"/>
<path d="M10.0007 0H7.91732C7.45648 0 7.08398 0.373333 7.08398 0.833333V5C7.08398 5.46 7.45648 5.83333 7.91732 5.83333H10.0007V0Z" fill="#64B5F6"/>
<path d="M2.91667 0H0.833333C0.3725 0 0 0.373333 0 0.833333V5C0 5.46 0.3725 5.83333 0.833333 5.83333H2.91667V0Z" fill="#64B5F6"/>
</g>
<defs>
<clipPath id="clip0">
<rect width="20" height="20" fill="white"/>
</clipPath>
</defs>
</svg>
