<svg width="23" height="22" viewBox="0 0 23 22" fill="none" xmlns="http://www.w3.org/2000/svg">
    <path d="M19.75 15.6058V12.5C19.75 12.1022 19.592 11.7206 19.3107 11.4393C19.0294 11.158 18.6478 11 18.25 11H12.25V8H13.75C14.1477 7.9996 14.529 7.84144 14.8102 7.56022C15.0914 7.279 15.2496 6.8977 15.25 6.5V2C15.2496 1.6023 15.0914 1.221 14.8102 0.939778C14.529 0.65856 14.1477 0.500397 13.75 0.5H9.25001C8.85231 0.500397 8.47101 0.65856 8.18979 0.939778C7.90857 1.221 7.75041 1.6023 7.75001 2V6.5C7.75041 6.8977 7.90857 7.279 8.18979 7.56022C8.47101 7.84144 8.85231 7.9996 9.25001 8H10.75V11H4.75001C4.35218 11 3.97065 11.158 3.68935 11.4393C3.40804 11.7206 3.25001 12.1022 3.25001 12.5V15.6065C2.54301 15.789 1.92687 16.2232 1.51706 16.8275C1.10725 17.4318 0.931912 18.1649 1.02392 18.8893C1.11592 19.6136 1.46895 20.2795 2.01683 20.7622C2.56471 21.2449 3.26983 21.5112 4.00001 21.5112C4.73019 21.5112 5.4353 21.2449 5.98318 20.7622C6.53106 20.2795 6.88409 19.6136 6.9761 18.8893C7.0681 18.1649 6.89277 17.4318 6.48296 16.8275C6.07315 16.2232 5.457 15.789 4.75001 15.6065V12.5H10.75V15.6065C10.043 15.789 9.42687 16.2232 9.01706 16.8275C8.60725 17.4318 8.43191 18.1649 8.52392 18.8893C8.61593 19.6136 8.96895 20.2795 9.51683 20.7622C10.0647 21.2449 10.7698 21.5112 11.5 21.5112C12.2302 21.5112 12.9353 21.2449 13.4832 20.7622C14.0311 20.2795 14.3841 19.6136 14.4761 18.8893C14.5681 18.1649 14.3928 17.4318 13.983 16.8275C13.5732 16.2232 12.957 15.789 12.25 15.6065V12.5H18.25V15.6058C17.543 15.7883 16.9269 16.2224 16.5171 16.8268C16.1072 17.4311 15.9319 18.1641 16.0239 18.8885C16.1159 19.6129 16.469 20.2788 17.0168 20.7615C17.5647 21.2442 18.2698 21.5105 19 21.5105C19.7302 21.5105 20.4353 21.2442 20.9832 20.7615C21.5311 20.2788 21.8841 19.6129 21.9761 18.8885C22.0681 18.1641 21.8928 17.4311 21.483 16.8268C21.0732 16.2224 20.457 15.7883 19.75 15.6058ZM9.25001 2H13.75L13.7508 6.5H9.25001V2ZM5.50001 18.5C5.50001 18.7967 5.41203 19.0867 5.24721 19.3334C5.08239 19.58 4.84812 19.7723 4.57403 19.8858C4.29994 19.9994 3.99834 20.0291 3.70737 19.9712C3.4164 19.9133 3.14913 19.7704 2.93935 19.5607C2.72957 19.3509 2.58671 19.0836 2.52883 18.7926C2.47095 18.5017 2.50066 18.2001 2.61419 17.926C2.72772 17.6519 2.91998 17.4176 3.16665 17.2528C3.41333 17.088 3.70334 17 4.00001 17C4.39771 17.0004 4.77901 17.1586 5.06023 17.4398C5.34145 17.721 5.49961 18.1023 5.50001 18.5ZM13 18.5C13 18.7967 12.912 19.0867 12.7472 19.3334C12.5824 19.58 12.3481 19.7723 12.074 19.8858C11.7999 19.9994 11.4983 20.0291 11.2074 19.9712C10.9164 19.9133 10.6491 19.7704 10.4393 19.5607C10.2296 19.3509 10.0867 19.0836 10.0288 18.7926C9.97095 18.5017 10.0007 18.2001 10.1142 17.926C10.2277 17.6519 10.42 17.4176 10.6667 17.2528C10.9133 17.088 11.2033 17 11.5 17C11.8977 17.0006 12.2788 17.1588 12.56 17.44C12.8412 17.7212 12.9994 18.1024 13 18.5ZM19 20C18.7033 20 18.4133 19.912 18.1667 19.7472C17.92 19.5824 17.7277 19.3481 17.6142 19.074C17.5007 18.7999 17.471 18.4983 17.5288 18.2074C17.5867 17.9164 17.7296 17.6491 17.9394 17.4393C18.1491 17.2296 18.4164 17.0867 18.7074 17.0288C18.9983 16.9709 19.2999 17.0006 19.574 17.1142C19.8481 17.2277 20.0824 17.42 20.2472 17.6666C20.412 17.9133 20.5 18.2033 20.5 18.5C20.4996 18.8977 20.3415 19.279 20.0602 19.5602C19.779 19.8414 19.3977 19.9996 19 20Z" fill="#7C4DFF" stroke="#7C4DFF" stroke-width="0.4"/>
</svg>
