<svg width="21" height="20" viewBox="0 0 21 20" fill="none" xmlns="http://www.w3.org/2000/svg">
<path d="M19.6683 19H0.333361C0.149251 19 0 19.1493 0 19.3334V19.6667C0 19.8508 0.149251 20.0001 0.333361 20.0001H19.6683C19.8524 20.0001 20.0017 19.8508 20.0017 19.6667V19.3334C20.0017 19.1493 19.8524 19 19.6683 19Z" fill="#57565C"/>
<path d="M9.66738 9.66602H10.3341C12.6328 9.66602 14.8374 10.5792 16.4629 12.2046C18.0883 13.8301 19.0015 16.0347 19.0015 18.3334V19.0001H1V18.3334C1 16.0347 1.91317 13.8301 3.53862 12.2046C5.16407 10.5792 7.36865 9.66602 9.66738 9.66602Z" fill="#C6C5CA"/>
<path d="M9.33469 8.33203H10.6681C10.845 8.33203 11.0145 8.40228 11.1396 8.52731C11.2646 8.65234 11.3349 8.82193 11.3349 8.99875V9.66547H8.66797V8.99875C8.66797 8.82193 8.73821 8.65234 8.86325 8.52731C8.98828 8.40228 9.15786 8.33203 9.33469 8.33203Z" fill="#57565C"/>
<path d="M18.8353 6.82264C18.1945 7.46534 17.3543 7.87125 16.4525 7.97386C15.5507 8.07646 14.6408 7.86966 13.8719 7.38736L12.0014 8.01307L12.6205 6.14025C12.2176 5.50387 12.0025 4.76667 12 4.01347C11.9975 3.26027 12.2078 2.52167 12.6065 1.88266C13.0052 1.24365 13.5763 0.730189 14.2539 0.40136C14.9315 0.0725303 15.6882 -0.0583075 16.4369 0.0239004C17.1856 0.106108 17.8959 0.398022 18.4861 0.866053C19.0762 1.33408 19.5222 1.95922 19.7728 2.66952C20.0234 3.37982 20.0683 4.14644 19.9025 4.88116C19.7366 5.61588 19.3667 6.28885 18.8353 6.82264Z" fill="#FFD422"/>
<path d="M11.2895 10.4533C11.2464 10.4457 11.2022 10.4467 11.1594 10.4562C11.1167 10.4657 11.0763 10.4835 11.0404 10.5087C11.0046 10.5338 10.974 10.5657 10.9505 10.6027C10.927 10.6396 10.911 10.6808 10.9035 10.724C10.8959 10.7671 10.8969 10.8113 10.9064 10.854C10.9159 10.8967 10.9337 10.9372 10.9589 10.973C10.984 11.0089 11.0159 11.0394 11.0529 11.0629C11.0898 11.0864 11.131 11.1024 11.1742 11.11C12.3549 11.3188 13.4665 11.8139 14.4114 12.552C15.3564 13.2901 16.106 14.2486 16.5946 15.3437C16.6308 15.4244 16.6975 15.4874 16.7802 15.519C16.8628 15.5505 16.9546 15.5478 17.0353 15.5117C17.116 15.4755 17.1791 15.4088 17.2106 15.3261C17.2421 15.2435 17.2395 15.1517 17.2033 15.071C16.6702 13.8765 15.8523 12.8309 14.8213 12.0259C13.7903 11.2209 12.5776 10.6809 11.2895 10.4533Z" fill="#57565C"/>
<path d="M7.53557 17.333H2.86852C2.7801 17.333 2.69531 17.3681 2.6328 17.4306C2.57028 17.4932 2.53516 17.578 2.53516 17.6664C2.53516 17.7548 2.57028 17.8396 2.6328 17.9021C2.69531 17.9646 2.7801 17.9997 2.86852 17.9997H7.53557C7.62398 17.9997 7.70877 17.9646 7.77129 17.9021C7.83381 17.8396 7.86893 17.7548 7.86893 17.6664C7.86893 17.578 7.83381 17.4932 7.77129 17.4306C7.70877 17.3681 7.62398 17.333 7.53557 17.333Z" fill="#57565C"/>
<path d="M8.86789 17.333H8.53453C8.44612 17.333 8.36133 17.3681 8.29881 17.4306C8.23629 17.4932 8.20117 17.578 8.20117 17.6664C8.20117 17.7548 8.23629 17.8396 8.29881 17.9021C8.36133 17.9646 8.44612 17.9997 8.53453 17.9997H8.86789C8.95631 17.9997 9.0411 17.9646 9.10362 17.9021C9.16613 17.8396 9.20125 17.7548 9.20125 17.6664C9.20125 17.578 9.16613 17.4932 9.10362 17.4306C9.0411 17.3681 8.95631 17.333 8.86789 17.333Z" fill="#57565C"/>
<path d="M17.0736 5.99845C17.162 5.99845 17.2468 5.96333 17.3093 5.90081C17.3718 5.8383 17.407 5.7535 17.407 5.66509V4.66501H18.407C18.4547 4.665 18.5019 4.65475 18.5452 4.63497C18.5886 4.61519 18.6273 4.58633 18.6585 4.55034C18.6898 4.51435 18.713 4.47207 18.7266 4.42635C18.7401 4.38063 18.7437 4.33253 18.7371 4.28531C18.6751 3.82655 18.5102 3.38774 18.2547 3.00171C17.9992 2.61568 17.6597 2.29242 17.2616 2.05613C17.2115 2.02191 17.153 2.00202 17.0925 1.99858C17.0319 1.99515 16.9716 2.0083 16.9179 2.03663C16.8643 2.06496 16.8194 2.10739 16.7881 2.15935C16.7568 2.2113 16.7402 2.27082 16.7402 2.33148V5.66509C16.7402 5.7535 16.7754 5.8383 16.8379 5.90081C16.9004 5.96333 16.9852 5.99845 17.0736 5.99845ZM17.407 3.02287C17.6882 3.28877 17.8922 3.62583 17.9973 3.99829H17.407V3.02287Z" fill="#57565C"/>
<path d="M14.4083 4.33157V5.66502C14.4083 5.75343 14.4434 5.83822 14.5059 5.90074C14.5684 5.96326 14.6532 5.99838 14.7416 5.99838C14.8301 5.99838 14.9149 5.96326 14.9774 5.90074C15.0399 5.83822 15.075 5.75343 15.075 5.66502V4.33157C15.3402 4.33157 15.5946 4.22621 15.7822 4.03866C15.9697 3.8511 16.0751 3.59673 16.0751 3.33149V2.33141C16.0751 2.24299 16.04 2.1582 15.9775 2.09569C15.9149 2.03317 15.8301 1.99805 15.7417 1.99805C15.6533 1.99805 15.5685 2.03317 15.506 2.09569C15.4435 2.1582 15.4084 2.24299 15.4084 2.33141V3.33149C15.4084 3.4199 15.3732 3.50469 15.3107 3.56721C15.2482 3.62973 15.1634 3.66485 15.075 3.66485V2.33141C15.075 2.24299 15.0399 2.1582 14.9774 2.09569C14.9149 2.03317 14.8301 1.99805 14.7416 1.99805C14.6532 1.99805 14.5684 2.03317 14.5059 2.09569C14.4434 2.1582 14.4083 2.24299 14.4083 2.33141V3.66485C14.3199 3.66485 14.2351 3.62973 14.1726 3.56721C14.11 3.50469 14.0749 3.4199 14.0749 3.33149V2.33141C14.0749 2.24299 14.0398 2.1582 13.9773 2.09569C13.9148 2.03317 13.83 1.99805 13.7416 1.99805C13.6532 1.99805 13.5684 2.03317 13.5058 2.09569C13.4433 2.1582 13.4082 2.24299 13.4082 2.33141V3.33149C13.4082 3.59673 13.5136 3.8511 13.7011 4.03866C13.8887 4.22621 14.143 4.33157 14.4083 4.33157Z" fill="#57565C"/>
</svg>
