<svg width="50" height="50" viewBox="0 0 50 50" fill="none" xmlns="http://www.w3.org/2000/svg">
<g clip-path="url(#clip0)">
<path d="M9.11217 6.55472H5.81398C4.9221 6.55472 4.19922 5.83183 4.19922 4.93996C4.19922 4.04808 4.9221 3.3252 5.81398 3.3252H9.11217C10.004 3.3252 10.7269 4.04808 10.7269 4.93996C10.7269 5.83183 10.004 6.55472 9.11217 6.55472Z" fill="#D8D6D4"/>
<path d="M9.11217 14.5782H5.81398C4.9221 14.5782 4.19922 13.8553 4.19922 12.9634C4.19922 12.0715 4.9221 11.3486 5.81398 11.3486H9.11217C10.004 11.3486 10.7269 12.0715 10.7269 12.9634C10.7269 13.8553 10.004 14.5782 9.11217 14.5782Z" fill="#D8D6D4"/>
<path d="M9.11217 22.6026H5.81398C4.9221 22.6026 4.19922 21.8797 4.19922 20.9878C4.19922 20.0959 4.9221 19.373 5.81398 19.373H9.11217C10.004 19.373 10.7269 20.0959 10.7269 20.9878C10.7269 21.8797 10.004 22.6026 9.11217 22.6026Z" fill="#D8D6D4"/>
<path d="M9.11217 30.627H5.81398C4.9221 30.627 4.19922 29.9041 4.19922 29.0122C4.19922 28.1203 4.9221 27.3975 5.81398 27.3975H9.11217C10.004 27.3975 10.7269 28.1203 10.7269 29.0122C10.7269 29.9041 10.004 30.627 9.11217 30.627Z" fill="#D8D6D4"/>
<path d="M9.11217 38.65H5.81398C4.9221 38.65 4.19922 37.9272 4.19922 37.0353C4.19922 36.1438 4.9221 35.4209 5.81398 35.4209H9.11217C10.004 35.4209 10.7269 36.1438 10.7269 37.0353C10.7269 37.9272 10.004 38.65 9.11217 38.65Z" fill="#D8D6D4"/>
<path d="M9.11217 46.6748H5.81398C4.9221 46.6748 4.19922 45.952 4.19922 45.0601C4.19922 44.1682 4.9221 43.4453 5.81398 43.4453H9.11217C10.004 43.4453 10.7269 44.1682 10.7269 45.0601C10.7269 45.952 10.004 46.6748 9.11217 46.6748Z" fill="#D8D6D4"/>
<path d="M44.6452 50H8.47086C7.81816 50 7.28906 49.4709 7.28906 48.8186V1.18141C7.28944 0.529099 7.81816 0 8.47086 0H44.6449C45.2976 0 45.8267 0.529099 45.8267 1.18141V48.8186C45.8267 49.4709 45.2976 50 44.6452 50Z" fill="#E88C38"/>
<path d="M44.6452 0H39.9531V50H44.6452C45.2975 50 45.8266 49.4709 45.8266 48.8186V1.18141C45.8266 0.529099 45.2975 0 44.6452 0V0Z" fill="#D38231"/>
<path d="M27.9593 11.1569H25.1567L24.8759 8.47595C24.8221 7.96211 25.2253 7.51465 25.7419 7.51465H27.3738C27.8907 7.51465 28.2935 7.96211 28.2397 8.47595L27.9593 11.1569Z" fill="white"/>
<path d="M37.2758 22.1256H15.8418V21.2151C15.8418 15.2966 20.6399 10.498 26.5588 10.498C32.4777 10.498 37.2758 15.2966 37.2758 21.2151V22.1256Z" fill="#E2E2E2"/>
<path d="M26.5596 10.498C25.5415 10.498 24.5561 10.6403 23.623 10.9055C28.1141 12.1822 31.4031 16.3147 31.4031 21.2151V22.1256H37.2766V21.2151C37.2766 15.2966 32.4785 10.498 26.5596 10.498Z" fill="#C9C9C9"/>
<path d="M38.7641 21.3486H14.355C14.12 21.3486 13.9297 21.539 13.9297 21.774V23.3502C13.9297 23.5852 14.12 23.7755 14.355 23.7755H38.7641C38.9991 23.7755 39.1895 23.5852 39.1895 23.3502V21.774C39.1895 21.539 38.9991 21.3486 38.7641 21.3486Z" fill="#D8D6D4"/>
<path d="M17.0974 37.5503C16.9979 37.7312 16.8441 37.7857 16.6992 37.7857C16.5546 37.7857 16.4097 37.7312 16.3105 37.5503L15.2698 35.5965V39.5588C15.2698 39.8029 14.9715 39.9296 14.682 39.9296C14.3833 39.9296 14.0938 39.8029 14.0938 39.5588V33.9046C14.0938 33.4701 14.3833 33.3164 14.682 33.3164C15.1069 33.3164 15.2969 33.4068 15.5956 33.9409L16.7083 35.9672L17.8211 33.9409C18.1194 33.4072 18.3185 33.3164 18.7439 33.3164C19.0422 33.3164 19.3317 33.4701 19.3317 33.9046V39.5588C19.3317 39.8029 19.0334 39.9296 18.7439 39.9296C18.4452 39.9296 18.1556 39.8029 18.1556 39.5588V35.6685L17.0974 37.5503Z" fill="#FCCF3F"/>
<path d="M22.6058 36.1572H23.981C24.2163 36.1572 24.3517 36.3834 24.3517 36.6276C24.3517 36.8355 24.2343 37.08 23.981 37.08H22.6058V38.8981H25.1662C25.4012 38.8981 25.537 39.1426 25.537 39.423C25.537 39.6671 25.4195 39.9296 25.1662 39.9296H21.9454C21.683 39.9296 21.4297 39.8029 21.4297 39.5588V33.6872C21.4297 33.4431 21.683 33.3164 21.9454 33.3164H25.1662C25.4195 33.3164 25.537 33.5789 25.537 33.823C25.537 34.1034 25.4012 34.3475 25.1662 34.3475H22.6058V36.1572Z" fill="#FCCF3F"/>
<path d="M30.3579 39.5588L28.4128 35.9218V39.5588C28.4128 39.8029 28.1141 39.9296 27.8246 39.9296C27.5259 39.9296 27.2363 39.8029 27.2363 39.5588V33.6876C27.2363 33.4339 27.5259 33.3164 27.8246 33.3164C28.2499 33.3164 28.4216 33.4068 28.7023 33.9409L30.4483 37.3154V33.6784C30.4483 33.4251 30.7378 33.3164 31.0361 33.3164C31.3257 33.3164 31.6244 33.4251 31.6244 33.6784V39.5588C31.6244 39.8029 31.3257 39.9296 31.0361 39.9296C30.7558 39.9296 30.5116 39.8392 30.3579 39.5588Z" fill="#FCCF3F"/>
<path d="M36.8635 33.6784C36.8635 33.4251 37.153 33.3164 37.4517 33.3164C37.7412 33.3164 38.0395 33.4251 38.0395 33.6784V37.9124C38.0395 39.423 37.0805 39.9837 35.8682 39.9837C34.6471 39.9837 33.6973 39.423 33.6973 37.9124V33.6784C33.6973 33.4251 33.9868 33.3164 34.2851 33.3164C34.5746 33.3164 34.8733 33.4251 34.8733 33.6784V37.9124C34.8733 38.6177 35.2441 38.9526 35.8686 38.9526C36.4927 38.9526 36.8638 38.6177 36.8638 37.9124V33.6784H36.8635Z" fill="#FCCF3F"/>
<path d="M39.1879 30.0566H13.9281C13.5059 30.0566 13.1641 30.3984 13.1641 30.8203C13.1641 31.2422 13.5062 31.5844 13.9281 31.5844H39.1879C39.6098 31.5844 39.9516 31.2422 39.9516 30.8203C39.9516 30.3984 39.6098 30.0566 39.1879 30.0566Z" fill="#EFA335"/>
<path d="M39.1879 41.7217H13.9281C13.5059 41.7217 13.1641 42.0639 13.1641 42.4858C13.1641 42.9073 13.5062 43.2495 13.9281 43.2495H39.1879C39.6098 43.2495 39.9516 42.9073 39.9516 42.4858C39.9516 42.0639 39.6098 41.7217 39.1879 41.7217Z" fill="#EFA335"/>
</g>
<defs>
<clipPath id="clip0">
<rect width="50" height="50" fill="white"/>
</clipPath>
</defs>
</svg>
