<svg width="42" height="50" viewBox="0 0 42 50" fill="none" xmlns="http://www.w3.org/2000/svg">
<path d="M4.91295 6.55472H1.61476C0.722885 6.55472 0 5.83183 0 4.93996C0 4.04808 0.722885 3.3252 1.61476 3.3252H4.91295C5.80482 3.3252 6.52771 4.04808 6.52771 4.93996C6.52771 5.83183 5.80482 6.55472 4.91295 6.55472Z" fill="#D8D6D4"/>
<path d="M4.91295 14.5782H1.61476C0.722885 14.5782 0 13.8553 0 12.9634C0 12.0715 0.722885 11.3486 1.61476 11.3486H4.91295C5.80482 11.3486 6.52771 12.0715 6.52771 12.9634C6.52771 13.8553 5.80482 14.5782 4.91295 14.5782Z" fill="#D8D6D4"/>
<path d="M4.91295 22.6026H1.61476C0.722885 22.6026 0 21.8797 0 20.9878C0 20.0959 0.722885 19.373 1.61476 19.373H4.91295C5.80482 19.373 6.52771 20.0959 6.52771 20.9878C6.52771 21.8797 5.80482 22.6026 4.91295 22.6026Z" fill="#D8D6D4"/>
<path d="M4.91295 30.627H1.61476C0.722885 30.627 0 29.9041 0 29.0122C0 28.1203 0.722885 27.3975 1.61476 27.3975H4.91295C5.80482 27.3975 6.52771 28.1203 6.52771 29.0122C6.52771 29.9041 5.80482 30.627 4.91295 30.627Z" fill="#D8D6D4"/>
<path d="M4.91295 38.65H1.61476C0.722885 38.65 0 37.9272 0 37.0353C0 36.1438 0.722885 35.4209 1.61476 35.4209H4.91295C5.80482 35.4209 6.52771 36.1438 6.52771 37.0353C6.52771 37.9272 5.80482 38.65 4.91295 38.65Z" fill="#D8D6D4"/>
<path d="M4.91295 46.6748H1.61476C0.722885 46.6748 0 45.952 0 45.0601C0 44.1682 0.722885 43.4453 1.61476 43.4453H4.91295C5.80482 43.4453 6.52771 44.1682 6.52771 45.0601C6.52771 45.952 5.80482 46.6748 4.91295 46.6748Z" fill="#D8D6D4"/>
<path d="M40.446 50H4.27164C3.61894 50 3.08984 49.4709 3.08984 48.8186V1.18141C3.09023 0.529099 3.61894 0 4.27164 0H40.4456C41.0983 0 41.6274 0.529099 41.6274 1.18141V48.8186C41.6274 49.4709 41.0983 50 40.446 50Z" fill="#E88C38"/>
<path d="M40.446 0H35.7539V50H40.446C41.0983 50 41.6274 49.4709 41.6274 48.8186V1.18141C41.6274 0.529099 41.0983 0 40.446 0V0Z" fill="#D38231"/>
<path d="M12.8982 37.5503C12.7987 37.7312 12.6449 37.7857 12.5 37.7857C12.3554 37.7857 12.2104 37.7312 12.1113 37.5503L11.0706 35.5965V39.5588C11.0706 39.8029 10.7723 39.9296 10.4828 39.9296C10.1841 39.9296 9.89453 39.8029 9.89453 39.5588V33.9046C9.89453 33.4701 10.1841 33.3164 10.4828 33.3164C10.9077 33.3164 11.0977 33.4068 11.3964 33.9409L12.5091 35.9672L13.6219 33.9409C13.9202 33.4072 14.1193 33.3164 14.5446 33.3164C14.843 33.3164 15.1325 33.4701 15.1325 33.9046V39.5588C15.1325 39.8029 14.8342 39.9296 14.5446 39.9296C14.246 39.9296 13.9564 39.8029 13.9564 39.5588V35.6685L12.8982 37.5503Z" fill="#FCCF3F"/>
<path d="M18.4065 36.1572H19.7817C20.0171 36.1572 20.1525 36.3834 20.1525 36.6276C20.1525 36.8355 20.035 37.08 19.7817 37.08H18.4065V38.8981H20.967C21.202 38.8981 21.3378 39.1426 21.3378 39.423C21.3378 39.6671 21.2203 39.9296 20.967 39.9296H17.7462C17.4838 39.9296 17.2305 39.8029 17.2305 39.5588V33.6872C17.2305 33.4431 17.4838 33.3164 17.7462 33.3164H20.967C21.2203 33.3164 21.3378 33.5789 21.3378 33.823C21.3378 34.1034 21.202 34.3475 20.967 34.3475H18.4065V36.1572Z" fill="#FCCF3F"/>
<path d="M26.1587 39.5588L24.2136 35.9218V39.5588C24.2136 39.8029 23.9149 39.9296 23.6253 39.9296C23.3266 39.9296 23.0371 39.8029 23.0371 39.5588V33.6876C23.0371 33.4339 23.3266 33.3164 23.6253 33.3164C24.0507 33.3164 24.2223 33.4068 24.5031 33.9409L26.2491 37.3154V33.6784C26.2491 33.4251 26.5386 33.3164 26.8369 33.3164C27.1265 33.3164 27.4252 33.4251 27.4252 33.6784V39.5588C27.4252 39.8029 27.1265 39.9296 26.8369 39.9296C26.5565 39.9296 26.3124 39.8392 26.1587 39.5588Z" fill="#FCCF3F"/>
<path d="M32.6642 33.6784C32.6642 33.4251 32.9538 33.3164 33.2525 33.3164C33.542 33.3164 33.8403 33.4251 33.8403 33.6784V37.9124C33.8403 39.423 32.8813 39.9837 31.669 39.9837C30.4479 39.9837 29.498 39.423 29.498 37.9124V33.6784C29.498 33.4251 29.7876 33.3164 30.0859 33.3164C30.3754 33.3164 30.6741 33.4251 30.6741 33.6784V37.9124C30.6741 38.6177 31.0449 38.9526 31.6694 38.9526C32.2935 38.9526 32.6646 38.6177 32.6646 37.9124V33.6784H32.6642Z" fill="#FCCF3F"/>
<path d="M34.9887 30.0566H9.72893C9.30664 30.0566 8.96484 30.3984 8.96484 30.8203C8.96484 31.2422 9.30702 31.5844 9.72893 31.5844H34.9887C35.4106 31.5844 35.7524 31.2422 35.7524 30.8203C35.7524 30.3984 35.4106 30.0566 34.9887 30.0566Z" fill="#EFA335"/>
<path d="M34.9887 41.7217H9.72893C9.30664 41.7217 8.96484 42.0639 8.96484 42.4858C8.96484 42.9073 9.30702 43.2495 9.72893 43.2495H34.9887C35.4106 43.2495 35.7524 42.9073 35.7524 42.4858C35.7524 42.0639 35.4106 41.7217 34.9887 41.7217Z" fill="#EFA335"/>
<path d="M23.8164 8.51465H27.0159V9.82184H23.8164L23.8164 8.51465Z" fill="#003365"/>
<path d="M19.0174 13.0174H11V5H14.3551L15.0087 5.43573L15.6623 5H19.0174V13.0174Z" fill="#FFD700"/>
<path d="M19.0185 5H15.6634L15.0098 5.43573V13.0174H19.0185V5Z" fill="#FFC200"/>
<path d="M16.0094 24.2152C15.0411 24.2152 14.253 23.4268 14.2523 22.4572L14.252 22.0801H17.7686L17.7689 22.4565C17.7693 22.926 17.5864 23.3675 17.254 23.6997C16.9219 24.0317 16.4804 24.2148 16.0109 24.2152C16.0104 24.2152 16.0099 24.2152 16.0094 24.2152Z" fill="#DAD0CB"/>
<path d="M29.5618 24.172C28.6324 24.172 27.876 23.4158 27.8753 22.4857L27.875 22.124H31.2481L31.2484 22.4851C31.2491 23.4145 30.4932 24.1712 29.5633 24.172C29.5627 24.172 29.5622 24.172 29.5618 24.172Z" fill="#C6BCB7"/>
<path d="M14.3535 5H15.6607V7.39651H14.3535V5Z" fill="#FF9A00"/>
<path d="M26.207 20.0843V12.1451C26.7175 11.6346 27.0037 11.3484 27.5142 10.8379H29.5854L31.1089 19.4102L26.207 20.0843Z" fill="#00B0FF"/>
<path d="M28.5163 22.603H19.7146L16.0109 21.7316L12.3072 22.603H11V18.0331C10.9983 15.9899 12.6596 14.3259 14.7032 14.3242H22.1547V17.5922C22.1549 17.8829 22.2685 18.1568 22.4744 18.3628C22.6798 18.5683 22.9527 18.6815 23.2426 18.6815H23.2435H28.5163V22.603Z" fill="#57CAFF"/>
<path d="M23.2422 18.6821C22.9523 18.6821 22.6794 18.5689 22.474 18.3634C22.2681 18.1573 22.1545 17.8835 22.1543 17.5928V22.6037H28.516V18.6821H23.2431C23.2428 18.6821 23.2425 18.6821 23.2422 18.6821Z" fill="#00B0FF"/>
<path fill-rule="evenodd" clip-rule="evenodd" d="M12.9615 21.95C12.9628 23.6321 14.33 24.9996 16.0096 24.9996H16.0121C16.8267 24.9989 17.5926 24.6814 18.1687 24.1055C18.7452 23.5292 19.0623 22.7633 19.0617 21.949L19.0612 21.2959H12.9609L12.9615 21.95ZM16.0097 23.6926C15.2811 23.6926 14.6553 23.2415 14.3962 22.6033H17.6286C17.5422 22.8169 17.4127 23.0132 17.2446 23.1813C16.9151 23.5106 16.477 23.6922 16.0111 23.6926H16.0097Z" fill="#003365"/>
<path fill-rule="evenodd" clip-rule="evenodd" d="M26.5122 21.95C26.5136 23.6321 27.8817 24.9996 29.5624 24.9996H29.5649C31.2467 24.9982 32.6138 23.6297 32.6125 21.949L32.6119 21.2959H26.5117L26.5122 21.95ZM29.5619 23.6926C28.8325 23.6926 28.206 23.2415 27.9466 22.6033H31.1781C30.9195 23.2409 30.2933 23.692 29.5633 23.6926H29.5619Z" fill="#000A32"/>
<path d="M33.3096 22.604H25.815L25.8145 21.951C25.8136 20.9506 26.2033 20.0097 26.9117 19.3016C27.6196 18.5941 28.5605 18.204 29.5612 18.2031H29.5643C31.6278 18.2031 33.3073 19.8833 33.309 21.9499L33.3096 22.604Z" fill="#007DFD"/>
<path d="M19.716 22.6028H12.3086V20.642C12.3071 18.8418 13.7729 17.3755 15.576 17.374H16.448H16.4508C17.3221 17.374 18.1418 17.7138 18.7585 18.3309C19.3753 18.948 19.7153 19.7686 19.716 20.6415V22.6028Z" fill="#00B0FF"/>
<path d="M28.3857 12.1464H26.207V7.78906H28.3857C29.587 7.78906 30.5643 8.7664 30.5643 9.96771C30.5643 11.169 29.587 12.1464 28.3857 12.1464Z" fill="#007DFD"/>
<path d="M21.5008 15.6325H14.5291C13.448 15.6325 12.5684 14.7529 12.5684 13.6717C12.5684 12.5905 13.448 11.7109 14.5291 11.7109H21.5008C22.582 11.7109 23.4616 12.5905 23.4616 13.6717C23.4616 14.7529 22.582 15.6325 21.5008 15.6325Z" fill="#004984"/>
<path d="M15.0098 5H15.6634V7.39651H15.0098V5Z" fill="#FF6600"/>
</svg>
