<svg width="19" height="19" viewBox="0 0 19 19" fill="none" xmlns="http://www.w3.org/2000/svg">
<path d="M17.7086 17.1299L12.9883 12.4096C12.7768 12.187 12.4206 12.187 12.209 12.3985C11.5522 13.0553 10.4945 13.0553 9.83775 12.4096L6.59065 9.13748C5.94491 8.48061 5.94491 7.42307 6.60178 6.7662C6.81331 6.55468 6.81331 6.19843 6.59065 5.9869L1.87035 1.2666C1.65882 1.04395 1.30258 1.04395 1.09105 1.2666C0.389687 1.95683 7.60701e-05 3.22597 7.60701e-05 4.81796C-0.0110567 7.52323 1.19871 11.6415 4.32702 14.7698C7.45534 17.8981 11.4409 19.0002 14.135 19.0002C14.135 19.0002 14.1461 19.0002 14.1573 19.0002C15.7493 19.0002 17.0184 18.6106 17.7087 17.9093C17.9313 17.6977 17.9313 17.3415 17.7086 17.1299Z" fill="#FF1744"/>
<path d="M17.7078 17.1299C17.9305 17.3415 17.9305 17.6977 17.7078 17.9092C17.0176 18.6106 15.7485 19.0002 14.1565 19.0002C14.1453 19.0002 14.1342 19.0002 14.1342 19.0002C11.4401 19.0002 7.45449 17.8981 4.32617 14.7698L8.26714 10.8398L9.8369 12.4096C10.4937 13.0553 11.5513 13.0553 12.2082 12.3985C12.4197 12.1869 12.776 12.1869 12.9875 12.4096L17.7078 17.1299Z" fill="#D50000"/>
<path d="M7.38186 3.62649L4.23124 0.475871C3.60781 -0.158624 2.49453 -0.158624 1.85996 0.475871L1.0918 1.25517L6.60253 6.7659L7.38182 5.99774V5.9866C8.03866 5.34094 8.03866 4.27223 7.38186 3.62649Z" fill="#FFCDD2"/>
<path d="M18.499 14.7691L15.3484 11.6185C14.725 10.9839 13.6117 10.9839 12.9771 11.6185L12.209 12.3978L17.7197 17.9085L18.499 17.1404C18.499 17.1292 18.499 17.1292 18.499 17.1292C19.1558 16.4836 19.1558 15.4148 18.499 14.7691Z" fill="#FF5252"/>
<path d="M18.7677 7.76775C18.4581 8.07742 17.9419 8.07742 17.6323 7.76775L15 5.13549L12.3677 7.76775C12.0581 8.07742 11.5419 8.07742 11.2322 7.76775C10.9226 7.45808 10.9226 6.94192 11.2322 6.63226L13.8645 4L11.2322 1.36774C10.9226 1.05808 10.9226 0.541917 11.2322 0.23225C11.5419 -0.0774167 12.0581 -0.0774167 12.3677 0.23225L15 2.86451L17.6323 0.23225C17.9419 -0.0774167 18.4581 -0.0774167 18.7677 0.23225C19.0774 0.541917 19.0774 1.05808 18.7677 1.36774L16.1355 4L18.7677 6.63226C19.0774 6.94192 19.0774 7.45805 18.7677 7.76775Z" fill="#FF4452"/>
</svg>
