<svg width="20" height="20" viewBox="0 0 20 20" fill="none" xmlns="http://www.w3.org/2000/svg">
<path d="M7.65625 6.625C7.45712 6.625 7.24609 6.625 7.03506 6.64835H6.99997C3.15628 7.01166 0 10.6602 0 14.7265C0 19.4492 4.38675 19.9999 7.65625 19.9999C10.9024 19.9999 14.6875 19.5078 15.2148 15.6289C15.7655 11.0819 12.1562 6.625 7.65625 6.625Z" fill="#FF637B"/>
<path d="M15.2148 15.6289C14.6875 19.5078 10.9024 19.9999 7.65625 19.9999V6.625C12.1562 6.625 15.7655 11.0819 15.2148 15.6289Z" fill="#E63950"/>
<path d="M11.7201 1.94534L10.5482 5.50003H4.75935L3.58747 1.94534C3.51698 1.76956 3.55222 1.57028 3.65766 1.418C3.77485 1.26572 3.95063 1.17188 4.13816 1.17188H6.00141C6.23579 0.492096 6.89207 0 7.65379 0C8.4155 0 9.06004 0.492096 9.30616 1.17188H11.1694C11.3569 1.17188 11.5327 1.26572 11.6499 1.418C11.7553 1.57028 11.7906 1.76956 11.7201 1.94534Z" fill="#FF637B"/>
<path d="M11.7225 1.94534L10.5507 5.50003H7.65625V0C8.41797 0 9.06249 0.492096 9.30862 1.17188H11.1719C11.3594 1.17188 11.5352 1.26572 11.6524 1.418C11.7578 1.57028 11.793 1.76956 11.7225 1.94534Z" fill="#E63950"/>
<path d="M9.40234 14.9023C9.40234 15.6641 8.922 16.2968 8.24222 16.543V17.0703C8.24222 17.3985 7.9845 17.6562 7.65628 17.6562C7.32806 17.6562 7.07034 17.3985 7.07034 17.0703V16.5547C6.39056 16.3086 5.88672 15.6641 5.88672 14.9023C5.88672 14.5743 6.15619 14.3164 6.47266 14.3164C6.80087 14.3164 7.05859 14.5743 7.05859 14.9023C7.05859 15.2188 7.32806 15.4883 7.64453 15.4883H7.65628C7.9845 15.4765 8.23047 15.2188 8.23047 14.9023C8.23047 14.5743 7.9845 14.3282 7.65628 14.3164H7.64453C6.68369 14.3164 5.88672 13.5194 5.88672 12.5586C5.88672 11.7851 6.39072 11.1406 7.07034 10.9062V10.0391C7.07034 9.71085 7.32806 9.45312 7.65628 9.45312C7.9845 9.45312 8.24222 9.71085 8.24222 10.0391V10.9062C8.922 11.1523 9.40234 11.7969 9.40234 12.5586C9.40234 12.8751 9.14462 13.1445 8.81641 13.1445C8.49994 13.1445 8.23047 12.8751 8.23047 12.5586C8.23047 12.2305 7.9845 11.9844 7.65628 11.9727H7.64453C7.32806 11.9727 7.05859 12.2305 7.05859 12.5586C7.05859 12.8751 7.32806 13.1445 7.64453 13.1445H7.65628C8.62903 13.1563 9.40234 13.9297 9.40234 14.9023Z" fill="#FFDA2D"/>
<path d="M20 11.7969C20 12.4414 19.4727 12.9688 18.8281 12.9688L15.8594 14.1406L12.9297 12.9688C12.2852 12.9688 11.7578 12.4414 11.7578 11.7969C11.7578 11.1523 12.2852 10.625 12.9297 10.625H18.8281C19.4727 10.625 20 11.1523 20 11.7969Z" fill="#FFDA2D"/>
<path d="M20 11.7969C20 12.4414 19.4727 12.9688 18.8281 12.9688L15.8594 14.1406V10.625H18.8281C19.4727 10.625 20 11.1523 20 11.7969Z" fill="#FDBF00"/>
<path d="M20 14.1406C20 14.7852 19.4727 15.3125 18.8281 15.3125L15.8594 16.4844L12.9297 15.3125C12.2852 15.3125 11.7578 14.7852 11.7578 14.1406C11.7578 13.4961 12.2852 12.9688 12.9297 12.9688H18.8281C19.4727 12.9688 20 13.4961 20 14.1406Z" fill="#FDBF00"/>
<path d="M20 14.1406C20 14.7852 19.4727 15.3125 18.8281 15.3125L15.8594 16.4844V12.9688H18.8281C19.4727 12.9688 20 13.4961 20 14.1406Z" fill="#FF9100"/>
<path d="M20 16.4844C20 17.1289 19.4727 17.6562 18.8281 17.6562L15.8594 18.8281L12.9297 17.6562C12.2852 17.6562 11.7578 17.1289 11.7578 16.4844C11.7578 15.8398 12.2852 15.3125 12.9297 15.3125H18.8281C19.4727 15.3125 20 15.8398 20 16.4844Z" fill="#FFDA2D"/>
<path d="M20 16.4844C20 17.1289 19.4727 17.6562 18.8281 17.6562L15.8594 18.8281V15.3125H18.8281C19.4727 15.3125 20 15.8398 20 16.4844Z" fill="#FDBF00"/>
<path d="M20 18.8281C20 19.4727 19.4727 20 18.8281 20H12.9297C12.2852 20 11.7578 19.4727 11.7578 18.8281C11.7578 18.1836 12.2852 17.6562 12.9297 17.6562H18.8281C19.4727 17.6562 20 18.1836 20 18.8281Z" fill="#FDBF00"/>
<path d="M20 18.8281C20 19.4727 19.4727 20 18.8281 20H15.8594V17.6562H18.8281C19.4727 17.6562 20 18.1836 20 18.8281Z" fill="#FF9100"/>
<path d="M11.7578 5.89844C11.7578 6.54297 11.2305 7.07031 10.5859 7.07031H4.72656C4.08203 7.07031 3.55469 6.54297 3.55469 5.89844C3.55469 5.25391 4.08203 4.72656 4.72656 4.72656H10.5859C11.2305 4.72656 11.7578 5.25391 11.7578 5.89844Z" fill="#FFDA2D"/>
<path d="M9.40231 14.9023C9.40231 15.6641 8.92197 16.2968 8.24219 16.543V17.0703C8.24219 17.3985 7.98447 17.6562 7.65625 17.6562V15.4883C7.98447 15.4765 8.23044 15.2188 8.23044 14.9023C8.23044 14.5743 7.98447 14.3282 7.65625 14.3164V13.1445C8.629 13.1563 9.40231 13.9297 9.40231 14.9023Z" fill="#FDBF00"/>
<path d="M9.40231 12.5586C9.40231 12.8751 9.14459 13.1445 8.81638 13.1445C8.49991 13.1445 8.23044 12.8751 8.23044 12.5586C8.23044 12.2305 7.98447 11.9844 7.65625 11.9727V9.45312C7.98447 9.45312 8.24219 9.71085 8.24219 10.0391V10.9062C8.92197 11.1523 9.40231 11.7969 9.40231 12.5586Z" fill="#FDBF00"/>
<path d="M11.7578 5.89844C11.7578 6.54297 11.2305 7.07031 10.5859 7.07031H7.65625V4.72656H10.5859C11.2305 4.72656 11.7578 5.25391 11.7578 5.89844Z" fill="#FDBF00"/>
</svg>
