<svg width="29" height="24" viewBox="0 0 29 24" fill="none" xmlns="http://www.w3.org/2000/svg">
<path d="M28.0558 15.2188H0.475522C0.212899 15.2188 0 15.4316 0 15.6943V16.1698C0 16.4324 0.212899 16.6453 0.475522 16.6453H28.0558C28.3184 16.6453 28.5313 16.4324 28.5313 16.1698V15.6943C28.5313 15.4316 28.3184 15.2188 28.0558 15.2188Z" fill="#57565C"/>
<path d="M13.7894 1.89844H14.7404C18.0194 1.89844 21.1642 3.20113 23.4828 5.51993C25.8014 7.83873 27.104 10.9837 27.104 14.263V15.2141H1.42578V14.263C1.42578 10.9837 2.72837 7.83873 5.04699 5.51993C7.36561 3.20113 10.5103 1.89844 13.7894 1.89844Z" fill="#C6C5CA"/>
<path d="M13.3163 0H15.2184C15.4706 0 15.7125 0.100207 15.8909 0.278576C16.0692 0.456946 16.1694 0.698867 16.1694 0.951119V1.90224H12.3652V0.951119C12.3652 0.698867 12.4654 0.456946 12.6438 0.278576C12.8221 0.100207 13.064 0 13.3163 0Z" fill="#57565C"/>
<path d="M16.1047 3.0267C16.0432 3.0159 15.9802 3.01731 15.9192 3.03087C15.8582 3.04443 15.8005 3.06987 15.7494 3.10573C15.6983 3.14158 15.6547 3.18716 15.6212 3.23986C15.5877 3.29256 15.5648 3.35134 15.554 3.41286C15.5432 3.47437 15.5447 3.53741 15.5582 3.59838C15.5718 3.65934 15.5972 3.71704 15.6331 3.76818C15.6689 3.81932 15.7145 3.86289 15.7672 3.89641C15.8199 3.92994 15.8787 3.95275 15.9402 3.96355C17.6245 4.26143 19.21 4.96776 20.558 6.02069C21.906 7.07362 22.9753 8.44103 23.6722 10.0032C23.7237 10.1183 23.819 10.2083 23.9368 10.2532C24.0547 10.2982 24.1857 10.2944 24.3008 10.2428C24.4159 10.1913 24.5059 10.096 24.5508 9.97814C24.5958 9.86023 24.592 9.72931 24.5405 9.61415C23.78 7.91013 22.6133 6.41859 21.1426 5.27015C19.6719 4.1217 17.9421 3.3514 16.1047 3.0267Z" fill="#57565C"/>
<circle cx="14.2649" cy="15.8196" r="8.17898" fill="white"/>
<path d="M18.6298 12.5069H12.4669V11.4675C12.4669 10.7762 11.6359 10.4259 11.1521 10.9166L9.35462 12.7356C9.05367 13.0402 9.05367 13.5339 9.35462 13.8385L11.1521 15.6575C11.6339 16.145 12.4669 15.8041 12.4669 15.1066V14.0672H18.6298C19.0551 14.0672 19.4002 13.7179 19.4002 13.2876C19.4002 12.8562 19.0551 12.5069 18.6298 12.5069Z" fill="#607D8B"/>
<path d="M19.4002 13.2227H9.12891C9.12891 13.4272 9.20389 13.6317 9.35487 13.7872L11.1523 15.6512C11.3085 15.8131 11.5016 15.8856 11.6916 15.8856C12.087 15.8856 12.4681 15.5692 12.4681 15.0856V14.0205H18.6309C19.0551 14.0215 19.4002 13.6636 19.4002 13.2227Z" fill="#546D79"/>
<path d="M19.1745 17.8854L17.3769 16.1105C16.889 15.6297 16.0622 15.9766 16.0622 16.648V17.6623H9.89927C9.47403 17.6623 9.12891 18.0031 9.12891 18.423C9.12891 18.8429 9.47403 19.1837 9.89927 19.1837H16.0622V20.1979C16.0622 20.8765 16.8952 21.2122 17.3769 20.7355L19.1745 18.9605C19.4754 18.6634 19.4754 18.1826 19.1745 17.8854Z" fill="#607D8B"/>
<path d="M19.4002 18.4219H9.12891C9.12891 18.8419 9.47402 19.1827 9.89925 19.1827H16.062V20.1972C16.062 20.6567 16.4431 20.958 16.8396 20.958C17.0285 20.958 17.2216 20.889 17.3778 20.7348L19.1752 18.9595C19.3252 18.8114 19.4002 18.6166 19.4002 18.4219Z" fill="#546D79"/>
</svg>
