<svg width="30" height="30" viewBox="0 0 30 30" fill="none" xmlns="http://www.w3.org/2000/svg">
<path d="M29.3292 30.0001H0.670787C0.492883 30.0001 0.322266 29.9294 0.196469 29.8036C0.0706722 29.6778 0 29.5072 0 29.3293V0.670787C0 0.492883 0.0706722 0.322266 0.196469 0.196469C0.322266 0.0706722 0.492883 0 0.670787 0H17.1319L30 12.8681V29.3292C30 29.4173 29.9827 29.5045 29.9489 29.5859C29.9152 29.6673 29.8658 29.7413 29.8035 29.8036C29.7413 29.8659 29.6673 29.9153 29.5859 29.949C29.5045 29.9827 29.4173 30.0001 29.3292 30.0001Z" fill="#FFD469"/>
<path d="M13.482 7.57504H4.57658C4.07262 7.57504 3.66406 7.16649 3.66406 6.66252C3.66406 6.15855 4.07262 5.75 4.57658 5.75H13.482C13.986 5.75 14.3945 6.15855 14.3945 6.66252C14.3945 7.16649 13.986 7.57504 13.482 7.57504ZM14.3945 12.6354C14.3945 12.1314 13.986 11.7228 13.482 11.7228H4.57658C4.07262 11.7228 3.66406 12.1314 3.66406 12.6354C3.66406 13.1393 4.07262 13.5479 4.57658 13.5479H13.482C13.986 13.5478 14.3945 13.1393 14.3945 12.6354ZM14.3945 18.6081C14.3945 18.1042 13.986 17.6956 13.482 17.6956H4.57658C4.07262 17.6956 3.66406 18.1041 3.66406 18.6081C3.66406 19.1121 4.07262 19.5206 4.57658 19.5206H13.482C13.986 19.5206 14.3945 19.112 14.3945 18.6081ZM22.1041 24.5809C22.1041 24.077 21.6956 23.6684 21.1916 23.6684H4.57658C4.07262 23.6684 3.66406 24.0769 3.66406 24.5809C3.66406 25.0848 4.07262 25.4934 4.57658 25.4934H21.1916C21.6956 25.4933 22.1041 25.0848 22.1041 24.5809ZM25.1779 18.6081C25.1779 18.1042 24.7694 17.6956 24.2654 17.6956H18.1178C17.6139 17.6956 17.2053 18.1041 17.2053 18.6081C17.2053 19.1121 17.6139 19.5206 18.1178 19.5206H24.2654C24.7694 19.5206 25.1779 19.112 25.1779 18.6081Z" fill="#597B91"/>
<path d="M17.1309 0L29.999 12.8681H19.8661C18.3555 12.8681 17.1309 11.6435 17.1309 10.1329V0Z" fill="#FFB636"/>
</svg>
