<svg id="Flat" height="512" viewBox="0 0 512 512" width="512" xmlns="http://www.w3.org/2000/svg"><path d="m160 496a8 8 0 0 1 -8-8v-8a24.027 24.027 0 0 0 -24-24h-8a40.045 40.045 0 0 1 -40-40v-24a8 8 0 0 1 16 0v24a24.027 24.027 0 0 0 24 24h8a40.045 40.045 0 0 1 40 40v8a8 8 0 0 1 -8 8z" fill="#6a7073"/><path d="m488 88v224a32 32 0 0 1 -32 32h-240a32 32 0 0 1 -32-32v-64h-48l48-40v-120a32 32 0 0 1 32-32h240a32 32 0 0 1 32 32z" fill="#44c086"/><path d="m88 88h32a16 16 0 0 1 16 16v48a16 16 0 0 1 -16 16h-32a0 0 0 0 1 0 0v-80a0 0 0 0 1 0 0z" fill="#ce3536"/><path d="m88 312h32a16 16 0 0 1 16 16v48a16 16 0 0 1 -16 16h-32a0 0 0 0 1 0 0v-80a0 0 0 0 1 0 0z" fill="#ce3536"/><path d="m72 168v144h32v80h-16a64 64 0 0 1 -64-64v-176a64 64 0 0 1 64-64h16v80z" fill="#e74444"/><path d="m302.816 288h-13.632a16 16 0 0 1 -15.96-17.14l6.776-94.86h32l6.776 94.86a16 16 0 0 1 -15.96 17.14z" fill="#e74444"/><path d="m368 208v-8l-16-8s6-80 48-80v96z" fill="#d9dbdd"/><path d="m390.32 288h-12.64a16 16 0 0 1 -15.921-17.592l6.241-62.408h32l6.241 62.408a16 16 0 0 1 -15.921 17.592z" fill="#e74444"/><path d="m328 112a8 8 0 0 0 -8 8v24h-16v-24a8 8 0 0 0 -16 0v24h-16v-24a8 8 0 0 0 -16 0v24l24 32h32l24-32v-24a8 8 0 0 0 -8-8z" fill="#d9dbdd"/></svg>