<svg width="18" height="18" viewBox="0 0 18 18" fill="none" xmlns="http://www.w3.org/2000/svg">
<path d="M14.0874 0H3.91347C3.48125 0 3.13086 0.350386 3.13086 0.782609V4.30435C3.13086 4.52035 3.33316 4.69565 3.58242 4.69565C3.83169 4.69565 4.03399 4.52035 4.03399 4.30435H13.9669C13.9669 4.52035 14.1692 4.69565 14.4184 4.69565C14.6677 4.69565 14.87 4.52035 14.87 4.30435V0.782609C14.87 0.350386 14.5196 0 14.0874 0Z" fill="#4B4B4B"/>
<path d="M14.4783 3.91309H3.52174C1.57674 3.91309 0 5.48982 0 7.43482V13.3044C0 13.7366 0.350386 14.087 0.782609 14.087H4.30435C4.52046 14.087 4.69565 13.9118 4.69565 13.6957H13.3043C13.3043 13.9118 13.4795 14.087 13.6957 14.087H17.2174C17.6496 14.087 18 13.7366 18 13.3044V7.43482C18 5.48982 16.4233 3.91309 14.4783 3.91309Z" fill="#0E0E55"/>
<path d="M3.13086 10.5654V17.2176C3.13086 17.6498 3.48125 18.0002 3.91347 18.0002H14.0874C14.5196 18.0002 14.87 17.6498 14.87 17.2176V10.5654H3.13086Z" fill="#4B4B4B"/>
<path d="M14.2823 7.82626C14.6064 7.82626 14.8692 7.56347 14.8692 7.2393C14.8692 6.91513 14.6064 6.65234 14.2823 6.65234C13.9581 6.65234 13.6953 6.91513 13.6953 7.2393C13.6953 7.56347 13.9581 7.82626 14.2823 7.82626Z" fill="#E86C60"/>
<path d="M12.3252 7.82626C12.6494 7.82626 12.9122 7.56347 12.9122 7.2393C12.9122 6.91513 12.6494 6.65234 12.3252 6.65234C12.0011 6.65234 11.7383 6.91513 11.7383 7.2393C11.7383 7.56347 12.0011 7.82626 12.3252 7.82626Z" fill="#72C472"/>
<path d="M3.91211 2.73926H14.086V3.91317H3.91211V2.73926Z" fill="white"/>
<path d="M3.91211 10.5654H14.086V16.435H3.91211V10.5654Z" fill="white"/>
<path d="M3.91211 10.5654H14.086V11.7393H3.91211V10.5654Z" fill="#CCCCCC"/>
<path d="M3.13086 10.5654H3.91347V11.7393H3.13086V10.5654Z" fill="#9B9B9B"/>
<path d="M14.0879 10.5654H14.8705V11.7393H14.0879V10.5654Z" fill="#9B9B9B"/>
</svg>
