<svg width="24" height="24" viewBox="0 0 24 24" fill="none" xmlns="http://www.w3.org/2000/svg">
<path d="M18.6324 0H1.7578C0.788525 0 0 0.788525 0 1.7578V3.63231C0 4.60159 0.788525 5.39011 1.7578 5.39011H18.6324C19.6016 5.39011 20.3902 4.60159 20.3902 3.63231V1.7578C20.3902 0.788525 19.6016 0 18.6324 0Z" fill="#656D78"/>
<path d="M18.6329 0H17.2266C18.1958 0 18.9844 0.788525 18.9844 1.7578V3.63231C18.9844 4.60159 18.1958 5.39011 17.2266 5.39011H18.6329C19.6022 5.39011 20.3907 4.60159 20.3907 3.63231V1.7578C20.3907 0.788525 19.6022 0 18.6329 0Z" fill="#515760"/>
<path d="M18.1637 3.04687H2.22656C2.03236 3.04687 1.875 2.88946 1.875 2.69531C1.875 2.50115 2.03236 2.34375 2.22656 2.34375H18.1637C18.3579 2.34375 18.5153 2.50115 18.5153 2.69531C18.5153 2.88946 18.3579 3.04687 18.1637 3.04687Z" fill="#515760"/>
<path d="M19.3359 23.9179H19.4494C19.4728 23.9179 19.4836 23.9155 19.4848 23.9111C19.4356 23.9153 19.3861 23.9179 19.3359 23.9179Z" fill="#E6E9ED"/>
<path d="M17.578 22.4133C17.578 22.3093 17.578 22.1601 17.578 22.1601V22.16V21.1055V3.04687C17.578 2.85276 17.4207 2.69545 17.2266 2.69536V2.69531H3.16406C2.96986 2.69531 2.8125 2.85272 2.8125 3.04687C2.8125 3.04687 2.8125 22.4439 2.8125 22.5117C2.8125 23.2883 3.44212 23.9179 4.21874 23.9179H17.578V22.5117C17.578 22.5117 17.578 22.4688 17.578 22.4133Z" fill="#E6E9ED"/>
<path d="M17.578 22.5937V3.1289C17.578 2.9348 17.4207 2.77748 17.2266 2.77734H3.16406C2.96986 2.77734 2.8125 2.93475 2.8125 3.1289C2.8125 3.1289 2.8125 22.5259 2.8125 22.5937C2.8125 23.3703 3.44212 23.9999 4.21874 23.9999H18.9842C18.2076 23.9999 17.578 23.3703 17.578 22.5937Z" fill="#E6E9ED"/>
<path d="M17.578 22.5117V3.04687C17.578 2.85276 17.4208 2.69545 17.2266 2.69536V2.69531H15.8203V2.69536C16.0144 2.69545 16.1716 2.85281 16.1716 3.04687V22.5117H16.1717C16.1717 23.2883 16.8013 23.9179 17.5779 23.9179H18.9843C18.2076 23.9179 17.578 23.2883 17.578 22.5117Z" fill="#DADDE1"/>
<path d="M20.3906 13.6055H19.6642H17.5781V22.5116C17.5781 23.2883 18.2077 23.9179 18.9844 23.9179C19.761 23.9179 20.3906 23.2883 20.3906 22.5116V15.0117C20.3906 14.2351 21.0202 13.6055 21.7968 13.6055H20.3906Z" fill="#CCD1D9"/>
<path d="M21.7969 13.6055C21.0202 13.6055 20.3906 14.2351 20.3906 15.0117V19.2307H22.8515C23.0457 19.2307 23.2031 19.0734 23.2031 18.8792V15.0117C23.2031 14.2351 22.5735 13.6055 21.7969 13.6055Z" fill="#AAB2BC"/>
<path d="M13.2688 11.4859C13.2724 11.4819 13.2761 11.4781 13.2795 11.474C13.2825 11.4705 13.2849 11.4667 13.2877 11.4631C13.2918 11.4577 13.296 11.4524 13.2998 11.4468C13.3017 11.444 13.3034 11.4409 13.3052 11.438C13.3094 11.4314 13.3136 11.4247 13.3174 11.4178C13.3188 11.415 13.32 11.4121 13.3215 11.4093C13.3251 11.402 13.3288 11.3947 13.332 11.3872C13.3342 11.3821 13.3359 11.3767 13.3378 11.3714C13.3398 11.3661 13.342 11.3608 13.3437 11.3553C13.354 11.3222 13.3594 11.2872 13.3594 11.2512C13.3594 11.2512 13.3594 11.2511 13.3594 11.251C13.3594 11.2463 13.3589 11.2418 13.3588 11.2372C13.3584 11.2302 13.3584 11.2232 13.3577 11.2161V11.2155C13.3576 11.2153 13.3576 11.2149 13.3576 11.2147L12.8889 6.52846C12.8889 6.52837 12.8889 6.52832 12.8889 6.52822C12.8854 6.49241 12.8764 6.45815 12.8629 6.42632C12.8604 6.42041 12.8574 6.41479 12.8546 6.40907C12.8524 6.40462 12.8505 6.40002 12.8481 6.39566C12.844 6.38826 12.8395 6.38113 12.835 6.3741C12.8334 6.37166 12.832 6.36913 12.8305 6.36674C12.826 6.36004 12.821 6.35376 12.816 6.34743C12.814 6.34485 12.8122 6.34213 12.8101 6.3396C12.8056 6.33416 12.8007 6.3291 12.7959 6.32394C12.793 6.32085 12.7903 6.31752 12.7872 6.31452C12.783 6.31035 12.7785 6.30655 12.7741 6.30262C12.7701 6.29901 12.7663 6.29521 12.7621 6.29179C12.7584 6.28874 12.7544 6.28598 12.7505 6.28307C12.7453 6.27918 12.7402 6.27515 12.735 6.27154C12.7314 6.2692 12.7276 6.26718 12.7241 6.26493C12.7181 6.26123 12.7122 6.25738 12.7059 6.25405C12.7017 6.25176 12.6971 6.24984 12.6928 6.24768C12.687 6.24487 12.6814 6.24187 12.6755 6.23938C12.6666 6.23563 12.6575 6.23249 12.6483 6.22945C12.6467 6.22893 12.6452 6.22823 12.6435 6.22771C12.6104 6.21735 12.5753 6.21187 12.5392 6.21191H12.5391H7.8516C7.85151 6.21191 7.85151 6.21191 7.85142 6.21191C7.81528 6.21187 7.78017 6.2174 7.74703 6.22771C7.74604 6.22804 7.7451 6.22846 7.74407 6.22879C7.73418 6.23193 7.72448 6.23545 7.71506 6.23943C7.71074 6.24126 7.70681 6.24341 7.70259 6.24538C7.69654 6.24824 7.69031 6.25096 7.68445 6.25415C7.67995 6.25654 7.67582 6.25935 7.67156 6.26188C7.66617 6.26512 7.66068 6.26816 7.65543 6.27168C7.65187 6.27402 7.64864 6.27674 7.64526 6.27923C7.6395 6.2834 7.63364 6.28748 7.62815 6.29198C7.62595 6.2938 7.62393 6.29587 7.62173 6.29779C7.61531 6.30332 7.60903 6.3088 7.60307 6.31476C7.602 6.31588 7.60096 6.31715 7.59989 6.31827C7.59309 6.32521 7.58643 6.33234 7.58029 6.33984C7.58001 6.34007 7.57982 6.34035 7.57964 6.34063C7.56562 6.35774 7.55311 6.37616 7.54237 6.39585C7.542 6.39651 7.54171 6.39726 7.54139 6.39791C7.53646 6.40719 7.53178 6.41666 7.52765 6.42646C7.5142 6.45824 7.50529 6.49246 7.50173 6.52822C7.50173 6.52832 7.50173 6.52837 7.50173 6.52846L7.03308 11.2147C7.03308 11.2149 7.03308 11.2153 7.03298 11.2155V11.2161C7.03223 11.2231 7.03214 11.2302 7.03191 11.2372C7.03172 11.2418 7.03125 11.2464 7.03125 11.251C7.03125 11.2511 7.03125 11.2511 7.03125 11.2511C7.03125 11.2872 7.03664 11.3222 7.047 11.3553C7.04855 11.3605 7.05066 11.3655 7.05258 11.3706C7.05459 11.3762 7.05633 11.3818 7.05862 11.3872C7.06172 11.3947 7.06542 11.4018 7.06908 11.409C7.07053 11.4119 7.07175 11.4149 7.0733 11.4178C7.07705 11.4247 7.08127 11.4314 7.08548 11.438C7.08731 11.441 7.08895 11.444 7.09087 11.4468C7.09462 11.4524 7.09884 11.4577 7.10297 11.4631C7.10573 11.4667 7.10817 11.4705 7.11112 11.474C7.1145 11.4781 7.11825 11.4819 7.12186 11.4859C7.1258 11.4903 7.12973 11.4949 7.13395 11.4992C7.13662 11.5019 7.13953 11.5042 7.1423 11.5068C7.14778 11.512 7.15317 11.5172 7.15903 11.522C7.16105 11.5237 7.16316 11.5251 7.16517 11.5267C7.17201 11.5321 7.17891 11.5374 7.18612 11.5424C7.18795 11.5436 7.18997 11.5446 7.1918 11.5458C7.19939 11.5508 7.20708 11.5556 7.21514 11.56C7.21809 11.5616 7.22128 11.5629 7.22437 11.5645C7.23141 11.568 7.23839 11.5717 7.2457 11.5748C7.27758 11.5883 7.31179 11.5972 7.34761 11.6008C7.3477 11.6008 7.34779 11.6008 7.34789 11.6008C7.35979 11.602 7.37151 11.6026 7.38323 11.6026C7.38342 11.6026 7.38361 11.6026 7.3837 11.6026H13.0069C13.0071 11.6026 13.0072 11.6026 13.0074 11.6026C13.0191 11.6026 13.031 11.602 13.0428 11.6008C13.0429 11.6008 13.043 11.6008 13.0431 11.6008C13.0789 11.5972 13.1131 11.5883 13.145 11.5748C13.1522 11.5717 13.1592 11.5681 13.1661 11.5646C13.1692 11.563 13.1725 11.5617 13.1755 11.56C13.1836 11.5556 13.1913 11.5508 13.1989 11.5458C13.2007 11.5446 13.2027 11.5436 13.2045 11.5424C13.2118 11.5374 13.2187 11.5321 13.2254 11.5267C13.2275 11.5251 13.2296 11.5237 13.2316 11.522C13.2375 11.5172 13.2429 11.512 13.2484 11.5068C13.2511 11.5042 13.254 11.5019 13.2567 11.4992C13.2609 11.4949 13.2648 11.4903 13.2688 11.4859Z" fill="#48CFAD"/>
<path d="M10.1953 4.33594C9.48459 4.33594 8.90625 4.91423 8.90625 5.62499V7.03137C8.90625 7.22552 9.06361 7.38293 9.25781 7.38293C9.45201 7.38293 9.60937 7.22552 9.60937 7.03137V5.62499C9.60937 5.30188 9.87219 5.03906 10.1953 5.03906C10.5184 5.03906 10.7812 5.30188 10.7812 5.62499V7.03137C10.7812 7.22552 10.9386 7.38293 11.1328 7.38293C11.327 7.38293 11.4844 7.22552 11.4844 7.03137V5.62499C11.4844 4.91418 10.9061 4.33594 10.1953 4.33594Z" fill="#656D78"/>
<path d="M15.3516 14.0273H5.03906C4.84486 14.0273 4.6875 13.8699 4.6875 13.6758C4.6875 13.4816 4.84486 13.3242 5.03906 13.3242H15.3516C15.5457 13.3242 15.7031 13.4816 15.7031 13.6758C15.7031 13.87 15.5458 14.0273 15.3516 14.0273Z" fill="#CCD1D9"/>
<path d="M10.1953 16.3711H5.03906C4.84486 16.3711 4.6875 16.2137 4.6875 16.0195C4.6875 15.8254 4.84486 15.668 5.03906 15.668H10.1953C10.3895 15.668 10.5468 15.8254 10.5468 16.0195C10.5468 16.2137 10.3895 16.3711 10.1953 16.3711Z" fill="#656D78"/>
<path d="M15.3516 16.3711H14.4141C14.2199 16.3711 14.0625 16.2137 14.0625 16.0195C14.0625 15.8254 14.2199 15.668 14.4141 15.668H15.3516C15.5457 15.668 15.7031 15.8254 15.7031 16.0195C15.7031 16.2137 15.5458 16.3711 15.3516 16.3711Z" fill="#ED5565"/>
<path d="M8.32009 18.7148H5.03906C4.84486 18.7148 4.6875 18.5574 4.6875 18.3633C4.6875 18.1691 4.84486 18.0117 5.03906 18.0117H8.32009C8.5143 18.0117 8.67165 18.1691 8.67165 18.3633C8.67165 18.5575 8.5143 18.7148 8.32009 18.7148Z" fill="#656D78"/>
<path d="M15.3516 18.7148H14.4141C14.2199 18.7148 14.0625 18.5574 14.0625 18.3633C14.0625 18.1691 14.2199 18.0117 14.4141 18.0117H15.3516C15.5457 18.0117 15.7031 18.1691 15.7031 18.3633C15.7031 18.5575 15.5458 18.7148 15.3516 18.7148Z" fill="#ED5565"/>
<path d="M11.1329 21.0586H5.03906C4.84486 21.0586 4.6875 20.9012 4.6875 20.707C4.6875 20.5129 4.84486 20.3555 5.03906 20.3555H11.1329C11.3271 20.3555 11.4844 20.5129 11.4844 20.707C11.4844 20.9012 11.327 21.0586 11.1329 21.0586Z" fill="#656D78"/>
<path d="M15.3516 21.0586H14.4141C14.2199 21.0586 14.0625 20.9012 14.0625 20.707C14.0625 20.5129 14.2199 20.3555 14.4141 20.3555H15.3516C15.5457 20.3555 15.7031 20.5129 15.7031 20.707C15.7031 20.9012 15.5458 21.0586 15.3516 21.0586Z" fill="#ED5565"/>
</svg>
