<svg width="20" height="20" viewBox="0 0 20 20" fill="none" xmlns="http://www.w3.org/2000/svg">
<path d="M18.2422 0H1.75781C0.785078 0 0 0.785117 0 1.75781V4.10156C0 5.07418 0.785078 5.85938 1.75781 5.85938H4.10156C4.42973 5.85938 4.6875 5.60152 4.6875 5.27344V3.51562H15.3125V5.27344C15.3125 5.60152 15.5703 5.85938 15.8984 5.85938H18.2422C19.2149 5.85938 20 5.07418 20 4.10156V1.75781C20 0.785117 19.2149 0 18.2422 0Z" fill="#0D70B2"/>
<path d="M20 1.75781V4.10156C20 5.07418 19.2149 5.85938 18.2422 5.85938H15.8984C15.5703 5.85938 15.3125 5.60152 15.3125 5.27344V3.51562H10.0391V0H18.2422C19.2149 0 20 0.785117 20 1.75781Z" fill="#095C92"/>
<path d="M16.4844 2.92969V18.2422C16.4844 18.3945 16.4257 18.5469 16.3086 18.6523L15.1367 19.8242C15.0312 19.9414 14.8789 20 14.7266 20C14.5742 20 14.4219 19.9414 14.3164 19.8242L13.5547 19.0742L12.7929 19.8242C12.5702 20.0586 12.1954 20.0586 11.9727 19.8242L11.2109 19.0742L10.4492 19.8242C10.3437 19.9414 10.1914 20 10.0391 20C9.88672 20 9.65625 19.9414 9.55082 19.8242L8.78906 19.0742L8.0273 19.8242C7.80457 20.0586 7.42977 20.0586 7.20703 19.8242L6.44531 19.0742L5.68355 19.8242C5.46082 20.0586 5.08602 20.0586 4.86328 19.8242L3.69141 18.6523C3.57426 18.5469 3.51562 18.3945 3.51562 18.2422V2.92969H16.4844Z" fill="#E1E1E4"/>
<path d="M16.4844 2.92969V18.2422C16.4844 18.3945 16.4257 18.5469 16.3086 18.6523L15.1367 19.8242C15.0312 19.9414 14.8789 20 14.7266 20C14.5742 20 14.4219 19.9414 14.3164 19.8242L13.5547 19.0742L12.7929 19.8242C12.5702 20.0586 12.1954 20.0586 11.9727 19.8242L11.2109 19.0742L10.4492 19.8242C10.3437 19.9414 10.1914 20 10.0391 20V2.92969H16.4844Z" fill="#D9D8DB"/>
<path d="M5.27344 5.85938H3.51562V4.6875H5.27344C6.04969 4.6875 6.04969 5.85938 5.27344 5.85938Z" fill="#D9D8DB"/>
<path d="M8.78751 5.85938H7.61563C6.84325 5.85938 6.84008 4.6875 7.61563 4.6875H8.78751C9.55989 4.6875 9.56305 5.85938 8.78751 5.85938Z" fill="#D9D8DB"/>
<path d="M12.3813 5.85938H11.2094C10.437 5.85938 10.4338 4.6875 11.2094 4.6875H12.3813C13.1536 4.6875 13.1568 5.85938 12.3813 5.85938Z" fill="#C8C6CD"/>
<path d="M16.4845 4.6875V5.85938H14.7267C13.9505 5.85938 13.9505 4.6875 14.7267 4.6875H16.4845Z" fill="#C8C6CD"/>
<path d="M13.5531 9.45312H11.2094C10.437 9.45312 10.4338 8.28125 11.2094 8.28125H13.5531C14.3255 8.28125 14.3287 9.45312 13.5531 9.45312Z" fill="#1689FC"/>
<path d="M17.0702 3.51562H2.9296C2.15628 3.51562 2.15628 2.34375 2.9296 2.34375H17.0702C17.8435 2.34375 17.8435 3.51562 17.0702 3.51562Z" fill="#095C92"/>
<path d="M17.0703 2.34375C17.8436 2.34375 17.8436 3.51562 17.0703 3.51562H10.0391V2.34375" fill="#08469C"/>
<path d="M7.6179 10.625C6.98099 10.625 6.80614 9.74637 7.39017 9.49891C7.64993 9.38961 7.96579 9.48289 8.25193 9.75926C8.48423 9.98469 8.85501 9.97898 9.08048 9.74551C9.30591 9.5132 9.29907 9.14242 9.06673 8.91695C8.80267 8.66168 8.50685 8.49918 8.20384 8.39688V7.69531C8.20384 7.37145 7.94177 7.10938 7.6179 7.10938C7.29404 7.10938 7.03197 7.37145 7.03197 7.69531V8.39512C6.99919 8.40676 6.96474 8.40598 6.9324 8.41973C6.28122 8.69609 5.86009 9.33125 5.86009 10.0391C5.86009 11.0084 6.64861 11.7969 7.6179 11.7969C8.27161 11.7969 8.42798 12.7129 7.81818 12.9333C7.52177 13.046 7.16587 12.8944 6.85689 12.5253C6.64861 12.2764 6.27896 12.2444 6.03177 12.4538C5.78345 12.6621 5.75138 13.0317 5.95966 13.2795C6.27579 13.656 6.64572 13.9033 7.03197 14.0336V14.7266C7.03197 15.0504 7.29404 15.3125 7.6179 15.3125C7.94177 15.3125 8.20384 15.0504 8.20384 14.7266V14.0376C8.20911 14.0357 8.21458 14.0367 8.21986 14.0348C8.91107 13.783 9.37572 13.1187 9.37572 12.3828C9.37572 11.4135 8.5872 10.625 7.6179 10.625Z" fill="#17ACE8"/>
<path d="M13.5531 11.7969H11.2094C10.437 11.7969 10.4338 10.625 11.2094 10.625H13.5531C14.3255 10.625 14.3287 11.7969 13.5531 11.7969Z" fill="#1689FC"/>
<path d="M13.5531 14.1406H11.2094C10.437 14.1406 10.4338 12.9688 11.2094 12.9688H13.5531C14.3255 12.9688 14.3287 14.1406 13.5531 14.1406Z" fill="#1689FC"/>
</svg>
