<svg width="20" height="20" viewBox="0 0 20 20" fill="none" xmlns="http://www.w3.org/2000/svg">
<path fill-rule="evenodd" clip-rule="evenodd" d="M16.4032 2.07447C16.2803 2.02419 16.1487 1.99888 16.0159 2.00004C15.8831 2.00119 15.7519 2.02878 15.6299 2.08119C15.5079 2.1336 15.3975 2.20978 15.3053 2.30529L15.2931 2.31768L12.0002 5.61058L13.414 7.02436L16.7069 3.73147L16.7193 3.71929C16.8148 3.62704 16.891 3.51669 16.9434 3.39469C16.9958 3.27269 17.0234 3.14147 17.0245 3.00869C17.0257 2.87591 17.0004 2.74423 16.9501 2.62133C16.8998 2.49844 16.8256 2.38679 16.7317 2.29289C16.6378 2.199 16.5261 2.12475 16.4032 2.07447ZM11.9998 8.43858L10.586 7.02479L7 10.6108V12.0246H8.41379L11.9998 8.43858ZM9.17179 5.61058L5.29289 9.48947C5.10536 9.67701 5 9.93136 5 10.1966V13.0246C5 13.5769 5.44772 14.0246 6 14.0246H8.828C9.09322 14.0246 9.34757 13.9192 9.53511 13.7317L13.414 9.85279L15 11.4388V16.0246C15 16.2898 14.8946 16.5441 14.7071 16.7317C14.5196 16.9192 14.2652 17.0246 14 17.0246H3C2.73478 17.0246 2.48043 16.9192 2.29289 16.7317C2.10536 16.5441 2 16.2898 2 16.0246V5.02458C2 4.75936 2.10536 4.50501 2.29289 4.31747C2.48043 4.12993 2.73478 4.02458 3 4.02458H7.58579L9.17179 5.61058ZM10.586 4.19636L8.70711 2.31747C8.51957 2.12993 8.26522 2.02458 8 2.02458H3C2.20435 2.02458 1.44129 2.34065 0.87868 2.90326C0.31607 3.46587 0 4.22893 0 5.02458V16.0246C0 16.8202 0.31607 17.5833 0.87868 18.1459C1.44129 18.7085 2.20435 19.0246 3 19.0246H14C14.7957 19.0246 15.5587 18.7085 16.1213 18.1459C16.6839 17.5833 17 16.8202 17 16.0246V11.0246C17 10.7594 16.8946 10.505 16.7071 10.3175L14.8282 8.43858L18.1156 5.15117C18.3989 4.8758 18.6251 4.54715 18.781 4.18408C18.9382 3.81807 19.021 3.42441 19.0245 3.02607C19.0279 2.62773 18.952 2.23269 18.8012 1.864C18.6503 1.49531 18.4276 1.16036 18.1459 0.87868C17.8642 0.597002 17.5293 0.374243 17.1606 0.2234C16.7919 0.0725572 16.3968 -0.00334821 15.9985 0.000113272C15.6002 0.00357475 15.2065 0.0863331 14.8405 0.24356C14.4774 0.399528 14.1488 0.625676 13.8734 0.908988L10.586 4.19636Z" fill="white"/>
</svg>
