<svg width="13" height="17" viewBox="0 0 13 17" fill="none" xmlns="http://www.w3.org/2000/svg">
<path fill-rule="evenodd" clip-rule="evenodd" d="M1.35339 15.0136H10.8292V5.00391H9.47551V6.43386H2.70707V5.00391H1.35339V15.0136ZM8.12132 3.57422H4.06026V5.00417H8.12132V3.57422ZM7.26141 2.14466C7.02722 1.71711 6.58998 1.42969 6.08979 1.42969C5.58961 1.42969 5.15237 1.71711 4.91818 2.14466H7.26141ZM9.47581 3.57488H10.8295C11.5761 3.57488 12.1832 4.21621 12.1832 5.00483V15.0145C12.1832 15.8024 11.5761 16.4444 10.8295 16.4444H1.35369C0.607129 16.4444 0 15.8024 0 15.0145V5.00483C0 4.21621 0.607129 3.57488 1.35369 3.57488H2.70738V2.14493H3.48033C3.78288 0.915169 4.83402 0 6.09159 0C7.34917 0 8.40031 0.915169 8.70286 2.14493H9.47581V3.57488ZM5.41777 7.86328H6.77146V10.0082H8.80199V11.4382H6.77146V13.5831H5.41777V11.4382H3.38724V10.0082H5.41777V7.86328Z" fill="white"/>
</svg>
