<svg width="24" height="24" viewBox="0 0 24 24" fill="none" xmlns="http://www.w3.org/2000/svg">
<path d="M23.4727 13.431C22.5441 14.5082 21.0342 16.0719 19.1109 17.4027C16.7039 19.0691 14.3114 19.9138 12 19.9138C9.68859 19.9138 7.29563 19.0691 4.88906 17.4027C2.96578 16.0719 1.45547 14.5082 0.527344 13.431C-0.175781 12.6154 -0.175781 11.3854 0.527344 10.5697C1.45547 9.49254 2.96578 7.92879 4.88906 6.59801C7.29563 4.9316 9.68859 4.08691 12 4.08691C14.3114 4.08691 16.7039 4.9316 19.1109 6.59801C21.0342 7.92879 22.5441 9.49254 23.4727 10.5697C24.1752 11.3857 24.1763 12.6137 23.4727 13.431Z" fill="#DFE7F4"/>
<path d="M23.4726 13.431C22.5441 14.5082 21.0342 16.0719 19.1109 17.4027C16.7039 19.0691 14.3114 19.9138 12 19.9138V4.08691C14.3114 4.08691 16.7039 4.9316 19.1109 6.59801C21.0342 7.92879 22.5441 9.49254 23.4726 10.5697C24.1752 11.3857 24.1763 12.6137 23.4726 13.431Z" fill="#C7CFE1"/>
<path d="M15.2289 12.9813C15.7687 11.2 14.7623 9.31836 12.9809 8.77856C11.1996 8.23877 9.31797 9.24523 8.77817 11.0266C8.23837 12.8079 9.24484 14.6895 11.0262 15.2293C12.8075 15.7691 14.6891 14.7627 15.2289 12.9813Z" fill="#334973"/>
<path d="M15.3703 12.0002C15.3703 13.8616 13.8614 15.3705 12 15.3705V8.62988C13.8614 8.62988 15.3703 10.1388 15.3703 12.0002Z" fill="#1F3259"/>
<path d="M11.9995 7.74609C9.65437 7.74609 7.74609 9.65438 7.74609 11.9995C7.74609 14.3447 9.65437 16.253 11.9995 16.253C14.3447 16.253 16.2525 14.3447 16.2525 11.9995C16.2525 9.65438 14.3447 7.74609 11.9995 7.74609ZM11.9995 14.797C10.4569 14.797 9.20203 13.5422 9.20203 11.9995C9.20203 10.4569 10.4569 9.20203 11.9995 9.20203C13.5422 9.20203 14.797 10.4569 14.797 11.9995C14.797 13.5422 13.5422 14.797 11.9995 14.797Z" fill="#6AA9FF"/>
<path d="M16.253 11.9995C16.253 14.3447 14.3452 16.253 12 16.253V14.797C13.5427 14.797 14.7975 13.5422 14.7975 11.9995C14.7975 10.4569 13.5427 9.20203 12 9.20203V7.74609C14.3452 7.74609 16.253 9.65438 16.253 11.9995Z" fill="#4987EA"/>
<path d="M22.5593 2.43266L12.4948 12.4972L11.9979 12.9941L2.4307 22.5613C2.15536 22.8366 1.71014 22.8358 1.43648 22.5613C1.1618 22.287 1.1618 21.8417 1.43648 21.567L11.5005 11.5025L11.9979 11.0052L21.5651 1.43844C21.8398 1.16375 22.2846 1.16375 22.5593 1.43844C22.834 1.71266 22.834 2.15797 22.5593 2.43266Z" fill="#FF4D4D"/>
<path d="M22.5614 2.43266L12.4969 12.4972L12 12.9941V11.0052L21.5672 1.43844C21.8419 1.16375 22.2867 1.16375 22.5614 1.43844C22.8361 1.71266 22.8361 2.15797 22.5614 2.43266Z" fill="#CD0000"/>
</svg>
