<svg width="22" height="22" viewBox="0 0 22 22" fill="none" xmlns="http://www.w3.org/2000/svg">
<path d="M13.8389 17.0757H12.0648L11.882 17.8066C11.7809 18.2112 11.4173 18.4951 11.0002 18.4951C10.5831 18.4951 10.2196 18.2112 10.1184 17.8066L9.93566 17.0757H8.16148L7.80664 19.9145H14.1937L13.8389 17.0757Z" fill="#DBD9DC"/>
<path d="M15.6132 20.4039H6.38737C6.19122 20.4039 6.03253 20.245 6.03253 20.0491C6.03253 19.8532 6.19126 19.6943 6.38737 19.6943H15.6132C15.8093 19.6943 15.968 19.8532 15.968 20.0491C15.968 20.245 15.8093 20.4039 15.6132 20.4039Z" fill="#E1E1E1"/>
<path d="M8.1609 17.0757L8.05554 17.9185H10.156C10.1417 17.8821 10.1275 17.8454 10.1178 17.8066L9.93504 17.0757H8.1609Z" fill="#C9C6CA"/>
<path d="M11.8428 17.9185H13.9433L13.8379 17.0757H12.0637L11.881 17.8066C11.8713 17.8454 11.8571 17.8821 11.8428 17.9185Z" fill="#C9C6CA"/>
<path d="M20.9355 17.2105H1.06451C0.476609 17.2105 0 16.7339 0 16.146V2.6621C0 2.0742 0.476609 1.5976 1.06451 1.5976H20.9355C21.5234 1.5976 22 2.0742 22 2.6621V16.146C22 16.7339 21.5234 17.2105 20.9355 17.2105Z" fill="#E1E1E1"/>
<path d="M20.2256 15.791H1.77396C1.57798 15.791 1.41913 15.6321 1.41913 15.4361V3.37162C1.41913 3.17564 1.57798 3.01678 1.77396 3.01678H20.2256C20.4216 3.01678 20.5804 3.17564 20.5804 3.37162V15.4361C20.5804 15.6321 20.4215 15.791 20.2256 15.791Z" fill="#E6646E"/>
<path d="M8.87129 13.661C9.26323 13.661 9.58097 13.3433 9.58097 12.9514C9.58097 12.5594 9.26323 12.2417 8.87129 12.2417C8.47935 12.2417 8.16162 12.5594 8.16162 12.9514C8.16162 13.3433 8.47935 13.661 8.87129 13.661Z" fill="#5D5360"/>
<path d="M13.8386 13.661C14.2305 13.661 14.5482 13.3433 14.5482 12.9514C14.5482 12.5594 14.2305 12.2417 13.8386 12.2417C13.4466 12.2417 13.1289 12.5594 13.1289 12.9514C13.1289 13.3433 13.4466 13.661 13.8386 13.661Z" fill="#5D5360"/>
<path d="M14.5484 12.5974H8.38066C8.1329 12.5974 7.90731 12.4716 7.77703 12.2609C7.64675 12.0502 7.63498 11.7922 7.74584 11.5704L8.28746 10.487C8.37511 10.3116 8.58824 10.2406 8.76359 10.3283C8.93895 10.4159 9.00998 10.629 8.92232 10.8044L8.3807 11.8876H14.5484C14.7446 11.8876 14.9033 12.0465 14.9033 12.2425C14.9033 12.4384 14.7445 12.5974 14.5484 12.5974Z" fill="#EDEBED"/>
<path d="M14.9035 7.98433H13.5762L13.7045 6.56744L12.9976 6.50333L12.8635 7.98433H11.7099V6.56499H11.0003V7.98433H9.89081L9.62041 6.3446L8.92045 6.46002L9.17182 7.98433H7.8067V8.69405H9.28882L9.60065 10.585L10.3007 10.4696L10.0079 8.69405H11.0003V10.4682H11.7099V8.69405H12.7992L12.6722 10.0961L13.3791 10.1602L13.5119 8.69405H14.9035V7.98433Z" fill="#EDEBED"/>
<path d="M9.02991 11.1118C8.55898 11.1118 8.14145 10.8029 8.00872 10.3396L6.79103 6.07773L5.83532 5.44029C5.67212 5.33167 5.62808 5.11128 5.73692 4.94822C5.84537 4.78519 6.06507 4.74063 6.229 4.84982L7.18505 5.48709C7.31744 5.57543 7.41584 5.70524 7.46503 5.8549C7.46607 5.85507 7.46675 5.85507 7.46744 5.85507L15.2739 6.2099C15.3775 6.21459 15.4735 6.26413 15.5372 6.34573C15.601 6.42715 15.6263 6.53251 15.6059 6.63405L15.0479 9.42422C14.927 10.0287 14.4343 10.4834 13.822 10.5555L9.15706 11.1043C9.11448 11.1094 9.07185 11.1118 9.02991 11.1118ZM7.6712 6.57479L8.69136 10.1445C8.73919 10.3126 8.89753 10.42 9.07391 10.3995L13.7388 9.85064C14.0451 9.81459 14.2915 9.58728 14.3522 9.28496L14.829 6.9002L7.6712 6.57479Z" fill="white"/>
<path d="M6.94107 6.10613C6.87348 6.10613 6.80525 6.08688 6.74457 6.04653L5.83532 5.44029C5.67212 5.33167 5.62808 5.11128 5.73692 4.94821C5.84537 4.78519 6.06507 4.74063 6.22899 4.84982L7.13825 5.45606C7.30145 5.56468 7.34549 5.78507 7.23665 5.94814C7.16842 6.0507 7.0558 6.10613 6.94107 6.10613Z" fill="#FFE17D"/>
<path d="M9.22561 15.0813C5.30617 15.0813 2.12884 11.904 2.12884 7.98453V3.01678H1.77396C1.57798 3.01678 1.41913 3.17564 1.41913 3.37162V15.4361C1.41913 15.6321 1.57798 15.791 1.77396 15.791H20.2256C20.4216 15.791 20.5804 15.6321 20.5804 15.4361V15.0813H9.22561Z" fill="#DC4655"/>
</svg>
