<svg width="28" height="28" viewBox="0 0 28 28" fill="none" xmlns="http://www.w3.org/2000/svg">
<path d="M7.72398 0H20.2757C21.3422 0 22.2067 0.864555 22.2067 1.93102V26.069C22.2067 27.1354 21.3422 28 20.2757 28H7.72398C6.65752 28 5.79297 27.1354 5.79297 26.069V1.93102C5.79297 0.864555 6.65752 0 7.72398 0Z" fill="#35495E"/>
<path d="M20.7594 1.93102V5.31033H7.24219V1.93102C7.24301 1.66475 7.45864 1.44906 7.72497 1.44824H9.30839C9.51675 1.44977 9.7011 1.58365 9.767 1.78134L9.91668 2.23514C10.049 2.62944 10.418 2.89549 10.8339 2.89653H17.1677C17.5836 2.89549 17.9526 2.62944 18.0849 2.23514L18.2346 1.78134C18.3005 1.58365 18.4848 1.44977 18.6932 1.44824H20.2766C20.543 1.44906 20.7586 1.66475 20.7594 1.93102Z" fill="#B0D3F0"/>
<path d="M20.7595 21.7246V26.0694C20.7586 26.3357 20.543 26.5514 20.2767 26.5522H7.72497C7.4587 26.5514 7.24301 26.3358 7.24219 26.0694V21.7246H20.7595Z" fill="#B0D3F0"/>
<path d="M20.7555 5.31055H7.23828V21.7243H20.7555V5.31055Z" fill="#90BAE1"/>
<path d="M16.4163 1.93119C16.2879 1.93245 16.1644 1.88197 16.0736 1.79119C15.9828 1.70041 15.9324 1.57687 15.9336 1.44846C15.9354 1.32066 15.9854 1.19821 16.0736 1.10568C16.2672 0.927014 16.5655 0.927014 16.7591 1.10568C16.9458 1.29605 16.9458 1.60082 16.7591 1.79113C16.6665 1.87923 16.5441 1.92927 16.4163 1.93119Z" fill="#A5A5A4"/>
<path d="M9.17419 23.1729H10.1397C10.4063 23.1729 10.6225 23.389 10.6225 23.6556V24.6211C10.6225 24.8877 10.4064 25.1039 10.1397 25.1039H9.17419C8.90759 25.1039 8.69141 24.8878 8.69141 24.6211V23.6556C8.69146 23.389 8.90759 23.1729 9.17419 23.1729Z" fill="#14A085"/>
<path d="M12.0687 23.1729H13.0342C13.3008 23.1729 13.517 23.389 13.517 23.6556V24.6211C13.517 24.8877 13.3009 25.1039 13.0342 25.1039H12.0687C11.8021 25.1039 11.5859 24.8878 11.5859 24.6211V23.6556C11.5859 23.389 11.8021 23.1729 12.0687 23.1729Z" fill="#4482C3"/>
<path d="M14.9672 23.1729H15.9327C16.1993 23.1729 16.4154 23.389 16.4154 23.6556V24.6211C16.4154 24.8877 16.1993 25.1039 15.9327 25.1039H14.9672C14.7006 25.1039 14.4844 24.8878 14.4844 24.6211V23.6556C14.4844 23.389 14.7006 23.1729 14.9672 23.1729Z" fill="#14A085"/>
<path d="M17.8617 23.1729H18.8272C19.0938 23.1729 19.31 23.389 19.31 23.6556V24.6211C19.31 24.8877 19.0939 25.1039 18.8272 25.1039H17.8617C17.5951 25.1039 17.3789 24.8878 17.3789 24.6211V23.6556C17.3789 23.389 17.595 23.1729 17.8617 23.1729Z" fill="#E6E7E8"/>
<path d="M9.17419 6.75879H10.1397C10.4063 6.75879 10.6225 6.97491 10.6225 7.24157V8.20708C10.6225 8.47368 10.4064 8.68986 10.1397 8.68986H9.17419C8.90759 8.68986 8.69141 8.47374 8.69141 8.20708V7.24157C8.69146 6.97491 8.90759 6.75879 9.17419 6.75879Z" fill="#4482C3"/>
<path d="M12.0687 6.75879H13.0342C13.3008 6.75879 13.517 6.97491 13.517 7.24157V8.20708C13.517 8.47368 13.3009 8.68986 13.0342 8.68986H12.0687C11.8021 8.68986 11.5859 8.47374 11.5859 8.20708V7.24157C11.5859 6.97491 11.8021 6.75879 12.0687 6.75879Z" fill="#CB9080"/>
<path d="M14.9672 6.75879H15.9327C16.1993 6.75879 16.4154 6.97491 16.4154 7.24157V8.20708C16.4154 8.47368 16.1993 8.68986 15.9327 8.68986H14.9672C14.7006 8.68986 14.4844 8.47374 14.4844 8.20708V7.24157C14.4844 6.97491 14.7006 6.75879 14.9672 6.75879Z" fill="#E6E7E8"/>
<path d="M17.8617 6.75879H18.8272C19.0938 6.75879 19.31 6.97491 19.31 7.24157V8.20708C19.31 8.47368 19.0939 8.68986 18.8272 8.68986H17.8617C17.5951 8.68986 17.3789 8.47374 17.3789 8.20708V7.24157C17.3789 6.97491 17.595 6.75879 17.8617 6.75879Z" fill="#4482C3"/>
<path d="M9.17419 10.1377H10.1397C10.4063 10.1377 10.6225 10.3538 10.6225 10.6205V11.586C10.6225 11.8526 10.4064 12.0688 10.1397 12.0688H9.17419C8.90759 12.0688 8.69141 11.8526 8.69141 11.586V10.6205C8.69146 10.3539 8.90759 10.1377 9.17419 10.1377Z" fill="#CB9080"/>
<path d="M12.0687 10.1377H13.0342C13.3008 10.1377 13.517 10.3538 13.517 10.6205V11.586C13.517 11.8526 13.3009 12.0688 13.0342 12.0688H12.0687C11.8021 12.0688 11.5859 11.8526 11.5859 11.586V10.6205C11.5859 10.3539 11.8021 10.1377 12.0687 10.1377Z" fill="#E6E7E8"/>
<path d="M14.9672 10.1377H15.9327C16.1993 10.1377 16.4154 10.3538 16.4154 10.6205V11.586C16.4154 11.8526 16.1993 12.0688 15.9327 12.0688H14.9672C14.7006 12.0688 14.4844 11.8526 14.4844 11.586V10.6205C14.4844 10.3539 14.7006 10.1377 14.9672 10.1377Z" fill="#14A085"/>
<path d="M17.8617 10.1377H18.8272C19.0938 10.1377 19.31 10.3538 19.31 10.6205V11.586C19.31 11.8526 19.0939 12.0688 18.8272 12.0688H17.8617C17.5951 12.0688 17.3789 11.8526 17.3789 11.586V10.6205C17.3789 10.3539 17.595 10.1377 17.8617 10.1377Z" fill="#4482C3"/>
<path d="M9.17419 13.5176H10.1397C10.4063 13.5176 10.6225 13.7337 10.6225 14.0004V14.9659C10.6225 15.2325 10.4064 15.4486 10.1397 15.4486H9.17419C8.90759 15.4486 8.69141 15.2325 8.69141 14.9659V14.0004C8.69146 13.7338 8.90759 13.5176 9.17419 13.5176Z" fill="#E6E7E8"/>
<path d="M12.0687 13.5176H13.0342C13.3008 13.5176 13.517 13.7337 13.517 14.0004V14.9659C13.517 15.2325 13.3009 15.4486 13.0342 15.4486H12.0687C11.8021 15.4486 11.5859 15.2325 11.5859 14.9659V14.0004C11.5859 13.7338 11.8021 13.5176 12.0687 13.5176Z" fill="#4482C3"/>
<path d="M14.9672 13.5176H15.9327C16.1993 13.5176 16.4154 13.7337 16.4154 14.0004V14.9659C16.4154 15.2325 16.1993 15.4486 15.9327 15.4486H14.9672C14.7006 15.4486 14.4844 15.2325 14.4844 14.9659V14.0004C14.4844 13.7338 14.7006 13.5176 14.9672 13.5176Z" fill="#14A085"/>
<path d="M17.8617 13.5176H18.8272C19.0938 13.5176 19.31 13.7337 19.31 14.0004V14.9659C19.31 15.2325 19.0939 15.4486 18.8272 15.4486H17.8617C17.5951 15.4486 17.3789 15.2325 17.3789 14.9659V14.0004C17.3789 13.7338 17.595 13.5176 17.8617 13.5176Z" fill="#E6E7E8"/>
<path d="M9.17419 16.8965H10.1397C10.4063 16.8965 10.6225 17.1126 10.6225 17.3793V18.3448C10.6225 18.6114 10.4064 18.8276 10.1397 18.8276H9.17419C8.90759 18.8276 8.69141 18.6114 8.69141 18.3448V17.3793C8.69146 17.1126 8.90759 16.8965 9.17419 16.8965Z" fill="#14A085"/>
<path d="M12.0687 16.8965H13.0342C13.3008 16.8965 13.517 17.1126 13.517 17.3793V18.3448C13.517 18.6114 13.3009 18.8276 13.0342 18.8276H12.0687C11.8021 18.8276 11.5859 18.6114 11.5859 18.3448V17.3793C11.5859 17.1126 11.8021 16.8965 12.0687 16.8965Z" fill="#4482C3"/>
<path d="M14.9672 16.8965H15.9327C16.1993 16.8965 16.4154 17.1126 16.4154 17.3793V18.3448C16.4154 18.6114 16.1993 18.8276 15.9327 18.8276H14.9672C14.7006 18.8276 14.4844 18.6114 14.4844 18.3448V17.3793C14.4844 17.1126 14.7006 16.8965 14.9672 16.8965Z" fill="#E6E7E8"/>
<path d="M17.8617 16.8965H18.8272C19.0938 16.8965 19.31 17.1126 19.31 17.3793V18.3448C19.31 18.6114 19.0939 18.8276 18.8272 18.8276H17.8617C17.5951 18.8276 17.3789 18.6114 17.3789 18.3448V17.3793C17.3789 17.1126 17.595 16.8965 17.8617 16.8965Z" fill="#CB9080"/>
<path d="M14.9646 20.7585H13.0336C12.767 20.7585 12.5508 20.5424 12.5508 20.2758C12.5508 20.0091 12.7669 19.793 13.0336 19.793H14.9646C15.2312 19.793 15.4474 20.0091 15.4474 20.2758C15.4474 20.5424 15.2312 20.7585 14.9646 20.7585Z" fill="#E6E7E8"/>
<path d="M9.65532 4.34447H8.68981C8.42321 4.34447 8.20703 4.12834 8.20703 3.86169C8.20703 3.59503 8.42316 3.37891 8.68981 3.37891H9.65532C9.92192 3.37891 10.1381 3.59503 10.1381 3.86169C10.1381 4.12834 9.92192 4.34447 9.65532 4.34447Z" fill="#2C3E50"/>
<path d="M19.3116 4.34447H18.3461C18.0795 4.34447 17.8633 4.12834 17.8633 3.86169C17.8633 3.59503 18.0794 3.37891 18.3461 3.37891H19.3116C19.5782 3.37891 19.7944 3.59503 19.7944 3.86169C19.7944 4.12834 19.5782 4.34447 19.3116 4.34447Z" fill="#2C3E50"/>
</svg>
