<svg width="15" height="16" viewBox="0 0 15 16" fill="none" xmlns="http://www.w3.org/2000/svg">
<path d="M3.98047 15.0563V15.0566C3.98047 15.5776 4.40285 16 4.92389 16H9.92873C10.4498 16 10.8722 15.5776 10.8722 15.0566V15.0563C10.8722 14.5353 10.4498 14.1129 9.92873 14.1129H4.92389C4.40285 14.1129 3.98047 14.5353 3.98047 15.0563Z" fill="#734F42"/>
<path d="M7.42468 9.75875L1.88672 3.18359H12.9626L7.42468 9.75875Z" fill="#734F42"/>
<path d="M1.88709 3.18359H0.943669C0.693435 3.18359 0.453446 3.28298 0.276481 3.4599C0.0995161 3.63682 6.5267e-05 3.87678 0 4.12702C0 4.37729 0.0994217 4.61732 0.276394 4.79429C0.453366 4.97126 0.693392 5.07068 0.943669 5.07068H3.47636L1.88709 3.18359Z" fill="#734F42"/>
<path d="M12.9604 3.18359L11.3711 5.07068H13.9038C14.0277 5.07068 14.1504 5.04628 14.2649 4.99885C14.3794 4.95143 14.4834 4.88192 14.5711 4.79429C14.6587 4.70666 14.7282 4.60263 14.7756 4.48814C14.823 4.37365 14.8475 4.25094 14.8475 4.12702C14.8474 3.87678 14.7479 3.63682 14.571 3.4599C14.394 3.28298 14.154 3.18359 13.9038 3.18359H12.9604Z" fill="#734F42"/>
<path d="M7.42389 9.76077L6.48047 8.64062V14.1131H8.36731V8.64062L7.42389 9.76077Z" fill="#734F42"/>
<path d="M13.8883 3.18618H5.88907L3.42578 0H11.4251L13.8883 3.18618Z" fill="#FFEB91"/>
<path d="M3.42551 0L1.73828 3.18618H5.8888L3.42551 0Z" fill="#FFCA00"/>
<path d="M10.4029 2.02552H6.81354C6.69931 2.02552 6.58975 1.98014 6.50897 1.89937C6.42819 1.81859 6.38281 1.70903 6.38281 1.59479C6.38281 1.48056 6.42819 1.371 6.50897 1.29022C6.58975 1.20944 6.69931 1.16406 6.81354 1.16406H10.4029C10.5171 1.16406 10.6267 1.20944 10.7075 1.29022C10.7882 1.371 10.8336 1.48056 10.8336 1.59479C10.8336 1.70903 10.7882 1.81859 10.7075 1.89937C10.6267 1.98014 10.5171 2.02552 10.4029 2.02552Z" fill="#FFCA00"/>
</svg>
