<svg width="16" height="17" viewBox="0 0 16 17" fill="none" xmlns="http://www.w3.org/2000/svg">
<path d="M10.6638 3.73438L11.9754 8.19397C11.9898 8.2428 11.9971 8.29343 11.9971 8.34433V16.0009H7.73047V3.73438H10.6638Z" fill="#93573D"/>
<path d="M10.6651 15.1997C10.5944 15.1997 10.5266 15.1716 10.4765 15.1216C10.4265 15.0716 10.3984 15.0037 10.3984 14.933V9.33307C10.3984 9.26235 10.4265 9.19452 10.4765 9.14451C10.5266 9.0945 10.5944 9.06641 10.6651 9.06641C10.7358 9.06641 10.8037 9.0945 10.8537 9.14451C10.9037 9.19452 10.9318 9.26235 10.9318 9.33307V14.933C10.9318 15.0037 10.9037 15.0716 10.8537 15.1216C10.8037 15.1716 10.7358 15.1997 10.6651 15.1997Z" fill="#794832"/>
<path d="M9.33325 16.0009H0V8.39896C6.64461e-06 8.31176 0.0106973 8.22488 0.031833 8.14027L1.33332 3.73438H10.6666L9.36508 8.14027C9.34394 8.22488 9.33325 8.31176 9.33325 8.39896V16.0009Z" fill="#AB6647"/>
<path d="M3.42525 14.1317H2.97085C2.89761 14.1317 2.82515 14.1167 2.758 14.0874C2.69084 14.0582 2.63042 14.0155 2.58051 13.9619C2.5306 13.9083 2.49226 13.8449 2.46789 13.7759C2.44352 13.7068 2.43364 13.6335 2.43886 13.5604L2.66472 10.3984H3.73138L3.95724 13.5604C3.96246 13.6335 3.95258 13.7068 3.9282 13.7759C3.90383 13.8449 3.8655 13.9083 3.81558 13.9619C3.76567 14.0155 3.70526 14.0582 3.6381 14.0874C3.57094 14.1167 3.49849 14.1317 3.42525 14.1317Z" fill="#E74444"/>
<path d="M6.34139 14.1315H5.92006C5.84555 14.1315 5.77186 14.1159 5.70375 14.0857C5.63564 14.0554 5.57461 14.0113 5.52461 13.956C5.47461 13.9008 5.43675 13.8357 5.41345 13.7649C5.39016 13.6941 5.38195 13.6192 5.38937 13.5451L5.5974 11.4648H6.66405L6.87208 13.5451C6.8795 13.6192 6.87129 13.6941 6.848 13.7649C6.8247 13.8357 6.78684 13.9008 6.73684 13.956C6.68684 14.0113 6.62581 14.0554 6.5577 14.0857C6.48959 14.1159 6.4159 14.1315 6.34139 14.1315Z" fill="#E74444"/>
<path d="M1.06458 2.13281C0.770014 2.13281 0.53125 2.49098 0.53125 2.9328C0.53125 3.37463 0.770014 3.7328 1.06458 3.7328H10.6645V2.13281H1.06458Z" fill="#93573D"/>
<path d="M12.2616 2.82366C12.2616 2.97786 12.2313 3.13055 12.1723 3.27301C12.1133 3.41548 12.0268 3.54492 11.9177 3.65396C11.8087 3.763 11.6793 3.84949 11.5368 3.9085C11.3943 3.96751 11.2417 3.99788 11.0875 3.99788H10.4319C10.408 3.99788 10.3847 4.00586 10.3659 4.02055L8.70168 5.31494C8.51338 5.46139 8.275 5.52781 8.0381 5.49985C7.8012 5.47188 7.58484 5.35177 7.43582 5.16551C7.29631 4.9911 7.22601 4.77138 7.23836 4.54839C7.25071 4.3254 7.34484 4.11478 7.50275 3.95685L9.14477 2.31483C9.15982 2.29979 9.17007 2.28063 9.17423 2.25976C9.17838 2.23889 9.17625 2.21726 9.16811 2.19761C9.15997 2.17795 9.14617 2.16115 9.12848 2.14934C9.11078 2.13752 9.08998 2.13122 9.06871 2.13123H4.26172L6.93216 0.674582C7.10465 0.580522 7.29798 0.53124 7.49445 0.53125H14.2874C14.3159 0.531259 14.3433 0.542591 14.3635 0.562755C14.3836 0.58292 14.3949 0.610266 14.395 0.638782V2.55703C14.3949 2.58555 14.3836 2.61289 14.3635 2.63306C14.3433 2.65322 14.3159 2.66455 14.2874 2.66456H12.4208C12.3999 2.66456 12.3792 2.66867 12.3599 2.67666C12.3406 2.68466 12.323 2.69638 12.3083 2.71115C12.2935 2.72592 12.2818 2.74346 12.2738 2.76277C12.2658 2.78207 12.2616 2.80277 12.2616 2.82366Z" fill="#F5CBAA"/>
<path d="M13.332 0H15.4653V3.46663H13.332V0Z" fill="#155384"/>
<path d="M9.33203 16.0013L10.6654 14.668L11.9987 16.0013H9.33203Z" fill="#794832"/>
<path d="M4.26716 8.26562C4.19644 8.26562 4.12861 8.29372 4.0786 8.34373C4.0286 8.39374 4.0005 8.46157 4.0005 8.53229V9.33228H3.46717V8.53229C3.46717 8.46157 3.43908 8.39374 3.38907 8.34373C3.33906 8.29372 3.27123 8.26562 3.20051 8.26562C3.12978 8.26562 3.06196 8.29372 3.01195 8.34373C2.96194 8.39374 2.93384 8.46157 2.93384 8.53229V9.33228H2.40052V8.53229C2.40052 8.46157 2.37242 8.39374 2.32241 8.34373C2.2724 8.29372 2.20458 8.26562 2.13385 8.26562C2.06313 8.26562 1.9953 8.29372 1.94529 8.34373C1.89528 8.39374 1.86719 8.46157 1.86719 8.53229V9.33228L2.66718 10.3989H3.73384L4.53383 9.33228V8.53229C4.53383 8.46157 4.50573 8.39374 4.45572 8.34373C4.40572 8.29372 4.33789 8.26562 4.26716 8.26562Z" fill="#D9DBDD"/>
<path d="M5.59973 11.4656V11.1989L5.06641 10.9323C5.06641 10.9323 5.2664 8.26562 6.66639 8.26562V11.4656H5.59973Z" fill="#D9DBDD"/>
</svg>
