<svg width="22" height="20" viewBox="0 0 22 20" fill="none" xmlns="http://www.w3.org/2000/svg">
<path d="M20.0646 1.55762H6.58752C6.58802 1.57371 6.58875 1.58972 6.58875 1.6059V17.042C6.58875 17.9017 5.88939 18.601 5.02972 18.601H3.50407C2.6444 18.601 1.94503 17.9017 1.94503 17.042V1.60595C1.94503 1.58976 1.94577 1.57371 1.94627 1.55766H1.14635C0.513243 1.55766 0 2.07091 0 2.70401V18.8544C0 19.4875 0.513243 20.0007 1.14635 20.0007H20.0646C20.6977 20.0007 21.2109 19.4875 21.2109 18.8544V2.70397C21.2109 2.07086 20.6977 1.55762 20.0646 1.55762Z" fill="#E2DEE2"/>
<path d="M2.38789 18.8543V18.1947C2.08668 17.9029 1.89913 17.4945 1.89913 17.042V1.6059C1.89913 1.58972 1.89987 1.57367 1.90037 1.55762H1.14635C0.513243 1.55762 0 2.07086 0 2.70397V18.8543C0 19.4874 0.513243 20.0007 1.14635 20.0007H3.53424C2.90113 20.0006 2.38789 19.4874 2.38789 18.8543Z" fill="#CBC4CC"/>
<path d="M18.0945 6.38916H9.14049C8.50738 6.38916 7.99414 5.87592 7.99414 5.24282V4.30455C7.99414 3.67145 8.50738 3.1582 9.14049 3.1582H18.0945C18.7276 3.1582 19.2409 3.67145 19.2409 4.30455V5.24282C19.2409 5.87592 18.7276 6.38916 18.0945 6.38916Z" fill="#26A6FE"/>
<path d="M9.61719 3.1582H17.6083V6.38916H9.61719V3.1582Z" fill="white"/>
<path d="M9.61719 3.1582H11.04V6.38916H9.61719V3.1582Z" fill="#F3F0F3"/>
<path d="M11.2624 9.59317H9.84646C9.71985 9.59317 9.61719 9.4905 9.61719 9.3639V8.24392C9.61719 8.11732 9.71985 8.01465 9.84646 8.01465H11.2624C11.389 8.01465 11.4917 8.11732 11.4917 8.24392V9.36386C11.4917 9.4905 11.389 9.59317 11.2624 9.59317Z" fill="#7A6D79"/>
<path d="M14.3249 9.59317H12.909C12.7824 9.59317 12.6797 9.4905 12.6797 9.3639V8.24392C12.6797 8.11732 12.7824 8.01465 12.909 8.01465H14.3249C14.4515 8.01465 14.5542 8.11732 14.5542 8.24392V9.36386C14.5542 9.4905 14.4515 9.59317 14.3249 9.59317Z" fill="#7A6D79"/>
<path d="M17.3815 9.59317H15.9656C15.839 9.59317 15.7363 9.4905 15.7363 9.3639V8.24392C15.7363 8.11732 15.839 8.01465 15.9656 8.01465H17.3815C17.5081 8.01465 17.6108 8.11732 17.6108 8.24392V9.36386C17.6108 9.4905 17.5081 9.59317 17.3815 9.59317Z" fill="#7A6D79"/>
<path d="M16.6951 9.36386V8.24392C16.6951 8.11732 16.7978 8.01465 16.9244 8.01465H15.9656C15.839 8.01465 15.7363 8.11732 15.7363 8.24392V9.36386C15.7363 9.49046 15.839 9.59312 15.9656 9.59312H16.9244C16.7978 9.59312 16.6951 9.4905 16.6951 9.36386Z" fill="#685E68"/>
<path d="M13.6384 9.36386V8.24392C13.6384 8.11732 13.7411 8.01465 13.8677 8.01465H12.909C12.7824 8.01465 12.6797 8.11732 12.6797 8.24392V9.36386C12.6797 9.49046 12.7824 9.59312 12.909 9.59312H13.8677C13.7411 9.59312 13.6384 9.4905 13.6384 9.36386Z" fill="#685E68"/>
<path d="M10.5759 9.36386V8.24392C10.5759 8.11732 10.6786 8.01465 10.8052 8.01465H9.84646C9.71985 8.01465 9.61719 8.11732 9.61719 8.24392V9.36386C9.61719 9.49046 9.71985 9.59312 9.84646 9.59312H10.8052C10.6786 9.59312 10.5759 9.4905 10.5759 9.36386Z" fill="#685E68"/>
<path d="M11.2624 12.4046H9.84646C9.71985 12.4046 9.61719 12.302 9.61719 12.1754V11.0554C9.61719 10.9288 9.71985 10.8262 9.84646 10.8262H11.2624C11.389 10.8262 11.4917 10.9288 11.4917 11.0554V12.1754C11.4917 12.302 11.389 12.4046 11.2624 12.4046Z" fill="#7A6D79"/>
<path d="M14.3249 12.4046H12.909C12.7824 12.4046 12.6797 12.302 12.6797 12.1754V11.0554C12.6797 10.9288 12.7824 10.8262 12.909 10.8262H14.3249C14.4515 10.8262 14.5542 10.9288 14.5542 11.0554V12.1754C14.5542 12.302 14.4515 12.4046 14.3249 12.4046Z" fill="#7A6D79"/>
<path d="M17.3815 12.4046H15.9656C15.839 12.4046 15.7363 12.302 15.7363 12.1754V11.0554C15.7363 10.9288 15.839 10.8262 15.9656 10.8262H17.3815C17.5081 10.8262 17.6108 10.9288 17.6108 11.0554V12.1754C17.6108 12.302 17.5081 12.4046 17.3815 12.4046Z" fill="#7A6D79"/>
<path d="M11.2624 15.2162H9.84646C9.71985 15.2162 9.61719 15.1135 9.61719 14.9869V13.867C9.61719 13.7404 9.71985 13.6377 9.84646 13.6377H11.2624C11.389 13.6377 11.4917 13.7404 11.4917 13.867V14.9869C11.4917 15.1135 11.389 15.2162 11.2624 15.2162Z" fill="#7A6D79"/>
<path d="M14.3249 15.2162H12.909C12.7824 15.2162 12.6797 15.1135 12.6797 14.9869V13.867C12.6797 13.7404 12.7824 13.6377 12.909 13.6377H14.3249C14.4515 13.6377 14.5542 13.7404 14.5542 13.867V14.9869C14.5542 15.1135 14.4515 15.2162 14.3249 15.2162Z" fill="#7A6D79"/>
<path d="M17.3815 15.2162H15.9656C15.839 15.2162 15.7363 15.1135 15.7363 14.9869V13.867C15.7363 13.7404 15.839 13.6377 15.9656 13.6377H17.3815C17.5081 13.6377 17.6108 13.7404 17.6108 13.867V14.9869C17.6108 15.1135 17.5081 15.2162 17.3815 15.2162Z" fill="#7A6D79"/>
<path d="M16.6951 14.9869V13.867C16.6951 13.7404 16.7978 13.6377 16.9244 13.6377H15.9656C15.839 13.6377 15.7363 13.7404 15.7363 13.867V14.9869C15.7363 15.1135 15.839 15.2162 15.9656 15.2162H16.9244C16.7978 15.2162 16.6951 15.1135 16.6951 14.9869Z" fill="#685E68"/>
<path d="M13.6384 14.9869V13.867C13.6384 13.7404 13.7411 13.6377 13.8677 13.6377H12.909C12.7824 13.6377 12.6797 13.7404 12.6797 13.867V14.9869C12.6797 15.1135 12.7824 15.2162 12.909 15.2162H13.8677C13.7411 15.2162 13.6384 15.1135 13.6384 14.9869Z" fill="#685E68"/>
<path d="M10.5759 14.9869V13.867C10.5759 13.7404 10.6786 13.6377 10.8052 13.6377H9.84646C9.71985 13.6377 9.61719 13.7404 9.61719 13.867V14.9869C9.61719 15.1135 9.71985 15.2162 9.84646 15.2162H10.8052C10.6786 15.2162 10.5759 15.1135 10.5759 14.9869Z" fill="#685E68"/>
<path d="M16.6951 12.1754V11.0554C16.6951 10.9288 16.7978 10.8262 16.9244 10.8262H15.9656C15.839 10.8262 15.7363 10.9288 15.7363 11.0554V12.1754C15.7363 12.302 15.839 12.4046 15.9656 12.4046H16.9244C16.7978 12.4046 16.6951 12.302 16.6951 12.1754Z" fill="#685E68"/>
<path d="M13.6384 12.1754V11.0554C13.6384 10.9288 13.7411 10.8262 13.8677 10.8262H12.909C12.7824 10.8262 12.6797 10.9288 12.6797 11.0554V12.1754C12.6797 12.302 12.7824 12.4046 12.909 12.4046H13.8677C13.7411 12.4046 13.6384 12.302 13.6384 12.1754Z" fill="#685E68"/>
<path d="M10.5759 12.1754V11.0554C10.5759 10.9288 10.6786 10.8262 10.8052 10.8262H9.84646C9.71985 10.8262 9.61719 10.9288 9.61719 11.0554V12.1754C9.61719 12.302 9.71985 12.4046 9.84646 12.4046H10.8052C10.6786 12.4046 10.5759 12.302 10.5759 12.1754Z" fill="#685E68"/>
<path d="M11.2624 17.8562H9.84646C9.71985 17.8562 9.61719 17.7536 9.61719 17.627V16.8523C9.61719 16.7257 9.71985 16.623 9.84646 16.623H11.2624C11.389 16.623 11.4917 16.7257 11.4917 16.8523V17.627C11.4917 17.7536 11.389 17.8562 11.2624 17.8562Z" fill="#FE6C55"/>
<path d="M10.5537 17.627V16.8523C10.5537 16.7257 10.6564 16.623 10.783 16.623H9.84646C9.71985 16.623 9.61719 16.7257 9.61719 16.8523V17.627C9.61719 17.7536 9.71985 17.8562 9.84646 17.8562H10.783C10.6564 17.8562 10.5537 17.7536 10.5537 17.627Z" fill="#FD544D"/>
<path d="M14.3249 17.8562H12.909C12.7824 17.8562 12.6797 17.7536 12.6797 17.627V16.8523C12.6797 16.7257 12.7824 16.623 12.909 16.623H14.3249C14.4515 16.623 14.5542 16.7257 14.5542 16.8523V17.627C14.5542 17.7536 14.4515 17.8562 14.3249 17.8562Z" fill="#26A6FE"/>
<path d="M13.6301 17.627V16.8523C13.6301 16.7257 13.7328 16.623 13.8594 16.623H12.909C12.7824 16.623 12.6797 16.7257 12.6797 16.8523V17.627C12.6797 17.7536 12.7824 17.8562 12.909 17.8562H13.8594C13.7328 17.8562 13.6301 17.7536 13.6301 17.627Z" fill="#0593FC"/>
<path d="M17.3815 17.8562H15.9656C15.839 17.8562 15.7363 17.7536 15.7363 17.627V16.8523C15.7363 16.7257 15.839 16.623 15.9656 16.623H17.3815C17.5081 16.623 17.6108 16.7257 17.6108 16.8523V17.627C17.6108 17.7536 17.5081 17.8562 17.3815 17.8562Z" fill="#FE9901"/>
<path d="M16.6951 17.627V16.8523C16.6951 16.7257 16.7978 16.623 16.9244 16.623H15.9656C15.839 16.623 15.7363 16.7257 15.7363 16.8523V17.627C15.7363 17.7536 15.839 17.8562 15.9656 17.8562H16.9244C16.7978 17.8562 16.6951 17.7536 16.6951 17.627Z" fill="#FB8801"/>
<path d="M5.03098 18.6459H3.50528C2.61892 18.6459 1.90039 17.9273 1.90039 17.041V1.60489C1.90039 0.718532 2.61892 0 3.50528 0H5.03098C5.91733 0 6.63587 0.718532 6.63587 1.60489V17.041C6.63587 17.9273 5.91733 18.6459 5.03098 18.6459Z" fill="#A79BA7"/>
<path d="M3.81062 17.041V1.60489C3.81062 0.783644 4.42759 0.106931 5.22324 0.0118762C5.16015 0.00435616 5.09609 0 5.03098 0H3.50528C2.61892 0 1.90039 0.718532 1.90039 1.60489V17.041C1.90039 17.9273 2.61892 18.6459 3.50528 18.6459H5.03098C5.09609 18.6459 5.16015 18.6416 5.22324 18.634C4.42759 18.5389 3.81062 17.8622 3.81062 17.041Z" fill="#918291"/>
<path d="M19.8787 11.9883H19.1388C18.9489 11.9883 18.7949 12.1423 18.7949 12.3322C18.7949 12.5221 18.9489 12.6761 19.1388 12.6761H19.8787C20.0687 12.6761 20.2226 12.5221 20.2226 12.3322C20.2226 12.1423 20.0687 11.9883 19.8787 11.9883Z" fill="#403A40"/>
<path d="M19.8787 13.3682H19.1388C18.9489 13.3682 18.7949 13.5221 18.7949 13.7121C18.7949 13.902 18.9489 14.056 19.1388 14.056H19.8787C20.0687 14.056 20.2226 13.902 20.2226 13.7121C20.2226 13.5221 20.0687 13.3682 19.8787 13.3682Z" fill="#403A40"/>
<path d="M19.8787 14.75H19.1388C18.9489 14.75 18.7949 14.904 18.7949 15.0939C18.7949 15.2838 18.9489 15.4378 19.1388 15.4378H19.8787C20.0687 15.4378 20.2226 15.2838 20.2226 15.0939C20.2226 14.904 20.0687 14.75 19.8787 14.75Z" fill="#403A40"/>
<path d="M19.8787 16.1318H19.1388C18.9489 16.1318 18.7949 16.2858 18.7949 16.4757C18.7949 16.6657 18.9489 16.8196 19.1388 16.8196H19.8787C20.0687 16.8196 20.2226 16.6657 20.2226 16.4757C20.2226 16.2858 20.0687 16.1318 19.8787 16.1318Z" fill="#403A40"/>
<path d="M19.8787 17.5127H19.1388C18.9489 17.5127 18.7949 17.6667 18.7949 17.8566C18.7949 18.0465 18.9489 18.2005 19.1388 18.2005H19.8787C20.0687 18.2005 20.2226 18.0465 20.2226 17.8566C20.2226 17.6667 20.0687 17.5127 19.8787 17.5127Z" fill="#403A40"/>
<path d="M10.9533 4.36914C10.7633 4.36914 10.6094 4.52312 10.6094 4.71305C10.6094 4.90297 10.7633 5.05695 10.9533 5.05695H12.7784C12.9684 5.05695 13.1224 4.90297 13.1224 4.71305C13.1224 4.52312 12.9684 4.36914 12.7784 4.36914H10.9533Z" fill="#403A40"/>
<path d="M14.0587 5.05695C14.2487 5.05695 14.4027 4.90298 14.4027 4.71305C14.4027 4.52311 14.2487 4.36914 14.0587 4.36914C13.8688 4.36914 13.7148 4.52311 13.7148 4.71305C13.7148 4.90298 13.8688 5.05695 14.0587 5.05695Z" fill="#403A40"/>
<path d="M15.2521 5.05695C15.442 5.05695 15.596 4.90298 15.596 4.71305C15.596 4.52311 15.442 4.36914 15.2521 4.36914C15.0622 4.36914 14.9082 4.52311 14.9082 4.71305C14.9082 4.90298 15.0622 5.05695 15.2521 5.05695Z" fill="#403A40"/>
<path d="M16.4416 5.05695C16.6315 5.05695 16.7855 4.90298 16.7855 4.71305C16.7855 4.52311 16.6315 4.36914 16.4416 4.36914C16.2516 4.36914 16.0977 4.52311 16.0977 4.71305C16.0977 4.90298 16.2516 5.05695 16.4416 5.05695Z" fill="#403A40"/>
<path d="M19.6955 8.4964C19.8854 8.4964 20.0394 8.34243 20.0394 8.1525C20.0394 7.96257 19.8854 7.80859 19.6955 7.80859C19.5055 7.80859 19.3516 7.96257 19.3516 8.1525C19.3516 8.34243 19.5055 8.4964 19.6955 8.4964Z" fill="#403A40"/>
<path d="M19.6955 9.64093C19.8854 9.64093 20.0394 9.48696 20.0394 9.29703C20.0394 9.1071 19.8854 8.95312 19.6955 8.95312C19.5055 8.95312 19.3516 9.1071 19.3516 9.29703C19.3516 9.48696 19.5055 9.64093 19.6955 9.64093Z" fill="#403A40"/>
</svg>
