<svg width="47" height="50" viewBox="0 0 47 50" fill="none" xmlns="http://www.w3.org/2000/svg">
<path d="M45.2568 28.2899H17.6193C16.7594 28.2899 16.0625 27.5928 16.0625 26.7331V21.089C16.0625 20.2292 16.7596 19.5322 17.6193 19.5322H45.257C46.1168 19.5322 46.8138 20.2293 46.8138 21.089V26.7331C46.8136 27.5928 46.1167 28.2899 45.2568 28.2899Z" fill="#80B6FC"/>
<path d="M45.2567 19.5322H41.4766C42.3364 19.5322 43.0334 20.2293 43.0334 21.089V43.8966C43.0334 44.7564 42.3364 45.4534 41.4766 45.4534H45.2567C46.1166 45.4534 46.8135 44.7564 46.8135 43.8966V21.089C46.8135 20.2293 46.1166 19.5322 45.2567 19.5322Z" fill="#62A4FB"/>
<path d="M45.2567 50.0001H17.6193C16.7594 50.0001 16.0625 49.3032 16.0625 48.4435V25.6359C16.0625 24.776 16.7596 24.0791 17.6193 24.0791H45.2568C46.1167 24.0791 46.814 24.776 46.814 25.6358V48.4435C46.8139 49.3032 46.1166 50.0001 45.2567 50.0001Z" fill="#DDEBFD"/>
<path d="M46.8141 25.6358V48.4435C46.8141 49.3035 46.1169 50.0003 45.2569 50.0003H41.4766C42.3366 50.0003 43.0331 49.3032 43.0331 48.4433V24.0791H45.2569C46.1169 24.0791 46.8141 24.7758 46.8141 25.6358Z" fill="#BED9FD"/>
<path d="M27.6719 29.0332V36.7222C27.6719 37.2272 28.2258 37.5367 28.6558 37.2717L34.8951 33.4272C35.3042 33.1751 35.3042 32.5803 34.8951 32.3282L28.6558 28.4837C28.2259 28.2187 27.6719 28.528 27.6719 29.0332Z" fill="#DF646E"/>
<path d="M39.834 44.9454H23.0386C22.5578 44.9454 22.168 44.5556 22.168 44.0748C22.168 43.5939 22.5578 43.2041 23.0386 43.2041H39.834C40.3149 43.2041 40.7047 43.5939 40.7047 44.0748C40.7047 44.5556 40.3149 44.9454 39.834 44.9454Z" fill="#5D91B9"/>
<path d="M28.0767 46.0081C29.145 45.5653 29.652 44.3404 29.2092 43.2721C28.7664 42.2039 27.5415 41.6969 26.4733 42.1397C25.405 42.5825 24.898 43.8074 25.3408 44.8756C25.7836 45.9438 27.0085 46.4509 28.0767 46.0081Z" fill="#DF646E"/>
<path d="M13.963 28.307C21.6746 28.307 27.926 21.9703 27.926 14.1535C27.926 6.33674 21.6746 0 13.963 0C6.25146 0 0 6.33674 0 14.1535C0 21.9703 6.25146 28.307 13.963 28.307Z" fill="#F5DE46"/>
<path d="M24.5973 4.98242C25.4512 6.81423 25.9295 8.86111 25.9295 11.0215C25.9295 18.8383 19.6781 25.175 11.9665 25.175C7.70671 25.175 3.89329 23.2409 1.33203 20.1925C3.56771 24.9884 8.38259 28.307 13.9628 28.307C21.6744 28.307 27.9258 21.9702 27.9258 14.1534C27.926 10.6544 26.6728 7.45266 24.5973 4.98242Z" fill="#ECC52E"/>
<path d="M7.48438 13.0078V19.765C7.48438 20.0948 7.70477 20.3827 8.01995 20.4644L13.6086 21.9158C13.8406 21.976 14.0837 21.976 14.3157 21.9158L19.9044 20.4644C20.2196 20.3827 20.44 20.0948 20.44 19.765V13.0078H7.48438Z" fill="#407194"/>
<path d="M23.971 12.691L14.1645 9.72925C14.0318 9.68921 13.8905 9.68921 13.7577 9.72925L3.95123 12.691C3.85748 12.7193 3.79247 12.7801 3.75554 12.8533C3.7545 12.855 3.7506 12.8632 3.74956 12.8655C3.72733 12.9079 3.71484 12.967 3.71484 13.0509V16.8093C3.71484 17.2902 4.10466 17.68 4.5855 17.68C5.06634 17.68 5.45616 17.2902 5.45616 16.8093V13.7772L13.7577 16.2844C13.8905 16.3245 14.0318 16.3245 14.1645 16.2844L23.971 13.3227C24.2809 13.2292 24.2809 12.7845 23.971 12.691Z" fill="#5D91B9"/>
</svg>
