<svg width="29" height="17" viewBox="0 0 29 17" fill="none" xmlns="http://www.w3.org/2000/svg">
<path opacity="0.1" d="M27.1507 3.46081C26.245 3.05931 25.5166 2.33094 25.1152 1.42528C25.006 1.17906 24.7585 1.02349 24.4893 1.02344L3.06323 1.02348C2.79394 1.02348 2.54646 1.17916 2.43737 1.42532C2.03587 2.33103 1.3075 3.0594 0.401839 3.46085C0.155624 3.56999 4.8858e-05 3.81747 1.9783e-07 4.08671L0 13.5135C1.45723e-08 13.7828 0.155673 14.0303 0.401839 14.1394C1.30755 14.5409 2.03592 15.2693 2.43737 16.1749C2.54651 16.4212 2.79399 16.5767 3.06323 16.5768L24.4893 16.5768C24.7586 16.5768 25.006 16.4211 25.1151 16.1749C25.5166 15.2692 26.245 14.5409 27.1507 14.1394C27.3969 14.0303 27.5524 13.7828 27.5525 13.5136V4.08671C27.5525 3.81742 27.3969 3.56994 27.1507 3.46081Z" fill="#0000CC"/>
<path d="M28.1721 2.43737C27.2664 2.03587 26.538 1.3075 26.1366 0.401841C26.0275 0.155626 25.78 5.04058e-05 25.5107 1.71653e-06L4.08471 0C3.81542 -1.45723e-08 3.56794 0.155673 3.45885 0.401839C3.05736 1.30755 2.32898 2.03592 1.42332 2.43737C1.17711 2.54651 1.02153 2.79399 1.02148 3.06323L1.02148 12.4901C1.02148 12.7594 1.17716 13.0068 1.42332 13.1159C2.32903 13.5174 3.05741 14.2458 3.45886 15.1515C3.56799 15.3977 3.81547 15.5532 4.08471 15.5533L25.5107 15.5533C25.78 15.5533 26.0275 15.3976 26.1366 15.1515C26.5381 14.2457 27.2665 13.5174 28.1721 13.1159C28.4183 13.0068 28.5739 12.7593 28.574 12.4901V3.06323C28.5739 2.79399 28.4183 2.54651 28.1721 2.43737Z" fill="#FF4452"/>
<path d="M4.8039 13.3405C4.38166 12.7257 3.84902 12.193 3.23427 11.7709C3.14187 11.7074 3.08784 11.6014 3.08789 11.4893L3.08789 4.06407C3.08789 3.95191 3.14188 3.84594 3.23427 3.78246C3.84907 3.36023 4.38171 2.82759 4.8039 2.21283C4.86737 2.12044 4.9734 2.06641 5.0855 2.06646L24.5098 2.06641C24.622 2.06641 24.728 2.12039 24.7914 2.21278C25.2137 2.82759 25.7463 3.36023 26.3611 3.78241C26.4535 3.84589 26.5075 3.95191 26.5074 4.06402V11.4892C26.5074 11.6014 26.4535 11.7073 26.3611 11.7708C25.7463 12.193 25.2136 12.7257 24.7914 13.3404C24.728 13.4328 24.6219 13.4869 24.5098 13.4868L5.08545 13.4869C4.9733 13.4869 4.86732 13.4329 4.8039 13.3405Z" fill="white"/>
<path d="M24.5091 2.0625L14.7969 2.0625L14.7969 13.483H24.5091C24.6212 13.483 24.7272 13.429 24.7907 13.3366C25.2129 12.7218 25.7456 12.1892 26.3603 11.767C26.4527 11.7035 26.5067 11.5975 26.5067 11.4854L26.5067 4.06016C26.5067 3.94801 26.4528 3.84204 26.3604 3.77856C25.7456 3.35632 25.2129 2.82368 24.7907 2.20892C24.7272 2.11648 24.6212 2.0625 24.5091 2.0625Z" fill="#FF9D33"/>
<path d="M5.76638 5.93693L5.0087 5.17926C4.8743 5.04486 4.8743 4.82687 5.0087 4.69247L5.76637 3.9348C5.90077 3.8004 6.11876 3.8004 6.25316 3.9348L7.01083 4.69247C7.14524 4.82688 7.14524 5.04486 7.01083 5.17926L6.25316 5.93693C6.11876 6.07133 5.90082 6.07138 5.76638 5.93693ZM5.73887 4.93587L6.00977 5.20676L6.28066 4.93587L6.00977 4.66497L5.73887 4.93587Z" fill="#0000CC"/>
<path d="M8.59841 8.76897L7.84073 8.01129C7.70633 7.87689 7.70633 7.65891 7.84073 7.52451L8.59841 6.76683C8.73281 6.63243 8.95079 6.63243 9.08519 6.76683L9.84287 7.52451C9.97727 7.65891 9.97727 7.87689 9.84287 8.01129L9.08519 8.76897C8.95079 8.90337 8.73281 8.90337 8.59841 8.76897ZM8.5709 7.7679L8.8418 8.03879L9.11269 7.7679L8.8418 7.497L8.5709 7.7679Z" fill="#0000CC"/>
<path d="M5.54345 8.23239C5.40905 8.09799 5.40905 7.88001 5.54345 7.74561L8.81911 4.46995C8.95351 4.33555 9.17149 4.33555 9.30589 4.46995C9.44029 4.60435 9.44029 4.82234 9.30589 4.95674L6.03023 8.23239C5.89583 8.36679 5.67785 8.36679 5.54345 8.23239Z" fill="#0000CC"/>
<path d="M5.35856 10.0556L8.28597 10.0556C8.47621 10.0556 8.63042 10.2098 8.63037 10.4C8.63037 10.5902 8.47621 10.7444 8.28597 10.7444L5.35856 10.7444C5.16832 10.7444 5.01411 10.5902 5.01416 10.4C5.01411 10.2098 5.16832 10.0556 5.35856 10.0556Z" fill="#FF9D33"/>
<path d="M5.3546 11.3877L12.4149 11.3876C12.6051 11.3876 12.7593 11.5418 12.7593 11.732C12.7592 11.9222 12.6051 12.0764 12.4149 12.0764L5.3546 12.0764C5.16436 12.0764 5.01015 11.9222 5.0102 11.732C5.01025 11.5419 5.16436 11.3877 5.3546 11.3877Z" fill="#FF9D33"/>
<path d="M18.0699 10.5677C19.6105 12.1083 22.1083 12.1083 23.6489 10.5677C25.1895 9.02714 25.1895 6.52933 23.6489 4.98873C22.1083 3.44812 19.6105 3.44812 18.0699 4.98873C16.5293 6.52933 16.5293 9.02714 18.0699 10.5677Z" fill="white"/>
<path d="M16.7951 5.7923C17.3689 6.36604 18.2991 6.36603 18.8728 5.79229C19.4465 5.21856 19.4466 4.28835 18.8728 3.71462C18.2991 3.14088 17.3689 3.14089 16.7951 3.71462C16.2214 4.28836 16.2214 5.21857 16.7951 5.7923Z" fill="#FF4452"/>
<path d="M19.6235 9.41112C19.5612 9.34881 19.5227 9.26279 19.5227 9.16772C19.5227 8.97759 19.6768 8.82347 19.8669 8.82352L21.3113 8.82353C21.405 8.82357 21.4931 8.78707 21.5593 8.72082C21.6256 8.65456 21.6621 8.56646 21.662 8.47275C21.6621 8.27935 21.5047 8.12193 21.3113 8.12197L20.4136 8.12197C19.8406 8.12192 19.3744 7.65578 19.3744 7.08273C19.3744 6.50969 19.8406 6.0435 20.4136 6.0435L21.858 6.04351C22.0481 6.04356 22.2022 6.19762 22.2022 6.38771C22.2022 6.57785 22.0481 6.73196 21.858 6.73191L20.4136 6.73191C20.2202 6.73186 20.0628 6.88924 20.0628 7.08274C20.0628 7.27613 20.2202 7.43351 20.4136 7.43356L21.3112 7.43351C21.8842 7.43352 22.3504 7.89971 22.3504 8.47275C22.3504 8.75036 22.2423 9.01133 22.0461 9.20755C21.8498 9.40382 21.5888 9.51194 21.3112 9.51189L19.8669 9.51193C19.7719 9.51193 19.6858 9.47342 19.6235 9.41112Z" fill="#FF7300"/>
<path d="M20.618 9.93199C20.5557 9.86968 20.5172 9.78366 20.5172 9.68859L20.5172 5.87349C20.5172 5.68335 20.6713 5.52924 20.8614 5.52929C21.0515 5.52933 21.2055 5.6834 21.2056 5.87349L21.2056 9.68859C21.2056 9.87873 21.0515 10.0328 20.8614 10.0328C20.7664 10.0327 20.6803 9.99429 20.618 9.93199Z" fill="#FF7300"/>
<path d="M13.009 3.87537C13.1594 4.02573 13.4031 4.02573 13.5535 3.87537C13.7039 3.725 13.7039 3.48121 13.5535 3.33085C13.4031 3.18049 13.1594 3.18049 13.009 3.33085C12.8586 3.48121 12.8586 3.725 13.009 3.87537Z" fill="#FF4452"/>
<path d="M13.0051 5.04333C13.1554 5.1937 13.3992 5.1937 13.5496 5.04333C13.7 4.89297 13.7 4.64918 13.5496 4.49882C13.3992 4.34846 13.1554 4.34846 13.0051 4.49882C12.8547 4.64918 12.8547 4.89297 13.0051 5.04333Z" fill="#FF4452"/>
<path d="M13.0031 6.2074C13.1535 6.35776 13.3973 6.35776 13.5476 6.2074C13.698 6.05703 13.698 5.81325 13.5476 5.66288C13.3973 5.51252 13.1535 5.51252 13.0031 5.66288C12.8528 5.81325 12.8528 6.05703 13.0031 6.2074Z" fill="#FF4452"/>
</svg>
