<svg width="37" height="37" viewBox="0 0 37 37" fill="none" xmlns="http://www.w3.org/2000/svg">
<path fill-rule="evenodd" clip-rule="evenodd" d="M18.5 37C28.7173 37 37 28.7173 37 18.5C37 8.28273 28.7173 0 18.5 0C8.28273 0 0 8.28273 0 18.5C0 28.7173 8.28273 37 18.5 37Z" fill="#00A6F9"/>
<path fill-rule="evenodd" clip-rule="evenodd" d="M0.628906 13.6985L23.3012 36.3708C31.1907 34.2564 36.9997 27.0566 36.9997 18.5C36.9997 8.28273 28.717 0 18.4997 0C9.94313 0 2.74332 5.80905 0.628906 13.6985Z" fill="#0097F4"/>
<path fill-rule="evenodd" clip-rule="evenodd" d="M23.9336 0.8125V36.1909C31.4993 33.8697 37 26.8281 37 18.5017C37 10.1753 31.4993 3.13366 23.9336 0.8125Z" fill="#008BF2"/>
<path d="M12.4772 14.3255H24.532C25.0095 14.3255 25.4272 13.9077 25.4272 13.4303C25.4272 12.9529 25.0095 12.5352 24.532 12.5352H12.4772C11.9998 12.5352 11.582 12.9529 11.582 13.4303C11.6417 13.9077 11.9998 14.3255 12.4772 14.3255Z" fill="#008BF2"/>
<path d="M24.532 18.5H12.4772C11.9998 18.5 11.582 18.9177 11.582 19.3952C11.582 19.8726 11.9998 20.2903 12.4772 20.2903H24.532C25.0095 20.2903 25.4272 19.8726 25.4272 19.3952C25.4272 18.9177 25.0095 18.5 24.532 18.5Z" fill="#008BF2"/>
<path d="M24.532 25.0664H12.4772C11.9998 25.0664 11.582 25.4841 11.582 25.9616C11.582 26.439 11.9998 26.8567 12.4772 26.8567H24.532C25.0095 26.8567 25.4272 26.439 25.4272 25.9616C25.3675 25.4841 25.0095 25.0664 24.532 25.0664Z" fill="#008BF2"/>
<path d="M12.8952 12.7903H24.95C25.4274 12.7903 25.8452 12.3726 25.8452 11.8952C25.8452 11.4177 25.4274 11 24.95 11H12.8952C12.4177 11 12 11.4177 12 11.8952C12.0597 12.3726 12.4177 12.7903 12.8952 12.7903Z" fill="white"/>
<path d="M12.8952 18.7591H24.95C25.4274 18.7591 25.8452 18.3413 25.8452 17.8639C25.8452 17.3865 25.4274 16.9688 24.95 16.9688H12.8952C12.4177 16.9688 12 17.3865 12 17.8639C12.0597 18.3413 12.4177 18.7591 12.8952 18.7591Z" fill="white"/>
<path d="M24.95 23.5352H12.8952C12.4177 23.5352 12 23.9529 12 24.4303C12 24.9077 12.4177 25.3255 12.8952 25.3255H24.95C25.4274 25.3255 25.8452 24.9077 25.8452 24.4303C25.7855 23.9529 25.4274 23.5352 24.95 23.5352Z" fill="white"/>
</svg>
