<svg width="185" height="139" viewBox="0 0 185 139" fill="none" xmlns="http://www.w3.org/2000/svg">
<path d="M0 8C0 3.58172 3.58172 0 8 0H177C181.418 0 185 3.58172 185 8V139H0V8Z" fill="#BBDEFB"/>
<path d="M53.6915 64H46.3475V47.224H52.8755C54.0115 47.224 54.9875 47.36 55.8035 47.632C56.6355 47.904 57.2515 48.272 57.6515 48.736C58.4195 49.6 58.8035 50.576 58.8035 51.664C58.8035 52.976 58.3875 53.952 57.5555 54.592C57.2515 54.816 57.0435 54.96 56.9315 55.024C56.8195 55.072 56.6195 55.16 56.3315 55.288C57.3715 55.512 58.1955 55.984 58.8035 56.704C59.4275 57.408 59.7395 58.288 59.7395 59.344C59.7395 60.512 59.3395 61.544 58.5395 62.44C57.5955 63.48 55.9795 64 53.6915 64ZM49.1795 54.184H52.7795C54.8275 54.184 55.8515 53.488 55.8515 52.096C55.8515 51.296 55.6035 50.72 55.1075 50.368C54.6115 50.016 53.8435 49.84 52.8035 49.84H49.1795V54.184ZM49.1795 61.384H53.6195C54.6595 61.384 55.4515 61.224 55.9955 60.904C56.5555 60.568 56.8355 59.944 56.8355 59.032C56.8355 57.544 55.6435 56.8 53.2595 56.8H49.1795V61.384ZM73.2528 64H70.8048V62.296C69.7488 63.56 68.3328 64.192 66.5568 64.192C65.2288 64.192 64.1248 63.816 63.2448 63.064C62.3808 62.312 61.9488 61.312 61.9488 60.064C61.9488 58.8 62.4128 57.856 63.3408 57.232C64.2688 56.608 65.5248 56.296 67.1088 56.296H70.5888V55.816C70.5888 54.12 69.6448 53.272 67.7568 53.272C66.5728 53.272 65.3408 53.704 64.0608 54.568L62.8608 52.888C64.4128 51.656 66.1728 51.04 68.1408 51.04C69.6448 51.04 70.8688 51.424 71.8128 52.192C72.7728 52.944 73.2528 54.136 73.2528 55.768V64ZM70.5648 59.248V58.168H67.5408C65.6048 58.168 64.6368 58.776 64.6368 59.992C64.6368 60.616 64.8768 61.096 65.3568 61.432C65.8368 61.752 66.5008 61.912 67.3488 61.912C68.2128 61.912 68.9648 61.672 69.6048 61.192C70.2448 60.712 70.5648 60.064 70.5648 59.248ZM86.0908 60.184C86.0908 61.4 85.6508 62.376 84.7708 63.112C83.8908 63.832 82.7628 64.192 81.3868 64.192C80.4588 64.192 79.4908 64.024 78.4828 63.688C77.4908 63.352 76.6108 62.88 75.8428 62.272L77.1388 60.184C78.6268 61.304 80.0668 61.864 81.4588 61.864C82.0668 61.864 82.5468 61.728 82.8988 61.456C83.2508 61.168 83.4268 60.808 83.4268 60.376C83.4268 59.736 82.5788 59.16 80.8828 58.648C80.7548 58.6 80.6588 58.568 80.5948 58.552C77.9388 57.832 76.6108 56.632 76.6108 54.952C76.6108 53.768 77.0668 52.824 77.9788 52.12C78.9068 51.4 80.1068 51.04 81.5788 51.04C83.0508 51.04 84.4428 51.472 85.7548 52.336L84.7468 54.328C83.7068 53.64 82.5788 53.296 81.3628 53.296C80.7228 53.296 80.2028 53.416 79.8028 53.656C79.4028 53.88 79.2028 54.224 79.2028 54.688C79.2028 55.104 79.4108 55.408 79.8268 55.6C80.1148 55.744 80.5148 55.88 81.0268 56.008C81.5548 56.136 82.0188 56.264 82.4188 56.392C82.8188 56.52 83.2028 56.664 83.5708 56.824C83.9548 56.984 84.3628 57.208 84.7948 57.496C85.6588 58.072 86.0908 58.968 86.0908 60.184ZM91.8234 64H89.1354V51.232H91.8234V64ZM89.3034 48.688C88.9674 48.352 88.7994 47.952 88.7994 47.488C88.7994 47.024 88.9674 46.624 89.3034 46.288C89.6394 45.952 90.0394 45.784 90.5034 45.784C90.9674 45.784 91.3674 45.952 91.7034 46.288C92.0394 46.624 92.2074 47.024 92.2074 47.488C92.2074 47.952 92.0394 48.352 91.7034 48.688C91.3674 49.024 90.9674 49.192 90.5034 49.192C90.0394 49.192 89.6394 49.024 89.3034 48.688ZM101.385 64.192C99.6093 64.192 98.0813 63.592 96.8013 62.392C95.5213 61.176 94.8813 59.592 94.8813 57.64C94.8813 55.688 95.5453 54.104 96.8733 52.888C98.2173 51.656 99.8493 51.04 101.769 51.04C103.689 51.04 105.313 51.704 106.641 53.032L105.057 54.976C103.953 54.016 102.841 53.536 101.721 53.536C100.601 53.536 99.6253 53.912 98.7933 54.664C97.9773 55.4 97.5693 56.36 97.5693 57.544C97.5693 58.712 97.9773 59.704 98.7933 60.52C99.6093 61.336 100.609 61.744 101.793 61.744C102.993 61.744 104.121 61.2 105.177 60.112L106.761 61.84C105.209 63.408 103.417 64.192 101.385 64.192ZM130.295 53.536H127.703L127.007 57.52H129.959L129.431 60.16H126.575L125.903 64H123.239L123.911 60.16H120.383L119.711 64H117.023L117.695 60.16H115.223L115.751 57.52H118.151L118.847 53.536H116.111L116.639 50.896H119.303L119.999 46.816H122.663L121.967 50.896H125.495L126.191 46.816H128.879L128.135 50.896H130.823L130.295 53.536ZM125.063 53.536H121.535L120.815 57.52H124.343L125.063 53.536ZM132.536 47.224H138.632V64H135.944V49.744H132.536V47.224ZM28.039 78.816V93H25.207V78.816H20.119V76.224H33.127V78.816H28.039ZM44.3896 93H41.9416V91.296C40.8856 92.56 39.4696 93.192 37.6936 93.192C36.3656 93.192 35.2616 92.816 34.3816 92.064C33.5176 91.312 33.0856 90.312 33.0856 89.064C33.0856 87.8 33.5496 86.856 34.4776 86.232C35.4056 85.608 36.6616 85.296 38.2456 85.296H41.7256V84.816C41.7256 83.12 40.7816 82.272 38.8936 82.272C37.7096 82.272 36.4776 82.704 35.1976 83.568L33.9976 81.888C35.5496 80.656 37.3096 80.04 39.2776 80.04C40.7816 80.04 42.0056 80.424 42.9496 81.192C43.9096 81.944 44.3896 83.136 44.3896 84.768V93ZM41.7016 88.248V87.168H38.6776C36.7416 87.168 35.7736 87.776 35.7736 88.992C35.7736 89.616 36.0136 90.096 36.4936 90.432C36.9736 90.752 37.6376 90.912 38.4856 90.912C39.3496 90.912 40.1016 90.672 40.7416 90.192C41.3816 89.712 41.7016 89.064 41.7016 88.248ZM54.9715 80.04C56.6835 80.04 58.1475 80.632 59.3635 81.816C60.5795 83 61.1875 84.576 61.1875 86.544C61.1875 88.512 60.5795 90.112 59.3635 91.344C58.1635 92.576 56.7555 93.192 55.1395 93.192C53.5395 93.192 52.0995 92.488 50.8195 91.08V93H48.1315V75.192H50.8195V82.464C51.8755 80.848 53.2595 80.04 54.9715 80.04ZM50.7715 86.64C50.7715 87.856 51.1395 88.856 51.8755 89.64C52.6115 90.408 53.5075 90.792 54.5635 90.792C55.6195 90.792 56.5395 90.408 57.3235 89.64C58.1075 88.872 58.4995 87.88 58.4995 86.664C58.4995 85.432 58.1155 84.416 57.3475 83.616C56.5795 82.8 55.6595 82.392 54.5875 82.392C53.5155 82.392 52.6115 82.8 51.8755 83.616C51.1395 84.416 50.7715 85.424 50.7715 86.64ZM66.9445 93H64.2565V75.192H66.9445V93ZM82.7224 87.792H72.7144C72.7784 88.72 73.2024 89.472 73.9864 90.048C74.7704 90.608 75.6664 90.888 76.6744 90.888C78.2744 90.888 79.4904 90.384 80.3224 89.376L81.8584 91.056C80.4824 92.48 78.6904 93.192 76.4824 93.192C74.6904 93.192 73.1624 92.6 71.8984 91.416C70.6504 90.216 70.0264 88.616 70.0264 86.616C70.0264 84.6 70.6664 83 71.9464 81.816C73.2264 80.632 74.7304 80.04 76.4584 80.04C78.2024 80.04 79.6824 80.568 80.8984 81.624C82.1144 82.664 82.7224 84.104 82.7224 85.944V87.792ZM72.7144 85.68H80.0344C80.0344 84.608 79.6984 83.784 79.0264 83.208C78.3544 82.632 77.5224 82.344 76.5304 82.344C75.5544 82.344 74.6744 82.648 73.8904 83.256C73.1064 83.848 72.7144 84.656 72.7144 85.68ZM94.9523 93H92.2643V75.192H94.9523V93ZM109.194 93H106.746V91.296C105.69 92.56 104.274 93.192 102.498 93.192C101.17 93.192 100.066 92.816 99.1863 92.064C98.3223 91.312 97.8903 90.312 97.8903 89.064C97.8903 87.8 98.3543 86.856 99.2823 86.232C100.21 85.608 101.466 85.296 103.05 85.296H106.53V84.816C106.53 83.12 105.586 82.272 103.698 82.272C102.514 82.272 101.282 82.704 100.002 83.568L98.8023 81.888C100.354 80.656 102.114 80.04 104.082 80.04C105.586 80.04 106.81 80.424 107.754 81.192C108.714 81.944 109.194 83.136 109.194 84.768V93ZM106.506 88.248V87.168H103.482C101.546 87.168 100.578 87.776 100.578 88.992C100.578 89.616 100.818 90.096 101.298 90.432C101.778 90.752 102.442 90.912 103.29 90.912C104.154 90.912 104.906 90.672 105.546 90.192C106.186 89.712 106.506 89.064 106.506 88.248ZM114.404 98.088C113.236 98.088 112.18 97.664 111.236 96.816L112.46 94.632C113.02 95.16 113.596 95.424 114.188 95.424C114.796 95.424 115.284 95.208 115.652 94.776C116.036 94.344 116.228 93.872 116.228 93.36C116.228 93.136 114.508 88.76 111.068 80.232H113.948L117.764 89.64L121.58 80.232H124.46L118.268 95.4C117.9 96.232 117.372 96.888 116.684 97.368C115.996 97.848 115.236 98.088 114.404 98.088ZM129.342 89.64C130.11 90.408 131.078 90.792 132.246 90.792C133.414 90.792 134.374 90.408 135.126 89.64C135.894 88.856 136.278 87.848 136.278 86.616C136.278 85.384 135.894 84.384 135.126 83.616C134.374 82.832 133.414 82.44 132.246 82.44C131.078 82.44 130.11 82.832 129.342 83.616C128.59 84.384 128.214 85.384 128.214 86.616C128.214 87.848 128.59 88.856 129.342 89.64ZM137.046 91.296C135.766 92.56 134.166 93.192 132.246 93.192C130.326 93.192 128.726 92.56 127.446 91.296C126.166 90.016 125.526 88.456 125.526 86.616C125.526 84.776 126.166 83.224 127.446 81.96C128.726 80.68 130.326 80.04 132.246 80.04C134.166 80.04 135.766 80.68 137.046 81.96C138.326 83.224 138.966 84.776 138.966 86.616C138.966 88.456 138.326 90.016 137.046 91.296ZM150.95 87.144V80.232H153.638V93H150.95V90.672C150.518 91.456 149.918 92.072 149.15 92.52C148.398 92.968 147.582 93.192 146.702 93.192C145.262 93.192 144.094 92.752 143.198 91.872C142.318 90.992 141.878 89.72 141.878 88.056V80.232H144.566V87.24C144.566 89.592 145.542 90.768 147.494 90.768C148.422 90.768 149.23 90.464 149.918 89.856C150.606 89.232 150.95 88.328 150.95 87.144ZM160.85 82.392V88.872C160.85 89.48 161.01 89.968 161.33 90.336C161.65 90.688 162.098 90.864 162.674 90.864C163.25 90.864 163.802 90.584 164.33 90.024L165.434 91.92C164.49 92.768 163.442 93.192 162.29 93.192C161.154 93.192 160.178 92.8 159.362 92.016C158.562 91.216 158.162 90.144 158.162 88.8V82.392H156.554V80.232H158.162V76.224H160.85V80.232H164.21V82.392H160.85Z" fill="black"/>
</svg>
