<svg width="21" height="16" viewBox="0 0 21 16" fill="none" xmlns="http://www.w3.org/2000/svg">
<circle cx="14.4514" cy="6.19355" r="6.19355" fill="black"/>
<path d="M15.5553 8.13375L8.78517 1.14998L8.33137 0.681621C8.22798 0.575611 8.08815 0.516113 7.9424 0.516113C7.79666 0.516113 7.65683 0.575611 7.55344 0.681621L0.32947 8.13375C0.223522 8.24267 0.139789 8.37239 0.0832142 8.51526C0.0266395 8.65813 -0.00163057 8.81125 7.26246e-05 8.96558C0.00708108 9.60211 0.52045 10.1103 1.13719 10.1103H1.88184V16H14.003V10.1103H14.7634C15.063 10.1103 15.3451 9.9891 15.5571 9.77029C15.6615 9.66289 15.7442 9.53519 15.8004 9.39458C15.8567 9.25397 15.8853 9.10324 15.8847 8.95111C15.8847 8.6437 15.7673 8.35256 15.5553 8.13375ZM8.92359 14.698H6.96122V11.009H8.92359V14.698ZM12.7414 8.80826V14.698H10.0449V10.575C10.0449 10.1754 9.73131 9.85166 9.3441 9.85166H6.54071C6.1535 9.85166 5.83987 10.1754 5.83987 10.575V14.698H3.14336V8.80826H1.46134L7.94416 2.12286L8.3489 2.54058L14.4252 8.80826H12.7414Z" fill="black"/>
<circle cx="14.4518" cy="6.19347" r="3.6129" fill="black"/>
<path d="M14.4513 1.03223C11.6023 1.03223 9.29004 3.34448 9.29004 6.19352C9.29004 9.04255 11.6023 11.3548 14.4513 11.3548C17.3004 11.3548 19.6126 9.04255 19.6126 6.19352C19.6126 3.34448 17.3004 1.03223 14.4513 1.03223ZM16.5158 6.70965H14.9675V8.25803C14.9675 8.5419 14.7352 8.77416 14.4513 8.77416C14.1675 8.77416 13.9352 8.5419 13.9352 8.25803V6.70965H12.3868C12.1029 6.70965 11.8707 6.47739 11.8707 6.19352C11.8707 5.90965 12.1029 5.67739 12.3868 5.67739H13.9352V4.129C13.9352 3.84513 14.1675 3.61287 14.4513 3.61287C14.7352 3.61287 14.9675 3.84513 14.9675 4.129V5.67739H16.5158C16.7997 5.67739 17.032 5.90965 17.032 6.19352C17.032 6.47739 16.7997 6.70965 16.5158 6.70965Z" fill="white"/>
</svg>
