<svg width="25" height="18" viewBox="0 0 25 18" fill="none" xmlns="http://www.w3.org/2000/svg">
<path d="M9.81151 7.77678C9.82467 7.78648 9.83766 7.79635 9.85181 7.80507C9.91267 7.84208 9.97353 7.87613 10.0342 7.90952C10.0535 7.92021 10.073 7.93024 10.0926 7.94077C10.1235 7.95722 10.1546 7.97301 10.1856 7.98847C10.2129 8.00196 10.24 8.01578 10.2675 8.02878C10.2992 8.04374 10.3308 8.05772 10.3624 8.07171C10.3987 8.08766 10.4351 8.10329 10.4719 8.11859C10.5114 8.13454 10.5507 8.15017 10.5897 8.16497C10.6093 8.17221 10.6289 8.17928 10.6483 8.18619C10.695 8.20313 10.7415 8.21893 10.7879 8.23373C10.7986 8.23702 10.8093 8.24064 10.8202 8.24426C10.881 8.26285 10.9414 8.28012 11.0014 8.29558C11.0118 8.29854 11.0223 8.30068 11.0328 8.30347C11.0825 8.31598 11.1319 8.32749 11.1811 8.33769C11.1991 8.34164 11.2172 8.34558 11.2353 8.3492C11.2847 8.35891 11.334 8.36795 11.3827 8.37585C11.6045 8.41171 11.8316 8.43128 12.0634 8.43128C12.8069 8.43128 13.5055 8.23718 14.1126 7.89801C14.2215 7.83994 14.287 7.798 14.3009 7.78878C14.3098 7.78286 14.3179 7.77595 14.3263 7.76987C15.4991 7.02045 16.2789 5.70782 16.2789 4.21572C16.2789 1.89115 14.388 0 12.0634 0C9.73897 0 7.84766 1.89115 7.84766 4.21572C7.84766 5.71242 8.63244 7.02867 9.81151 7.77678ZM11.8234 4.34238V3.75318C11.8234 3.61254 11.9379 3.49822 12.0785 3.49822C12.2192 3.49822 12.3335 3.61254 12.3335 3.75318V4.34238C12.3335 4.47973 12.2243 4.59109 12.0882 4.59619H12.0688C11.9328 4.59109 11.8234 4.47973 11.8234 4.34238ZM11.3441 5.64942H12.0399C12.0529 5.64975 12.0655 5.65041 12.0785 5.65041C12.0913 5.65041 12.104 5.64975 12.117 5.64942H12.7934C12.9719 5.64942 13.136 5.73874 13.2326 5.88892C13.3984 6.14618 13.4862 6.44407 13.4862 6.75003V7.03492C13.0092 7.2606 11.8775 7.65176 10.6514 7.0443V6.75003C10.6514 6.44407 10.7391 6.14618 10.9049 5.88892C11.0016 5.73874 11.1656 5.64942 11.3441 5.64942ZM12.0634 1.0529C13.8073 1.0529 15.226 2.47163 15.226 4.21572C15.226 4.98587 14.9489 5.69252 14.4896 6.24175C14.4256 5.91474 14.3004 5.60188 14.1179 5.3183C13.929 5.02535 13.6543 4.8097 13.3383 4.69357C13.3696 4.58171 13.3867 4.4641 13.3867 4.34238V3.75318C13.3867 3.03189 12.7996 2.44515 12.0785 2.44515C11.3572 2.44515 10.7705 3.03189 10.7705 3.75318V4.34238C10.7705 4.46164 10.7868 4.57711 10.8169 4.68715C10.4935 4.80164 10.212 5.02008 10.0198 5.3183C9.83536 5.60468 9.70936 5.92116 9.64603 6.25179C9.18151 5.70124 8.90056 4.9908 8.90056 4.21572C8.90056 2.47163 10.3196 1.0529 12.0634 1.0529Z" fill="#9E9E9E"/>
<path d="M24.3532 10.036C24.3532 9.49075 24.2504 8.95961 24.0477 8.45775C24.0403 8.43949 24.0327 8.4214 24.025 8.40281C24.0132 8.37485 24.0011 8.34688 23.9888 8.31941C23.8704 8.05376 23.559 7.93451 23.2935 8.05294C23.0279 8.17137 22.9086 8.48259 23.027 8.74824C23.0362 8.76897 23.0455 8.78986 23.0542 8.81058C23.0599 8.8244 23.0657 8.83805 23.0713 8.85203C23.2231 9.22822 23.3003 9.62646 23.3003 10.036C23.3003 10.8062 23.0231 11.5128 22.5638 12.0621C22.4998 11.7352 22.3747 11.422 22.1921 11.1386C22.0031 10.8457 21.7285 10.63 21.4124 10.5139C21.4437 10.402 21.4608 10.2844 21.4608 10.1627V9.57365C21.4608 8.85236 20.8739 8.26546 20.1526 8.26546C19.4314 8.26546 18.8447 8.85236 18.8447 9.57365V10.1627C18.8447 10.2821 18.861 10.3978 18.8911 10.5075C18.5675 10.622 18.2863 10.8404 18.094 11.1386C17.9096 11.4252 17.7836 11.7415 17.7202 12.0721C17.2557 11.5215 16.9751 10.8111 16.9751 10.036C16.9751 8.29194 18.3938 6.87322 20.1376 6.87322C20.17 6.87322 20.2026 6.87387 20.2348 6.8747C20.2404 6.87486 20.2457 6.87519 20.2511 6.87519C20.5343 6.87519 20.7684 6.64951 20.777 6.36445C20.7857 6.07363 20.5572 5.831 20.2666 5.82212C20.2238 5.82097 20.1807 5.82031 20.1376 5.82031C17.8132 5.82031 15.9219 7.71162 15.9219 10.036C15.9219 11.5329 16.707 12.8492 17.8861 13.5974C17.899 13.6071 17.912 13.6167 17.926 13.6254C17.9869 13.6622 18.0476 13.6964 18.1081 13.7297C18.1277 13.7404 18.1474 13.7507 18.1673 13.7612C18.1981 13.7775 18.2287 13.7933 18.2594 13.8086C18.2869 13.8223 18.3144 13.8359 18.3422 13.8491C18.3733 13.8639 18.404 13.8774 18.4351 13.8912C18.4721 13.9076 18.5095 13.9238 18.5471 13.9391C18.5863 13.9552 18.6251 13.9708 18.6638 13.9851C18.6835 13.9925 18.7032 13.9996 18.723 14.0068C18.7694 14.0234 18.8158 14.0391 18.8618 14.0539C18.8728 14.0573 18.8837 14.0611 18.8947 14.0646C18.9552 14.0833 19.0156 14.1003 19.0753 14.1159C19.086 14.1187 19.0967 14.1212 19.1074 14.1238C19.1571 14.1363 19.2061 14.1476 19.2551 14.1582C19.2734 14.1619 19.2915 14.1659 19.3097 14.1697C19.3591 14.1792 19.4082 14.1881 19.4569 14.196C19.6788 14.2322 19.906 14.2516 20.1378 14.2516C20.8813 14.2516 21.58 14.0575 22.1871 13.7183C22.2957 13.6601 22.3612 13.6181 22.3752 13.6091C22.384 13.6032 22.3921 13.5964 22.4007 13.59C23.5733 12.8408 24.3532 11.5281 24.3532 10.036ZM19.8976 9.57365C19.8976 9.43301 20.0119 9.31869 20.1526 9.31869C20.2932 9.31869 20.4077 9.43301 20.4077 9.57365V10.1627C20.4077 10.3 20.2983 10.4117 20.1623 10.4168H20.1429C20.0068 10.4117 19.8976 10.3 19.8976 10.1627V9.57365ZM18.7254 12.5705C18.7254 12.2644 18.8133 11.9665 18.9789 11.7092C19.0756 11.5594 19.2396 11.4699 19.4181 11.4699H20.1141C20.1269 11.4701 20.1396 11.4707 20.1526 11.4707C20.1656 11.4707 20.1782 11.4704 20.1911 11.4699H20.8678C21.0459 11.4699 21.2102 11.5594 21.3066 11.7092C21.4726 11.9665 21.5603 12.2644 21.5603 12.5705V12.8556C21.0833 13.0811 19.9516 13.4722 18.7254 12.8646V12.5705Z" fill="#9E9E9E"/>
<path d="M8.43112 10.036C8.43112 7.71162 6.54014 5.82031 4.21539 5.82031C1.89098 5.82031 0 7.71162 0 10.036C0 11.5331 0.784784 12.8492 1.96402 13.5974C1.97701 13.6071 1.98984 13.617 2.00415 13.6254C2.06468 13.6624 2.12538 13.6964 2.18608 13.7297C2.20565 13.7405 2.22555 13.7507 2.24529 13.7612C2.27589 13.7775 2.30681 13.7933 2.33741 13.8086C2.36488 13.8223 2.39235 13.8361 2.41998 13.8493C2.45107 13.8639 2.48216 13.8774 2.51292 13.8912C2.54993 13.9076 2.58743 13.9238 2.6251 13.9391C2.66409 13.9552 2.70291 13.9708 2.74189 13.9854C2.7613 13.9925 2.78104 13.9998 2.80078 14.0068C2.84733 14.0234 2.89355 14.0391 2.93961 14.0539C2.95079 14.0573 2.96165 14.0611 2.97251 14.0646C3.0332 14.0833 3.09341 14.1006 3.15345 14.1159C3.16397 14.1189 3.17466 14.1213 3.18536 14.124C3.23487 14.1363 3.28421 14.1478 3.33323 14.1582C3.35133 14.1619 3.36942 14.1659 3.38768 14.1697C3.43703 14.1792 3.48621 14.1883 3.53506 14.196C3.7568 14.2322 3.98396 14.2516 4.21572 14.2516C4.95922 14.2516 5.65781 14.0575 6.26495 13.7183C6.37367 13.6603 6.43914 13.6183 6.45312 13.6091C6.46217 13.6032 6.47023 13.5964 6.47862 13.5902C7.65143 12.8408 8.43112 11.5281 8.43112 10.036ZM1.0529 10.036C1.0529 8.29227 2.47163 6.87354 4.21539 6.87354C5.95949 6.87354 7.37822 8.29227 7.37822 10.036C7.37822 10.8063 7.10105 11.5128 6.64163 12.0621C6.57764 11.7352 6.45246 11.4222 6.26988 11.1386C6.08121 10.8458 5.80651 10.63 5.49052 10.5139C5.52178 10.402 5.53872 10.2844 5.53872 10.1627V9.57365C5.53872 8.85236 4.95198 8.26546 4.23069 8.26546C3.5094 8.26546 2.9225 8.85236 2.9225 9.57365V10.1627C2.9225 10.2821 2.93879 10.3978 2.96905 10.5076C2.64533 10.622 2.36406 10.8404 2.17193 11.1386C1.98737 11.4252 1.86137 11.7415 1.79804 12.0721C1.33352 11.5215 1.0529 10.8111 1.0529 10.036ZM3.97557 10.1627V9.57365C3.97557 9.43301 4.09005 9.31869 4.23069 9.31869C4.37133 9.31869 4.48565 9.43301 4.48565 9.57365V10.1627C4.48565 10.3 4.37643 10.4117 4.2404 10.4168H4.22099C4.08495 10.4117 3.97557 10.3 3.97557 10.1627ZM3.49624 11.4697H4.1922C4.20503 11.4701 4.2177 11.4707 4.23069 11.4707C4.24369 11.4707 4.25635 11.4701 4.26918 11.4697H4.94573C5.12404 11.4697 5.2882 11.5594 5.38476 11.7092C5.55073 11.9665 5.63824 12.2644 5.63824 12.5703V12.8554C5.16121 13.0811 4.02952 13.4722 2.80357 12.8646V12.5703C2.80357 12.2644 2.89125 11.9665 3.05705 11.7092C3.15361 11.5594 3.31777 11.4697 3.49624 11.4697Z" fill="#9E9E9E"/>
<path d="M12.089 12.9062C12.3799 12.9062 12.6157 12.6706 12.6157 12.3798V11.55C12.6157 11.2593 12.3799 11.0234 12.089 11.0234C11.7984 11.0234 11.5625 11.2593 11.5625 11.55V12.3798C11.5625 12.6706 11.7984 12.9062 12.089 12.9062Z" fill="#9E9E9E"/>
<path d="M14.2018 13.7728C14.2811 13.9841 14.4816 14.1144 14.6947 14.1144C14.7563 14.1144 14.8189 14.1034 14.8799 14.0804L16.2789 13.5547C16.5511 13.4525 16.6889 13.1489 16.5865 12.8766C16.4843 12.6044 16.1807 12.4666 15.9084 12.569L14.5094 13.0947C14.2372 13.1971 14.0994 13.5009 14.2018 13.7728Z" fill="#9E9E9E"/>
<path d="M9.58984 14.1144C9.80286 14.1144 10.0035 13.9839 10.0827 13.7727C10.185 13.5008 10.0473 13.197 9.77506 13.0948L8.37607 12.569C8.10384 12.4667 7.80035 12.6043 7.69788 12.8767C7.59556 13.1488 7.73324 13.4524 8.00547 13.5546L9.40479 14.0803C9.46565 14.1033 9.52833 14.1144 9.58984 14.1144Z" fill="#9E9E9E"/>
<path d="M11.7158 9.87167L11.7313 9.88352C11.8265 9.95573 11.9384 9.9906 12.0494 9.9906C12.2083 9.9906 12.3654 9.91905 12.469 9.78252C12.645 9.55108 12.5998 9.22078 12.3682 9.04478L12.3529 9.0331C12.1213 8.8571 11.7908 8.90233 11.6151 9.13393C11.4391 9.36554 11.4844 9.69583 11.7158 9.87167Z" fill="#9E9E9E"/>
<path d="M21.7628 7.50832L21.7782 7.52016C21.8735 7.59237 21.9853 7.62725 22.0964 7.62725C22.2553 7.62725 22.4123 7.55569 22.516 7.41917C22.6918 7.18773 22.6467 6.85743 22.4151 6.68143L22.3995 6.66975C22.1681 6.49391 21.8379 6.53898 21.6619 6.77058C21.4861 7.00218 21.5312 7.33248 21.7628 7.50832Z" fill="#9E9E9E"/>
<path fill-rule="evenodd" clip-rule="evenodd" d="M12.1371 16.943C12.8238 16.943 13.3805 16.3863 13.3805 15.6996C13.3805 15.0128 12.8238 14.4561 12.1371 14.4561C11.4503 14.4561 10.8936 15.0128 10.8936 15.6996C10.8936 16.3863 11.4503 16.943 12.1371 16.943ZM12.1371 17.9968C13.4058 17.9968 14.4343 16.9683 14.4343 15.6996C14.4343 14.4308 13.4058 13.4023 12.1371 13.4023C10.8683 13.4023 9.83984 14.4308 9.83984 15.6996C9.83984 16.9683 10.8683 17.9968 12.1371 17.9968Z" fill="#9E9E9E"/>
</svg>
