<svg width="21" height="21" viewBox="0 0 21 21" fill="none" xmlns="http://www.w3.org/2000/svg">
<circle cx="10.5" cy="10.5" r="10" fill="#C5CAE9" stroke="#233572"/>
<path d="M10.6363 3.14844C10.8816 3.21041 11.1215 3.2874 11.3259 3.45452C11.5605 3.64794 11.724 3.89393 11.8306 4.19814C12.2429 4.05542 12.6393 4.07608 13.0161 4.29766C13.3875 4.51549 13.6186 4.85349 13.727 5.28164C13.878 5.26286 14.022 5.22906 14.166 5.22718C15.0457 5.21967 15.6535 5.85437 15.6553 6.78201C15.6589 8.31431 15.6553 9.8466 15.6553 11.377C15.6553 12.1638 15.6553 12.9488 15.6553 13.7356C15.6535 15.2603 14.7027 16.4697 13.2809 16.7476C13.1085 16.7814 12.9308 16.7908 12.7548 16.7908C11.628 16.7945 10.5012 16.7739 9.3762 16.7983C8.26185 16.8227 7.30034 16.4171 6.45613 15.6866C6.04025 15.3279 5.66702 14.9148 5.2778 14.5224C4.75706 13.9985 4.23987 13.4708 3.72268 12.945C3.25704 12.4737 3.12019 11.7864 3.36723 11.1592C3.60361 10.5564 4.17233 10.1677 4.80327 10.1846C5.15872 10.194 5.47686 10.3236 5.747 10.5733C6.05625 10.8606 6.36549 11.1479 6.66763 11.4446C6.75294 11.5291 6.8187 11.5197 6.89512 11.4521C7.08707 11.2831 7.1546 11.0559 7.15638 10.8005C7.15816 9.84097 7.15638 8.88141 7.15638 7.92372C7.15638 7.12941 7.15638 6.33321 7.15638 5.5389C7.15638 4.44976 8.08412 3.73056 9.06695 4.05918C9.0865 4.06481 9.10605 4.07044 9.13094 4.07983C9.26423 3.76999 9.45795 3.51273 9.74232 3.35688C9.91116 3.26486 10.1013 3.21604 10.2826 3.14844C10.3999 3.14844 10.5172 3.14844 10.6363 3.14844ZM10.8887 9.77713C10.8887 9.70765 10.8887 9.65507 10.8887 9.60061C10.8887 8.58284 10.8887 7.56694 10.8887 6.54916C10.8887 5.93136 10.8887 5.31356 10.8887 4.69764C10.8887 4.47418 10.782 4.30705 10.6043 4.24133C10.311 4.13241 10.032 4.35587 10.032 4.70702C10.0302 6.34636 10.032 7.98381 10.032 9.62314C10.032 9.67385 10.032 9.72642 10.032 9.77713C9.68722 9.77713 9.3602 9.77713 9.02252 9.77713C9.02252 9.73206 9.02252 9.69262 9.02252 9.65319C9.02252 9.03163 9.02252 8.41008 9.02252 7.78852C9.02252 7.03364 9.02252 6.27876 9.02074 5.52387C9.02074 5.30605 8.91944 5.14268 8.74882 5.07132C8.45557 4.95114 8.16587 5.17836 8.16587 5.53326C8.16587 7.27024 8.16587 9.00722 8.1641 10.7423C8.1641 10.8756 8.16232 11.0109 8.13922 11.1404C8.02547 11.7714 7.73044 12.2671 7.14394 12.5093C6.74939 12.6727 6.38327 12.6201 6.0598 12.2972C5.75411 11.9929 5.43598 11.7019 5.1214 11.4089C4.88858 11.1911 4.58288 11.2005 4.38916 11.4258C4.19899 11.6474 4.21499 11.9685 4.43359 12.1882C5.26358 13.0314 6.08468 13.8858 6.93067 14.7101C7.60248 15.3655 8.39159 15.7467 9.33532 15.7317C10.4746 15.7129 11.6138 15.7298 12.753 15.726C12.8988 15.726 13.0481 15.7148 13.1902 15.6829C14.054 15.4876 14.644 14.7195 14.6476 13.7844C14.6512 13.007 14.6476 12.2296 14.6476 11.4521C14.6476 9.88792 14.6476 8.32557 14.6458 6.76135C14.6458 6.48719 14.5161 6.32946 14.2744 6.29566C14.0416 6.26186 13.8585 6.38955 13.791 6.63742C13.7732 6.70502 13.7679 6.77638 13.7679 6.84773C13.7661 7.77537 13.7661 8.70489 13.7661 9.63253C13.7661 9.67948 13.7661 9.72642 13.7661 9.77525C13.4213 9.77525 13.0925 9.77525 12.7566 9.77525C12.7566 9.71704 12.7566 9.66821 12.7566 9.62127C12.7566 8.72367 12.7566 7.82608 12.7566 6.93036C12.7566 6.50034 12.7601 6.06844 12.7548 5.63842C12.753 5.39243 12.5806 5.19713 12.3638 5.17836C12.1488 5.15958 11.9515 5.31919 11.9088 5.55016C11.8982 5.6065 11.8999 5.66471 11.8999 5.72292C11.8999 7.02049 11.8999 8.31618 11.8999 9.61376C11.8999 9.67009 11.8999 9.72455 11.8999 9.78088C11.5534 9.77713 11.2263 9.77713 10.8887 9.77713Z" fill="#233572"/>
<path d="M13.313 10.5547C13.5903 10.5566 13.816 10.7988 13.8142 11.0918C13.8124 11.3847 13.5831 11.6232 13.3059 11.6213C13.0286 11.6194 12.8029 11.3772 12.8047 11.0842C12.8065 10.7913 13.0357 10.5528 13.313 10.5547Z" fill="#233572"/>
<path d="M11.039 14.2816C11.0408 14.5745 10.8168 14.8168 10.5396 14.8186C10.2623 14.8205 10.033 14.582 10.0313 14.291C10.0295 13.9962 10.2534 13.7558 10.5307 13.7539C10.8079 13.752 11.0372 13.9886 11.039 14.2816Z" fill="#233572"/>
<path d="M13.6366 14.1036C13.6366 14.3966 13.4091 14.6369 13.1319 14.635C12.8546 14.635 12.6289 14.3966 12.6289 14.1017C12.6271 13.8088 12.8564 13.5684 13.1337 13.5703C13.4109 13.5722 13.6366 13.8107 13.6366 14.1036Z" fill="#233572"/>
<path d="M10.3337 11.4139C10.3302 11.7069 10.1009 11.9435 9.82365 11.9416C9.54639 11.9397 9.32245 11.6956 9.32423 11.4027C9.32601 11.1097 9.55528 10.8731 9.83431 10.875C10.1116 10.8769 10.3373 11.121 10.3337 11.4139Z" fill="#233572"/>
<path d="M11.6944 13.0393C11.4153 13.0393 11.1914 12.8008 11.1914 12.506C11.1914 12.2111 11.4171 11.9727 11.6962 11.9727C11.9752 11.9727 12.1991 12.2111 12.1991 12.506C12.1991 12.7989 11.9716 13.0393 11.6944 13.0393Z" fill="#233572"/>
<path d="M8.33146 14.1272C8.05242 14.1254 7.83026 13.885 7.83204 13.5902C7.83382 13.2972 8.06309 13.0606 8.34034 13.0625C8.61938 13.0644 8.84154 13.3047 8.83976 13.5996C8.83798 13.8906 8.60871 14.1291 8.33146 14.1272Z" fill="#233572"/>
</svg>
