<svg width="72" height="72" viewBox="0 0 72 72" fill="none" xmlns="http://www.w3.org/2000/svg">
    <g filter="url(#filter0_d)">
        <rect x="5" y="5" width="60" height="60" rx="4" fill="#2979FF"/>
    </g>
    <path d="M46.0023 21.5469H54.7297V52.0929H15.4563V21.5469H24.1837H46.0023Z" fill="#F9EAB0"/>
    <path d="M43.8218 29.5439H22.0032V31.7258C22.0032 32.9308 22.98 33.9077 24.185 33.9077C25.39 33.9077 26.3669 32.9308 26.3669 31.7258C26.3669 32.9308 27.3437 33.9077 28.5487 33.9077C29.7538 33.9077 30.7306 32.9308 30.7306 31.7258C30.7306 32.9308 31.7075 33.9077 32.9125 33.9077C34.1175 33.9077 35.0943 32.9308 35.0943 31.7258C35.0943 32.9308 36.0712 33.9077 37.2762 33.9077C38.4812 33.9077 39.458 32.9308 39.458 31.7258C39.458 32.9308 40.4349 33.9077 41.6399 33.9077C42.8449 33.9077 43.8218 32.9308 43.8218 31.7258C43.8218 32.9308 44.7986 33.9077 46.0036 33.9077C47.2086 33.9077 48.1855 32.9308 48.1855 31.7258V29.5439H43.8218Z" fill="#F3D55B"/>
    <path d="M32.185 35.3643H38.0033C39.2083 35.3643 40.1852 36.3411 40.1852 37.5461V50.6373H30.0032V37.5461C30.0032 36.3411 30.98 35.3643 32.185 35.3643Z" fill="#CB8252"/>
    <path d="M40.1717 51.3663C39.7701 51.3663 39.4445 51.0406 39.4445 50.639V37.5478C39.4445 36.7445 38.7932 36.0932 37.9899 36.0932H32.1716C31.3683 36.0932 30.717 36.7445 30.717 37.5478V50.639C30.717 51.0406 30.3914 51.3663 29.9897 51.3663C29.5881 51.3663 29.2625 51.0406 29.2625 50.639V37.5478C29.2625 35.9411 30.5649 34.6387 32.1716 34.6387H37.9899C39.5966 34.6387 40.899 35.9411 40.899 37.5478V50.639C40.899 51.0406 40.5734 51.3663 40.1717 51.3663Z" fill="#F3D55B"/>
    <path d="M27.0946 41.9111V44.093C27.0946 44.4947 26.769 44.8203 26.3673 44.8203H19.0945C18.6928 44.8203 18.3672 44.4947 18.3672 44.093V41.9111H27.0946Z" fill="#A59078"/>
    <path d="M27.0946 37.5461V41.9098H18.3672V37.5461C18.3672 36.3411 19.344 35.3643 20.549 35.3643H24.9128C26.1178 35.3643 27.0946 36.3411 27.0946 37.5461Z" fill="#2FA8CC"/>
    <path d="M51.8148 41.9111V44.093C51.8148 44.4947 51.4892 44.8203 51.0875 44.8203H43.8147C43.413 44.8203 43.0874 44.4947 43.0874 44.093V41.9111H51.8148Z" fill="#A59078"/>
    <path d="M37.2678 44.8122C36.8661 44.8122 36.5405 44.4866 36.5405 44.0849V41.9031C36.5405 41.5014 36.8661 41.1758 37.2678 41.1758C37.6695 41.1758 37.9951 41.5014 37.9951 41.9031V44.0849C37.9951 44.4866 37.6695 44.8122 37.2678 44.8122Z" fill="#805333"/>
    <path d="M25.6037 35.4807C23.1091 35.8153 18.3672 37.0807 18.3672 41.9099V37.5462C18.3672 36.3412 19.344 35.3643 20.549 35.3643H24.9128C25.1481 35.3621 25.382 35.4015 25.6037 35.4807Z" fill="#67B9CC"/>
    <path d="M51.8148 37.5461V41.9098H43.0874V37.5461C43.0874 36.3411 44.0643 35.3643 45.2693 35.3643H49.633C50.838 35.3643 51.8148 36.3411 51.8148 37.5461Z" fill="#2FA8CC"/>
    <path d="M50.3239 35.4807C47.8293 35.8153 43.0874 37.0807 43.0874 41.9099V37.5462C43.0874 36.3412 44.0643 35.3643 45.2693 35.3643H49.633C49.8683 35.3621 50.1022 35.4015 50.3239 35.4807Z" fill="#67B9CC"/>
    <path d="M15.4563 23H54.7297V24.4546H15.4563V23Z" fill="#F3D55B"/>
    <path d="M56.1896 21.5542C56.1836 22.355 55.5358 23.0028 54.735 23.0088H44.553V20.0996H54.735C55.5373 20.102 56.1872 20.7518 56.1896 21.5542Z" fill="#71C285"/>
    <path d="M56.1917 52.0913V54.2731C56.1917 54.6748 55.8661 55.0004 55.4644 55.0004H42.3733V50.6367H54.7372C55.5395 50.6391 56.1893 51.2889 56.1917 52.0913Z" fill="#CBB292"/>
    <path d="M27.8184 50.6367V55.0004H14.7273C14.3256 55.0004 14 54.6748 14 54.2731V52.0913C14.0024 51.2889 14.6522 50.6391 15.4546 50.6367H27.8184Z" fill="#CBB292"/>
    <path d="M26.3669 28.0928V30.2746C26.3669 31.4796 25.39 32.4565 24.185 32.4565C22.98 32.4565 22.0032 31.4796 22.0032 30.2746V28.0928H26.3669Z" fill="#4FBA6F"/>
    <path d="M30.7246 28.0928V30.2746C30.7246 31.4796 29.7477 32.4565 28.5427 32.4565C27.3377 32.4565 26.3608 31.4796 26.3608 30.2746V28.0928H30.7246Z" fill="#24AE5F"/>
    <path d="M35.0903 28.0928V30.2746C35.0903 31.4796 34.1134 32.4565 32.9084 32.4565C31.7034 32.4565 30.7266 31.4796 30.7266 30.2746V28.0928H35.0903Z" fill="#4FBA6F"/>
    <path d="M39.4575 28.0928V30.2746C39.4575 31.4796 38.4806 32.4565 37.2756 32.4565C36.0706 32.4565 35.0938 31.4796 35.0938 30.2746V28.0928H39.4575Z" fill="#24AE5F"/>
    <path d="M43.8168 28.0928V30.2746C43.8168 31.4796 42.84 32.4565 41.635 32.4565C40.43 32.4565 39.4531 31.4796 39.4531 30.2746V28.0928H43.8168Z" fill="#4FBA6F"/>
    <path d="M48.1823 28.0928V30.2746C48.1823 31.4796 47.2055 32.4565 46.0005 32.4565C44.7955 32.4565 43.8186 31.4796 43.8186 30.2746V28.0928H48.1823Z" fill="#24AE5F"/>
    <path d="M48.1855 28.0893H22.0032L24.185 23.7256H46.0036L48.1855 28.0893Z" fill="#71C285"/>
    <path d="M25.6366 20.0996V23.0088H15.4546C14.6522 23.0064 14.0024 22.3565 14 21.5542C13.998 21.1683 14.1529 20.7982 14.4291 20.5287C14.6986 20.2525 15.0687 20.0976 15.4546 20.0996L25.6366 20.0996Z" fill="#71C285"/>
    <path d="M44.5437 15C45.346 15.0024 45.9959 15.6522 45.9983 16.4546V23.7274H24.1797V16.4546C24.1821 15.6522 24.8319 15.0024 25.6343 15H44.5437Z" fill="#7ED09E"/>
    <path d="M27.8267 50.6367H42.3724V55.0004H27.8267V50.6367Z" fill="#A59078"/>
    <path d="M36.2005 16.6228V18.3244C36.2005 18.4748 36.1408 18.619 36.0344 18.7254C35.928 18.8318 35.7838 18.8915 35.6333 18.8915C35.4829 18.8915 35.3386 18.8318 35.2323 18.7254C35.1259 18.619 35.0662 18.4748 35.0662 18.3244V16.6228C35.0662 16.4724 35.1259 16.3282 35.2323 16.2218C35.3386 16.1154 35.4829 16.0557 35.6333 16.0557C35.7838 16.0557 35.928 16.1154 36.0344 16.2218C36.1408 16.3282 36.2005 16.4724 36.2005 16.6228Z" fill="#F0DE9C"/>
    <path d="M39.6003 20.5947C39.6003 21.046 39.421 21.4788 39.1019 21.7978C38.7828 22.1169 38.3501 22.2962 37.8988 22.2962H33.3614C32.9102 22.2961 32.4775 22.1168 32.1585 21.7977C31.8394 21.4786 31.6601 21.0459 31.6599 20.5947H39.6003Z" fill="#F0DE9C"/>
    <path d="M36.2005 17.236V18.3228C36.2005 18.4732 36.1408 18.6175 36.0344 18.7239C35.928 18.8302 35.7838 18.89 35.6333 18.89C35.4829 18.89 35.3386 18.8302 35.2323 18.7239C35.1259 18.6175 35.0662 18.4732 35.0662 18.3228V17.236C35.4416 17.1726 35.825 17.1726 36.2005 17.236Z" fill="#F0C033"/>
    <path d="M38.4754 20.5937H32.8037C32.8038 20.4032 32.8228 20.2132 32.8604 20.0265C32.9915 19.3862 33.3397 18.8108 33.8461 18.3977C34.3525 17.9845 34.986 17.7588 35.6396 17.7588C36.2931 17.7588 36.9267 17.9845 37.433 18.3977C37.9394 18.8108 38.2876 19.3862 38.4187 20.0265C38.4564 20.2132 38.4754 20.4032 38.4754 20.5937Z" fill="#F0DE9C"/>
    <path d="M38.4754 20.5984H32.8037C32.8038 20.408 32.8228 20.218 32.8604 20.0312H38.4187C38.4564 20.218 38.4754 20.408 38.4754 20.5984Z" fill="#F0C033"/>
    <path d="M29.3881 19.4235C28.6703 19.4232 27.9687 19.2101 27.372 18.8111C27.2943 18.7593 27.2306 18.6892 27.1865 18.6068C27.1424 18.5245 27.1194 18.4326 27.1194 18.3392V16.6377H28.2537V18.0153C28.6049 18.1949 28.9937 18.2886 29.3881 18.2886C29.7825 18.2886 30.1713 18.1949 30.5224 18.0153V16.6377H31.6568V18.3392C31.6568 18.4326 31.6337 18.5245 31.5897 18.6068C31.5456 18.6892 31.4819 18.7593 31.4042 18.8111C30.8075 19.2101 30.1059 19.4232 29.3881 19.4235Z" fill="#C6D6E2"/>
    <path d="M28.8296 16.6367H29.9639V22.8756H28.8296V16.6367Z" fill="#C6D6E2"/>
    <path d="M41.3013 19.4727H42.4356V22.8757H41.3013V19.4727Z" fill="#C6D6E2"/>
    <path d="M41.867 20.0398C42.8068 20.0398 43.5686 19.278 43.5686 18.3382C43.5686 17.3985 42.8068 16.6367 41.867 16.6367C40.9273 16.6367 40.1655 17.3985 40.1655 18.3382C40.1655 19.278 40.9273 20.0398 41.867 20.0398Z" fill="#C6D6E2"/>
    <path d="M39.5985 20.5947C39.5985 21.046 39.4192 21.4788 39.1001 21.7978C38.7811 22.1169 38.3483 22.2962 37.897 22.2962H33.3597C33.0678 22.2963 32.7809 22.2213 32.5265 22.0784C32.2721 21.9354 32.0587 21.7295 31.907 21.4802C32.1735 21.6435 32.48 21.7296 32.7925 21.7291H37.3299C37.6817 21.7292 38.0249 21.6201 38.3121 21.417C38.5993 21.2138 38.8165 20.9265 38.9335 20.5947H39.5985Z" fill="#F0C033"/>
    <defs>
        <filter id="filter0_d" x="0" y="0" width="72" height="72" filterUnits="userSpaceOnUse" color-interpolation-filters="sRGB">
            <feFlood flood-opacity="0" result="BackgroundImageFix"/>
            <feColorMatrix in="SourceAlpha" type="matrix" values="0 0 0 0 0 0 0 0 0 0 0 0 0 0 0 0 0 0 127 0"/>
            <feOffset dx="1" dy="1"/>
            <feGaussianBlur stdDeviation="3"/>
            <feColorMatrix type="matrix" values="0 0 0 0 0 0 0 0 0 0 0 0 0 0 0 0 0 0 0.08 0"/>
            <feBlend mode="normal" in2="BackgroundImageFix" result="effect1_dropShadow"/>
            <feBlend mode="normal" in="SourceGraphic" in2="effect1_dropShadow" result="shape"/>
        </filter>
    </defs>
</svg>
