<svg width="72" height="72" viewBox="0 0 72 72" fill="none" xmlns="http://www.w3.org/2000/svg">
    <g filter="url(#filter0_d)">
        <rect x="5" y="5" width="60" height="60" rx="4" fill="#0EA76F"/>
    </g>
    <path d="M14.3301 24.3857V54.6354C14.3301 54.8363 14.4931 54.9997 14.6944 54.9997H54.5629C54.7642 54.9997 54.9272 54.8363 54.9272 54.6354V24.3857H14.3301Z" fill="#ED5176"/>
    <path d="M14.332 34.7598H54.9291V36.8149H14.332V34.7598Z" fill="#BA365F"/>
    <path d="M14.332 24.3857H54.9291V26.4409H14.332V24.3857Z" fill="#BA365F"/>
    <path d="M27.4199 24.3857V26.4554C27.4199 27.9135 28.6018 29.0954 30.06 29.0954H41.2106C43.0927 29.0954 44.6185 27.5696 44.6185 25.6875V24.3857H27.4199Z" fill="#BA365F"/>
    <path d="M52.7822 24.3857V54.6354C52.7822 54.8363 52.6193 54.9997 52.418 54.9997H54.5653C54.7666 54.9997 54.9296 54.8363 54.9296 54.6354V24.3857H52.7822Z" fill="#BA365F"/>
    <path d="M29.7734 41.3913V54.9997H39.4842V41.3913C39.4842 40.8882 39.0764 40.4805 38.5733 40.4805H30.684C30.1812 40.4805 29.7734 40.8882 29.7734 41.3913Z" fill="#6A7193"/>
    <path d="M31.1622 42.7811C31.1622 42.278 31.5699 41.8702 32.073 41.8702H39.4842V41.3913C39.4842 40.8882 39.0764 40.4805 38.5737 40.4805H30.6843C30.1812 40.4805 29.7734 40.8882 29.7734 41.3913V54.9997H31.1622V42.7811Z" fill="#575B7A"/>
    <path d="M12.0566 30.6778V34.3951C12.0566 34.5964 12.2196 34.7594 12.4209 34.7594H56.8362C57.0375 34.7594 57.2005 34.5964 57.2005 34.3951V30.6778C57.2005 30.4765 57.0375 30.3135 56.8362 30.3135H12.4209C12.2196 30.3135 12.0566 30.4765 12.0566 30.6778Z" fill="#C8E7F7"/>
    <path d="M56.8363 30.3135H54.6973C54.8986 30.3135 55.0615 30.4765 55.0615 30.6778V34.3954C55.0615 34.5964 54.8986 34.7597 54.6973 34.7597H56.8363C57.0376 34.7597 57.2006 34.5964 57.2006 34.3954V30.6778C57.2006 30.4765 57.0376 30.3135 56.8363 30.3135Z" fill="#8CBCD6"/>
    <path d="M42.4609 42.7114V50.1641C42.4609 50.5898 42.8062 50.9351 43.232 50.9351H51.6838C52.1099 50.9351 52.4548 50.5898 52.4548 50.1641V42.7114C52.4548 42.2854 52.1099 41.9404 51.6838 41.9404H43.232C42.8059 41.9401 42.4609 42.2854 42.4609 42.7114Z" fill="#C8E7F7"/>
    <path d="M16.8027 42.7114V50.1641C16.8027 50.5898 17.1477 50.9351 17.5738 50.9351H26.0256C26.4517 50.9351 26.7966 50.5898 26.7966 50.1641V42.7114C26.7966 42.2854 26.4513 41.9404 26.0256 41.9404H17.5738C17.1477 41.9401 16.8027 42.2854 16.8027 42.7114Z" fill="#C8E7F7"/>
    <path d="M57.2571 22.3791V20.709H12V22.3791C13.108 22.3791 14.0064 23.2776 14.0064 24.3856H55.2506C55.2506 23.2776 56.149 22.3791 57.2571 22.3791Z" fill="#C8E7F7"/>
    <path d="M27.418 20.709H44.6166V24.3856H27.418V20.709Z" fill="#8CBCD6"/>
    <path d="M55.1181 20.709V22.3791C54.0098 22.3791 53.1113 23.2776 53.1113 24.3856H55.2507C55.2507 23.2776 56.1491 22.3791 57.2572 22.3791V20.709H55.1181Z" fill="#8CBCD6"/>
    <path d="M26.0293 17.64V25.092C26.0293 26.5497 27.2112 27.732 28.6693 27.732H40.5879C42.0456 27.732 43.2279 26.5497 43.2279 25.092V17.64C43.2279 16.1819 42.0456 15 40.5879 15H28.6693C27.2112 15 26.0293 16.1819 26.0293 17.64Z" fill="#FFEB96"/>
    <path d="M31.9869 48.403H31.4403C31.0743 48.403 30.7773 48.1061 30.7773 47.7401C30.7773 47.3741 31.0743 47.0771 31.4403 47.0771H31.9869C32.3532 47.0771 32.6498 47.3741 32.6498 47.7401C32.6498 48.1061 32.3532 48.403 31.9869 48.403Z" fill="#252D4C"/>
    <path d="M37.178 23.8663H33.1223C32.3189 23.8663 31.6165 23.2956 31.4522 22.509L30.59 18.3884H29.7372C29.3708 18.3884 29.0742 18.0914 29.0742 17.7254C29.0742 17.3594 29.3708 17.0625 29.7372 17.0625H30.59C31.2143 17.0625 31.7602 17.5062 31.8879 18.117L32.7498 22.2376C32.7864 22.413 32.9431 22.5404 33.1223 22.5404H37.178C37.3351 22.5404 37.4784 22.4413 37.534 22.2942L38.7467 19.0841H33.3699C33.0035 19.0841 32.707 18.7872 32.707 18.4212C32.707 18.0552 33.0035 17.7582 33.3699 17.7582H39.1054C39.4593 17.7582 39.7908 17.9323 39.9921 18.2233C40.1934 18.5144 40.239 18.8859 40.1136 19.2171L38.7743 22.7628C38.525 23.4226 37.8834 23.8663 37.178 23.8663Z" fill="#5692D8"/>
    <path d="M33.2394 25.8054H33.0575C32.6911 25.8054 32.3945 25.5088 32.3945 25.1424C32.3945 24.7764 32.6911 24.4795 33.0575 24.4795H33.2394C33.6058 24.4795 33.9024 24.7764 33.9024 25.1424C33.9024 25.5088 33.6058 25.8054 33.2394 25.8054Z" fill="#5692D8"/>
    <path d="M36.2004 25.8054H36.0184C35.6521 25.8054 35.3555 25.5088 35.3555 25.1424C35.3555 24.7764 35.6521 24.4795 36.0184 24.4795H36.2004C36.5667 24.4795 36.8633 24.7764 36.8633 25.1424C36.8633 25.5088 36.5667 25.8054 36.2004 25.8054Z" fill="#5692D8"/>
    <defs>
        <filter id="filter0_d" x="0" y="0" width="72" height="72" filterUnits="userSpaceOnUse" color-interpolation-filters="sRGB">
            <feFlood flood-opacity="0" result="BackgroundImageFix"/>
            <feColorMatrix in="SourceAlpha" type="matrix" values="0 0 0 0 0 0 0 0 0 0 0 0 0 0 0 0 0 0 127 0"/>
            <feOffset dx="1" dy="1"/>
            <feGaussianBlur stdDeviation="3"/>
            <feColorMatrix type="matrix" values="0 0 0 0 0 0 0 0 0 0 0 0 0 0 0 0 0 0 0.08 0"/>
            <feBlend mode="normal" in2="BackgroundImageFix" result="effect1_dropShadow"/>
            <feBlend mode="normal" in="SourceGraphic" in2="effect1_dropShadow" result="shape"/>
        </filter>
    </defs>
</svg>
