<svg width="53" height="53" viewBox="0 0 53 53" fill="none" xmlns="http://www.w3.org/2000/svg">
<g filter="url(#filter0_d)">
<path fill-rule="evenodd" clip-rule="evenodd" d="M26.5 41C36.7173 41 45 32.7173 45 22.5C45 12.2827 36.7173 4 26.5 4C16.2827 4 8 12.2827 8 22.5C8 32.7173 16.2827 41 26.5 41Z" fill="white"/>
</g>
<path d="M32.8223 26.8862L32.7662 26.8705C31.947 26.6609 31.6694 26.4591 31.3048 26.3267C30.0116 25.8557 29.675 25.5169 29.5889 25.3567C29.5856 25.3507 29.5696 23.9043 29.5696 23.9043L26.5017 23.8711L23.4335 23.9043L23.4228 25.3387C23.3285 25.5169 22.9919 25.8558 21.6983 26.3267C21.3337 26.4591 21.0566 26.6609 20.2371 26.8705L20.181 26.8862C19.4353 27.1216 18.9336 27.7818 18.9336 28.5269C18.9336 29.6709 19.861 30.5984 21.0051 30.5984H26.5017H31.9985C33.1425 30.5984 34.07 29.6709 34.07 28.5269C34.07 27.7818 33.568 27.1216 32.8223 26.8862Z" fill="#5D9CEC"/>
<path d="M30.706 20.139C30.706 22.9578 28.1012 25.5518 26.5013 25.5518C24.9011 25.5518 22.2969 22.9578 22.2969 20.139C22.2969 17.3202 24.1793 15.4609 26.5013 15.4609C28.8233 15.4609 30.706 17.3202 30.706 20.139Z" fill="#EAC6BB"/>
<path d="M28.9288 15.4907C28.1808 14.8422 25.5818 13.9105 23.1714 15.4907C21.2706 16.7371 21.4624 19.8795 21.4624 19.8795C21.4624 19.8795 23.9567 20.4827 26.8141 18.9205C28.661 17.9104 29.3046 18.9377 29.6354 19.8322C29.9572 20.7027 30.6068 20.4827 30.6068 20.4827C30.6068 20.4827 31.3225 17.5651 28.9288 15.4907Z" fill="#965353"/>
<path d="M28.1836 17.8766C28.4004 17.8708 28.5827 17.9124 28.7367 17.9865C29.0315 17.0548 29.6121 16.8042 29.8654 16.738C29.7828 16.5933 29.6868 16.4483 29.5756 16.3047C29.1611 16.4468 28.5058 16.8331 28.1836 17.8766Z" fill="#7F4242"/>
<defs>
<filter id="filter0_d" x="0" y="0" width="53" height="53" filterUnits="userSpaceOnUse" color-interpolation-filters="sRGB">
<feFlood flood-opacity="0" result="BackgroundImageFix"/>
<feColorMatrix in="SourceAlpha" type="matrix" values="0 0 0 0 0 0 0 0 0 0 0 0 0 0 0 0 0 0 127 0"/>
<feOffset dy="4"/>
<feGaussianBlur stdDeviation="4"/>
<feColorMatrix type="matrix" values="0 0 0 0 0.513726 0 0 0 0 0.572549 0 0 0 0 0.654902 0 0 0 0.3 0"/>
<feBlend mode="normal" in2="BackgroundImageFix" result="effect1_dropShadow"/>
<feBlend mode="normal" in="SourceGraphic" in2="effect1_dropShadow" result="shape"/>
</filter>
</defs>
</svg>
