<svg width="12" height="12" viewBox="0 0 12 12" fill="none" xmlns="http://www.w3.org/2000/svg">
<g clip-path="url(#clip0)">
<path d="M11.1844 10.8197L8.20316 7.83849C8.06956 7.69786 7.84456 7.69786 7.71097 7.83145C7.2961 8.24627 6.62814 8.24627 6.21332 7.83849L4.16252 5.77186C3.75468 5.357 3.75468 4.68908 4.16955 4.27421C4.30314 4.14062 4.30314 3.91562 4.16252 3.78203L1.18127 0.800781C1.04768 0.660156 0.822679 0.660156 0.689086 0.800781C0.246118 1.23672 4.80443e-05 2.03828 4.80443e-05 3.04375C-0.00698319 4.75234 0.757078 7.35333 2.73286 9.32911C4.70863 11.3049 7.22582 12.001 8.92737 12.001C8.92737 12.001 8.93441 12.001 8.94146 12.001C9.94693 12.001 10.7485 11.7549 11.1844 11.3119C11.325 11.1783 11.325 10.9533 11.1844 10.8197Z" fill="#0D70B2"/>
<path d="M11.1859 10.8204C11.3266 10.9539 11.3266 11.1789 11.1859 11.3125C10.75 11.7555 9.94845 12.0016 8.94298 12.0016C8.93595 12.0016 8.92889 12.0016 8.92889 12.0016C7.22736 12.0016 4.71015 11.3055 2.73438 9.32971L5.22341 6.84766L6.21484 7.83908C6.62966 8.24687 7.29762 8.24687 7.71249 7.83205C7.84608 7.69846 8.07108 7.69846 8.20468 7.83908L11.1859 10.8204Z" fill="#0059AA"/>
<path d="M4.66408 2.29041L2.67421 0.30055C2.28047 -0.100183 1.57734 -0.100183 1.17656 0.30055L0.691406 0.792737L4.17187 4.2732L4.66405 3.78804V3.78101C5.0789 3.37322 5.0789 2.69825 4.66408 2.29041Z" fill="#17ACE8"/>
<path d="M11.6836 9.32951L9.69375 7.33965C9.3 6.93887 8.59687 6.93887 8.19609 7.33965L7.71094 7.83183L11.1914 11.3123L11.6836 10.8271C11.6836 10.8201 11.6836 10.8201 11.6836 10.8201C12.0984 10.4123 12.0984 9.7373 11.6836 9.32951Z" fill="#1689FC"/>
<path d="M12.0004 5.27343C12.0004 5.73747 11.2972 5.73747 11.2972 5.27343C11.2972 4.01481 10.784 2.86872 9.96133 2.03904C9.1316 1.2164 7.98555 0.703124 6.72694 0.703124C6.2629 0.703124 6.2629 0 6.72694 0C8.1824 0 9.50428 0.5906 10.4535 1.54685C11.4098 2.49609 12.0004 3.81796 12.0004 5.27343Z" fill="#1DE8F1"/>
<path d="M10.5941 5.27343C10.5941 5.73747 9.89099 5.73747 9.89099 5.27343C9.89099 4.40151 9.5324 3.60703 8.96287 3.03745C8.39334 2.46792 7.59881 2.10937 6.72693 2.10937C6.2629 2.10937 6.2629 1.40625 6.72693 1.40625C7.79571 1.40625 8.75896 1.83516 9.46209 2.53828C10.1652 3.2414 10.5941 4.20466 10.5941 5.27343Z" fill="#1DE8F1"/>
<path d="M9.18787 5.27343C9.18787 5.73747 8.48474 5.73747 8.48474 5.27343C8.48474 4.78828 8.28789 4.35234 7.97149 4.02888C7.64803 3.71247 7.21209 3.51562 6.72693 3.51562C6.2629 3.51562 6.2629 2.8125 6.72693 2.8125C7.40899 2.8125 8.0207 3.08669 8.46367 3.53669C8.91365 3.97966 9.18787 4.59138 9.18787 5.27343Z" fill="#1DE8F1"/>
<path d="M7.78162 5.27344C7.78162 5.73747 7.0785 5.73747 7.0785 5.27344C7.0785 5.175 7.04334 5.08357 6.97305 5.02732C6.91678 4.95703 6.82537 4.92187 6.72694 4.92187C6.2629 4.92187 6.2629 4.21875 6.72694 4.21875C7.01524 4.21875 7.28243 4.33826 7.47225 4.52812C7.66211 4.71794 7.78162 4.98513 7.78162 5.27344Z" fill="#1DE8F1"/>
<path d="M7.0781 5.27265C7.0781 5.17422 7.04295 5.08279 6.97266 5.02654L7.47185 4.52734C7.66172 4.71716 7.78123 4.98435 7.78123 5.27265C7.78123 5.73669 7.0781 5.73669 7.0781 5.27265Z" fill="#1BD9DE"/>
<path d="M8.48591 5.27189C8.48591 4.78674 8.28906 4.3508 7.97266 4.02734L8.46484 3.53516C8.91482 3.97812 9.18904 4.58984 9.18904 5.27189C9.18904 5.73593 8.48591 5.73593 8.48591 5.27189Z" fill="#1BD9DE"/>
<path d="M9.88906 5.27424C9.88906 4.40232 9.53047 3.60783 8.96094 3.03826L9.46018 2.53906C10.1633 3.24219 10.5922 4.20547 10.5922 5.27421C10.5922 5.73828 9.88906 5.73828 9.88906 5.27424Z" fill="#1BD9DE"/>
<path d="M12 5.27345C12 5.73749 11.2968 5.73749 11.2968 5.27345C11.2968 4.01484 10.7836 2.86875 9.96094 2.03906L10.4531 1.54688C11.4094 2.49612 12 3.81799 12 5.27345Z" fill="#1BD9DE"/>
</g>
<defs>
<clipPath id="clip0">
<rect width="12" height="12" fill="white"/>
</clipPath>
</defs>
</svg>
