<svg width="18" height="14" viewBox="0 0 18 14" fill="none" xmlns="http://www.w3.org/2000/svg">
<path d="M17.9898 2.83918C17.9876 2.45094 17.9017 2.07868 17.7501 1.74017C17.5223 1.23257 17.1481 0.800285 16.6828 0.493029C16.2176 0.185774 15.6588 0.00355209 15.0659 0.00284167C13.0272 0.00106563 10.9885 0 8.9501 0C6.95345 0 4.95644 0.00106563 2.95943 0.00319688C2.14351 0.00390729 1.40338 0.328923 0.869952 0.852856C0.335796 1.37608 0.00507684 2.10177 0.00362631 2.90063C0.00145052 4.09875 0 5.29687 0 6.49534C0 6.51168 0 6.52802 0 6.54472C0 6.56141 0 6.57846 0 6.59516C0 7.79292 0.00108789 8.99068 0.00362631 10.1884C0.00507684 10.9912 0.339785 11.7183 0.877568 12.2419C1.41499 12.7658 2.15874 13.0898 2.97611 13.0901C3.77717 13.0905 4.57822 13.0905 5.37927 13.0905C6.58067 13.0905 7.78243 13.0905 8.98383 13.0905H9.29206V13.0901C10.3959 13.0905 11.4998 13.0916 12.6036 13.0916C13.4119 13.0916 14.2199 13.0909 15.0285 13.0887C15.8339 13.0866 16.5715 12.7694 17.1082 12.2579C17.6453 11.7471 17.9854 11.037 17.9894 10.2534C17.9963 9.02443 17.9996 7.79505 17.9996 6.56603C17.9999 5.32351 17.9963 4.08135 17.9898 2.83918ZM16.1679 10.495C16.1338 10.6285 16.0798 10.7468 16.0091 10.8502C15.9384 10.9536 15.8513 11.0424 15.7491 11.1163C15.5453 11.2633 15.2816 11.35 14.9759 11.3503C14.0792 11.3507 13.1824 11.351 12.2856 11.351C10.6675 11.351 9.04946 11.3507 7.4314 11.3507C6.58756 11.3507 5.74118 11.3411 4.89262 11.3411C4.31386 11.3411 3.73438 11.3454 3.1538 11.3603H3.15417C3.13857 11.3606 3.12334 11.361 3.10847 11.361C2.71393 11.3606 2.38212 11.2299 2.14859 11.0154C2.03146 10.9077 1.93863 10.7792 1.87372 10.63C1.8088 10.4808 1.77218 10.311 1.77218 10.1195C1.77218 10.1078 1.77254 10.0961 1.7729 10.0844C6.58248 10.0844 11.3815 10.0844 16.2216 10.0844C16.2198 10.111 16.218 10.1377 16.2161 10.1632C16.206 10.2868 16.1926 10.398 16.1679 10.495ZM1.87154 2.46266C1.9622 2.2371 2.10761 2.06341 2.30416 1.93873C2.5007 1.81512 2.75019 1.74123 3.05263 1.74088C5.03405 1.74052 7.01546 1.74017 8.99724 1.74017C10.9787 1.74017 12.9604 1.74017 14.9419 1.74052C15.1453 1.74052 15.3252 1.77391 15.48 1.83252C15.7128 1.92132 15.8898 2.06341 16.0174 2.25664C16.144 2.44952 16.2194 2.69639 16.2198 2.99725C16.2201 3.72472 16.2201 4.45218 16.2201 5.1793C16.2201 6.22894 16.2198 7.27858 16.2198 8.32822C11.3968 8.32822 6.59989 8.32822 1.77726 8.32822C1.77726 7.31339 1.77689 6.29856 1.77689 5.28408C1.77689 4.51648 1.77689 3.74923 1.77762 2.98162C1.77762 2.78626 1.81171 2.61256 1.87154 2.46266Z" fill="#9E9E9E"/>
<path d="M3.67284 4.38601C3.76894 4.52597 3.90964 4.64105 4.08298 4.70535H4.08334C4.23093 4.75969 4.37888 4.77426 4.50943 4.77497H4.50979C5.12772 4.77603 5.74564 4.77639 6.36357 4.77639C7.22373 4.77639 8.08352 4.77568 8.94332 4.77497C9.00969 4.77497 9.0862 4.77319 9.16997 4.7604C9.38682 4.72773 9.58047 4.62507 9.71682 4.46949C9.85172 4.31639 9.92533 4.11748 9.92678 3.9079L9.92714 3.904V3.89973C9.92714 3.88304 9.92678 3.86599 9.92569 3.84858C9.91953 3.73421 9.89124 3.62374 9.84265 3.52357V3.52392C9.7694 3.37296 9.65082 3.24864 9.50468 3.16481C9.3589 3.08098 9.1881 3.03764 9.0086 3.03693C8.68767 3.03551 8.3671 3.03516 8.04654 3.03516C7.6121 3.03516 7.17767 3.03587 6.74397 3.03587C6.73853 3.03587 6.73309 3.03587 6.72765 3.03587C6.59565 3.03587 6.46329 3.03587 6.33129 3.03587C6.31497 3.03587 6.29865 3.03587 6.28234 3.03587C6.26819 3.03587 6.25369 3.03587 6.23955 3.03587C6.17282 3.03587 6.10646 3.03587 6.03974 3.03587C5.98389 3.03587 5.92768 3.03587 5.87184 3.03587C5.67203 3.03587 5.47149 3.03551 5.27059 3.03551C4.97795 3.03551 4.68422 3.03658 4.3894 3.04084C4.17617 3.04333 3.97636 3.11685 3.82442 3.24828C3.67284 3.379 3.57529 3.55873 3.53794 3.75552C3.52815 3.80667 3.52344 3.85817 3.52344 3.90897C3.52344 4.08089 3.57674 4.24642 3.67284 4.38601Z" fill="#9E9E9E"/>
<path d="M3.43555 6.25094C3.43555 6.48645 3.52729 6.70845 3.69193 6.86794C3.85656 7.02849 4.08647 7.11836 4.33451 7.12085C4.6344 7.1244 4.93466 7.12618 5.23492 7.12618C5.53445 7.12618 5.83362 7.1244 6.13316 7.12085C6.3812 7.11836 6.61074 7.02849 6.77574 6.86794C6.94001 6.70916 7.03175 6.48822 7.03212 6.25343V6.2513V6.24917C7.03212 6.24348 7.03212 6.23815 7.03212 6.23389V6.23318V6.23212C7.02994 6.11525 7.00601 6.00159 6.95995 5.89751C6.89105 5.74086 6.77429 5.61015 6.62706 5.5217C6.48019 5.43325 6.30722 5.38779 6.12518 5.3853C6.01131 5.38352 5.89817 5.38317 5.78539 5.38317C5.60625 5.38317 5.42856 5.38423 5.25196 5.38423C5.06811 5.38423 4.88281 5.38281 4.69605 5.38281C4.57892 5.38281 4.46107 5.38317 4.34285 5.38494C4.22137 5.38672 4.10424 5.40697 3.99581 5.44711C3.83263 5.50678 3.69084 5.61086 3.59148 5.74974C3.49212 5.88792 3.43917 6.05487 3.43591 6.22999V6.23105V6.2307V6.23105V6.23318C3.43591 6.23922 3.43591 6.24419 3.43591 6.24775L3.43555 6.25094Z" fill="#9E9E9E"/>
</svg>
