<svg width="30" height="18" viewBox="0 0 30 18" fill="none" xmlns="http://www.w3.org/2000/svg">
<path d="M0 0H30V17.2624H0V0Z" fill="#32CC77"/>
<path d="M27.4017 11.4746V5.78558C25.6397 5.78558 24.2109 4.35679 24.2109 2.59473H5.7843C5.7843 4.35679 4.35581 5.78558 2.59375 5.78558V11.4746C4.35581 11.4746 5.7843 12.9031 5.7843 14.6651H24.2109C24.2109 12.9031 25.6394 11.4746 27.4017 11.4746Z" fill="#1FB25E"/>
<path d="M23.4909 9.24818H21.5128C21.1712 9.24818 20.8945 8.97153 20.8945 8.62995C20.8945 8.28868 21.1712 8.01172 21.5128 8.01172H23.4909C23.8321 8.01172 24.1091 8.28868 24.1091 8.62995C24.1091 8.97153 23.8321 9.24818 23.4909 9.24818Z" fill="#32CC77"/>
<path d="M27.4018 3.21136C26.8583 3.21136 26.5802 2.52546 26.9742 2.14806C27.1529 1.97705 27.4261 1.92907 27.6521 2.02965C27.8973 2.13884 28.0489 2.40182 28.0145 2.66972C27.9754 2.97514 27.7112 3.21136 27.4018 3.21136Z" fill="#1FB25E"/>
<path d="M27.4019 15.2838C26.8476 15.2838 26.5729 14.5717 26.9928 14.2032C27.1807 14.0387 27.456 14.0024 27.6793 14.1143C27.918 14.2343 28.0558 14.5037 28.0112 14.7679C27.9613 15.0614 27.7002 15.2838 27.4019 15.2838Z" fill="#1FB25E"/>
</svg>
