<svg width="42" height="42" viewBox="0 0 42 42" fill="none" xmlns="http://www.w3.org/2000/svg">
<path d="M21.1442 0L8.0769 21L21.1442 42C32.6625 42 42 32.598 42 21C42 9.40201 32.6625 0 21.1442 0Z" fill="#EFEFEF"/>
<path d="M0 21C0 32.598 9.40201 42 21 42V0C9.40201 0 0 9.40201 0 21Z" fill="#EFEFEF"/>
<path d="M20.8368 6.46143L16.0605 14.0845L20.8368 21.7075C25.0469 21.7075 28.4598 18.2946 28.4598 14.0845C28.4598 9.87438 25.0469 6.46143 20.8368 6.46143Z" fill="#C1C1C1"/>
<path d="M13.2139 14.0845C13.2139 18.2946 16.6268 21.7075 20.8369 21.7075V6.46143C16.6268 6.46143 13.2139 9.87438 13.2139 14.0845Z" fill="#C1C1C1"/>
<path d="M33.081 26.4589C31.6338 24.8236 29.5526 23.8857 27.371 23.8857H20.837L16.481 29.4034L20.837 34.921C25.9424 34.921 30.6842 32.1615 33.212 27.7192L33.5973 27.0422L33.081 26.4589Z" fill="#C1C1C1"/>
<path d="M14.3028 23.8857C12.1212 23.8857 10.04 24.8236 8.59285 26.4589L8.07666 27.0423L8.46188 27.7193C10.9896 32.1615 15.7314 34.921 20.8369 34.921V23.8857H14.3028Z" fill="#C1C1C1"/>
</svg>
