<svg width="19" height="19" viewBox="0 0 19 19" fill="none" xmlns="http://www.w3.org/2000/svg">
<path d="M18.7795 0.464592C18.7471 0.419365 18.7113 0.377762 18.6728 0.338768C18.6711 0.336884 18.6697 0.334854 18.6678 0.333115C18.6662 0.33152 18.6643 0.33007 18.6627 0.328476C18.4477 0.115677 18.1486 0 17.8025 0C17.606 0 17.3951 0.0371094 17.1758 0.110313L1.02837 5.49233C0.174083 5.77718 0.0183884 6.27438 0.00171725 6.54531C-0.0150989 6.81638 0.0781147 7.32896 0.890508 7.71687L4.94523 9.65322L3.13068 14.1337C3.12618 14.1446 3.12212 14.1556 3.1185 14.1666C2.91685 14.7716 2.99803 15.3154 3.34146 15.6587C3.56079 15.878 3.86189 15.9904 4.20851 15.9904C4.4045 15.9904 4.61499 15.9544 4.83346 15.8817C4.84462 15.8779 4.85549 15.874 4.86636 15.8695L9.34728 14.055L11.2836 18.1094C11.6537 18.8842 12.1415 19 12.3994 19C12.6298 19 13.1989 18.8997 13.5083 17.9715L18.8907 1.82503C19.068 1.29317 19.0286 0.810028 18.7795 0.464592ZM1.20567 6.61996C1.24974 6.59764 1.30743 6.573 1.3805 6.54865L16.8068 1.40668L8.10376 10.1094C7.78628 9.84239 7.45431 9.61771 7.13944 9.46738L1.3702 6.71216C1.30076 6.67896 1.24669 6.64751 1.20567 6.61996ZM4.46611 14.8306C4.27403 14.8922 4.16516 14.8816 4.13037 14.8698C4.11863 14.8349 4.10804 14.7262 4.16965 14.5341L5.95173 10.1339L6.6596 10.4721C7.33341 10.7938 8.20654 11.667 8.52837 12.3406L8.86657 13.0486L4.46611 14.8306ZM12.452 17.6196C12.4277 17.6928 12.403 17.7503 12.3807 17.7944C12.353 17.7534 12.3214 17.6993 12.2882 17.6296L9.53299 11.8608C9.38266 11.5459 9.15796 11.2141 8.89093 10.8965L17.5943 2.1938L12.452 17.6196Z" fill="white"/>
</svg>
