<svg width="18" height="18" viewBox="0 0 18 18" fill="none" xmlns="http://www.w3.org/2000/svg">
<path d="M9 0L4.5 9L9 18C13.9706 18 18 13.9706 18 9C18 4.02943 13.9706 0 9 0Z" fill="#28ABFA"/>
<path d="M0 9C0 13.9706 4.02943 18 9 18V0C4.02943 0 0 4.02943 0 9Z" fill="#14CFFF"/>
<path d="M9 2.10938L5.55469 9L9 15.8906C12.8056 15.8906 15.8906 12.8056 15.8906 9C15.8906 5.19441 12.8056 2.10938 9 2.10938Z" fill="#C4F3FF"/>
<path d="M2.10938 9C2.10938 12.8056 5.19441 15.8906 9 15.8906V2.10938C5.19441 2.10938 2.10938 5.19441 2.10938 9Z" fill="white"/>
<path d="M10.4915 9.74935L9 8.25781H8.29688L9 9.74935L9.74577 10.4951L10.4915 9.74935Z" fill="#340D66"/>
<path d="M6.00358 5.25781L5.25781 6.00358L8.99911 9.74488V8.25334L6.00358 5.25781Z" fill="#373E9F"/>
<path d="M12.008 5.25L9 8.25797L8.29688 9.74951H9L12.7537 5.99573L12.008 5.25Z" fill="#373E9F"/>
<path d="M7.50781 9.74935L8.25358 10.4951L8.99935 9.74935V8.25781L7.50781 9.74935Z" fill="#3857BC"/>
<path d="M9.52734 3.16406H9L8.64844 3.69141L9 4.21875H9.52734V3.16406Z" fill="#340D66"/>
<path d="M8.47266 3.16406H9V4.21875H8.47266V3.16406Z" fill="#373E9F"/>
<path d="M9.52734 13.7812H9L8.64844 14.3086L9 14.8359H9.52734V13.7812Z" fill="#340D66"/>
<path d="M8.47266 13.7812H9V14.8359H8.47266V13.7812Z" fill="#373E9F"/>
<path d="M3.16406 9.52734V8.47266H4.21875V9.52734H3.16406Z" fill="#373E9F"/>
<path d="M13.7812 9.52734V8.47266H14.8359V9.52734H13.7812Z" fill="#340D66"/>
</svg>
