<svg width="17" height="18" viewBox="0 0 17 18" fill="none" xmlns="http://www.w3.org/2000/svg">
<path d="M14.9946 9.88202C15.0296 9.59402 15.0558 9.30602 15.0558 9.00002C15.0558 8.69402 15.0296 8.40602 14.9946 8.11802L16.8384 6.63303C17.0044 6.49803 17.0481 6.25503 16.9433 6.05703L15.1956 2.94303C15.1441 2.85018 15.0621 2.77925 14.9645 2.74297C14.8668 2.70669 14.7597 2.70742 14.6625 2.74504L12.4867 3.64503C12.0323 3.28503 11.5429 2.98803 11.0099 2.76304L10.6778 0.378041C10.6633 0.272149 10.6119 0.175326 10.533 0.105734C10.4542 0.0361422 10.3534 -0.00143796 10.2496 4.21099e-05H6.75424C6.53578 4.21099e-05 6.35227 0.162042 6.32606 0.378041L5.99399 2.76304C5.46095 2.98803 4.9716 3.29403 4.5172 3.64503L2.34132 2.74504C2.29065 2.72733 2.23753 2.71821 2.18403 2.71804C2.03548 2.71804 1.88692 2.79904 1.80828 2.94303L0.0605851 6.05703C-0.0530148 6.25503 -0.000583993 6.49803 0.165447 6.63303L2.00926 8.11802C1.97431 8.40602 1.94809 8.70302 1.94809 9.00002C1.94809 9.29702 1.97431 9.59402 2.00926 9.88202L0.165447 11.367C-0.000583993 11.502 -0.0442764 11.745 0.0605851 11.943L1.80828 15.057C1.85979 15.1499 1.94173 15.2208 2.03941 15.2571C2.13709 15.2934 2.24412 15.2926 2.34132 15.255L4.5172 14.355C4.9716 14.715 5.46095 15.012 5.99399 15.237L6.32606 17.622C6.35227 17.838 6.53578 18 6.75424 18H10.2496C10.4681 18 10.6516 17.838 10.6778 17.622L11.0099 15.237C11.5429 15.012 12.0323 14.706 12.4867 14.355L14.6625 15.255C14.715 15.273 14.7674 15.282 14.8198 15.282C14.9684 15.282 15.1169 15.201 15.1956 15.057L16.9433 11.943C17.0481 11.745 17.0044 11.502 16.8384 11.367L14.9946 9.88202ZM13.2644 8.34302C13.2993 8.62202 13.3081 8.81102 13.3081 9.00002C13.3081 9.18902 13.2906 9.38702 13.2644 9.65702L13.142 10.674L13.9198 11.304L14.8635 12.06L14.2518 13.149L13.142 12.69L12.2332 12.312L11.4468 12.924C11.071 13.212 10.7128 13.428 10.3545 13.581L9.42821 13.968L9.28839 14.985L9.11362 16.2H7.89024L7.72421 14.985L7.58439 13.968L6.65812 13.581C6.28236 13.419 5.93282 13.212 5.58329 12.942L4.78809 12.312L3.86181 12.699L2.75203 13.158L2.14034 12.069L3.08409 11.313L3.86181 10.683L3.73947 9.66602C3.71326 9.38702 3.69578 9.18002 3.69578 9.00002C3.69578 8.82002 3.71326 8.61302 3.73947 8.34302L3.86181 7.32602L3.08409 6.69603L2.14034 5.94003L2.75203 4.85103L3.86181 5.31003L4.77061 5.68803L5.55707 5.07603C5.93283 4.78803 6.2911 4.57203 6.64938 4.41903L7.57565 4.03203L7.71547 3.01503L7.89024 1.80004H9.10488L9.27091 3.01503L9.41073 4.03203L10.337 4.41903C10.7128 4.58103 11.0623 4.78803 11.4118 5.05803L12.207 5.68803L13.1333 5.30103L14.2431 4.84203L14.8548 5.93103L13.9198 6.69603L13.142 7.32602L13.2644 8.34302ZM8.50193 5.40003C6.57073 5.40003 5.00655 7.01102 5.00655 9.00002C5.00655 10.989 6.57073 12.6 8.50193 12.6C10.4331 12.6 11.9973 10.989 11.9973 9.00002C11.9973 7.01102 10.4331 5.40003 8.50193 5.40003ZM8.50193 10.8C7.5407 10.8 6.75424 9.99002 6.75424 9.00002C6.75424 8.01002 7.5407 7.20002 8.50193 7.20002C9.46316 7.20002 10.2496 8.01002 10.2496 9.00002C10.2496 9.99002 9.46316 10.8 8.50193 10.8Z" fill="#757575"/>
</svg>
