<svg width="14" height="20" viewBox="0 0 14 20" fill="none" xmlns="http://www.w3.org/2000/svg">
<path d="M2.64062 8.35938H11.283V10.3523H2.64062V8.35938Z" fill="#BECECC"/>
<path d="M9.99609 8.35938H11.2836V10.3523H9.99609V8.35938Z" fill="#AAC1BE"/>
<path d="M11.6171 5.19243C11.6171 6.64707 10.4379 7.82628 8.9833 7.82628C7.52882 7.82628 6.34961 6.64707 6.34961 5.19243C6.34961 3.7378 7.52882 2.55859 8.9833 2.55859C10.4379 2.55859 11.6171 3.7378 11.6171 5.19243Z" fill="#FFAA00"/>
<path d="M11.618 5.19201C11.618 6.64679 10.4387 7.826 8.98412 7.826C8.26939 7.826 7.62088 7.54127 7.14648 7.07877C7.52109 7.28339 7.95063 7.39982 8.40748 7.39982C9.86196 7.39982 11.0412 6.22061 11.0412 4.76598C11.0412 4.02592 10.736 3.35743 10.2448 2.87891C11.0628 3.32569 11.618 4.19392 11.618 5.19201Z" fill="#FF9500"/>
<path d="M10.7834 5.19255C10.7834 6.18774 9.97665 6.99432 8.98146 6.99432C7.98643 6.99432 7.17969 6.18774 7.17969 5.19255C7.17969 4.19736 7.98643 3.39062 8.98146 3.39062C9.97665 3.39062 10.7834 4.19736 10.7834 5.19255Z" fill="#FFCD6B"/>
<path d="M10.7844 5.19234C10.7844 6.18752 9.97802 6.99426 8.98283 6.99426C8.44831 6.99426 7.96842 6.76171 7.63867 6.39214C7.85336 6.48278 8.08942 6.53268 8.33722 6.53268C9.33241 6.53268 10.1392 5.72579 10.1392 4.7306C10.1392 4.27009 9.96642 3.84986 9.68184 3.53125C10.3299 3.80438 10.7844 4.44526 10.7844 5.19234Z" fill="#FFC143"/>
<path d="M8.98264 0.933388C9.14682 0.933388 9.27988 0.80033 9.27988 0.636144V0.297244C9.27988 0.133058 9.14682 0 8.98264 0C8.8186 0 8.68555 0.133058 8.68555 0.297244V0.636144C8.68555 0.800177 8.8186 0.933388 8.98264 0.933388Z" fill="#FFAA00"/>
<path d="M8.05701 1.91261C8.22104 1.91261 8.3541 1.77955 8.3541 1.61537V0.776736C8.3541 0.61255 8.22104 0.479492 8.05701 0.479492C7.89282 0.479492 7.75977 0.61255 7.75977 0.776736V1.61537C7.75977 1.77955 7.89282 1.91261 8.05701 1.91261Z" fill="#FFAA00"/>
<path d="M9.29962 7.24114C9.15924 7.24114 9.03458 7.1415 9.00787 6.99852C8.97766 6.83724 9.08401 6.6819 9.2453 6.65184C9.39728 6.62331 9.54346 6.57173 9.67972 6.49818C9.82438 6.42036 10.0044 6.47438 10.0823 6.61888C10.1602 6.76323 10.1062 6.94359 9.96171 7.02141C9.77128 7.1241 9.56696 7.19628 9.35456 7.23595C9.33609 7.23946 9.31778 7.24114 9.29962 7.24114ZM7.97393 6.97396C7.91762 6.97396 7.86071 6.95793 7.8102 6.92452C7.6303 6.8055 7.47008 6.66008 7.33428 6.49208C7.23113 6.36452 7.25081 6.17744 7.37837 6.07414C7.50609 5.97084 7.69317 5.99067 7.79632 6.11824C7.89397 6.23893 8.00887 6.34346 8.13811 6.42891C8.27499 6.51939 8.31252 6.70387 8.22204 6.84075C8.16482 6.92711 8.07021 6.97396 7.97393 6.97396ZM10.6847 6.016C10.6548 6.016 10.6246 6.01158 10.5946 6.00196C10.4381 5.95237 10.3516 5.78529 10.4013 5.62888C10.4479 5.48194 10.4715 5.32859 10.4715 5.17279C10.4715 5.00861 10.6046 4.87555 10.7688 4.87555C10.9329 4.87555 11.066 5.00861 11.066 5.17279C11.066 5.38962 11.0329 5.60355 10.9679 5.80863C10.9276 5.93513 10.8106 6.016 10.6847 6.016ZM7.17253 5.30845C7.16368 5.30845 7.15483 5.30799 7.14583 5.30723C6.9824 5.29273 6.86155 5.14838 6.8762 4.98496C6.89528 4.7692 6.94746 4.55893 7.03108 4.35995C7.09471 4.20858 7.26897 4.13748 7.42018 4.20111C7.57155 4.26474 7.64266 4.43899 7.57903 4.59021C7.51921 4.73258 7.48183 4.88318 7.4681 5.0376C7.45436 5.19202 7.32466 5.30845 7.17253 5.30845ZM10.4648 4.46783C10.369 4.46783 10.275 4.4216 10.2178 4.33615C10.1314 4.20752 10.0263 4.09307 9.90494 3.99633C9.77677 3.89395 9.75586 3.70687 9.85825 3.5787C9.96064 3.45037 10.1476 3.42946 10.2759 3.53185C10.4447 3.66659 10.5911 3.82589 10.7114 4.00503C10.8028 4.14144 10.7663 4.32592 10.63 4.41748C10.5792 4.45151 10.5217 4.46783 10.4648 4.46783ZM8.25881 3.81277C8.14346 3.81277 8.03374 3.74517 7.98537 3.63241C7.92098 3.4815 7.99087 3.30678 8.14178 3.24224C8.3403 3.1574 8.55026 3.10384 8.76571 3.08339C8.92914 3.06783 9.0741 3.18761 9.08981 3.35103C9.10538 3.5143 8.98544 3.65942 8.82217 3.67498C8.66775 3.68963 8.51745 3.72793 8.37554 3.78866C8.3374 3.80499 8.29788 3.81277 8.25881 3.81277Z" fill="#CB8000"/>
<path d="M9.90662 1.91261C10.0708 1.91261 10.2039 1.77955 10.2039 1.61537V0.776736C10.2039 0.61255 10.0708 0.479492 9.90662 0.479492C9.74243 0.479492 9.60938 0.61255 9.60938 0.776736V1.61537C9.60938 1.77955 9.74243 1.91261 9.90662 1.91261Z" fill="#FFAA00"/>
<path d="M10.9188 20.0004H2.96984C1.33638 20.0004 0 18.6639 0 17.0306V13.1437C0 11.5102 1.33653 10.1738 2.96984 10.1738H10.9188C12.5523 10.1738 13.8887 11.5104 13.8887 13.1437V17.0306C13.8887 18.664 12.5523 20.0004 10.9188 20.0004Z" fill="#BBDEFB"/>
<path d="M13.8908 13.1437V17.0304C13.8908 18.664 12.5543 20.0006 10.9209 20.0006H9.99609C11.6299 20.0006 12.9664 18.664 12.9664 17.0304V13.1437C12.9664 11.5104 11.6299 10.1738 9.99609 10.1738H10.9209C12.5543 10.1738 13.8908 11.5104 13.8908 13.1437Z" fill="#90CAF9"/>
<path d="M12.6188 8.43797H1.30811C1.0452 8.43797 0.832031 8.22496 0.832031 7.96205V7.06299C0.832031 6.80008 1.0452 6.58691 1.30811 6.58691H12.6188C12.8817 6.58691 13.0949 6.80008 13.0949 7.06299V7.96205C13.0949 8.22481 12.8817 8.43797 12.6188 8.43797Z" fill="#BBDEFB"/>
<path d="M13.092 7.06269V7.96189C13.092 8.22496 12.8788 8.43767 12.6161 8.43767H11.5664C11.829 8.43767 12.0423 8.22496 12.0423 7.96189V7.06269C12.0423 6.80008 11.8292 6.58691 11.5664 6.58691H12.6161C12.8788 6.58691 13.092 6.80008 13.092 7.06269Z" fill="#90CAF9"/>
<path d="M7.21299 14.1055C7.21299 15.5602 6.03379 16.7394 4.57915 16.7394C3.12452 16.7394 1.94531 15.5602 1.94531 14.1055C1.94531 12.6509 3.12452 11.4717 4.57915 11.4717C6.03379 11.4717 7.21299 12.6509 7.21299 14.1055Z" fill="#FFAA00"/>
<path d="M7.20975 14.1052C7.20975 15.56 6.03054 16.7392 4.57591 16.7392C3.86118 16.7392 3.21268 16.4545 2.73828 15.992C3.11273 16.1966 3.54243 16.3129 3.99913 16.3129C5.45376 16.3129 6.63297 15.1337 6.63297 13.6792C6.63297 12.9392 6.32779 12.2707 5.83645 11.792C6.65463 12.2389 7.20975 13.1072 7.20975 14.1052Z" fill="#FF9500"/>
<path d="M6.37909 14.1055C6.37909 15.1007 5.5725 15.9074 4.57732 15.9074C3.58213 15.9074 2.77539 15.1007 2.77539 14.1055C2.77539 13.1104 3.58213 12.3037 4.57732 12.3037C5.5725 12.3037 6.37909 13.1104 6.37909 14.1055Z" fill="#FFCD6B"/>
<path d="M6.38031 14.1044C6.38031 15.0996 5.57372 15.9064 4.57853 15.9064C4.04417 15.9064 3.56412 15.6738 3.23438 15.3043C3.44922 15.3949 3.68528 15.4448 3.93308 15.4448C4.92811 15.4448 5.73501 14.6379 5.73501 13.6427C5.73501 13.1822 5.56227 12.762 5.27754 12.4434C5.92559 12.7165 6.38031 13.3572 6.38031 14.1044Z" fill="#FFC143"/>
<path d="M6.08628 14.1057C6.08628 14.2615 6.06263 14.415 6.01593 14.5618C5.96634 14.7182 6.05286 14.8853 6.20926 14.935C6.23932 14.9445 6.26954 14.9489 6.29929 14.9489C6.42533 14.9489 6.54237 14.8682 6.5825 14.7417C6.64765 14.5366 6.68061 14.3227 6.68061 14.1057C6.68061 13.9417 6.54755 13.8086 6.38337 13.8086C6.21934 13.8086 6.08628 13.9417 6.08628 14.1057Z" fill="#CB8000"/>
<path d="M5.29221 15.4311C5.15595 15.5047 5.00992 15.5562 4.85779 15.5846C4.69651 15.6148 4.59015 15.77 4.62036 15.9314C4.64707 16.0743 4.77188 16.1741 4.91211 16.1741C4.93027 16.1741 4.94858 16.1724 4.96705 16.1689C5.1796 16.1292 5.38392 16.057 5.57435 15.9543C5.71885 15.8764 5.77272 15.6962 5.6949 15.5517C5.61708 15.4073 5.43672 15.3533 5.29221 15.4311Z" fill="#CB8000"/>
<path d="M4.70255 12.2847C4.68698 12.1212 4.54202 12.0013 4.3786 12.017C4.16299 12.0376 3.95303 12.091 3.75451 12.1759C3.6036 12.2406 3.53371 12.4151 3.59826 12.566C3.64648 12.6788 3.75619 12.7464 3.87155 12.7464C3.91061 12.7464 3.95028 12.7386 3.98828 12.7224C4.13034 12.6617 4.28049 12.6234 4.43491 12.6087C4.59833 12.5932 4.71811 12.4481 4.70255 12.2847Z" fill="#CB8000"/>
<path d="M3.08135 13.9711C3.09524 13.8166 3.13247 13.6661 3.19229 13.5237C3.25592 13.3725 3.18481 13.1983 3.03359 13.1346C2.88238 13.071 2.70812 13.1421 2.64449 13.2935C2.56087 13.4925 2.50869 13.7027 2.48946 13.9185C2.47497 14.0819 2.59566 14.2263 2.75909 14.2408C2.76809 14.2415 2.77694 14.242 2.78579 14.242C2.93792 14.242 3.06762 14.1256 3.08135 13.9711Z" fill="#CB8000"/>
<path d="M3.75082 15.3623C3.62157 15.2768 3.50667 15.1723 3.40902 15.0516C3.30587 14.9241 3.11879 14.9044 2.99107 15.0075C2.86351 15.1108 2.84383 15.2979 2.94698 15.4255C3.08278 15.5935 3.243 15.7389 3.4229 15.8581C3.47341 15.8913 3.53032 15.9073 3.58663 15.9073C3.68307 15.9073 3.77752 15.8605 3.83474 15.7741C3.92523 15.6373 3.88769 15.4528 3.75082 15.3623Z" fill="#CB8000"/>
<path d="M5.88884 12.4653C5.76067 12.363 5.57374 12.3839 5.4712 12.5122C5.36882 12.6404 5.38972 12.8274 5.51805 12.9298C5.63921 13.0266 5.74434 13.1409 5.8307 13.2696C5.88793 13.3551 5.98192 13.4013 6.07775 13.4013C6.13466 13.4013 6.19219 13.385 6.243 13.351C6.37926 13.2596 6.41573 13.0749 6.32433 12.9385C6.20409 12.7594 6.0576 12.6001 5.88884 12.4653Z" fill="#CB8000"/>
<path d="M11.9453 16.0411C11.9453 17.4955 10.7662 18.6748 9.31158 18.6748C7.85694 18.6748 6.67773 17.4955 6.67773 16.0411C6.67773 14.5864 7.85694 13.4072 9.31158 13.4072C10.7662 13.4072 11.9453 14.5864 11.9453 16.0411Z" fill="#FFAA00"/>
<path d="M11.9462 16.0427C11.9462 17.4975 10.767 18.6767 9.31239 18.6767C8.59767 18.6767 7.94901 18.392 7.47461 17.9294C7.84922 18.1341 8.27891 18.2504 8.73561 18.2504C10.1902 18.2504 11.3694 17.0712 11.3694 15.6166C11.3694 14.8767 11.0643 14.208 10.5729 13.7295C11.3911 14.1764 11.9462 15.0447 11.9462 16.0427Z" fill="#FF9500"/>
<path d="M11.1115 16.041C11.1115 17.0362 10.3048 17.843 9.30974 17.843C8.31455 17.843 7.50781 17.0362 7.50781 16.041C7.50781 15.046 8.31455 14.2393 9.30974 14.2393C10.3048 14.2393 11.1115 15.046 11.1115 16.041Z" fill="#FFCD6B"/>
<path d="M11.1127 16.0419C11.1127 17.0371 10.3061 17.8439 9.31095 17.8439C8.77659 17.8439 8.29654 17.6112 7.9668 17.2418C8.18164 17.3322 8.4177 17.3821 8.66535 17.3821C9.66054 17.3821 10.4674 16.5754 10.4674 15.5802C10.4674 15.1197 10.2945 14.6993 10.01 14.3809C10.658 14.654 11.1127 15.2947 11.1127 16.0419Z" fill="#FFC143"/>
<path d="M9.35274 17.8678C9.37945 18.0108 9.50427 18.1105 9.64449 18.1105C9.66265 18.1105 9.68112 18.1088 9.69958 18.1054C9.91198 18.0658 10.1163 17.9934 10.3067 17.8909C10.4512 17.8129 10.5051 17.6327 10.4273 17.4882C10.3495 17.3437 10.1692 17.2898 10.0247 17.3677C9.88833 17.4411 9.7423 17.4928 9.59033 17.5212C9.42889 17.5514 9.32268 17.7066 9.35274 17.8678Z" fill="#CB8000"/>
<path d="M9.10904 13.9525C8.89344 13.973 8.68347 14.0265 8.48511 14.1114C8.3342 14.1759 8.26416 14.3506 8.3287 14.5015C8.37692 14.6143 8.48679 14.6819 8.60214 14.6819C8.64105 14.6819 8.68073 14.6741 8.71887 14.6578C8.86078 14.5971 9.01108 14.5589 9.1655 14.5441C9.32877 14.5286 9.44871 14.3834 9.43314 14.2202C9.41743 14.0568 9.27247 13.937 9.10904 13.9525Z" fill="#CB8000"/>
<path d="M7.81198 15.9067C7.82571 15.7523 7.86294 15.6017 7.92276 15.4593C7.98639 15.3081 7.91528 15.1338 7.76406 15.0702C7.61285 15.0066 7.43859 15.0777 7.37496 15.229C7.29119 15.428 7.23916 15.6383 7.21993 15.854C7.20543 16.0175 7.32613 16.1618 7.48971 16.1763C7.49871 16.1771 7.50756 16.1775 7.51641 16.1775C7.66854 16.1775 7.79824 16.0611 7.81198 15.9067Z" fill="#CB8000"/>
<path d="M10.2504 14.8653C10.3716 14.9621 10.4767 15.0765 10.5631 15.2051C10.6205 15.2906 10.7145 15.3368 10.8101 15.3368C10.8671 15.3368 10.9246 15.3205 10.9754 15.2865C11.1118 15.1951 11.1481 15.0104 11.0567 14.8742C10.9366 14.6949 10.7902 14.5357 10.6214 14.4008C10.4931 14.2985 10.3061 14.3195 10.2038 14.4477C10.1012 14.5759 10.1221 14.7629 10.2504 14.8653Z" fill="#CB8000"/>
<path d="M8.48321 17.2969C8.35397 17.2115 8.23907 17.107 8.14141 16.9863C8.03826 16.8587 7.85119 16.8389 7.72347 16.9422C7.5959 17.0455 7.57622 17.2325 7.67952 17.3601C7.81533 17.5281 7.97539 17.6735 8.1553 17.7927C8.2058 17.826 8.26272 17.842 8.31902 17.842C8.41546 17.842 8.51007 17.7951 8.56713 17.7088C8.65762 17.5719 8.62023 17.3876 8.48321 17.2969Z" fill="#CB8000"/>
<path d="M10.8167 16.0412C10.8167 16.197 10.7931 16.3504 10.7464 16.4973C10.6968 16.6537 10.7833 16.8208 10.9397 16.8704C10.9696 16.88 11 16.8844 11.0298 16.8844C11.1558 16.8844 11.2728 16.8037 11.313 16.6771C11.378 16.472 11.4111 16.2581 11.4111 16.0412C11.4111 15.8772 11.278 15.7441 11.1138 15.7441C10.9497 15.7441 10.8167 15.8772 10.8167 16.0412Z" fill="#CB8000"/>
</svg>
