<svg width="20" height="20" viewBox="0 0 20 20" fill="none" xmlns="http://www.w3.org/2000/svg">
<path d="M1.25 0.625H15C15.6903 0.625 16.25 1.18469 16.25 1.875V18.75C16.25 19.4403 15.6903 20 15 20H1.25C0.559692 20 0 19.4403 0 18.75V1.875C0 1.18469 0.559692 0.625 1.25 0.625Z" fill="#ECCE93"/>
<path d="M1.25 14.6338V1.875H15V18.75H5.36621L1.25 14.6338Z" fill="#EFEFEF"/>
<path d="M5.36621 14.6338V18.75L1.25 14.6338H5.36621Z" fill="#E76E54"/>
<path d="M5 2.5V0H11.25V2.5C11.25 3.19031 10.6903 3.75 10 3.75H6.25C5.55969 3.75 5 3.19031 5 2.5Z" fill="#E76E54"/>
<path d="M20 14.375C20 17.4815 17.4815 20 14.375 20C11.2685 20 8.75 17.4815 8.75 14.375C8.75 11.2685 11.2685 8.75 14.375 8.75C17.4815 8.75 20 11.2685 20 14.375Z" fill="#48C8EF"/>
<path d="M13.0856 16.7836L11.8744 15.5717C11.6304 15.3276 11.6304 14.9319 11.8744 14.6879C12.1184 14.4439 12.514 14.4439 12.7582 14.6879L13.1632 15.0923L15.9938 12.733C16.259 12.5117 16.6535 12.5476 16.8744 12.8129C17.0956 13.0781 17.0598 13.4726 16.7944 13.6935L13.0856 16.7836Z" fill="white"/>
<path d="M6.875 5H11.875C12.2202 5 12.5 5.27985 12.5 5.625C12.5 5.97015 12.2202 6.25 11.875 6.25H6.875C6.52985 6.25 6.25 5.97015 6.25 5.625C6.25 5.27985 6.52985 5 6.875 5Z" fill="#77959E"/>
<path d="M3.75 5H5V6.25H3.75V5Z" fill="#77959E"/>
<path d="M3.75 7.5H5V8.75H3.75V7.5Z" fill="#77959E"/>
<path d="M3.75 10H5V11.25H3.75V10Z" fill="#77959E"/>
<path d="M3.75 12.5H5V13.75H3.75V12.5Z" fill="#77959E"/>
<path d="M6.875 7.5H10.625C10.9702 7.5 11.25 7.77985 11.25 8.125C11.25 8.47015 10.9702 8.75 10.625 8.75H6.875C6.52985 8.75 6.25 8.47015 6.25 8.125C6.25 7.77985 6.52985 7.5 6.875 7.5Z" fill="#77959E"/>
<path d="M6.875 10H8.125C8.47015 10 8.75 10.2798 8.75 10.625C8.75 10.9702 8.47015 11.25 8.125 11.25H6.875C6.52985 11.25 6.25 10.9702 6.25 10.625C6.25 10.2798 6.52985 10 6.875 10Z" fill="#77959E"/>
</svg>
