<svg width="511" height="274" viewBox="0 0 511 274" fill="none" xmlns="http://www.w3.org/2000/svg">
    <path d="M213.286 93H295.723V230.224H213.286V93Z" fill="#4B5055"/>
    <path d="M295.723 93V196.778H275.988C264.128 196.778 254.502 187.152 254.502 175.281V93H295.723Z" fill="#5A5F64"/>
    <path d="M418.861 263.284C418.861 268.836 414.358 273.339 408.802 273.339H100.195C94.6509 273.339 90.1479 268.836 90.1479 263.284C90.1479 251.257 95.0212 240.376 102.904 232.504C110.776 224.621 121.657 219.744 133.684 219.744H375.325C392.635 219.744 407.586 229.853 414.592 244.477C417.336 250.165 418.861 256.543 418.861 263.284Z" fill="#5A5F64"/>
    <path d="M418.861 263.284C418.861 268.835 414.358 273.338 408.802 273.338H133.879C136.074 267.217 139.598 261.736 144.101 257.233C151.972 249.35 162.854 244.477 174.881 244.477H414.592C417.336 250.165 418.861 256.543 418.861 263.284Z" fill="#7D8287"/>
    <path d="M502.064 188H8.93564C3.99998 188 0 185.799 0 183.083V4.91491C0 2.20109 3.99998 0 8.93564 0H502.06C506.996 0 511 2.20109 511 4.91705V183.083C511 185.799 507 188 502.064 188Z" fill="#5A5F64"/>
    <path d="M483 36.2491V153.751C483 154.993 480.694 156 477.85 156H33.1461C30.3062 156 28 154.993 28 153.751V36.2491C28 35.0072 30.3062 34 33.1461 34H477.85C480.694 34 483 35.0072 483 36.2491Z" fill="#FBDF63"/>
    <path d="M483 35.941V129H65.1525C62.3073 129 60 128.131 60 127.059V34H477.848C480.693 34 483 34.8692 483 35.941Z" fill="#FDEDA5"/>
    <path d="M244.041 53H86.7271C82.4581 53 79 56.462 79 60.7271C79 64.9961 82.4581 68.4581 86.7271 68.4581H244.041C248.314 68.4581 251.772 64.9961 251.772 60.7271C251.772 56.462 248.314 53 244.041 53Z" fill="#7C3F2C"/>
    <path d="M262.59 94.9062H86.7271C82.4581 94.9062 79 98.3643 79 102.633C79 106.902 82.4581 110.36 86.7271 110.36H262.59C266.863 110.36 270.321 106.902 270.321 102.633C270.321 98.3643 266.863 94.9062 262.59 94.9062Z" fill="#7C3F2C"/>
    <path d="M277.727 68.4581H453.59C457.863 68.4581 461.321 64.9961 461.321 60.7271C461.321 56.462 457.863 53 453.59 53H277.727C273.458 53 270 56.462 270 60.7271C270 64.9961 273.462 68.4581 277.727 68.4581Z" fill="#7C3F2C"/>
    <path d="M453.59 94.9062H430.234C425.965 94.9062 422.507 98.3643 422.507 102.633C422.507 106.902 425.965 110.36 430.234 110.36H453.59C457.863 110.36 461.321 106.902 461.321 102.633C461.321 98.3643 457.863 94.9062 453.59 94.9062Z" fill="#7C3F2C"/>
    <path d="M296.277 94.9062C292.008 94.9062 288.55 98.3643 288.55 102.633C288.55 106.902 292.008 110.36 296.277 110.36H399.321C403.59 110.36 407.049 106.902 407.049 102.633C407.049 98.3643 403.59 94.9062 399.321 94.9062H296.277Z" fill="#7C3F2C"/>
</svg>
