<svg width="16" height="16" viewBox="0 0 16 16" fill="none" xmlns="http://www.w3.org/2000/svg">
<path d="M12.612 5.01953V6.80619C12.3587 6.90619 12.1254 7.07286 11.932 7.29286C11.6054 7.65952 11.4454 8.13286 11.4787 8.61952C11.4987 8.83952 11.5521 9.05285 11.6321 9.24618C10.1254 10.0662 9.01872 11.5662 8.73872 13.3328H1.38541C1.01875 13.3328 0.71875 13.0328 0.71875 12.6662V5.01953H12.612Z" fill="#FFB74D"/>
<path d="M8.28856 7.38602H5.04457C4.74657 7.38602 4.50391 7.14402 4.50391 6.84602C4.50391 6.54735 4.74591 6.30469 5.04457 6.30469H8.28789C8.58589 6.30469 8.82856 6.54669 8.82856 6.84602C8.82856 7.14402 8.58656 7.38602 8.28856 7.38602Z" fill="#795548"/>
<path d="M13 5.01875H0.333332C0.149333 5.01875 0 4.86875 0 4.68542V2.49609H13.3333V4.68542C13.3333 4.86942 13.184 5.01875 13 5.01875Z" fill="#FFCC80"/>
<path d="M13.3333 2.49533L11.3513 0H1.98199L0 2.49533H13.3333Z" fill="#FFA726"/>
<path d="M6.6654 5.01953H0.71875V12.6662C0.71875 13.0328 1.01875 13.3328 1.38541 13.3328H6.6654V7.38686H5.0434C4.7454 7.38686 4.50274 7.14486 4.50274 6.84686C4.50274 6.54819 4.74474 6.30553 5.0434 6.30553H6.6654V5.01953Z" fill="#DE9F43"/>
<path d="M6.66657 6.30469H5.04457C4.74657 6.30469 4.50391 6.54669 4.50391 6.84602C4.50391 7.14402 4.74591 7.38602 5.04457 7.38602H6.66657V6.30469Z" fill="#694A3F"/>
<path d="M6.66665 2.49609H0V4.68542C0 4.86875 0.149333 5.01875 0.333332 5.01875H6.66665V2.49609Z" fill="#DEB26F"/>
<path d="M6.66665 0H1.98199L0 2.49533H6.66665V0Z" fill="#DE9121"/>
<path d="M15.9253 10.656L15.9566 10.61C15.984 10.548 16 10.4807 16 10.4094C16 10.338 15.984 10.2707 15.9566 10.2087L15.9253 10.1627L15.8386 10.046L15.8286 10.0327L13.6413 8.12338C13.432 7.94205 13.1173 7.96272 12.9353 8.17138C12.754 8.37938 12.7753 8.69538 12.9833 8.87671L14.1707 9.91338C11.864 9.95671 10 11.8734 10 14.2274V15.5C10 15.776 10.224 16 10.5 16C10.776 16 11 15.776 11 15.5V14.2274C11 12.4314 12.4073 10.9714 14.1553 10.9194L12.9833 11.942C12.7747 12.1234 12.7533 12.4394 12.9353 12.6474C13.034 12.7607 13.1727 12.8187 13.312 12.8187C13.4287 12.8187 13.546 12.778 13.6407 12.6954L15.828 10.7867L15.838 10.7734L15.9253 10.656Z" fill="#4CAF50"/>
<path d="M11.6667 10.8008C10.654 11.5901 10 12.8308 10 14.2248V15.4974C10 15.7734 10.224 15.9974 10.5 15.9974C10.776 15.9974 11 15.7734 11 15.4974V14.2248C11 13.4701 11.2487 12.7741 11.6667 12.2181V10.8008Z" fill="#429846"/>
</svg>
