<svg width="11" height="15" viewBox="0 0 11 15" fill="none" xmlns="http://www.w3.org/2000/svg">
<path d="M9.8932 0.438535C9.60521 0.158828 9.1973 0 8.73064 0.00046852C7.87775 0.00046852 7.02438 0 6.17101 0C4.86879 0 3.56658 0.00046852 2.26437 0.00187408C2.12471 0.00187408 1.97927 0.0145241 1.83816 0.0477891C1.48227 0.131654 1.18368 0.324216 0.976602 0.589399C0.769519 0.854581 0.653938 1.19145 0.652975 1.56111C0.651049 2.15426 0.650567 3.77768 0.650567 5.47232C0.650567 7.41621 0.651049 9.4524 0.65153 10.1322V10.1341V10.1378C0.651049 10.6879 0.650085 11.2375 0.650085 11.7866C0.650085 12.3193 0.650567 12.8525 0.652493 13.3852C0.653457 13.6428 0.706913 13.8851 0.819604 14.0997C0.931814 14.3142 1.10326 14.4998 1.32961 14.6441C1.43555 14.7115 1.54776 14.7575 1.65709 14.7973C1.76641 14.8371 1.87284 14.8704 1.96915 14.9088L1.99564 14.9191H2.02406C4.34627 14.9191 6.668 14.9191 8.99022 14.9191H9.03982L9.07883 14.89C9.27725 14.8399 9.45543 14.7725 9.61051 14.6844C9.85515 14.5462 10.0439 14.3559 10.1667 14.1203C10.2895 13.8846 10.3473 13.6063 10.3473 13.2901C10.3478 12.0513 10.3478 10.8125 10.3478 9.57328C10.3478 7.96438 10.3488 6.35501 10.3488 4.74611C10.3488 3.68679 10.3483 2.62746 10.3478 1.56814C10.3469 1.11414 10.1821 0.717773 9.8932 0.438535ZM5.27573 13.722C4.29763 13.722 3.32001 13.7234 2.3419 13.7286H2.33661C2.24751 13.7286 2.17479 13.7164 2.11796 13.6963C2.0751 13.6813 2.04043 13.6621 2.01153 13.6391C1.96867 13.6049 1.93689 13.5623 1.91329 13.5051C1.89017 13.4479 1.87669 13.3763 1.87669 13.2905V13.283V13.2826C1.88199 12.7011 1.88391 12.1202 1.88391 11.5392C1.88391 11.0772 1.88295 10.6157 1.88199 10.1538C1.88247 10.1421 1.88247 10.1299 1.88247 10.1172V10.1168V10.1163V10.1149C1.88151 9.637 1.88102 7.92502 1.88102 6.23648C1.88102 4.61024 1.88102 3.00556 1.88151 2.545V2.54126C1.88151 2.34213 1.88054 2.14348 1.88054 1.94577C1.88054 1.81224 1.88102 1.67918 1.88295 1.54612C1.88391 1.48427 1.89403 1.43274 1.91088 1.3901C1.93641 1.32685 1.97349 1.28328 2.02694 1.25048C2.0804 1.21815 2.15312 1.19707 2.24896 1.1966C2.31782 1.19613 2.38669 1.19613 2.45556 1.19613C2.61593 1.19613 2.77726 1.19707 2.93859 1.19707C2.96411 1.19707 2.98916 1.19707 3.01468 1.19707C3.01853 1.19707 3.0219 1.19707 3.02576 1.19707C3.02576 1.28421 3.02576 1.36855 3.02576 1.45148C3.02576 1.52831 3.02576 1.60421 3.02624 1.68011C3.02672 1.7771 3.03972 1.86752 3.0691 1.94998C3.09077 2.01183 3.12207 2.06899 3.16253 2.11865C3.22273 2.19408 3.30412 2.25124 3.39706 2.28732C3.49001 2.32339 3.59355 2.33979 3.70624 2.33979C4.31304 2.33979 4.91984 2.34026 5.52664 2.34026C6.10551 2.34026 6.6839 2.34026 7.26277 2.33979C7.37353 2.33979 7.4737 2.32855 7.56424 2.30184C7.63214 2.28169 7.69523 2.25218 7.75013 2.21142C7.83296 2.15098 7.89413 2.06618 7.93025 1.97013C7.96685 1.87361 7.98178 1.76585 7.98226 1.64544C7.98274 1.57142 7.98274 1.49786 7.98274 1.42337C7.98274 1.3484 7.98274 1.27297 7.98274 1.1966C8.07954 1.1966 8.17537 1.1966 8.2688 1.1966C8.40846 1.1966 8.54523 1.1966 8.682 1.1966C8.77591 1.1966 8.85056 1.20597 8.90594 1.22237C8.94784 1.23455 8.97866 1.25001 9.00322 1.26735C9.03934 1.29405 9.06438 1.32638 9.08509 1.38167C9.10532 1.43648 9.11832 1.51426 9.11784 1.61593C9.11784 3.5645 9.11784 5.51355 9.11784 7.46213C9.11784 9.4107 9.11784 11.3597 9.11784 13.3083C9.11784 13.3969 9.10821 13.4672 9.09135 13.5201C9.07883 13.5599 9.06342 13.589 9.04512 13.6124C9.01767 13.6471 8.98444 13.6714 8.9281 13.6916C8.87223 13.7113 8.79373 13.7234 8.69164 13.7234C8.67574 13.7234 8.65985 13.7234 8.64348 13.7234C7.68704 13.7234 6.73013 13.7225 5.77321 13.722H5.27573Z" fill="#757575"/>
</svg>
