<svg width="14" height="14" viewBox="0 0 14 14" fill="none" xmlns="http://www.w3.org/2000/svg">
<path d="M0.204837 7.49457L6.48962 13.7948C6.76193 14.0678 7.20715 14.0685 7.47945 13.7962L13.7943 7.49597C13.8595 7.43094 13.9113 7.35369 13.9465 7.26865C13.9818 7.1836 14 7.09243 14 7.00035C14 6.90827 13.9818 6.8171 13.9465 6.73206C13.9113 6.64701 13.8595 6.56976 13.7943 6.50474L7.47945 0.204548C7.41441 0.139576 7.33719 0.0880668 7.25222 0.0529683C7.16724 0.0178698 7.07619 -0.000129337 6.98425 6.99596e-07C6.89231 0.000130737 6.8013 0.0183874 6.71643 0.0537262C6.63156 0.0890649 6.55449 0.140792 6.48962 0.205948L0.204837 6.50614C0.139899 6.57102 0.0883847 6.64806 0.0532376 6.73286C0.0180906 6.81766 0 6.90856 0 7.00035C0 7.09215 0.0180906 7.18304 0.0532376 7.26784C0.0883847 7.35264 0.139899 7.42968 0.204837 7.49457ZM4.89988 5.60031H8.39998V4.20027L10.5 6.30033L8.39998 8.40039V7.00035H6.29992V9.80043H4.89988V5.60031Z" fill="white"/>
</svg>
