<svg width="16" height="16" viewBox="0 0 16 16" fill="none" xmlns="http://www.w3.org/2000/svg">
<path d="M8 16C12.4183 16 16 12.4183 16 8C16 3.58172 12.4183 0 8 0C3.58172 0 0 3.58172 0 8C0 12.4183 3.58172 16 8 16Z" fill="#64B5F6"/>
<path d="M16 8H0C0 12.4183 3.58172 16 8 16C12.4183 16 16 12.4183 16 8Z" fill="#1976D2"/>
<path d="M12.3626 7.6399L8.61259 4.5149C8.47288 4.39846 8.2785 4.37337 8.11369 4.4505C7.94897 4.52765 7.84375 4.69312 7.84375 4.875V6.99921L4.86259 4.5149C4.72291 4.39846 4.52847 4.37337 4.36369 4.4505C4.19897 4.52765 4.09375 4.69312 4.09375 4.875V11.125C4.09375 11.3069 4.19897 11.4723 4.36369 11.5495C4.42713 11.5792 4.49497 11.5937 4.56241 11.5937C4.67006 11.5937 4.77666 11.5567 4.86256 11.4851L7.84375 9.00081V11.125C7.84375 11.3069 7.94897 11.4723 8.11369 11.5495C8.17713 11.5792 8.24497 11.5937 8.31241 11.5937C8.42006 11.5937 8.52666 11.5567 8.61256 11.4851L12.3626 8.36009C12.4694 8.27103 12.5312 8.13909 12.5312 8C12.5312 7.8609 12.4694 7.72896 12.3626 7.6399Z" fill="#F9F9F9"/>
<path d="M4.09375 11.125C4.09375 11.3069 4.19897 11.4723 4.36369 11.5495C4.42713 11.5792 4.49497 11.5938 4.56241 11.5938C4.67006 11.5938 4.77666 11.5567 4.86256 11.4851L7.84375 9.00081V11.125C7.84375 11.3069 7.94897 11.4723 8.11369 11.5495C8.17713 11.5792 8.24497 11.5938 8.31241 11.5938C8.42006 11.5938 8.52666 11.5567 8.61256 11.4851L12.3626 8.36009C12.4694 8.27103 12.5312 8.13909 12.5312 8H4.09375V11.125Z" fill="#E2DFF4"/>
</svg>
