<svg width="18" height="18" viewBox="0 0 18 18" fill="none" xmlns="http://www.w3.org/2000/svg">
<path d="M16.0664 2.8125H15.5391V1.58203C15.5391 0.709699 14.8294 0 13.957 0C13.0847 0 12.375 0.709699 12.375 1.58203V2.01393C12.375 2.56039 12.008 3.04692 11.4826 3.19704L10.9688 3.34385V3.33984C10.9688 3.04861 10.7326 2.8125 10.4414 2.8125H8.33203C8.0408 2.8125 7.80469 3.04861 7.80469 3.33984V5.69531H1.58203C0.709699 5.69531 0 6.40501 0 7.27734V17.4727C0 17.6671 0.107051 17.8458 0.278508 17.9376C0.356484 17.9794 0.441984 18 0.527309 18C0.629613 18 0.731637 17.9703 0.819844 17.9114L2.7964 16.5938H12.832C13.7044 16.5938 14.4141 15.8841 14.4141 15.0117V9.49219H16.0664C17.1326 9.49219 18 8.62478 18 7.55859V4.74609C18 3.67991 17.1326 2.8125 16.0664 2.8125ZM8.85938 3.86719H9.91406V8.4375H8.85938V3.86719ZM13.3594 15.0117C13.3594 15.3025 13.1228 15.5391 12.832 15.5391H2.63672C2.53262 15.5391 2.43084 15.5699 2.34422 15.6277L1.05469 16.4873V7.27734C1.05469 6.98657 1.29125 6.75 1.58203 6.75H7.80469V8.96484C7.80469 9.25608 8.0408 9.49219 8.33203 9.49219H10.4414C10.7123 9.49219 10.9353 9.28779 10.9651 9.02486C11.4349 9.32446 11.9873 9.49219 12.5617 9.49219H13.3594V15.0117ZM16.9453 7.55859C16.9453 8.04322 16.551 8.4375 16.0664 8.4375H12.5617C11.9205 8.4375 11.3217 8.11403 10.9688 7.5851V4.44076L11.7723 4.21119C12.7481 3.93237 13.4297 3.02882 13.4297 2.01393V1.58203C13.4297 1.29125 13.6663 1.05469 13.957 1.05469C14.2478 1.05469 14.4844 1.29125 14.4844 1.58203V3.33984C14.4844 3.63108 14.7205 3.86719 15.0117 3.86719H16.0664C16.551 3.86719 16.9453 4.26146 16.9453 4.74609V7.55859Z" fill="black"/>
<path d="M2.63672 9.91406H6.15234C6.44358 9.91406 6.67969 9.67795 6.67969 9.38672C6.67969 9.09548 6.44358 8.85938 6.15234 8.85938H2.63672C2.34548 8.85938 2.10938 9.09548 2.10938 9.38672C2.10938 9.67795 2.34548 9.91406 2.63672 9.91406Z" fill="black"/>
<path d="M11.7773 10.9688H2.63672C2.34548 10.9688 2.10938 11.2049 2.10938 11.4961C2.10938 11.7873 2.34548 12.0234 2.63672 12.0234H11.7773C12.0686 12.0234 12.3047 11.7873 12.3047 11.4961C12.3047 11.2049 12.0686 10.9688 11.7773 10.9688Z" fill="black"/>
<path d="M11.7773 13.0781H2.63672C2.34548 13.0781 2.10938 13.3142 2.10938 13.6055C2.10938 13.8967 2.34548 14.1328 2.63672 14.1328H11.7773C12.0686 14.1328 12.3047 13.8967 12.3047 13.6055C12.3047 13.3142 12.0686 13.0781 11.7773 13.0781Z" fill="black"/>
</svg>
