<svg width="15" height="16" viewBox="0 0 15 16" fill="none" xmlns="http://www.w3.org/2000/svg">
<path d="M2.7126 15.7271C2.56283 15.7271 2.44141 15.8768 2.44141 15.7271V14.6423C2.44141 14.5704 2.46998 14.5014 2.52084 14.4505C2.57169 14.3997 2.64067 14.3711 2.7126 14.3711C2.78452 14.3711 2.8535 14.3997 2.90436 14.4505C2.95522 14.5014 2.98379 14.5704 2.98379 14.6423V15.7271C2.98379 15.8768 2.86236 15.7271 2.7126 15.7271Z" fill="#683B0D"/>
<path d="M1.08369 15.7271C0.933926 15.7271 0.8125 15.8768 0.8125 15.7271V14.6423C0.8125 14.5704 0.841072 14.5014 0.89193 14.4505C0.942789 14.3997 1.01177 14.3711 1.08369 14.3711C1.15562 14.3711 1.2246 14.3997 1.27545 14.4505C1.32631 14.5014 1.35488 14.5704 1.35488 14.6423V15.7271C1.35488 15.8768 1.23346 15.7271 1.08369 15.7271Z" fill="#683B0D"/>
<path d="M1.08477 14.6422C1.68387 14.6422 2.16954 14.1565 2.16954 13.5574C2.16954 12.9583 1.68387 12.4727 1.08477 12.4727C0.485667 12.4727 0 12.9583 0 13.5574C0 14.1565 0.485667 14.6422 1.08477 14.6422Z" fill="#027E2A"/>
<path d="M6.23585 0C5.15698 0 4.1223 0.428579 3.35942 1.19146C2.59655 1.95433 2.16797 2.98901 2.16797 4.06788C2.16798 5.29744 2.58238 6.49112 3.34426 7.45619L6.23585 11.1189L9.12744 7.45619C9.88932 6.49112 10.3037 5.29744 10.3037 4.06788C10.3037 2.98901 9.87515 1.95433 9.11228 1.19146C8.3494 0.428579 7.31472 0 6.23585 0Z" fill="#0296E5"/>
<path d="M6.2376 6.51036C7.58558 6.51036 8.67833 5.41761 8.67833 4.06964C8.67833 2.72166 7.58558 1.62891 6.2376 1.62891C4.88963 1.62891 3.79688 2.72166 3.79688 4.06964C3.79688 5.41761 4.88963 6.51036 6.2376 6.51036Z" fill="#43DCFE"/>
<path d="M6.23487 5.42286C5.87524 5.42286 5.53035 5.28 5.27606 5.02571C5.02177 4.77142 4.87891 4.42652 4.87891 4.0669C4.87891 3.70728 5.02177 3.36238 5.27606 3.10809C5.53035 2.8538 5.87524 2.71094 6.23487 2.71094C6.30679 2.71094 6.37577 2.73951 6.42663 2.79037C6.47749 2.84123 6.50606 2.91021 6.50606 2.98213C6.50606 3.05405 6.47749 3.12303 6.42663 3.17389C6.37577 3.22475 6.30679 3.25332 6.23487 3.25332C6.01909 3.25332 5.81216 3.33904 5.65958 3.49161C5.50701 3.64419 5.42129 3.85112 5.42129 4.0669C5.42129 4.28267 5.50701 4.48961 5.65958 4.64218C5.81216 4.79476 6.01909 4.88047 6.23487 4.88047C6.30679 4.88047 6.37577 4.90905 6.42663 4.9599C6.47749 5.01076 6.50606 5.07974 6.50606 5.15167C6.50606 5.22359 6.47749 5.29257 6.42663 5.34343C6.37577 5.39429 6.30679 5.42286 6.23487 5.42286Z" fill="#0276B4"/>
<path d="M8.94845 15.7274H4.60938V12.4731L6.77891 9.21875L8.94845 12.2019V15.7274Z" fill="#EAEAE8"/>
<path d="M8.94688 12.2019L6.77734 9.21875H10.8452L13.0148 12.2019H8.94688Z" fill="#D32B39"/>
<path d="M12.2033 11.1171H11.2074L11.9966 12.2019H11.3257L10.5369 11.1171H9.85143L10.6403 12.2019H9.96974L9.18091 11.1171H8.16021L7.76562 10.5747H8.78632L7.82393 9.25129C7.81627 9.24109 7.80957 9.2302 7.80393 9.21875H8.47073L9.45685 10.5747H10.1423L9.15616 9.21875H9.82669L10.8128 10.5747H11.8335L12.2271 11.1161C12.2193 11.1168 12.2115 11.1171 12.2033 11.1171Z" fill="#961B20"/>
<path d="M8.94922 12.2031H13.0171V15.7286H8.94922V12.2031Z" fill="#CBCBCB"/>
<path d="M6.77842 12.2031C6.99419 12.2031 7.20113 12.2888 7.3537 12.4414C7.50628 12.594 7.592 12.8009 7.592 13.0167V15.7286H5.96484V13.0167C5.96484 12.8009 6.05056 12.594 6.20313 12.4414C6.35571 12.2888 6.56265 12.2031 6.77842 12.2031Z" fill="#0276B4"/>
<path d="M10.0352 13.2891H11.9335V14.645H10.0352V13.2891Z" fill="#0292C9"/>
<path d="M10.0352 13.2891H11.6623V14.3738H10.0352V13.2891Z" fill="#43DCFE"/>
<path d="M12.2033 11.1171H11.2074L11.9966 12.2019H11.3257L10.5369 11.1171H9.85143L10.6403 12.2019H9.96974L9.18091 11.1171H8.16021L7.76562 10.5747H8.78632L7.82393 9.25129C7.81627 9.24109 7.80957 9.2302 7.80393 9.21875H8.47073L9.45685 10.5747H10.1423L9.15616 9.21875H9.82669L10.8128 10.5747H11.8335L12.2271 11.1161C12.2193 11.1168 12.2115 11.1171 12.2033 11.1171Z" fill="#961B20"/>
<path d="M3.52559 12.2042C3.52559 11.7549 3.16134 11.3906 2.71201 11.3906C2.26269 11.3906 1.89844 11.7549 1.89844 12.2042V13.8314C1.89844 14.2807 2.26269 14.6449 2.71201 14.6449C3.16134 14.6449 3.52559 14.2807 3.52559 13.8314V12.2042Z" fill="#02A437"/>
<path d="M14.102 15.9994H0.271192C0.199268 15.9994 0.130289 15.9708 0.0794304 15.92C0.028572 15.8691 0 15.8001 0 15.7282C0 15.6563 0.028572 15.5873 0.0794304 15.5365C0.130289 15.4856 0.199268 15.457 0.271192 15.457H14.102C14.1739 15.457 14.2429 15.4856 14.2938 15.5365C14.3446 15.5873 14.3732 15.6563 14.3732 15.7282C14.3732 15.8001 14.3446 15.8691 14.2938 15.92C14.2429 15.9708 14.1739 15.9994 14.102 15.9994Z" fill="#A8A8A8"/>
</svg>
