<svg width="40" height="40" viewBox="0 0 40 40" fill="none" xmlns="http://www.w3.org/2000/svg">
<path d="M20 40C8.954 40 0 31.046 0 20C0 8.954 8.954 0 20 0C31.046 0 40 8.954 40 20C40 31.046 31.046 40 20 40ZM20 36C24.2435 36 28.3131 34.3143 31.3137 31.3137C34.3143 28.3131 36 24.2435 36 20C36 15.7565 34.3143 11.6869 31.3137 8.68629C28.3131 5.68571 24.2435 4 20 4C15.7565 4 11.6869 5.68571 8.68629 8.68629C5.68571 11.6869 4 15.7565 4 20C4 24.2435 5.68571 28.3131 8.68629 31.3137C11.6869 34.3143 15.7565 36 20 36ZM12.16 26.788C11.951 26.3 11.9444 25.749 12.1417 25.2561C12.339 24.7633 12.724 24.369 13.212 24.16C13.7 23.951 14.251 23.9444 14.7439 24.1417C15.2367 24.339 15.631 24.724 15.84 25.212C16.1896 26.0254 16.77 26.7184 17.5094 27.2054C18.2487 27.6924 19.1147 27.9519 20 27.9519C20.8853 27.9519 21.7513 27.6924 22.4906 27.2054C23.23 26.7184 23.8104 26.0254 24.16 25.212C24.2635 24.9704 24.4135 24.7515 24.6016 24.5678C24.7897 24.3842 25.0121 24.2394 25.2561 24.1417C25.5002 24.044 25.761 23.9954 26.0239 23.9985C26.2867 24.0016 26.5464 24.0565 26.788 24.16C27.0296 24.2635 27.2485 24.4135 27.4322 24.6016C27.6158 24.7897 27.7606 25.0121 27.8583 25.2561C27.956 25.5002 28.0046 25.761 28.0015 26.0239C27.9984 26.2867 27.9435 26.5464 27.84 26.788C27.183 28.3229 26.0899 29.6313 24.6962 30.5507C23.3025 31.4701 21.6696 31.9602 20 31.9602C18.3304 31.9602 16.6975 31.4701 15.3038 30.5507C13.9101 29.6313 12.817 28.3229 12.16 26.788ZM14 12C14.5304 12 15.0391 12.2107 15.4142 12.5858C15.7893 12.9609 16 13.4696 16 14V18C16 18.5304 15.7893 19.0391 15.4142 19.4142C15.0391 19.7893 14.5304 20 14 20C13.4696 20 12.9609 19.7893 12.5858 19.4142C12.2107 19.0391 12 18.5304 12 18V14C12 13.4696 12.2107 12.9609 12.5858 12.5858C12.9609 12.2107 13.4696 12 14 12ZM26 12C26.5304 12 27.0391 12.2107 27.4142 12.5858C27.7893 12.9609 28 13.4696 28 14V18C28 18.5304 27.7893 19.0391 27.4142 19.4142C27.0391 19.7893 26.5304 20 26 20C25.4696 20 24.9609 19.7893 24.5858 19.4142C24.2107 19.0391 24 18.5304 24 18V14C24 13.4696 24.2107 12.9609 24.5858 12.5858C24.9609 12.2107 25.4696 12 26 12Z" fill="black"/>
</svg>
