<svg width="55" height="55" viewBox="0 0 55 55" fill="none" xmlns="http://www.w3.org/2000/svg">
<path d="M41.25 41.25C48.8439 33.6561 48.8439 21.3439 41.25 13.75C33.6561 6.15608 21.3439 6.15607 13.75 13.75C6.15609 21.3439 6.15609 33.6561 13.75 41.25C21.3439 48.8439 33.6561 48.8439 41.25 41.25Z" fill="#FFD21F"/>
<path d="M18.6492 27.7814C17.8722 27.7814 17.2366 27.1457 17.2366 26.3688V22.9786C17.2366 22.2017 17.8722 21.566 18.6492 21.566C19.4261 21.566 20.0617 22.2017 20.0617 22.9786V26.3688C20.0617 27.1457 19.4261 27.7814 18.6492 27.7814Z" fill="#403408"/>
<path d="M36.3545 27.7814C35.5776 27.7814 34.9419 27.1457 34.9419 26.3688V22.9786C34.9419 22.2017 35.5776 21.566 36.3545 21.566C37.1314 21.566 37.7671 22.2017 37.7671 22.9786V26.3688C37.7671 27.1457 37.1314 27.7814 36.3545 27.7814Z" fill="#403408"/>
<path fill-rule="evenodd" clip-rule="evenodd" d="M34.8178 31.6587C35.3429 31.8086 35.6471 32.3558 35.4972 32.881L34.5464 32.6095C35.4972 32.881 35.497 32.8815 35.4969 32.882L35.4966 32.8831L35.4959 32.8856L35.4939 32.8922C35.4925 32.8972 35.4906 32.9034 35.4884 32.9109C35.4838 32.9258 35.4777 32.9455 35.4699 32.9698C35.4543 33.0184 35.4319 33.0853 35.4021 33.1677C35.3424 33.3324 35.2526 33.5607 35.1269 33.8315C34.8765 34.3708 34.4782 35.0912 33.8833 35.8152C32.6793 37.2806 30.6674 38.7543 27.5456 38.7543C24.4268 38.7543 22.429 37.2919 21.238 35.8325C20.6501 35.1121 20.2591 34.3954 20.0144 33.8589C19.8915 33.5895 19.8041 33.3623 19.7461 33.1983C19.7171 33.1162 19.6954 33.0496 19.6803 33.0011C19.6727 32.9769 19.6668 32.9572 19.6624 32.9422C19.6602 32.9348 19.6584 32.9285 19.657 32.9235L19.6551 32.9169L19.6544 32.9143L19.6541 32.9132C19.654 32.9127 19.6538 32.9122 20.607 32.6491L19.6538 32.9122C19.5085 32.3858 19.8174 31.8413 20.3438 31.6959C20.8691 31.5509 21.4124 31.8582 21.5592 32.3825C21.5593 32.383 21.5596 32.3839 21.56 32.3853C21.5613 32.3897 21.564 32.3987 21.5681 32.412C21.5764 32.4384 21.5904 32.4818 21.6108 32.5396C21.6517 32.6554 21.7178 32.8279 21.8137 33.0382C22.0065 33.4609 22.3141 34.0233 22.7701 34.5821C23.6668 35.6808 25.1384 36.7767 27.5456 36.7767C29.9526 36.7767 31.4411 35.6724 32.3553 34.5598C32.8195 33.9948 33.1347 33.4262 33.3331 32.9988C33.4318 32.7862 33.5001 32.6117 33.5426 32.4944C33.5638 32.4359 33.5784 32.392 33.5871 32.365C33.5914 32.3516 33.5942 32.3424 33.5956 32.3378C33.596 32.3365 33.5962 32.3356 33.5964 32.3351L33.5958 32.3372C33.596 32.3364 33.5962 32.3358 33.5964 32.3351C33.7476 31.8119 34.2937 31.5091 34.8178 31.6587Z" fill="#403408"/>
</svg>
