<svg width="37" height="37" viewBox="0 0 37 37" fill="none" xmlns="http://www.w3.org/2000/svg">
<path d="M18.4978 36.9955C28.7138 36.9955 36.9955 28.7138 36.9955 18.4978C36.9955 8.28173 28.7138 0 18.4978 0C8.28173 0 0 8.28173 0 18.4978C0 28.7138 8.28173 36.9955 18.4978 36.9955Z" fill="url(#paint0_linear)"/>
<path d="M23.4344 9.04077C21.3443 9.04077 19.5182 10.2402 18.5022 12.0305C17.4863 10.2402 15.6602 9.04077 13.5701 9.04077C10.37 9.04077 7.77864 11.838 7.77864 15.2887C7.77864 23.4702 18.5022 27.9592 18.5022 27.9592C18.5022 27.9592 29.2258 23.3807 29.2258 15.2887C29.2258 11.838 26.63 9.04077 23.4344 9.04077Z" fill="white"/>
<defs>
<linearGradient id="paint0_linear" x1="9.65836" y1="26.7765" x2="51.0427" y2="-11.9719" gradientUnits="userSpaceOnUse">
<stop stop-color="#EB0608"/>
<stop offset="0.6476" stop-color="#FD9F9D"/>
</linearGradient>
</defs>
</svg>
