<svg width="24" height="24" viewBox="0 0 24 24" fill="none" xmlns="http://www.w3.org/2000/svg">
    <path d="M19.7333 3.45754L9.86666 6.92575L0 3.45754L9.86666 0L19.7333 3.45754Z" fill="#FFA000"/>
    <path d="M19.7338 3.45703V16.2627L9.86719 19.7309V6.92524L19.7338 3.45703Z" fill="#FFC107"/>
    <path d="M9.86666 6.92524V19.7309L0 16.2627V3.45703L9.86666 6.92524Z" fill="#FFE082"/>
    <path d="M17.8658 23.9987C21.2531 23.9987 23.9991 21.2515 23.9991 17.8626C23.9991 14.4738 21.2531 11.7266 17.8658 11.7266C14.4784 11.7266 11.7324 14.4738 11.7324 17.8626C11.7324 21.2515 14.4784 23.9987 17.8658 23.9987Z" fill="#2979FF"/>
    <path d="M17.8657 21.6002C17.6609 21.6002 17.4561 21.5223 17.3004 21.3655L14.9004 18.9644C14.5879 18.6517 14.5879 18.1448 14.9004 17.8322C15.2129 17.5195 15.7196 17.5195 16.0321 17.8322L17.8668 19.6676L19.7015 17.8322C20.014 17.5195 20.5207 17.5195 20.8332 17.8322C21.1457 18.1448 21.1457 18.6517 20.8332 18.9644L18.4332 21.3655C18.2753 21.5223 18.0705 21.6002 17.8657 21.6002Z" fill="white"/>
    <path d="M17.8668 21.0653C17.425 21.0653 17.0664 20.7068 17.0664 20.265V14.9293C17.0664 14.4875 17.425 14.1289 17.8668 14.1289C18.3086 14.1289 18.6671 14.4875 18.6671 14.9293V20.265C18.6671 20.7068 18.3086 21.0653 17.8668 21.0653Z" fill="white"/>
</svg>
