<svg width="24" height="24" viewBox="0 0 24 24" fill="none" xmlns="http://www.w3.org/2000/svg">
    <path fill-rule="evenodd" clip-rule="evenodd" d="M14.8936 6.10418V5.37794C14.8923 4.17523 13.9176 3.20057 12.7149 3.19922H11.2624C10.0597 3.20057 9.08504 4.17523 9.08369 5.37794V6.10418H4V7.55667H19.9773V6.10418H14.8936ZM10.5362 5.37794C10.5366 4.97703 10.8615 4.65215 11.2624 4.6517H12.7149C13.1158 4.65215 13.4407 4.97703 13.4411 5.37794V6.10418H10.5362V5.37794Z" fill="#5E5E5E"/>
    <path fill-rule="evenodd" clip-rule="evenodd" d="M6.03926 18.6932C6.16094 19.7971 7.09418 20.6323 8.20473 20.6313H15.772C16.8826 20.6323 17.8158 19.797 17.9375 18.6931L19.0939 8.28516H4.88281L6.03926 18.6932ZM14.8959 9.67728L16.3433 9.79801L15.617 18.5129L14.1696 18.3922L14.8959 9.67728ZM11.2621 9.73764H12.7146V18.4525H11.2621V9.73764ZM9.08085 9.67728L9.80709 18.3922L8.35969 18.5129L7.63345 9.79801L9.08085 9.67728Z" fill="#5E5E5E"/>
</svg>
