<svg width="50" height="50" viewBox="0 0 50 50" fill="none" xmlns="http://www.w3.org/2000/svg">
    <path d="M2.34375 5.46875H42.9688V46.0938H2.34375V5.46875Z" fill="#F6BC1B"/>
    <path d="M8.59375 2.34375H32.0312V3.90625H8.59375V2.34375Z" fill="#C9C9C7"/>
    <path d="M33.5938 2.34375H35.1562V3.90625H33.5938V2.34375Z" fill="#C9C9C7"/>
    <path d="M9.375 5.46875H15.625V12.5H9.375V5.46875Z" fill="#F9DA62"/>
    <path d="M22.6562 7.03125H21.875C21.0462 7.03125 20.2513 7.36049 19.6653 7.94654C19.0792 8.53259 18.75 9.32745 18.75 10.1562V15.5273C18.75 17.1849 18.0915 18.7747 16.9194 19.9468C15.7473 21.1189 14.1576 21.7773 12.5 21.7773H7.03125C6.20245 21.7773 5.40759 22.1066 4.82154 22.6926C4.23549 23.2787 3.90625 24.0735 3.90625 24.9023V25.7812H22.6562V7.03125Z" fill="#F5A922"/>
    <path d="M18.75 21.875H20.3125V23.4375H18.75V21.875Z" fill="#F79726"/>
    <path d="M15.625 21.875H17.1875V23.4375H15.625V21.875Z" fill="#F79726"/>
    <path d="M9.375 25.7812H15.625V32.8125H9.375V25.7812Z" fill="#F9DA62"/>
    <path d="M22.6562 27.3438H21.875C21.0462 27.3438 20.2513 27.673 19.6653 28.259C19.0792 28.8451 18.75 29.6399 18.75 30.4688V35.8398C18.75 37.4974 18.0915 39.0872 16.9194 40.2593C15.7473 41.4314 14.1576 42.0898 12.5 42.0898H7.03125C6.20245 42.0898 5.40759 42.4191 4.82154 43.0051C4.23549 43.5912 3.90625 44.386 3.90625 45.2148V46.0938H22.6562V27.3438Z" fill="#F5A922"/>
    <path d="M18.75 42.1875H20.3125V43.75H18.75V42.1875Z" fill="#F79726"/>
    <path d="M15.625 42.1875H17.1875V43.75H15.625V42.1875Z" fill="#F79726"/>
    <path d="M29.6875 5.46875H35.9375V12.5H29.6875V5.46875Z" fill="#F9DA62"/>
    <path d="M42.9688 7.03125H42.1875C41.3587 7.03125 40.5638 7.36049 39.9778 7.94654C39.3917 8.53259 39.0625 9.32745 39.0625 10.1562V15.5273C39.0625 17.1849 38.404 18.7747 37.2319 19.9468C36.0598 21.1189 34.4701 21.7773 32.8125 21.7773H27.3438C26.5149 21.7773 25.7201 22.1066 25.134 22.6926C24.548 23.2787 24.2188 24.0735 24.2188 24.9023V25.7812H42.9688V7.03125Z" fill="#F5A922"/>
    <path d="M39.0625 21.875H40.625V23.4375H39.0625V21.875Z" fill="#F79726"/>
    <path d="M35.9375 21.875H37.5V23.4375H35.9375V21.875Z" fill="#F79726"/>
    <path d="M29.6875 25.7812H35.9375V32.8125H29.6875V25.7812Z" fill="#F9DA62"/>
    <path d="M42.9688 27.3438H42.1875C41.3587 27.3438 40.5638 27.673 39.9778 28.259C39.3917 28.8451 39.0625 29.6399 39.0625 30.4688V35.8398C39.0625 37.4974 38.404 39.0872 37.2319 40.2593C36.0598 41.4314 34.4701 42.0898 32.8125 42.0898H27.3438C26.5149 42.0898 25.7201 42.4191 25.134 43.0051C24.548 43.5912 24.2188 44.386 24.2188 45.2148V46.0938H42.9688V27.3438Z" fill="#F5A922"/>
    <path d="M39.0625 42.1875H40.625V43.75H39.0625V42.1875Z" fill="#F79726"/>
    <path d="M35.9375 42.1875H37.5V43.75H35.9375V42.1875Z" fill="#F79726"/>
    <path d="M50 43.75L50 29.6875C50 28.3931 48.9507 27.3437 47.6563 27.3437L21.0938 27.3437C19.7993 27.3437 18.75 28.3931 18.75 29.6875L18.75 43.75C18.75 45.0444 19.7993 46.0938 21.0938 46.0938L47.6562 46.0938C48.9507 46.0938 50 45.0444 50 43.75Z" fill="#0093B9"/>
    <path d="M48.4375 43.75L48.4375 29.6875C48.4375 29.256 48.0877 28.9062 47.6562 28.9062L21.0937 28.9062C20.6623 28.9062 20.3125 29.256 20.3125 29.6875L20.3125 43.75C20.3125 44.1815 20.6623 44.5313 21.0937 44.5313L47.6562 44.5313C48.0877 44.5313 48.4375 44.1815 48.4375 43.75Z" fill="#2DA4C4"/>
    <path d="M45.8984 41.6016H47.4609V43.1641H45.8984V41.6016Z" fill="#8ACADB"/>
    <path d="M38.5742 35.7422H40.1367V37.3047H38.5742V35.7422Z" fill="#8ACADB"/>
    <path d="M35.4492 35.7422H37.0117V37.3047H35.4492V35.7422Z" fill="#8ACADB"/>
    <path d="M27.5374 38.8688C27.4348 38.869 27.3332 38.8488 27.2383 38.8096C27.1435 38.7703 27.0574 38.7127 26.985 38.64L25.0195 36.6746L26.1244 35.5697L27.5374 36.9828L33.235 31.2852L34.3398 32.39L28.0898 38.64C28.0174 38.7127 27.9313 38.7703 27.8365 38.8096C27.7416 38.8488 27.64 38.869 27.5374 38.8688Z" fill="#EB5849"/>
    <path d="M27.538 41.9922C26.6993 41.992 25.8718 41.7989 25.1195 41.4278C24.3673 41.0568 23.7106 40.5176 23.2 39.8521C22.6895 39.1866 22.3389 38.4126 22.1753 37.5899C22.0117 36.7672 22.0396 35.918 22.2567 35.1078C22.4739 34.2976 22.8744 33.5482 23.4275 32.9176C23.9805 32.287 24.6712 31.792 25.4461 31.471C26.2211 31.15 27.0594 31.0116 27.8964 31.0664C28.7334 31.1212 29.5466 31.3678 30.273 31.7871L29.4906 33.1397C28.7458 32.7097 27.8799 32.5376 27.0273 32.6499C26.1747 32.7622 25.383 33.1527 24.7749 33.7609C24.1668 34.369 23.7764 35.1608 23.6642 36.0134C23.552 36.866 23.7242 37.7319 24.1542 38.4766C24.5843 39.2214 25.248 39.8034 26.0425 40.1325C26.837 40.4616 27.7179 40.5194 28.5486 40.2968C29.3793 40.0743 30.1133 39.5838 30.6369 38.9016C31.1604 38.2194 31.4442 37.3834 31.4443 36.5234H33.0068C33.0052 37.9733 32.4285 39.3634 31.4032 40.3886C30.378 41.4139 28.9879 41.9906 27.538 41.9922Z" fill="#EB5849"/>
    <path d="M35.4492 30.6641H37.0117V32.2266H35.4492V30.6641Z" fill="#8ACADB"/>
    <path d="M38.4766 30.6641H47.4609V32.2266H38.4766V30.6641Z" fill="#8ACADB"/>
    <path d="M35.4492 33.2031H47.4609V34.7656H35.4492V33.2031Z" fill="#8ACADB"/>
</svg>
