<svg width="20" height="20" viewBox="0 0 20 20" fill="none" xmlns="http://www.w3.org/2000/svg">
<g clip-path="url(#clip0)">
<path d="M10 0H0.833333C0.3725 0 0 0.373333 0 0.833333V5C0 5.46 0.3725 5.83333 0.833333 5.83333H10V0Z" fill="#3990D5"/>
<path d="M0 12.082C0 12.542 0.3725 12.9154 0.833333 12.9154H5.83333H7.08333H19.1667C19.6275 12.9154 20 12.542 20 12.082V7.91536C20 7.45536 19.6275 7.08203 19.1667 7.08203H0.833333C0.3725 7.08203 0 7.45536 0 7.91536V12.082Z" fill="#90CAF9"/>
<path d="M0 19.1406C0 19.6006 0.3725 19.974 0.833333 19.974H5.83333H7.08333H19.1667C19.6275 19.974 20 19.6006 20 19.1406V14.974C20 14.514 19.6275 14.1406 19.1667 14.1406H0.833333C0.3725 14.1406 0 14.514 0 14.974V19.1406Z" fill="#90CAF9"/>
<path d="M19.1667 0H0.833333C0.3725 0 0 0.373333 0 0.833333V5C0 5.46 0.3725 5.83333 0.833333 5.83333H19.1667C19.6275 5.83333 20 5.46 20 5V0.833333C20 0.373333 19.6275 0 19.1667 0Z" fill="#42A5F5"/>
<path d="M10 7.08203H0.833333C0.3725 7.08203 0 7.45536 0 7.91536V12.082C0 12.542 0.3725 12.9154 0.833333 12.9154H5.83333H7.08333H10V7.08203Z" fill="#64B5F6"/>
<path d="M10 14.1406H0.833333C0.3725 14.1406 0 14.514 0 14.974V19.1406C0 19.6006 0.3725 19.974 0.833333 19.974H5.83333H7.08333H10V14.1406Z" fill="#64B5F6"/>
<path d="M10 0H0.833333C0.3725 0 0 0.373333 0 0.833333V5C0 5.46 0.3725 5.83333 0.833333 5.83333H10V0Z" fill="#3990D5"/>
</g>
<defs>
<clipPath id="clip0">
<rect width="20" height="20" fill="white"/>
</clipPath>
</defs>
</svg>
