<svg width="28" height="19" viewBox="0 0 28 19" fill="none" xmlns="http://www.w3.org/2000/svg">
<path d="M20.1656 1.37879C19.2915 0.630699 17.9681 0.772516 17.2723 1.68882L8.60055 13.1097L4.07208 8.58928C3.32256 7.84109 2.10869 7.84131 1.35944 8.58977C0.608876 9.33954 0.608875 10.556 1.35944 11.3058L7.44924 17.3891C8.29971 18.2387 9.70214 18.1514 10.4407 17.2029L20.5509 4.21927C21.2075 3.37614 21.0852 2.16585 20.2734 1.47102L20.1656 1.37879Z" fill="black"/>
<path d="M26.4414 1.37879C25.5673 0.630699 24.2438 0.772516 23.548 1.68882L14.8763 13.1097L14.2083 12.4406C13.4713 11.7023 12.2751 11.7018 11.5374 12.4394C10.8064 13.1705 10.7994 14.3536 11.5218 15.0933L13.725 17.3492C14.5719 18.2163 15.9892 18.1369 16.7339 17.1806L26.8267 4.21927C27.4832 3.37614 27.361 2.16585 26.5491 1.47102L26.4414 1.37879Z" fill="black"/>
</svg>
