<svg width="20" height="20" viewBox="0 0 20 20" fill="none" xmlns="http://www.w3.org/2000/svg">
<path d="M10 19C8.21997 19 6.47991 18.4722 4.99987 17.4832C3.51983 16.4943 2.36628 15.0887 1.68509 13.4442C1.0039 11.7996 0.82567 9.99002 1.17294 8.24419C1.5202 6.49836 2.37737 4.89471 3.63604 3.63604C4.89471 2.37737 6.49836 1.5202 8.24419 1.17294C9.99002 0.82567 11.7996 1.0039 13.4442 1.68509C15.0887 2.36628 16.4943 3.51983 17.4832 4.99987C18.4722 6.47991 19 8.21997 19 10C18.9973 12.3861 18.0482 14.6737 16.361 16.361C14.6737 18.0482 12.3861 18.9973 10 19Z" stroke="#448AFF"/>
<path d="M12.475 7.6988H12.4749C11.9545 7.69902 11.4552 7.49302 11.0864 7.12592L10.7966 6.83744L10.4563 7.06427L7.92822 8.74967L7.60319 8.96636L7.73481 9.33417C7.88853 9.76372 7.88853 10.2333 7.73481 10.6628L7.6032 11.0306L7.92819 11.2473L10.4563 12.933L10.7957 13.1593L11.0855 12.8723C11.4292 12.532 11.8855 12.3291 12.3684 12.3019C12.8513 12.2747 13.3275 12.4252 13.7072 12.7248C14.0869 13.0244 14.3438 13.4526 14.4297 13.9286C14.5155 14.4046 14.4243 14.8955 14.1732 15.3089C13.9221 15.7223 13.5284 16.0296 13.0665 16.1728C12.6045 16.316 12.106 16.2854 11.6651 16.0865C11.2242 15.8877 10.8712 15.5344 10.6728 15.0934C10.4743 14.6523 10.444 14.1538 10.5876 13.692L10.6986 13.3349L10.3875 13.1275L7.8164 11.4134L7.49144 11.1968L7.20256 11.4596C6.9195 11.7172 6.56772 11.8869 6.18998 11.9483C5.81224 12.0096 5.42481 11.9599 5.07481 11.8051C4.72481 11.6504 4.4273 11.3973 4.21846 11.0766C4.00962 10.7559 3.89844 10.3815 3.89844 9.9988C3.89844 9.61611 4.00962 9.24167 4.21846 8.92099C4.4273 8.60031 4.72481 8.34722 5.07481 8.19247C5.42481 8.03772 5.81224 7.988 6.18998 8.04933C6.56772 8.11066 6.9195 8.28042 7.20256 8.53796L7.49144 8.80079L7.8164 8.58415L10.3875 6.8701L10.6979 6.66314L10.5879 6.30663C10.4653 5.90943 10.4712 5.48368 10.6048 5.09004C10.7383 4.69639 10.9927 4.35495 11.3317 4.11435L11.0423 3.70661L11.3317 4.11435C11.6707 3.87375 12.0769 3.74627 12.4926 3.75008C12.9083 3.75389 13.3121 3.8888 13.6466 4.13557C13.9811 4.38235 14.2292 4.72841 14.3555 5.12443C14.4818 5.52046 14.4799 5.94625 14.3501 6.34113C14.2203 6.73601 13.9691 7.07984 13.6324 7.32362C13.2957 7.5674 12.8907 7.6987 12.475 7.6988ZM12.4751 3.9488L12.4745 3.9488C12.0041 3.94932 11.5531 4.13644 11.2204 4.4691L11.574 4.82265L11.2204 4.4691C10.8877 4.80176 10.7006 5.25279 10.7001 5.72324V5.7238C10.7001 6.07486 10.8042 6.41804 10.9992 6.70994C11.1943 7.00183 11.4715 7.22934 11.7958 7.36368C12.1202 7.49803 12.4771 7.53318 12.8214 7.46469C13.1657 7.3962 13.482 7.22715 13.7302 6.97891C13.9784 6.73067 14.1475 6.4144 14.216 6.07008C14.2845 5.72577 14.2493 5.36888 14.115 5.04454C13.9806 4.7202 13.7531 4.44298 13.4612 4.24794C13.1693 4.0529 12.8262 3.9488 12.4751 3.9488ZM5.8751 11.7738H5.87565C6.3461 11.7733 6.79714 11.5862 7.12979 11.2535C7.46245 10.9208 7.64957 10.4698 7.6501 9.99936V9.9988C7.6501 9.64774 7.54599 9.30456 7.35095 9.01266C7.15592 8.72077 6.8787 8.49326 6.55436 8.35891C6.23002 8.22457 5.87313 8.18942 5.52881 8.2579C5.18449 8.32639 4.86822 8.49545 4.61998 8.74368C4.37174 8.99192 4.20269 9.3082 4.1342 9.65251C4.06571 9.99683 4.10087 10.3537 4.23521 10.6781L4.69715 10.4867L4.23521 10.6781C4.36956 11.0024 4.59706 11.2796 4.88896 11.4747L5.14424 11.0926L4.88896 11.4747C5.18086 11.6697 5.52403 11.7738 5.8751 11.7738ZM12.4751 12.4988H12.4745C12.0041 12.4993 11.5531 12.6864 11.2204 13.0191C10.8877 13.3518 10.7006 13.8028 10.7001 14.2732V14.2738C10.7001 14.6249 10.8042 14.968 10.9992 15.2599C11.1943 15.5518 11.4715 15.7793 11.7958 15.9137L11.9872 15.4517L11.7958 15.9137C12.1202 16.048 12.4771 16.0832 12.8214 16.0147C13.1657 15.9462 13.482 15.7772 13.7302 15.5289L13.3767 15.1754L13.7302 15.5289C13.9784 15.2807 14.1475 14.9644 14.216 14.6201C14.2845 14.2758 14.2493 13.9189 14.115 13.5945L13.653 13.7859L14.115 13.5945C13.9806 13.2702 13.7531 12.993 13.4612 12.7979C13.1693 12.6029 12.8262 12.4988 12.4751 12.4988Z" fill="black" stroke="#448AFF"/>
</svg>
