<svg width="18" height="25" viewBox="0 0 18 25" fill="none" xmlns="http://www.w3.org/2000/svg">
<path d="M8.99948 5.69287C8.34443 5.69287 7.70409 5.88712 7.15944 6.25104C6.61479 6.61496 6.19029 7.13222 5.93961 7.73741C5.68894 8.34259 5.62335 9.00852 5.75114 9.65098C5.87893 10.2934 6.19437 10.8836 6.65756 11.3468C7.12074 11.81 7.71088 12.1254 8.35334 12.2532C8.9958 12.381 9.66173 12.3154 10.2669 12.0647C10.8721 11.814 11.3894 11.3895 11.7533 10.8449C12.1172 10.3002 12.3115 9.65989 12.3115 9.00485C12.3105 8.12676 11.9612 7.28493 11.3403 6.66403C10.7194 6.04313 9.87756 5.69387 8.99948 5.69287ZM8.99948 10.6608C8.67195 10.6608 8.35179 10.5637 8.07946 10.3818C7.80713 10.1998 7.59488 9.94116 7.46954 9.63857C7.34421 9.33598 7.31141 9.00301 7.37531 8.68178C7.43921 8.36055 7.59692 8.06548 7.82852 7.83389C8.06011 7.60229 8.35518 7.44458 8.67641 7.38068C8.99764 7.31678 9.33061 7.34958 9.6332 7.47491C9.93579 7.60025 10.1944 7.8125 10.3764 8.08483C10.5583 8.35716 10.6555 8.67732 10.6555 9.00485C10.655 9.44389 10.4803 9.8648 10.1699 10.1752C9.85943 10.4857 9.43852 10.6603 8.99948 10.6608Z" fill="black"/>
<path d="M15.3639 2.63536C13.7903 1.06219 11.6898 0.127665 9.4677 0.0121464C7.24562 -0.103372 5.05952 0.608304 3.33131 2.00982C1.6031 3.41134 0.455294 5.40334 0.109424 7.60137C-0.236445 9.79941 0.244139 12.0476 1.45842 13.9122L7.71532 23.5176C7.85456 23.7313 8.04494 23.9069 8.2692 24.0285C8.49347 24.15 8.74452 24.2137 8.99962 24.2137C9.25471 24.2137 9.50576 24.15 9.73003 24.0285C9.95429 23.9069 10.1447 23.7313 10.2839 23.5176L16.541 13.9122C17.6677 12.1825 18.1657 10.1182 17.9513 8.06511C17.737 6.01202 16.8235 4.095 15.3639 2.63536ZM15.1535 13.0083L8.99964 22.4552L2.84573 13.0083C0.962041 10.1165 1.36605 6.24671 3.80636 3.8063C4.48834 3.12429 5.29798 2.5833 6.18905 2.2142C7.08011 1.8451 8.03516 1.65513 8.99964 1.65513C9.96413 1.65513 10.9192 1.8451 11.8102 2.2142C12.7013 2.5833 13.5109 3.12429 14.1929 3.8063C16.6332 6.24671 17.0372 10.1165 15.1535 13.0083Z" fill="black"/>
</svg>
