<svg width="22" height="19" viewBox="0 0 22 19" fill="none" xmlns="http://www.w3.org/2000/svg">
    <path d="M21.1963 1.85175L14.3733 0L7.53042 1.87025L1.16687 0.118736C1.03051 0.081198 0.887037 0.0748531 0.747724 0.100199C0.60841 0.125546 0.477052 0.181893 0.363973 0.264813C0.250893 0.347734 0.159172 0.454968 0.0960179 0.57809C0.0328638 0.701211 -3.08682e-06 0.836865 2.17444e-10 0.974392V16.121C0.0006933 16.3531 0.0790478 16.5787 0.223276 16.7639C0.367504 16.9491 0.569805 17.0838 0.799746 17.1478L7.52886 19L14.3748 17.129L20.8365 18.8827C20.9727 18.9197 21.1159 18.9255 21.2549 18.8998C21.3939 18.8741 21.5248 18.8176 21.6375 18.7346C21.7502 18.6516 21.8415 18.5445 21.9044 18.4215C21.9673 18.2986 22 18.1632 22 18.0259V2.8796C21.9994 2.64679 21.9206 2.42052 21.7756 2.23506C21.6306 2.04959 21.4272 1.91503 21.1963 1.85175V1.85175ZM6.7375 17.3027L1.46667 15.8519V1.68045L6.7375 3.13125V17.3027ZM13.6407 15.8509L8.20417 17.3368V3.16452L13.6407 1.67867V15.8509ZM20.5333 17.3225L15.1074 15.8501V1.67685L20.5333 3.14931V17.3225Z" fill="black"/>
</svg>
