<svg width="14" height="22" viewBox="0 0 14 22" fill="none" xmlns="http://www.w3.org/2000/svg">
<path d="M12 0H2C0.9 0 0 0.9 0 2V20C0 21.1 0.9 22 2 22H12C13.1 22 14 21.1 14 20V2C14 0.9 13.1 0 12 0ZM12 18H2V4H12V18ZM6 15H8V17H6V15ZM4.52 9.19H4.65C4.98 9.19 5.24 8.96 5.35 8.65C5.59 7.96 6.26 7.44 7.01 7.44C7.94 7.44 8.76 8.26 8.76 9.19C8.76 10.51 7.27 10.74 6.53 12.01H6.52C6.44 12.15 6.38 12.3 6.32 12.46C6.31 12.48 6.3 12.49 6.3 12.51C6.29 12.53 6.29 12.55 6.29 12.56C6.19 12.87 6.13 13.22 6.13 13.64H7.89C7.89 13.39 7.93 13.17 8.01 12.97C8.55 11.5 10.78 11.11 10.49 8.79C10.3 7.24 9.06 5.95 7.51 5.75C5.74 5.52 4.22 6.53 3.7 8.05C3.5 8.61 3.93 9.19 4.52 9.19Z" fill="black"/>
</svg>
