<svg width="30" height="22" viewBox="0 0 30 22" fill="none" xmlns="http://www.w3.org/2000/svg">
<path d="M22.925 17.5757H1.34621C0.602595 17.5757 0 16.9731 0 16.2295V1.34621C0 0.602595 0.602595 0 1.34621 0H22.925C23.6686 0 24.2712 0.602595 24.2712 1.34621V16.2295C24.2712 16.9731 23.6686 17.5757 22.925 17.5757Z" fill="#F0C41B"/>
<rect y="2.09229" width="24.2712" height="3.34775" fill="#806F5E"/>
<path d="M6.27453 8.37014H2.50831C2.27732 8.37014 2.08984 8.18267 2.08984 7.95167C2.08984 7.72068 2.27732 7.5332 2.50831 7.5332H6.27453C6.50553 7.5332 6.693 7.72068 6.693 7.95167C6.693 8.18267 6.50553 8.37014 6.27453 8.37014Z" fill="#F9EAB0"/>
<path d="M11.7198 8.37014H7.95363C7.72263 8.37014 7.53516 8.18267 7.53516 7.95167C7.53516 7.72068 7.72263 7.5332 7.95363 7.5332H11.7198C11.9508 7.5332 12.1383 7.72068 12.1383 7.95167C12.1383 8.18267 11.9508 8.37014 11.7198 8.37014Z" fill="#F9EAB0"/>
<path d="M2.92678 10.46H2.50831C2.27732 10.46 2.08984 10.2725 2.08984 10.0415C2.08984 9.81052 2.27732 9.62305 2.50831 9.62305H2.92678C3.15778 9.62305 3.34525 9.81052 3.34525 10.0415C3.34525 10.2725 3.15778 10.46 2.92678 10.46Z" fill="#F9EAB0"/>
<path d="M5.439 10.46H4.60206C4.37107 10.46 4.18359 10.2725 4.18359 10.0415C4.18359 9.81052 4.37107 9.62305 4.60206 9.62305H5.439C5.67 9.62305 5.85747 9.81052 5.85747 10.0415C5.85747 10.2725 5.67 10.46 5.439 10.46Z" fill="#F9EAB0"/>
<path d="M7.53225 10.46H7.11378C6.88279 10.46 6.69531 10.2725 6.69531 10.0415C6.69531 9.81052 6.88279 9.62305 7.11378 9.62305H7.53225C7.76325 9.62305 7.95072 9.81052 7.95072 10.0415C7.95072 10.2725 7.76325 10.46 7.53225 10.46Z" fill="#F9EAB0"/>
<path d="M10.0445 10.46H9.20753C8.97654 10.46 8.78906 10.2725 8.78906 10.0415C8.78906 9.81052 8.97654 9.62305 9.20753 9.62305H10.0445C10.2755 9.62305 10.4629 9.81052 10.4629 10.0415C10.4629 10.2725 10.2755 10.46 10.0445 10.46Z" fill="#F9EAB0"/>
<path d="M11.7193 10.4621C11.6104 10.4621 11.5016 10.416 11.4221 10.3407C11.3468 10.2612 11.3008 10.1566 11.3008 10.0436C11.3008 9.93481 11.3468 9.82601 11.4221 9.7465C11.577 9.59166 11.8573 9.59166 12.0164 9.7465C12.0917 9.82601 12.1377 9.93481 12.1377 10.0436C12.1377 10.1524 12.0917 10.2612 12.0164 10.3407C11.9369 10.416 11.8281 10.4621 11.7193 10.4621Z" fill="#F9EAB0"/>
<path d="M19.2482 12.9737C19.2482 14.3605 18.1242 15.4845 16.7374 15.4845C15.3506 15.4845 14.2266 14.3605 14.2266 12.9737C14.2266 11.5869 15.3506 10.4629 16.7374 10.4629C18.1242 10.4629 19.2482 11.5869 19.2482 12.9737Z" fill="#DB2215"/>
<path d="M22.1779 12.9737C22.1779 14.3605 21.0539 15.4845 19.6671 15.4845C18.2803 15.4845 17.1562 14.3605 17.1562 12.9737C17.1562 11.5869 18.2803 10.4629 19.6671 10.4629C21.0539 10.4629 22.1779 11.5869 22.1779 12.9737Z" fill="#245EA9"/>
<path d="M3.51562 5.51514C3.51562 4.41057 4.41106 3.51514 5.51562 3.51514H28.0005C29.1051 3.51514 30.0005 4.41057 30.0005 5.51514V19.0908C30.0005 20.1954 29.1051 21.0908 28.0005 21.0908H5.51563C4.41106 21.0908 3.51562 20.1954 3.51562 19.0908V5.51514Z" fill="#32CC77"/>
<path d="M27.7098 15.1987V9.40647C26.1542 9.40647 24.8928 7.95175 24.8928 6.15771H8.6253C8.6253 7.95175 7.36419 9.40647 5.80859 9.40647V15.1987C7.36419 15.1987 8.6253 16.6531 8.6253 18.4472H24.8928C24.8928 16.6531 26.1539 15.1987 27.7098 15.1987Z" fill="#1FB25E"/>
<path d="M24.253 12.9313H22.5067C22.2052 12.9313 21.9609 12.6496 21.9609 12.3018C21.9609 11.9543 22.2052 11.6724 22.5067 11.6724H24.253C24.5543 11.6724 24.7988 11.9543 24.7988 12.3018C24.7988 12.6496 24.5543 12.9313 24.253 12.9313Z" fill="#32CC77"/>
<path d="M27.7091 6.78515C27.2291 6.78515 26.9835 6.08646 27.3315 5.70202C27.4894 5.52782 27.7306 5.47894 27.9303 5.5814C28.1468 5.69262 28.2807 5.96051 28.2503 6.23341C28.2158 6.54453 27.9824 6.78515 27.7091 6.78515Z" fill="#1FB25E"/>
<path d="M27.7092 19.0763C27.2197 19.0763 26.9771 18.351 27.3479 17.9756C27.5139 17.808 27.757 17.771 27.9543 17.8851C28.1651 18.0073 28.2868 18.2817 28.2474 18.5509C28.2034 18.8498 27.9728 19.0763 27.7092 19.0763Z" fill="#1FB25E"/>
</svg>
