<svg width="32" height="22" viewBox="0 0 32 22" fill="none" xmlns="http://www.w3.org/2000/svg">
<path d="M23.9132 18.3333H1.40425C0.628571 18.3333 0 17.7048 0 16.9291V1.40425C0 0.628571 0.628571 0 1.40425 0H23.9132C24.6889 0 25.3175 0.628571 25.3175 1.40425V16.9291C25.3175 17.7048 24.6889 18.3333 23.9132 18.3333Z" fill="#F0C41B"/>
<rect y="2.18164" width="25.3175" height="3.49206" fill="#806F5E"/>
<path d="M6.54477 8.73044H2.6162C2.37524 8.73044 2.17969 8.53488 2.17969 8.29393C2.17969 8.05298 2.37524 7.85742 2.6162 7.85742H6.54477C6.78572 7.85742 6.98127 8.05298 6.98127 8.29393C6.98127 8.53488 6.78572 8.73044 6.54477 8.73044Z" fill="#F9EAB0"/>
<path d="M12.2245 8.73044H8.29588C8.05493 8.73044 7.85938 8.53488 7.85938 8.29393C7.85938 8.05298 8.05493 7.85742 8.29588 7.85742H12.2245C12.4654 7.85742 12.661 8.05298 12.661 8.29393C12.661 8.53488 12.4654 8.73044 12.2245 8.73044Z" fill="#F9EAB0"/>
<path d="M3.0527 10.9101H2.6162C2.37524 10.9101 2.17969 10.7146 2.17969 10.4736C2.17969 10.2327 2.37524 10.0371 2.6162 10.0371H3.0527C3.29366 10.0371 3.48921 10.2327 3.48921 10.4736C3.48921 10.7146 3.29366 10.9101 3.0527 10.9101Z" fill="#F9EAB0"/>
<path d="M5.67476 10.9101H4.80174C4.56079 10.9101 4.36523 10.7146 4.36523 10.4736C4.36523 10.2327 4.56079 10.0371 4.80174 10.0371H5.67476C5.91571 10.0371 6.11127 10.2327 6.11127 10.4736C6.11127 10.7146 5.91571 10.9101 5.67476 10.9101Z" fill="#F9EAB0"/>
<path d="M7.85739 10.9101H7.42088C7.17993 10.9101 6.98438 10.7146 6.98438 10.4736C6.98438 10.2327 7.17993 10.0371 7.42088 10.0371H7.85739C8.09834 10.0371 8.2939 10.2327 8.2939 10.4736C8.2939 10.7146 8.09834 10.9101 7.85739 10.9101Z" fill="#F9EAB0"/>
<path d="M10.4736 10.9101H9.60057C9.35962 10.9101 9.16406 10.7146 9.16406 10.4736C9.16406 10.2327 9.35962 10.0371 9.60057 10.0371H10.4736C10.7145 10.0371 10.9101 10.2327 10.9101 10.4736C10.9101 10.7146 10.7145 10.9101 10.4736 10.9101Z" fill="#F9EAB0"/>
<path d="M12.2236 10.9125C12.1101 10.9125 11.9966 10.8645 11.9137 10.7859C11.8351 10.703 11.7871 10.5938 11.7871 10.476C11.7871 10.3625 11.8351 10.249 11.9137 10.1661C12.0752 10.0045 12.3677 10.0045 12.5335 10.1661C12.6121 10.249 12.6601 10.3625 12.6601 10.476C12.6601 10.5895 12.6121 10.703 12.5335 10.7859C12.4506 10.8645 12.3371 10.9125 12.2236 10.9125Z" fill="#F9EAB0"/>
<path d="M20.0779 13.5331C20.0779 14.9797 18.9055 16.1522 17.4589 16.1522C16.0123 16.1522 14.8398 14.9797 14.8398 13.5331C14.8398 12.0865 16.0123 10.9141 17.4589 10.9141C18.9055 10.9141 20.0779 12.0865 20.0779 13.5331Z" fill="#DB2215"/>
<path d="M23.1346 13.5331C23.1346 14.9797 21.9621 16.1522 20.5155 16.1522C19.0689 16.1522 17.8965 14.9797 17.8965 13.5331C17.8965 12.0865 19.0689 10.9141 20.5155 10.9141C21.9621 10.9141 23.1346 12.0865 23.1346 13.5331Z" fill="#245EA9"/>
<path d="M3.66602 5.66602C3.66602 4.56145 4.56145 3.66602 5.66602 3.66602H29.2926C30.3971 3.66602 31.2926 4.56145 31.2926 5.66602V19.9993C31.2926 21.1039 30.3971 21.9993 29.2926 21.9993H5.66602C4.56145 21.9993 3.66602 21.1039 3.66602 19.9993V5.66602Z" fill="#32CC77"/>
<path d="M28.9019 15.8526V9.81068C27.2793 9.81068 25.9635 8.29325 25.9635 6.42188H8.99477C8.99477 8.29325 7.6793 9.81068 6.05664 9.81068V15.8526C7.6793 15.8526 8.99477 17.3697 8.99477 19.2411H25.9635C25.9635 17.3697 27.279 15.8526 28.9019 15.8526Z" fill="#1FB25E"/>
<path d="M25.2991 13.487H23.4775C23.163 13.487 22.9082 13.1932 22.9082 12.8304C22.9082 12.468 23.163 12.1738 23.4775 12.1738H25.2991C25.6134 12.1738 25.8684 12.468 25.8684 12.8304C25.8684 13.1932 25.6134 13.487 25.2991 13.487Z" fill="#32CC77"/>
<path d="M28.9024 7.07664C28.4016 7.07664 28.1455 6.34783 28.5085 5.94682C28.6731 5.7651 28.9248 5.71412 29.1331 5.82099C29.3589 5.93701 29.4986 6.21644 29.4669 6.5011C29.4309 6.82564 29.1875 7.07664 28.9024 7.07664Z" fill="#1FB25E"/>
<path d="M28.9025 19.8971C28.3918 19.8971 28.1388 19.1405 28.5256 18.749C28.6987 18.5741 28.9524 18.5355 29.1581 18.6545C29.378 18.782 29.505 19.0683 29.4639 19.349C29.418 19.6608 29.1774 19.8971 28.9025 19.8971Z" fill="#1FB25E"/>
</svg>
