<svg width="155" height="185" viewBox="0 0 155 185" fill="none" xmlns="http://www.w3.org/2000/svg">
    <g filter="url(#filter0_d)">
        <path d="M144.161 124.41C144.161 150.145 123.077 171 97.0588 171C71.0408 171 49.957 150.145 49.957 124.41C49.957 98.675 71.0408 77.8203 97.0588 77.8203C123.077 77.8048 144.161 98.675 144.161 124.41Z" fill="#E9633D"/>
    </g>
    <path d="M116.823 140.284H79.3403C78.0006 140.284 76.8166 139.342 76.3959 137.955L75.5547 135.164H120.609L119.767 137.955C119.347 139.342 118.147 140.284 116.823 140.284Z" fill="#AE472A"/>
    <path d="M77.112 129.016H119.051C119.908 129.016 120.609 129.707 120.609 130.552C120.609 131.396 119.908 132.087 119.051 132.087H77.112C76.2555 132.087 75.5547 131.396 75.5547 130.552C75.5547 129.707 76.2555 129.016 77.112 129.016Z" fill="#AE472A"/>
    <path d="M119.588 129.019H77.6055V128.248C77.6055 116.788 87.0058 107.516 98.5887 107.516C110.172 107.516 119.572 116.804 119.572 128.248V129.019H119.588Z" fill="#AE472A"/>
    <path d="M116.747 126.97C116.354 126.97 116.024 126.668 115.977 126.287C114.829 117.639 107.519 111.165 98.872 111.149C98.4318 111.149 98.0859 110.8 98.0859 110.356C98.0859 109.912 98.4318 109.562 98.872 109.562C108.305 109.578 116.275 116.64 117.533 126.081C117.596 126.51 117.281 126.906 116.857 126.97H116.747Z" fill="#00ADEE"/>
    <path d="M115.481 143.353H81.7255C80.9975 143.353 80.3487 142.877 80.1588 142.186L79.6523 140.281H117.539L117.032 142.186C116.858 142.877 116.225 143.368 115.481 143.353Z" fill="#AE472A"/>
    <path d="M98.5979 108.538C98.3112 108.538 98.0859 108.215 98.0859 107.804V104.151C98.0859 103.741 98.3112 103.418 98.5979 103.418C98.8846 103.418 99.1099 103.741 99.1099 104.151V107.804C99.1099 108.215 98.8744 108.538 98.5979 108.538Z" fill="#AE472A"/>
    <path d="M95.5237 111.61C95.237 111.61 95.0117 111.16 95.0117 110.586C95.0117 110.013 95.237 109.562 95.5237 109.562C95.8104 109.562 96.0357 110.013 96.0357 110.586C96.0357 111.16 95.8104 111.61 95.5237 111.61Z" fill="#00ADEE"/>
    <path d="M105.253 100.348H91.9414V103.42H105.253V100.348Z" fill="#AE472A"/>
    <path d="M63.6317 80.2635C66.7421 80.2635 69.2635 77.7421 69.2635 74.6317C69.2635 71.5214 66.7421 69 63.6317 69C60.5214 69 58 71.5214 58 74.6317C58 77.7421 60.5214 80.2635 63.6317 80.2635Z" fill="#E9633D"/>
    <path d="M130.912 0H9.08818C4.08005 0 0 3.55638 0 7.92171V47.8356C0 52.2162 4.08005 55.7573 9.08818 55.7573H35.267C37.4034 59.4663 41.7811 62 46.8593 62C51.9375 62 56.3152 59.451 58.4515 55.7573H130.912C135.937 55.7573 140 52.2009 140 47.8356V7.92171C140 3.55638 135.92 0 130.912 0Z" fill="#E9633D"/>
    <g filter="url(#filter1_d)">
        <path d="M98.2182 18.8896C98.2182 19.3282 98.3285 19.701 98.6151 19.986C98.8797 20.3369 99.2545 20.4904 99.7175 20.4904C100.026 20.4904 100.269 20.3588 100.445 20.0957L100.313 19.7887C100.313 19.4817 100.511 19.3063 100.864 19.3063C101.415 19.3063 102.165 19.394 103.113 19.5694C102.892 21.2359 101.746 22.0692 99.6293 22.0692C98.7694 22.0692 97.9978 21.7622 97.2922 21.1044C96.5867 20.4465 96.2339 19.6132 96.2339 18.6045C96.2339 18.1002 96.4103 17.5081 96.7631 16.8942C97.1379 16.2363 97.645 15.7758 98.3505 15.4907C98.6813 15.5565 99.2104 15.5785 99.9159 15.5785C100.467 15.5785 101.062 15.4469 101.658 15.2276C102.209 14.9864 102.496 14.6355 102.496 14.1751C102.496 13.4514 101.812 13.0786 100.445 13.0786C99.7616 13.0786 99.1884 13.1225 98.7694 13.2541C98.549 12.969 98.4608 12.6401 98.4608 12.3112C98.4608 11.9384 98.6151 11.6752 98.8797 11.4779C99.2545 11.2147 99.6514 11.0832 100.158 11.0832C101.305 11.0832 102.033 11.2805 102.407 11.6752C103.223 11.6752 103.598 11.3682 103.598 10.7104C103.598 9.57013 102.297 9 99.6955 9C98.3064 9 97.182 9.30699 96.3442 9.94291C95.5284 10.5569 95.1535 11.3463 95.1535 12.355C95.1535 13.1006 95.4181 13.7146 95.9252 14.1751C93.4338 15.403 92.1771 17.2889 92.1771 19.8325C92.1771 21.0167 92.7062 22.1131 93.8086 23.1437C94.911 24.1524 96.3442 24.6787 98.108 24.6787C102.319 24.6787 104.634 23.0998 105.053 19.9641C105.318 20.008 105.56 20.0299 105.781 20.0299C106.795 20.0299 107.633 19.8106 108.25 19.3501C108.867 18.8896 109.154 18.2537 109.154 17.5081C109.154 16.8064 108.757 16.1705 107.964 15.6223L107.368 15.1838L107.5 14.9645L107.589 14.6575C107.567 14.4601 107.412 14.2628 107.126 14.1093C106.817 13.9338 106.42 13.8461 106.001 13.8461C105.693 13.8461 105.384 13.9119 105.141 14.0873C104.899 14.2628 104.767 14.482 104.767 14.7233C104.833 14.9864 105.207 15.2715 105.869 15.6442C106.486 15.9512 106.795 16.3021 106.795 16.631C106.795 17.1792 106.442 17.4643 105.737 17.4862C105.23 17.4862 104.37 17.4204 103.157 17.2889C101.944 17.1573 101.129 17.0915 100.71 17.0915C99.96 17.0915 99.3427 17.2669 98.8797 17.5739C98.4387 17.9248 98.2182 18.3633 98.2182 18.8896ZM80.4475 12.662C79.4774 12.662 78.8159 12.8374 78.4852 13.1444L78.5734 13.2979C78.7718 13.6707 78.86 14.1531 78.86 14.789C78.86 15.3372 78.8159 16.4994 78.7498 18.2098C78.6836 19.5913 78.6616 20.7535 78.6616 21.7403C78.6616 22.0034 78.6836 22.6393 78.7277 23.6042H82.8287C82.7405 22.3981 82.6743 21.4114 82.6743 20.6658C82.6743 17.245 83.2255 15.5127 84.328 15.5127C84.813 15.5127 85.1878 15.7758 85.4304 16.2802C85.8052 16.2802 86.202 16.0828 86.665 15.6662C87.128 15.2495 87.3706 14.789 87.3706 14.2847C87.3706 13.1883 86.7092 12.662 85.3863 12.662C84.2398 12.662 83.3799 13.2102 82.8728 14.3724H82.6964C82.6302 13.89 82.3436 13.4953 81.8806 13.1883C81.4837 12.8374 80.9987 12.662 80.4475 12.662ZM72.5984 23.977C74.2299 23.977 75.4867 23.5603 76.3906 22.749C77.3167 21.9157 77.7797 21.1263 77.7797 20.3588C77.7797 19.9422 77.5812 19.7448 77.1844 19.7448L76.8316 20.0518C76.1702 20.7097 75.3103 21.0167 74.274 21.0167C73.2819 21.0167 72.6645 20.5342 72.3999 19.5255C73.6346 19.2624 74.7811 18.8238 75.8394 18.2537C77.1182 17.5301 77.7356 16.6091 77.7356 15.5127C77.7356 13.583 76.5891 12.6401 74.274 12.6401C72.5322 12.6401 71.0991 13.3418 69.9305 14.7233C68.784 16.1047 68.1888 17.7055 68.1888 19.5255C68.1888 21.0605 68.5415 22.1569 69.225 22.8586C69.9305 23.6042 71.055 23.977 72.5984 23.977ZM74.2961 15.0522C74.8473 15.0522 75.1339 15.3372 75.1339 15.9293C75.1339 16.631 74.2079 17.1792 72.3779 17.552C72.6204 15.8855 73.2598 15.0522 74.2961 15.0522ZM61.442 20.0299C60.957 20.0299 60.7144 19.5913 60.7144 18.7142C60.7144 17.859 60.9129 17.0696 61.3097 16.2582C61.7066 15.4469 62.1917 15.0522 62.809 15.0522L63.1177 15.118C63.0736 18.4072 62.5444 20.0299 61.442 20.0299ZM62.8752 12.662C61.0893 12.662 59.568 13.3637 58.3774 14.7671C57.2088 16.1486 56.6135 17.8371 56.6135 19.8106C56.6135 21.3456 56.9883 22.4858 57.6939 23.1875C58.201 23.6919 58.8404 23.977 59.5679 23.9331C60.7144 23.9331 61.7066 23.1875 62.5224 21.6964H62.6326C62.8311 23.1656 63.713 23.9331 65.3005 23.9331C66.5351 23.9331 67.3509 23.1875 67.7037 21.6964C67.0422 21.6306 66.7336 21.1482 66.7336 20.293C66.7336 19.4378 66.7777 18.1221 66.8879 16.3679C66.9761 14.5917 67.0423 13.276 67.0423 12.4866C67.0423 11.3902 66.8879 10.6227 66.6233 10.206C66.3588 9.78941 65.6973 9.57013 64.6611 9.57013C63.6468 9.57013 63.0074 9.74556 62.7208 10.0526L62.809 10.1622C63.0074 10.4692 63.0956 10.9735 63.0956 11.6752V12.6401H62.8752V12.662ZM49.2935 12.662C48.3234 12.662 47.662 12.8374 47.3313 13.1444L47.4195 13.2979C47.6179 13.6707 47.7061 14.1531 47.7061 14.789C47.7061 15.3372 47.662 16.4994 47.5958 18.2098C47.5297 19.5913 47.5076 20.7535 47.5076 21.7403C47.5076 22.0034 47.5297 22.6393 47.5738 23.6042H51.6747C51.5865 22.3981 51.5204 21.4114 51.5204 20.6658C51.5204 17.245 52.0716 15.5127 53.174 15.5127C53.6591 15.5127 54.0339 15.7758 54.2764 16.2802C54.6512 16.2802 55.0481 16.0828 55.5111 15.6662C55.9741 15.2495 56.2166 14.789 56.2166 14.2847C56.2166 13.1883 55.5552 12.662 54.2323 12.662C53.0858 12.662 52.2259 13.2102 51.7188 14.3724H51.5424C51.4763 13.89 51.1897 13.4953 50.7267 13.1883C50.3298 12.8374 49.8447 12.662 49.2935 12.662ZM39.6806 21.2579C38.2474 21.2579 37.5419 19.679 37.5419 16.5214C37.5419 14.9206 37.7624 13.6707 38.2034 12.7716C38.6223 11.9164 39.1955 11.4998 39.9672 11.4998C41.4003 11.4998 42.15 13.0348 42.15 16.0609C42.15 17.6836 41.9295 18.9554 41.5106 19.8545C41.0696 20.7754 40.4743 21.2579 39.6806 21.2579ZM40.0333 9.02193C38.512 9.02193 37.1891 9.41664 36.0426 10.1622C34.9843 10.8639 34.2126 11.7849 33.7055 12.9909C33.2425 14.1531 33 15.425 33 16.7626C33 19.1089 33.5292 20.907 34.6316 22.1569C35.7119 23.363 37.2553 23.977 39.2617 23.977C41.5767 23.977 43.3626 23.1656 44.6634 21.5868C45.8099 20.1834 46.3832 18.4072 46.3832 16.2582C46.3832 13.9558 45.832 12.1577 44.6634 10.8858C43.561 9.65785 42.0177 9.02193 40.0333 9.02193Z" fill="white"/>
    </g>
    <g filter="url(#filter2_d)">
        <path d="M125.403 43.0771C125.798 43.4512 126.258 43.6273 126.807 43.6273C127.355 43.6273 127.838 43.4292 128.188 43.0771C128.561 42.6809 128.737 42.2188 128.737 41.6686C128.737 41.1183 128.539 40.6562 128.188 40.282C127.816 39.9079 127.355 39.7318 126.807 39.7318C126.258 39.7318 125.798 39.9299 125.403 40.282C125.03 40.6562 124.855 41.1183 124.855 41.6686C124.855 42.2188 125.03 42.6809 125.403 43.0771ZM127.531 38.6094C128.517 34.736 129 31.5448 129 29.0138H124.789L125.908 38.6094H127.531ZM113.011 34.78C113.011 35.7043 112.989 36.8928 112.924 38.3453C112.858 39.7758 112.836 40.9203 112.836 41.7566C112.836 42.4609 112.858 43.0991 112.924 43.6273H116.981C116.915 43.0991 116.893 42.5049 116.893 41.8886C116.893 40.4141 117.025 39.1156 117.266 37.9051C117.507 36.7167 117.924 36.1225 118.472 36.1225C118.845 36.1225 119.021 36.4746 119.021 37.1569C119.021 37.619 118.977 38.2793 118.867 39.1596C118.78 40.0179 118.714 40.5681 118.714 40.8983C118.714 42.945 119.591 43.9794 121.368 43.9794C122.311 43.9794 123.012 43.4952 123.451 42.5049C123.605 42.1968 123.692 41.9106 123.714 41.7346C123.078 41.7346 122.771 41.1404 122.771 39.9959C122.771 39.5338 122.793 38.8295 122.837 37.9051C122.903 37.0688 122.925 36.4526 122.925 36.0344C122.925 35.1981 122.749 34.4939 122.42 33.9216C121.916 33.0853 121.082 32.6672 119.942 32.6672C118.604 32.6672 117.617 33.2174 117.003 34.3838H116.828C116.696 33.2394 115.928 32.6672 114.547 32.6672C113.582 32.6672 112.924 32.8432 112.595 33.1514L112.682 33.3054C112.902 33.5695 113.011 34.0757 113.011 34.78ZM106.804 32.6672C104.962 32.6672 103.493 33.2614 102.462 34.4058C101.453 35.5503 100.927 36.9148 100.927 38.5214C100.927 40.304 101.387 41.6686 102.286 42.6149C103.164 43.5393 104.414 44.0014 106.059 44.0014C107.923 44.0014 109.349 43.4512 110.314 42.3288C111.301 41.1844 111.805 39.8199 111.805 38.1913C111.805 36.4086 111.344 35.0441 110.445 34.0977C109.546 33.1294 108.318 32.6672 106.804 32.6672ZM106.256 41.2724C105.357 41.2724 104.896 40.4141 104.896 38.7415C104.896 36.3866 105.489 35.1981 106.629 35.1981C107.528 35.1981 107.989 36.0565 107.989 37.7291C107.989 40.084 107.397 41.2724 106.256 41.2724ZM96.2331 30.9065C96.6279 31.2146 97.0885 31.3907 97.6368 31.3907C98.1851 31.3907 98.6457 31.2146 99.0405 30.9065C99.4353 30.5984 99.6326 30.1802 99.6326 29.7181C99.6326 29.2559 99.4353 28.8377 99.0405 28.5296C98.6457 28.1775 98.1851 28.0234 97.6368 28.0234C97.0885 28.0234 96.606 28.1995 96.2331 28.5296C95.8603 28.8377 95.6848 29.2559 95.6848 29.7181C95.6629 30.1802 95.8603 30.5764 96.2331 30.9065ZM95.7725 34.78C95.7725 35.7483 95.7287 36.8928 95.619 38.2133C95.5313 39.5117 95.4655 40.4361 95.4655 40.9863C95.4655 41.5365 95.5094 42.0427 95.641 42.4829C95.7287 42.791 95.8603 43.0771 96.0357 43.2311C96.4963 43.7373 97.1762 43.9794 98.0535 43.9794C99.3036 43.9794 100.093 43.2311 100.444 41.7346C99.8081 41.7126 99.5011 41.1183 99.5011 39.9739C99.5011 39.2476 99.523 38.3673 99.5888 37.3329C99.6546 36.0344 99.7204 35.1541 99.7204 34.7139C99.7204 33.3274 98.9089 32.6232 97.3297 32.6232C96.3647 32.6232 95.7067 32.7992 95.3778 33.1073L95.4655 33.2614C95.6629 33.5695 95.7725 34.0757 95.7725 34.78ZM87.1312 35.3302C87.8769 35.3302 88.2498 35.6163 88.2498 36.1885C88.2498 36.4966 88.2059 37.1789 88.1401 38.1913C88.0743 39.2036 88.0085 39.9519 88.0085 40.4141C88.0085 41.0963 88.162 41.8006 88.4691 42.5489C88.9077 43.4952 89.7631 43.9794 91.0352 43.9794C93.2065 43.9794 94.2592 43.3412 94.2592 42.0427C94.2592 41.6025 94.1715 41.2284 93.996 40.9643L93.7986 41.0303C93.4916 41.1844 93.1407 41.2504 92.7897 41.2504C92.3292 41.2504 92.0879 40.7882 92.0879 39.8639C92.0879 38.8075 92.1098 37.8831 92.1537 37.0468L92.2195 35.7924C92.2853 35.8144 92.4388 35.8144 92.6801 35.8144C93.9302 35.8144 94.5224 35.0881 94.5224 33.5915L94.5005 33.2174C94.3689 33.2614 93.6451 33.2834 92.2853 33.2834C92.3073 32.7992 92.3511 32.0289 92.373 31.0386C90.772 31.0386 89.7631 31.3467 89.3903 32.0069C88.8858 32.8653 88.6226 33.2834 88.5568 33.3054C87.5479 33.8116 87.0216 34.3398 87.0216 34.846L87.1312 35.3302ZM79.3233 40.3701C79.3233 39.3137 80.2006 38.6534 81.9333 38.4113L81.8894 39.0716C81.8455 39.5778 81.6701 40.0179 81.4069 40.3921C81.0998 40.8322 80.6831 41.0523 80.2006 41.0523C79.6084 41.0523 79.3233 40.8322 79.3233 40.3701ZM86.3417 41.7786C85.8811 41.7786 85.6618 41.2284 85.6618 40.062V36.9588C85.6618 35.5943 85.3108 34.5159 84.6748 33.7676C84.0388 33.0193 82.8106 32.6452 81.0121 32.6452C79.8716 32.6452 78.9505 32.8212 78.1828 33.1514C77.4371 33.5255 77.0424 33.9877 77.0424 34.5379C77.0424 35.2421 77.3055 35.7263 77.8539 36.0124C78.5776 35.4182 79.4768 35.1321 80.5296 35.1321C80.9024 35.1321 81.2095 35.2642 81.4727 35.5062C81.7359 35.7263 81.8894 36.0124 81.9113 36.3426C79.2356 36.8267 77.481 37.531 76.6695 38.4554C76.0554 39.1596 75.7483 39.9739 75.7483 40.8102C75.7483 41.7566 76.0993 42.5269 76.8011 43.0771C77.5029 43.6933 78.468 43.9794 79.6962 43.9794C80.5954 43.9794 81.363 43.5833 82.021 42.791C82.328 43.6053 83.0957 43.9794 84.302 43.9794C85.1134 43.9574 85.7056 43.6713 86.1443 43.0771C86.4732 42.6149 86.6268 42.1747 86.5829 41.7566H86.3417V41.7786ZM66.1639 34.78C66.1639 35.2421 66.1201 36.2985 66.0543 37.8831C65.9885 39.1816 65.9665 40.084 65.9665 40.6122C65.9665 41.6686 66.2297 42.4609 66.7342 43.0771C67.2386 43.6933 68.0062 44.0014 68.9493 44.0014C69.9582 44.0014 70.989 43.5613 72.0418 42.6809C73.0945 41.8006 73.928 40.7002 74.5859 39.3797C75.2439 38.0152 75.5729 36.7167 75.5729 35.5062C75.5729 33.6135 74.893 32.6452 73.5551 32.6452C72.2611 32.6452 71.6031 33.2834 71.6031 34.5159L71.7347 34.5379C71.9541 34.5379 72.1515 34.6919 72.3708 35.0001C72.634 35.4182 72.7875 35.9904 72.7875 36.7167C72.7875 37.531 72.5243 38.3453 72.0199 39.2036C71.5154 40.062 70.9452 40.5021 70.3749 40.5021C70.0021 40.5021 69.8486 40.15 69.8486 39.4897C69.8486 39.1156 69.8924 38.4113 70.024 37.3329C70.1556 36.2545 70.1995 35.4622 70.1995 34.912C70.1995 34.2738 70.0679 33.7676 69.8486 33.3935C69.5634 32.8873 68.8616 32.6452 67.7211 32.6452C66.7561 32.6452 66.1201 32.8212 65.8349 33.1294L65.9227 33.2834C66.0762 33.6135 66.1639 34.0977 66.1639 34.78ZM58.2464 32.6672C57.2813 32.6672 56.6234 32.8432 56.2944 33.1514L56.3821 33.3054C56.5795 33.6796 56.6672 34.1637 56.6672 34.802C56.6672 35.3522 56.6234 36.5186 56.5576 38.2353C56.4918 39.6218 56.4698 40.7882 56.4698 41.7786C56.4698 42.0427 56.4918 42.6809 56.5356 43.6493H60.6151C60.5273 42.4388 60.4615 41.4485 60.4615 40.7002C60.4615 37.2669 61.0098 35.5283 62.1065 35.5283C62.589 35.5283 62.9618 35.7924 63.2031 36.2985C63.5759 36.2985 63.9707 36.1005 64.4313 35.6823C64.8918 35.2642 65.1331 34.802 65.1331 34.2958C65.1331 33.1954 64.4751 32.6672 63.1592 32.6672C62.0187 32.6672 61.1634 33.2174 60.6589 34.3838H60.4835C60.4177 33.8996 60.1325 33.5035 59.672 33.1954C59.2772 32.8212 58.7727 32.6672 58.2464 32.6672ZM50.4385 44.0014C52.0615 44.0014 53.3116 43.5833 54.2108 42.769C55.132 41.9327 55.5926 41.1404 55.5926 40.3701C55.5926 39.9519 55.3952 39.7538 55.0004 39.7538L54.6495 40.062C53.9915 40.7222 53.1361 41.0303 52.1053 41.0303C51.1184 41.0303 50.5043 40.5461 50.2411 39.5338C51.4693 39.2697 52.6098 38.8295 53.6625 38.2573C54.9346 37.531 55.5487 36.6067 55.5487 35.5062C55.5487 33.5695 54.4082 32.6232 52.1053 32.6232C50.3727 32.6232 48.9471 33.3274 47.7846 34.7139C46.6442 36.1005 46.052 37.7071 46.052 39.5338C46.052 41.0743 46.4029 42.1747 47.0828 42.879C47.7847 43.6273 48.9032 44.0014 50.4385 44.0014ZM52.1272 35.0441C52.6756 35.0441 52.9607 35.3302 52.9607 35.9244C52.9607 36.6287 52.0395 37.1789 50.2191 37.553C50.4604 35.8804 51.0964 35.0441 52.1272 35.0441ZM39.7574 35.5943C39.7794 35.2201 40.1303 35.0661 40.7663 35.0661C41.6217 35.0661 42.499 35.3302 43.4201 35.9024L43.5298 35.9904C43.9026 35.9904 44.2535 35.8364 44.5825 35.5283C44.8457 35.2862 44.9773 34.978 44.9773 34.5599C44.9773 33.8996 44.4729 33.3935 43.442 33.0413C42.7183 32.7992 41.9068 32.6672 41.0076 32.6672C38.0248 32.6672 36.5334 33.6576 36.5334 35.6603C36.5334 36.5186 36.7966 37.2449 37.3449 37.8391C37.8712 38.3893 38.4634 38.7855 39.0995 39.0056C40.8102 39.5117 41.6436 39.9739 41.6436 40.3481C41.6436 40.8102 41.2708 41.0303 40.547 41.0303C39.5381 41.0303 38.6169 40.7222 37.8493 40.062L37.4984 39.7758C37.4326 39.7538 37.301 39.7538 37.0817 39.7538C36.0289 39.7538 35.5026 40.26 35.5026 41.2944C35.5026 42.0427 35.9631 42.7029 36.8843 43.2531C37.8274 43.7593 38.9021 44.0234 40.0864 44.0234C43.6394 44.0234 45.416 42.813 45.416 40.3481C45.4379 38.8515 44.4948 37.7291 42.5648 37.0028L40.5909 36.3426C40.0645 36.1005 39.7574 35.8584 39.7574 35.5943ZM30.1511 44.0014C31.7741 44.0014 33.0242 43.5833 33.9234 42.769C34.8446 41.9327 35.3052 41.1404 35.3052 40.3701C35.3052 39.9519 35.1078 39.7538 34.713 39.7538L34.3621 40.062C33.7041 40.7222 32.8487 41.0303 31.8179 41.0303C30.831 41.0303 30.2169 40.5461 29.9537 39.5338C31.1819 39.2697 32.3224 38.8295 33.3751 38.2573C34.6472 37.531 35.2613 36.6067 35.2613 35.5062C35.2613 33.5695 34.1208 32.6232 31.8179 32.6232C30.0853 32.6232 28.6597 33.3274 27.4973 34.7139C26.3568 36.1005 25.7646 37.7071 25.7646 39.5338C25.7646 41.0743 26.1155 42.1747 26.7954 42.879C27.4973 43.6273 28.6158 44.0014 30.1511 44.0014ZM31.8399 35.0441C32.3882 35.0441 32.6733 35.3302 32.6733 35.9244C32.6733 36.6287 31.7521 37.1789 29.9317 37.553C30.173 35.8804 30.809 35.0441 31.8399 35.0441ZM20.1938 33.2174C20.1938 34.89 19.3165 35.7483 17.54 35.7483L17.7374 31.6328C19.3604 31.6328 20.1938 32.161 20.1938 33.2174ZM17.5181 43.6273C17.4961 43.2311 17.4742 42.6149 17.4742 41.6906C17.4742 40.282 17.4961 39.1596 17.54 38.3233H18.2199C18.7024 40.4801 19.4042 41.9767 20.3254 42.857C21.1808 43.6053 22.2774 43.9794 23.6152 43.9794C24.4706 43.9794 25.1505 43.7373 25.633 43.2311C26.0497 42.813 26.269 42.2848 26.269 41.6245C26.269 41.3164 26.1375 41.0083 25.9181 40.7442C25.1505 40.7442 24.4048 40.5681 23.7468 40.238C22.9134 39.8199 22.2554 38.8295 21.7729 37.2449C23.3082 36.4306 24.0758 35.0441 24.0758 33.1073C24.0758 31.5888 23.3301 30.5324 21.7949 29.8721C20.5009 29.3219 19.141 29.0138 17.7374 29.0138C15.0397 29.0138 13.4606 29.1679 13 29.432L13.0877 29.608C13.2851 29.9161 13.3728 30.4443 13.3728 31.1486C13.3728 31.6768 13.3071 33.4815 13.1755 36.5847C13.0439 39.2917 13 41.2504 13 42.3948C13 43.0111 13.0219 43.4512 13.0439 43.6713H17.5181V43.6273Z" fill="white"/>
    </g>
    <path d="M115.803 140.284H78.3208C76.981 140.284 75.797 139.342 75.3764 137.955L74.5352 135.164H119.589L118.748 137.955C118.327 139.342 117.143 140.284 115.803 140.284Z" fill="white"/>
    <path d="M76.0925 129.016H118.032C118.888 129.016 119.589 129.707 119.589 130.552C119.589 131.396 118.888 132.087 118.032 132.087H76.0925C75.236 132.087 74.5352 131.396 74.5352 130.552C74.5352 129.707 75.2204 129.016 76.0925 129.016Z" fill="#AE472A"/>
    <path d="M113.489 143.353H80.646C79.9377 143.353 79.3064 142.877 79.1216 142.186L78.6289 140.281H115.491L114.998 142.186C114.814 142.877 114.198 143.368 113.489 143.353Z" fill="#AE472A"/>
    <path d="M97.0591 108.538C96.4857 108.538 96.0352 108.215 96.0352 107.804V104.151C96.0352 103.741 96.4857 103.418 97.0591 103.418C97.6325 103.418 98.0831 103.741 98.0831 104.151V107.804C98.0831 108.215 97.6325 108.538 97.0591 108.538Z" fill="#AE472A"/>
    <path d="M103.201 100.348H90.9141V103.42H103.201V100.348Z" fill="white"/>
    <path d="M117.537 129.019H75.5547V128.248C75.5547 116.788 84.9551 107.516 96.5379 107.516C108.121 107.516 117.521 116.804 117.521 128.248V129.019H117.537Z" fill="white"/>
    <defs>
        <filter id="filter0_d" x="39.957" y="71.8203" width="114.204" height="113.18" filterUnits="userSpaceOnUse" color-interpolation-filters="sRGB">
            <feFlood flood-opacity="0" result="BackgroundImageFix"/>
            <feColorMatrix in="SourceAlpha" type="matrix" values="0 0 0 0 0 0 0 0 0 0 0 0 0 0 0 0 0 0 127 0"/>
            <feOffset dy="4"/>
            <feGaussianBlur stdDeviation="5"/>
            <feColorMatrix type="matrix" values="0 0 0 0 0 0 0 0 0 0 0 0 0 0 0 0 0 0 0.32 0"/>
            <feBlend mode="normal" in2="BackgroundImageFix" result="effect1_dropShadow"/>
            <feBlend mode="normal" in="SourceGraphic" in2="effect1_dropShadow" result="shape"/>
        </filter>
        <filter id="filter1_d" x="33" y="9" width="76.6541" height="16.6787" filterUnits="userSpaceOnUse" color-interpolation-filters="sRGB">
            <feFlood flood-opacity="0" result="BackgroundImageFix"/>
            <feColorMatrix in="SourceAlpha" type="matrix" values="0 0 0 0 0 0 0 0 0 0 0 0 0 0 0 0 0 0 127 0"/>
            <feOffset dx="0.5" dy="1"/>
            <feColorMatrix type="matrix" values="0 0 0 0 0.682353 0 0 0 0 0.278431 0 0 0 0 0.164706 0 0 0 1 0"/>
            <feBlend mode="normal" in2="BackgroundImageFix" result="effect1_dropShadow"/>
            <feBlend mode="normal" in="SourceGraphic" in2="effect1_dropShadow" result="shape"/>
        </filter>
        <filter id="filter2_d" x="13" y="28.0234" width="116.5" height="17" filterUnits="userSpaceOnUse" color-interpolation-filters="sRGB">
            <feFlood flood-opacity="0" result="BackgroundImageFix"/>
            <feColorMatrix in="SourceAlpha" type="matrix" values="0 0 0 0 0 0 0 0 0 0 0 0 0 0 0 0 0 0 127 0"/>
            <feOffset dx="0.5" dy="1"/>
            <feColorMatrix type="matrix" values="0 0 0 0 0.682353 0 0 0 0 0.278431 0 0 0 0 0.164706 0 0 0 1 0"/>
            <feBlend mode="normal" in2="BackgroundImageFix" result="effect1_dropShadow"/>
            <feBlend mode="normal" in="SourceGraphic" in2="effect1_dropShadow" result="shape"/>
        </filter>
    </defs>
</svg>
