<svg width="49" height="46" viewBox="0 0 49 46" fill="none" xmlns="http://www.w3.org/2000/svg">
    <path d="M29.1565 40.6777L28.4683 39.0448C28.3247 38.9842 28.177 38.9128 28.0233 38.8331C27.6678 38.6496 27.2895 38.4221 27.1003 38.2926C26.7431 38.0485 26.5303 37.6476 26.5303 37.22V34.6216C26.5303 34.1941 26.7431 33.7931 27.1003 33.549C27.2903 33.4195 27.6678 33.192 28.0233 33.0086C28.177 32.9289 28.3247 32.8575 28.4683 32.7969L29.1565 31.1639C29.0991 31.0211 29.0459 30.8675 28.9944 30.7048C28.8753 30.3279 28.7714 29.9045 28.7301 29.6812C28.6532 29.2603 28.7909 28.8286 29.0982 28.5264L30.967 26.6893C31.2743 26.3871 31.7134 26.2518 32.1416 26.3273C32.3687 26.3672 32.8002 26.4693 33.1828 26.5872C33.3483 26.6378 33.5045 26.6901 33.6497 26.7466L35.3107 26.07C35.3724 25.9288 35.445 25.7836 35.526 25.6325C35.7127 25.283 35.944 24.911 36.0758 24.7251C36.324 24.3739 36.7319 24.1647 37.1668 24.1647H39.8098C40.2447 24.1647 40.6526 24.3739 40.9009 24.7251C41.0326 24.9119 41.264 25.283 41.4506 25.6325C41.5316 25.7836 41.6043 25.9288 41.6659 26.07L41.8829 26.158V14.5447C41.8838 6.50857 35.2634 0 27.0893 0H14.7944C6.62034 0 0 6.50857 0 14.5447V26.632C0 34.6681 6.62034 41.1766 14.7944 41.1766H27.0893C27.7446 41.1766 28.3898 41.1343 29.0222 41.053C29.0653 40.9218 29.1092 40.7956 29.1565 40.6777Z" fill="#00A6F9"/>
    <path d="M29.1658 40.6686L28.4776 39.0356C28.334 38.975 28.1863 38.9036 28.0326 38.8239C27.6771 38.6405 27.2988 38.413 27.1096 38.2835C26.7524 38.0394 26.5396 37.6384 26.5396 37.2109V34.6125C26.5396 34.1849 26.7524 33.7839 27.1096 33.5399C27.2996 33.4104 27.6771 33.1829 28.0326 32.9994C28.1863 32.9197 28.334 32.8483 28.4776 32.7877L29.1658 31.1548C29.1084 31.012 29.0552 30.8584 29.0037 30.6957C28.8846 30.3188 28.7807 29.8954 28.7394 29.6721C28.6625 29.2512 28.8002 28.8195 29.1075 28.5173L30.9763 26.6801C31.2836 26.378 31.7227 26.2426 32.1509 26.3182C32.378 26.358 32.8095 26.4601 33.192 26.578C33.3576 26.6287 33.5138 26.681 33.659 26.7374L35.32 26.0608C35.3817 25.9197 35.4543 25.7744 35.5353 25.6233C35.722 25.2738 35.9533 24.9019 36.0851 24.7159C36.3333 24.3648 36.7412 24.1556 37.1761 24.1556H39.8191C40.254 24.1556 40.6619 24.3648 40.9101 24.7159C41.0419 24.9027 41.2732 25.2738 41.4599 25.6233C41.5409 25.7744 41.6136 25.9197 41.6752 26.0608L41.8829 26.1455V14.5447C41.8838 6.50857 35.2634 0 27.0893 0H14.7944C6.62034 0 0 6.50857 0 14.5447L27.0893 41.1766C27.7463 41.1766 28.394 41.1343 29.0282 41.0521C29.0721 40.9176 29.1168 40.789 29.1658 40.6686Z" fill="#0097F4"/>
    <path d="M14.1193 14.7776H27.7653C28.3057 14.7776 28.7786 14.3127 28.7786 13.7814C28.7786 13.2501 28.3057 12.7852 27.7653 12.7852H14.1193C13.5788 12.7852 13.106 13.2501 13.106 13.7814C13.1735 14.3127 13.5788 14.7776 14.1193 14.7776Z" fill="#008BF2"/>
    <path d="M27.7653 19.4258H14.1193C13.5788 19.4258 13.106 19.8907 13.106 20.422C13.106 20.9533 13.5788 21.4182 14.1193 21.4182H27.7653C28.3057 21.4182 28.7786 20.9533 28.7786 20.422C28.7786 19.8907 28.3057 19.4258 27.7653 19.4258Z" fill="#008BF2"/>
    <path d="M27.7653 26.7305H14.1193C13.5788 26.7305 13.106 27.1954 13.106 27.7267C13.106 28.258 13.5788 28.7229 14.1193 28.7229H27.7653C28.3057 28.7229 28.7786 28.258 28.7786 27.7267C28.711 27.1954 28.3057 26.7305 27.7653 26.7305Z" fill="#008BF2"/>
    <path d="M48.2702 33.8777C48.1072 33.7665 47.7829 33.5714 47.4781 33.4137C47.3464 33.3456 47.2197 33.2842 47.0964 33.2319L46.5062 31.8305C46.556 31.7077 46.6016 31.5765 46.6455 31.4362C46.7477 31.1133 46.8372 30.7496 46.8718 30.5579C46.9377 30.1967 46.8195 29.8265 46.556 29.5666L44.9524 27.9901C44.6881 27.7303 44.3123 27.6149 43.9442 27.6797C43.7491 27.7145 43.3792 27.8017 43.0508 27.9021C42.9089 27.9453 42.7746 27.9901 42.6497 28.0391L41.2243 27.4588C41.1711 27.3376 41.1086 27.2131 41.0393 27.0836C40.8789 26.7839 40.6804 26.4643 40.5673 26.3049C40.3545 26.0035 40.0049 25.8242 39.6308 25.8242H37.3627C36.9894 25.8242 36.6398 26.0035 36.4262 26.3049C36.313 26.4651 36.1146 26.7839 35.9542 27.0836C35.8849 27.2131 35.8224 27.3376 35.7692 27.4588L34.3438 28.0391C34.2189 27.9901 34.0854 27.9453 33.9427 27.9021C33.6142 27.8017 33.2444 27.7137 33.0493 27.6797C32.682 27.6149 32.3054 27.7311 32.0411 27.9901L30.4375 29.5666C30.1732 29.8265 30.0558 30.1959 30.1217 30.5579C30.1571 30.7496 30.2458 31.1133 30.348 31.4362C30.3919 31.5757 30.4375 31.7077 30.4873 31.8305L29.8971 33.2319C29.7738 33.2842 29.6471 33.3456 29.5154 33.4137C29.2105 33.5714 28.8854 33.7665 28.7233 33.8777C28.4168 34.087 28.2344 34.4306 28.2344 34.7984V37.0283C28.2344 37.3952 28.4168 37.7389 28.7233 37.9489C28.8863 38.0602 29.2105 38.2553 29.5154 38.413C29.6471 38.4811 29.7738 38.5425 29.8971 38.5948L30.4873 39.9961C30.4375 40.119 30.3919 40.2502 30.348 40.3905C30.2458 40.7134 30.1563 41.077 30.1217 41.2688C30.0558 41.6299 30.174 42.0002 30.4375 42.26L32.0436 43.834C32.3079 44.0939 32.6837 44.2093 33.0519 44.1445C33.2469 44.1097 33.6168 44.0225 33.9453 43.922C34.0871 43.8789 34.2214 43.834 34.3464 43.7851L35.7718 44.3653C35.825 44.4866 35.8875 44.6111 35.9567 44.7406C36.1171 45.0403 36.3156 45.3599 36.4287 45.5193C36.6415 45.8206 36.9911 46 37.3652 46H39.6333C40.0066 46 40.3562 45.8206 40.5698 45.5193C40.683 45.3591 40.8814 45.0403 41.0419 44.7406C41.1111 44.6111 41.1736 44.4866 41.2268 44.3653L42.6522 43.7851C42.7772 43.834 42.9106 43.8789 43.0533 43.922C43.3818 44.0225 43.7516 44.1105 43.9467 44.1445C44.314 44.2093 44.6906 44.093 44.9549 43.834L46.5585 42.2575C46.8228 41.9977 46.9402 41.6283 46.8743 41.2663C46.8389 41.0745 46.7502 40.7109 46.648 40.388C46.6041 40.2485 46.5585 40.1165 46.5087 39.9936L47.099 38.5923C47.2222 38.54 47.3489 38.4786 47.4806 38.4105C47.7855 38.2528 48.1106 38.0577 48.2727 37.9464C48.5792 37.7372 48.7616 37.3935 48.7616 37.0258V34.7959C48.76 34.4306 48.5767 34.087 48.2702 33.8777ZM38.4984 40.3963C35.9837 40.3963 33.9377 38.3848 33.9377 35.9125C33.9377 33.4402 35.9837 31.4287 38.4984 31.4287C41.0131 31.4287 43.0592 33.4402 43.0592 35.9125C43.0592 38.3848 41.0131 40.3963 38.4984 40.3963Z" fill="#A4B0BE"/>
    <path d="M29.1662 40.6687L28.478 39.0358C28.3344 38.9752 28.1867 38.9038 28.033 38.8241C27.6775 38.6406 27.2992 38.4131 27.11 38.2836C27.1032 38.2787 27.0965 38.2737 27.0906 38.2695V41.1768C27.7475 41.1768 28.3952 41.1345 29.0294 41.0523C29.0725 40.9178 29.1172 40.7891 29.1662 40.6687Z" fill="#008BF2"/>
    <path d="M27.1093 33.5399C27.2993 33.4104 27.6767 33.1829 28.0322 32.9994C28.1859 32.9197 28.3337 32.8483 28.4772 32.7877L29.1655 31.1548C29.108 31.012 29.0548 30.8584 29.0033 30.6957C28.8843 30.3188 28.7804 29.8954 28.739 29.6721C28.6622 29.2512 28.7998 28.8195 29.1072 28.5173L30.9759 26.6801C31.2833 26.378 31.7224 26.2426 32.1505 26.3182C32.3777 26.358 32.8092 26.4601 33.1917 26.578C33.3572 26.6287 33.5134 26.681 33.6587 26.7374L35.3197 26.0608C35.3813 25.9197 35.4539 25.7744 35.535 25.6233C35.7216 25.2738 35.953 24.9019 36.0847 24.7159C36.333 24.3648 36.7408 24.1556 37.1757 24.1556H39.8188C40.2537 24.1556 40.6615 24.3648 40.9098 24.7159C41.0415 24.9027 41.2729 25.2738 41.4595 25.6233C41.5406 25.7744 41.6132 25.9197 41.6749 26.0608L41.8826 26.1455V14.5447C41.8843 6.50857 35.2639 0 27.0898 0V33.554C27.0966 33.5498 27.1025 33.5449 27.1093 33.5399Z" fill="#008BF2"/>
    <path d="M14.1207 14.1955H27.7667C28.3072 14.1955 28.7801 13.7306 28.7801 13.1993C28.7801 12.668 28.3072 12.2031 27.7667 12.2031H14.1207C13.5803 12.2031 13.1074 12.668 13.1074 13.1993C13.175 13.7306 13.5803 14.1955 14.1207 14.1955Z" fill="white"/>
    <path d="M14.1193 20.8362H27.7653C28.3057 20.8362 28.7786 20.3713 28.7786 19.84C28.7786 19.3086 28.3057 18.8438 27.7653 18.8438H14.1193C13.5788 18.8438 13.106 19.3086 13.106 19.84C13.1735 20.3713 13.5788 20.8362 14.1193 20.8362Z" fill="white"/>
    <path d="M27.7653 26.1484H14.1193C13.5788 26.1484 13.106 26.6133 13.106 27.1446C13.106 27.676 13.5788 28.1409 14.1193 28.1409H27.7653C28.3057 28.1409 28.7786 27.676 28.7786 27.1446C28.711 26.6133 28.3057 26.1484 27.7653 26.1484Z" fill="white"/>
    <path d="M48.2715 33.8777C48.1085 33.7665 47.7842 33.5714 47.4794 33.4137C47.3477 33.3456 47.221 33.2842 47.0977 33.2319L46.5075 31.8305C46.5573 31.7077 46.6029 31.5765 46.6468 31.4362C46.749 31.1133 46.8385 30.7496 46.8731 30.5579C46.939 30.1967 46.8207 29.8265 46.5573 29.5666L44.9537 27.9901C44.6894 27.7303 44.3136 27.6149 43.9455 27.6797C43.7504 27.7145 43.3805 27.8017 43.0521 27.9021C42.9102 27.9453 42.7759 27.9901 42.651 28.0391L41.2256 27.4588C41.1724 27.3376 41.1099 27.2131 41.0406 27.0836C40.8802 26.7839 40.6817 26.4643 40.5686 26.3049C40.3558 26.0035 40.0062 25.8242 39.6321 25.8242H38.498V31.4287C41.0128 31.4287 43.0588 33.4402 43.0588 35.9125C43.0588 38.3848 41.0128 40.3963 38.498 40.3963V46.0008H39.6321C40.0054 46.0008 40.3549 45.8215 40.5686 45.5201C40.6817 45.3599 40.8802 45.0411 41.0406 44.7414C41.1099 44.6119 41.1724 44.4874 41.2256 44.3662L42.651 43.7859C42.7759 43.8349 42.9093 43.8797 43.0521 43.9229C43.3805 44.0233 43.7504 44.1113 43.9455 44.1453C44.3128 44.2101 44.6894 44.0939 44.9537 43.8349L46.5573 42.2584C46.8216 41.9985 46.939 41.6291 46.8731 41.2671C46.8376 41.0754 46.749 40.7117 46.6468 40.3888C46.6029 40.2493 46.5573 40.1173 46.5075 39.9945L47.0977 38.5931C47.221 38.5408 47.3477 38.4794 47.4794 38.4113C47.7842 38.2536 48.1093 38.0585 48.2715 37.9473C48.578 37.7381 48.7604 37.3944 48.7604 37.0266V34.7968C48.7612 34.4306 48.578 34.087 48.2715 33.8777Z" fill="#747D8B"/>
</svg>
