<svg width="38" height="10" viewBox="0 0 38 10" fill="none" xmlns="http://www.w3.org/2000/svg">
<path d="M25.031 0H22.1744C22.0064 0 21.8384 0.168031 21.7543 0.336062L20.5781 7.72943C20.5781 7.89746 20.6621 7.98148 20.8302 7.98148H22.3425C22.5105 7.98148 22.5945 7.89746 22.5945 7.72943L22.9306 5.62904C22.9306 5.46101 23.0986 5.29298 23.3506 5.29298H24.2748C26.2072 5.29298 27.2994 4.36881 27.5514 2.52047C27.7195 1.76433 27.5514 1.0922 27.2154 0.672126C26.7113 0.252048 25.9551 0 25.031 0ZM25.367 2.77252C25.199 3.7807 24.4428 3.7807 23.6867 3.7807H23.1826L23.5187 1.84834C23.5187 1.76433 23.6027 1.68031 23.7707 1.68031H23.9388C24.4428 1.68031 24.9469 1.68031 25.199 2.01637C25.367 2.10039 25.367 2.35244 25.367 2.77252Z" fill="#139AD6"/>
<path d="M4.45283 0.00390625H1.5963C1.42827 0.00390625 1.26023 0.171937 1.17622 0.339968L0 7.73334C0 7.90137 0.0840166 7.98539 0.252048 7.98539H1.5963C1.76433 7.98539 1.93236 7.81736 2.01638 7.64932L2.35244 5.63295C2.35244 5.46492 2.52047 5.29689 2.77252 5.29689H3.69669C5.62905 5.29689 6.72125 4.37272 6.9733 2.52437C7.14133 1.76823 6.9733 1.09611 6.63724 0.676032C6.13314 0.255954 5.46102 0.00390625 4.45283 0.00390625ZM4.78889 2.77642C4.62086 3.78461 3.86472 3.78461 3.10858 3.78461H2.6885L3.02456 1.85225C3.02456 1.76823 3.10858 1.68422 3.27661 1.68422H3.44464C3.94874 1.68422 4.45283 1.68422 4.70488 2.02028C4.78889 2.1043 4.87291 2.35634 4.78889 2.77642Z" fill="#263B80"/>
<path d="M13.1117 2.69147H11.7674C11.6834 2.69147 11.5154 2.77548 11.5154 2.8595L11.4314 3.27958L11.3473 3.11155C11.0113 2.69147 10.4232 2.52344 9.75105 2.52344C8.23877 2.52344 6.89452 3.69966 6.64248 5.29595C6.47445 6.13611 6.72649 6.89225 7.14657 7.39634C7.56665 7.90043 8.15476 8.06846 8.9109 8.06846C10.1711 8.06846 10.8433 7.31232 10.8433 7.31232L10.7592 7.7324C10.7592 7.90043 10.8433 7.98445 11.0113 7.98445H12.2715C12.4395 7.98445 12.6076 7.81642 12.6916 7.64839L13.4477 2.94352C13.3637 2.8595 13.1957 2.69147 13.1117 2.69147ZM11.1793 5.37997C11.0113 6.13611 10.4232 6.72422 9.58302 6.72422C9.16294 6.72422 8.82688 6.55618 8.65885 6.38815C8.49082 6.13611 8.4068 5.80004 8.4068 5.37997C8.49082 4.62383 9.16294 4.03572 9.91908 4.03572C10.3392 4.03572 10.5912 4.20375 10.8433 4.37178C11.0953 4.62383 11.1793 5.0439 11.1793 5.37997Z" fill="#263B80"/>
<path d="M33.6 2.69147H32.2557C32.1717 2.69147 32.0037 2.77548 32.0037 2.8595L31.9197 3.27958L31.8356 3.11155C31.4996 2.69147 30.9115 2.52344 30.2393 2.52344C28.7271 2.52344 27.3828 3.69966 27.1308 5.29595C26.9627 6.13611 27.2148 6.89225 27.6349 7.39634C28.0549 7.90043 28.643 8.06846 29.3992 8.06846C30.6594 8.06846 31.3315 7.31232 31.3315 7.31232L31.2475 7.7324C31.2475 7.90043 31.3315 7.98445 31.4996 7.98445H32.7598C32.9278 7.98445 33.0959 7.81642 33.1799 7.64839L33.936 2.94352C33.852 2.8595 33.768 2.69147 33.6 2.69147ZM31.6676 5.37997C31.4996 6.13611 30.9115 6.72422 30.0713 6.72422C29.6512 6.72422 29.3152 6.55618 29.1471 6.38815C28.9791 6.13611 28.8951 5.80004 28.8951 5.37997C28.9791 4.62383 29.6512 4.03572 30.4074 4.03572C30.8274 4.03572 31.0795 4.20375 31.3315 4.37178C31.6676 4.62383 31.7516 5.0439 31.6676 5.37997Z" fill="#139AD6"/>
<path d="M20.4106 2.69141H18.9823C18.8143 2.69141 18.7303 2.77542 18.6463 2.85944L16.7979 5.71597L15.9578 3.02747C15.8738 2.85944 15.7898 2.77542 15.5377 2.77542H14.1935C14.0254 2.77542 13.9414 2.94345 13.9414 3.11149L15.4537 7.56432L14.0254 9.5807C13.9414 9.74873 14.0254 10.0008 14.1935 10.0008H15.5377C15.7057 10.0008 15.7898 9.91676 15.8738 9.83274L20.4946 3.1955C20.7467 2.94345 20.5786 2.69141 20.4106 2.69141Z" fill="#263B80"/>
<path d="M35.1997 0.255679L34.0234 7.81709C34.0234 7.98512 34.1075 8.06914 34.2755 8.06914H35.4517C35.6197 8.06914 35.7878 7.9011 35.8718 7.73307L37.048 0.339694C37.048 0.171662 36.964 0.0876472 36.796 0.0876472H35.4517C35.3677 0.00363146 35.2837 0.0876478 35.1997 0.255679Z" fill="#139AD6"/>
</svg>
