<svg width="17" height="17" viewBox="0 0 17 17" fill="none" xmlns="http://www.w3.org/2000/svg">
<path d="M16.812 2.81418C16.6873 2.50608 16.4992 2.21674 16.2502 1.96726L16.2498 1.96679L15.0279 0.748448C14.7784 0.499435 14.4891 0.311853 14.181 0.186643C13.8725 0.0623707 13.5452 0 13.2179 0C12.8907 0 12.5634 0.0623707 12.2549 0.187112C11.9463 0.311853 11.657 0.499903 11.408 0.748917L11.4076 0.749386L10.6095 1.55223L2.1733 9.98447H2.13625L2.05045 10.1134C2.04857 10.1158 2.04623 10.1186 2.04294 10.1228C2.03591 10.1313 2.02606 10.1434 2.0134 10.1631L1.98621 10.2044L1.96511 10.226L1.94354 10.2902L1.94307 10.2907C1.9426 10.2926 1.94073 10.2963 1.93838 10.3019C1.93651 10.3057 1.93463 10.309 1.93322 10.3132C1.92854 10.3235 1.92525 10.3348 1.92197 10.3456L0.0393866 16.0082L0.0403244 16.0054C0.0131289 16.0846 0 16.1671 0 16.2483C0 16.4452 0.0778354 16.6384 0.223191 16.7815C0.365264 16.9212 0.55657 17 0.755847 17H0.758192H0.760536H0.762881C0.840247 16.9986 0.916676 16.9864 0.989822 16.9644L0.994042 16.963L6.64695 15.0768C6.65633 15.0745 6.66618 15.0717 6.67603 15.0679C6.68916 15.0632 6.70135 15.0576 6.7126 15.0515C6.72432 15.0468 6.73557 15.0407 6.7473 15.0346V15.0351L6.75668 15.0309L6.77777 15.021L6.79465 15.0098L6.79653 15.0084C6.80309 15.0046 6.81669 14.9971 6.83967 14.9821C6.86546 14.9647 6.87859 14.953 6.88562 14.9474L6.88703 14.9465L6.90813 14.9324L6.91891 14.9211C6.92266 14.9179 6.92594 14.915 6.93063 14.9108C6.93298 14.9085 6.93579 14.9057 6.93813 14.9028C6.94048 14.9005 6.94282 14.8986 6.94564 14.8963C6.95267 14.8897 6.96017 14.8813 6.96814 14.8719L16.2512 5.58757C16.5002 5.33809 16.6877 5.04874 16.8129 4.74064C16.9376 4.43207 17 4.10474 17 3.77788C16.9991 3.45008 16.9372 3.12276 16.812 2.81418ZM5.01945 14.0268L1.94823 15.0496L2.97416 11.9813L5.01945 14.0268ZM15.1831 4.52539L15.1826 4.52586L14.92 4.79082L12.2127 2.08309L12.4799 1.81578C12.5826 1.71308 12.7003 1.63711 12.8264 1.586C12.9521 1.53488 13.0867 1.50956 13.2208 1.50956C13.3549 1.50956 13.4894 1.53535 13.6151 1.586C13.7412 1.63711 13.8585 1.71308 13.9616 1.81578L15.1873 3.04163C15.289 3.1448 15.3645 3.2625 15.4152 3.38818C15.4658 3.51386 15.4911 3.64751 15.4911 3.78163C15.4911 3.91622 15.4653 4.05081 15.4142 4.17743C15.3622 4.30405 15.2862 4.42175 15.1831 4.52539ZM3.71453 10.5824L11.1408 3.15511L13.8491 5.86378L6.42283 13.2911L3.71453 10.5824Z" fill="#757575"/>
</svg>
