<svg width="22" height="22" viewBox="0 0 22 22" fill="none" xmlns="http://www.w3.org/2000/svg">
<circle cx="11" cy="11" r="10.5" stroke="#6D4C41"/>
<path d="M13.0008 7.80078L13.9845 11.1455C13.9953 11.1821 14.0007 11.2201 14.0007 11.2582V17.0007H10.8008V7.80078H13.0008Z" fill="#93573D"/>
<path d="M13.0008 16.4007C12.9477 16.4007 12.8969 16.3797 12.8594 16.3422C12.8219 16.3046 12.8008 16.2538 12.8008 16.2007V12.0008C12.8008 11.9477 12.8219 11.8969 12.8594 11.8594C12.8969 11.8219 12.9477 11.8008 13.0008 11.8008C13.0538 11.8008 13.1047 11.8219 13.1422 11.8594C13.1797 11.8969 13.2008 11.9477 13.2008 12.0008V16.2007C13.2008 16.2538 13.1797 16.3046 13.1422 16.3422C13.1047 16.3797 13.0538 16.4007 13.0008 16.4007Z" fill="#794832"/>
<path d="M11.9999 17.0007H5V11.2992C5 11.2338 5.00802 11.1687 5.02387 11.1052L5.99999 7.80078H12.9999L12.0238 11.1052C12.008 11.1687 11.9999 11.2338 11.9999 11.2992V17.0007Z" fill="#AB6647"/>
<path d="M7.56893 15.6008H7.22814C7.17321 15.6008 7.11886 15.5894 7.0685 15.5675C7.01813 15.5456 6.97282 15.5135 6.93538 15.4733C6.89795 15.4331 6.8692 15.3857 6.85092 15.3339C6.83264 15.2821 6.82523 15.227 6.82914 15.1723L6.99854 12.8008H7.79853L7.96793 15.1723C7.97184 15.227 7.96443 15.2821 7.94615 15.3339C7.92787 15.3857 7.89912 15.4331 7.86169 15.4733C7.82425 15.5135 7.77894 15.5456 7.72857 15.5675C7.67821 15.5894 7.62386 15.6008 7.56893 15.6008Z" fill="#E74444"/>
<path d="M9.75897 15.5976H9.44297C9.38709 15.5976 9.33182 15.5859 9.28074 15.5633C9.22966 15.5406 9.18389 15.5075 9.14639 15.466C9.10889 15.4246 9.08049 15.3758 9.06302 15.3227C9.04555 15.2696 9.03939 15.2134 9.04495 15.1578L9.20098 13.5977H10.001L10.157 15.1578C10.1626 15.2134 10.1564 15.2696 10.1389 15.3227C10.1215 15.3758 10.0931 15.4246 10.0556 15.466C10.0181 15.5075 9.97229 15.5406 9.92121 15.5633C9.87012 15.5859 9.81486 15.5976 9.75897 15.5976Z" fill="#E74444"/>
<path d="M5.79843 6.60156C5.57751 6.60156 5.39844 6.87018 5.39844 7.20156C5.39844 7.53293 5.57751 7.80155 5.79843 7.80155H12.9984V6.60156H5.79843Z" fill="#93573D"/>
<path d="M14.1992 7.12165C14.1992 7.2373 14.1764 7.35182 14.1321 7.45867C14.0879 7.56551 14.023 7.6626 13.9412 7.74437C13.8595 7.82615 13.7624 7.89102 13.6555 7.93528C13.5487 7.97954 13.4342 8.00232 13.3185 8.00232H12.8268C12.8089 8.00232 12.7915 8.0083 12.7773 8.01932L11.5292 8.99011C11.388 9.09994 11.2092 9.14976 11.0315 9.12879C10.8538 9.10782 10.6916 9.01773 10.5798 8.87803C10.4752 8.74723 10.4224 8.58244 10.4317 8.4152C10.441 8.24795 10.5116 8.08999 10.63 7.97154L11.8615 6.74003C11.8728 6.72875 11.8805 6.71438 11.8836 6.69873C11.8867 6.68308 11.8851 6.66685 11.879 6.65211C11.8729 6.63737 11.8626 6.62477 11.8493 6.61591C11.836 6.60705 11.8204 6.60232 11.8045 6.60233H8.19922L10.202 5.50984C10.3314 5.4393 10.4764 5.40234 10.6238 5.40234H15.7185C15.7399 5.40235 15.7604 5.41085 15.7755 5.42597C15.7906 5.4411 15.7991 5.46161 15.7991 5.48299V6.92168C15.7991 6.94307 15.7906 6.96358 15.7755 6.9787C15.7604 6.99382 15.7399 7.00232 15.7185 7.00233H14.3185C14.3028 7.00232 14.2873 7.00541 14.2728 7.0114C14.2584 7.0174 14.2452 7.02619 14.2341 7.03727C14.223 7.04835 14.2142 7.0615 14.2082 7.07598C14.2022 7.09046 14.1992 7.10598 14.1992 7.12165Z" fill="#F5CBAA"/>
<path d="M15 5H16.6V7.59997H15V5Z" fill="#155384"/>
<path d="M12 17L13 16L14 17H12Z" fill="#794832"/>
<path d="M8.19842 11.1992C8.14538 11.1992 8.09451 11.2203 8.057 11.2578C8.01949 11.2953 7.99842 11.3462 7.99842 11.3992V11.9992H7.59843V11.3992C7.59843 11.3462 7.57735 11.2953 7.53985 11.2578C7.50234 11.2203 7.45147 11.1992 7.39843 11.1992C7.34538 11.1992 7.29451 11.2203 7.25701 11.2578C7.2195 11.2953 7.19843 11.3462 7.19843 11.3992V11.9992H6.79843V11.3992C6.79843 11.3462 6.77736 11.2953 6.73986 11.2578C6.70235 11.2203 6.65148 11.1992 6.59844 11.1992C6.54539 11.1992 6.49452 11.2203 6.45702 11.2578C6.41951 11.2953 6.39844 11.3462 6.39844 11.3992V11.9992L6.99843 12.7992H7.79842L8.39842 11.9992V11.3992C8.39842 11.3462 8.37735 11.2953 8.33984 11.2578C8.30233 11.2203 8.25146 11.1992 8.19842 11.1992Z" fill="#D9DBDD"/>
<path d="M9.20078 13.5992V13.3992L8.80078 13.1992C8.80078 13.1992 8.95078 11.1992 10.0008 11.1992V13.5992H9.20078Z" fill="#D9DBDD"/>
</svg>
