<svg width="12" height="16" viewBox="0 0 12 16" fill="none" xmlns="http://www.w3.org/2000/svg">
<path d="M7.27815 0.265851C6.74645 0.096673 6.16641 0 5.57429 0C3.87043 0 2.33574 0.773384 1.30859 1.99388L3.94293 4.20528L7.27815 0.265851Z" fill="#1A73E8"/>
<path d="M1.30509 1.99609C0.495449 2.96282 0 4.21957 0 5.57299C0 6.62431 0.20543 7.4702 0.55587 8.2315L3.93943 4.20749L1.30509 1.99609Z" fill="#EA4335"/>
<path d="M5.58485 3.44375C6.76909 3.44375 7.72374 4.3984 7.72374 5.58264C7.72374 6.10226 7.53039 6.58562 7.2162 6.96023C7.2162 6.96023 8.8959 4.95427 10.5393 3.00872C9.86263 1.70364 8.69047 0.712738 7.27663 0.265625L3.94141 4.20505C4.34018 3.74585 4.92022 3.44375 5.58485 3.44375Z" fill="#4285F4"/>
<path d="M5.57778 7.71143C4.39353 7.71143 3.43889 6.75678 3.43889 5.57254C3.43889 5.05292 3.62015 4.56956 3.93434 4.20703L0.550781 8.23105C1.13082 9.51196 2.09755 10.5512 3.08845 11.8442L7.20914 6.95013C6.81036 7.42141 6.23032 7.71143 5.57778 7.71143Z" fill="#FBBC04"/>
<path d="M7.14193 13.1947C9.00289 10.2825 11.1659 8.96529 11.1659 5.58173C11.1659 4.65125 10.9363 3.7812 10.5376 3.00781L3.09375 11.8413C3.40794 12.2522 3.73421 12.7235 4.0484 13.2068C5.1843 14.959 4.87012 15.9982 5.59516 15.9982C6.32021 15.9982 6.00602 14.9469 7.14193 13.1947Z" fill="#34A853"/>
</svg>
