<svg width="22" height="22" viewBox="0 0 22 22" fill="none" xmlns="http://www.w3.org/2000/svg">
<path d="M11 22C17.0751 22 22 17.0751 22 11C22 4.92487 17.0751 0 11 0C4.92487 0 0 4.92487 0 11C0 17.0751 4.92487 22 11 22Z" fill="#EAB14D"/>
<path d="M10.9994 0C10.803 0 10.6079 0.00537109 10.4141 0.0155117C16.2171 0.319816 20.8288 5.12123 20.8288 11C20.8288 16.8788 16.2171 21.6802 10.4141 21.9845C10.6079 21.9946 10.803 22 10.9994 22C17.0745 22 21.9994 17.0751 21.9994 11C21.9994 4.92486 17.0745 0 10.9994 0V0Z" fill="#E49542"/>
<path d="M11.0014 19.5731C15.7354 19.5731 19.5731 15.7354 19.5731 11.0014C19.5731 6.26737 15.7354 2.42969 11.0014 2.42969C6.26737 2.42969 2.42969 6.26737 2.42969 11.0014C2.42969 15.7354 6.26737 19.5731 11.0014 19.5731Z" fill="#F4FBFF"/>
<path d="M11.0018 2.42969C10.7644 2.42969 10.5294 2.43979 10.2969 2.45869C14.7011 2.81722 18.1637 6.50476 18.1637 11.0014C18.1637 15.498 14.7011 19.1855 10.2969 19.5441C10.5294 19.563 10.7644 19.5731 11.0018 19.5731C15.7358 19.5731 19.5735 15.7354 19.5735 11.0014C19.5735 6.26744 15.7358 2.42969 11.0018 2.42969V2.42969Z" fill="#DAF1F4"/>
<path d="M10.9999 5.06528C10.8166 5.06528 10.668 4.91665 10.668 4.7333V4.24604C10.668 4.06269 10.8166 3.91406 10.9999 3.91406C11.1833 3.91406 11.332 4.06269 11.332 4.24604V4.7333C11.332 4.91665 11.1833 5.06528 10.9999 5.06528V5.06528Z" fill="#2B4D66"/>
<path d="M15.4101 6.90696C15.3251 6.90696 15.2402 6.87452 15.1753 6.80973C15.0457 6.68005 15.0457 6.46989 15.1754 6.34021L15.52 5.99568C15.6496 5.866 15.8598 5.86604 15.9895 5.99568C16.1191 6.12536 16.1191 6.33552 15.9894 6.4652L15.6449 6.80977C15.58 6.87452 15.4951 6.90696 15.4101 6.90696Z" fill="#2B4D66"/>
<path d="M17.7138 11.3319H17.2265C17.0431 11.3319 16.8945 11.1833 16.8945 10.9999C16.8945 10.8166 17.0432 10.668 17.2265 10.668H17.7138C17.8972 10.668 18.0457 10.8166 18.0457 10.9999C18.0457 11.1833 17.8971 11.3319 17.7138 11.3319Z" fill="#2B4D66"/>
<path d="M15.7312 16.0866C15.6463 16.0866 15.5613 16.0542 15.4964 15.9894L15.1519 15.6449C15.0223 15.5152 15.0223 15.305 15.1519 15.1753C15.2816 15.0457 15.4918 15.0457 15.6215 15.1753L15.966 15.5198C16.0956 15.6495 16.0956 15.8597 15.966 15.9894C15.9012 16.0542 15.8162 16.0866 15.7312 16.0866V16.0866Z" fill="#2B4D66"/>
<path d="M10.9609 18.0457C10.7775 18.0457 10.6289 17.8971 10.6289 17.7138V17.2265C10.6289 17.0431 10.7775 16.8945 10.9609 16.8945C11.1442 16.8945 11.2929 17.0432 11.2929 17.2265V17.7138C11.2929 17.8971 11.1442 18.0457 10.9609 18.0457V18.0457Z" fill="#2B4D66"/>
<path d="M6.20308 16.0632C6.11813 16.0632 6.03313 16.0308 5.96834 15.9659C5.83866 15.8363 5.8387 15.6261 5.96834 15.4964L6.3129 15.1519C6.44258 15.0223 6.65274 15.0223 6.78242 15.1519C6.91206 15.2816 6.91206 15.4918 6.78238 15.6215L6.43781 15.966C6.37302 16.0308 6.28802 16.0632 6.20308 16.0632V16.0632Z" fill="#2B4D66"/>
<path d="M4.7333 11.2929H4.24604C4.06269 11.2929 3.91406 11.1442 3.91406 10.9609C3.91406 10.7775 4.06269 10.6289 4.24604 10.6289H4.7333C4.91665 10.6289 5.06528 10.7775 5.06528 10.9609C5.06532 11.1442 4.91665 11.2929 4.7333 11.2929Z" fill="#2B4D66"/>
<path d="M6.57499 6.88353C6.49004 6.88353 6.40509 6.85113 6.34025 6.78629L5.99569 6.44177C5.86605 6.31209 5.86601 6.10193 5.99564 5.97225C6.12532 5.84261 6.33548 5.84257 6.46516 5.97221L6.80973 6.31677C6.93937 6.44641 6.93941 6.65661 6.80977 6.78629C6.74489 6.85109 6.65994 6.88353 6.57499 6.88353Z" fill="#2B4D66"/>
<path d="M10.9992 11.333H8.17963C7.99629 11.333 7.84766 11.1843 7.84766 11.0009C7.84766 10.8176 7.99629 10.669 8.17963 10.669H10.6672V6.44526C10.6672 6.26191 10.8159 6.11328 10.9992 6.11328C11.1826 6.11328 11.3312 6.26191 11.3312 6.44526V11.0009C11.3312 11.1843 11.1826 11.333 10.9992 11.333Z" fill="#2B4D66"/>
<path d="M14.406 13.0837C14.3548 13.0837 14.303 13.0718 14.2544 13.0469L10.8482 11.2953C10.6851 11.2114 10.6209 11.0113 10.7048 10.8482C10.7886 10.6852 10.9888 10.6209 11.1519 10.7048L14.5581 12.4563C14.7212 12.5402 14.7854 12.7404 14.7015 12.9034C14.6426 13.0179 14.5264 13.0837 14.406 13.0837V13.0837Z" fill="#DA4A54"/>
<path d="M10.9994 11.8855C11.4888 11.8855 11.8855 11.4888 11.8855 10.9994C11.8855 10.51 11.4888 10.1133 10.9994 10.1133C10.51 10.1133 10.1133 10.51 10.1133 10.9994C10.1133 11.4888 10.51 11.8855 10.9994 11.8855Z" fill="#365E7D"/>
</svg>
