<svg width="25" height="24" viewBox="0 0 25 24" fill="none" xmlns="http://www.w3.org/2000/svg">
<path d="M3.72656 19.2266H5.06588V22.7151H3.72656V19.2266Z" fill="#FFDBB5"/>
<path d="M5.0625 19.2266H6.40181V22.7151H5.0625V19.2266Z" fill="#FFD1A1"/>
<path d="M3.52944 23.641H5.07193V22.4727H3.52944C3.20681 22.4727 2.94531 22.7342 2.94531 23.0568C2.94531 23.3794 3.20681 23.641 3.52944 23.641V23.641Z" fill="#CF8230"/>
<path d="M6.61671 23.641H5.07422V22.4727H6.61671C6.93933 22.4727 7.20083 22.7342 7.20083 23.0568C7.20083 23.3794 6.93933 23.641 6.61671 23.641V23.641Z" fill="#CF8230"/>
<path d="M3.73047 16.2461H6.40909V19.5148H3.73047V16.2461Z" fill="#CF8230"/>
<path d="M5.07493 6.19531C4.14687 6.19531 3.39453 6.94765 3.39453 7.87571V10.03C3.39453 10.9529 4.14582 11.7012 5.07255 11.7012H5.0774C6.00413 11.7012 6.75542 10.9529 6.75542 10.03V7.87571C6.75537 6.9477 6.00304 6.19531 5.07493 6.19531V6.19531Z" fill="#FFDBB5"/>
<path d="M5.06903 6.19531C4.81386 6.19531 4.57211 6.25249 4.35547 6.35425C4.92665 6.6226 5.3223 7.20282 5.3223 7.87571V10.03C5.3223 10.6997 4.92661 11.2771 4.35547 11.5437C4.57144 11.6445 4.81234 11.7012 5.06661 11.7012H5.07141C5.99814 11.7012 6.74943 10.9529 6.74943 10.03V7.87576C6.74943 6.9477 5.9971 6.19531 5.06903 6.19531V6.19531Z" fill="#FFD1A1"/>
<path d="M7.32352 16.2453H2.82031V13.2498C2.82031 12.3935 3.51456 11.6992 4.37094 11.6992H5.7729C6.62927 11.6992 7.32352 12.3935 7.32352 13.2498V16.2453Z" fill="#2AE88F"/>
<path d="M3.40253 17.61H3.4002C3.07995 17.61 2.82031 17.3503 2.82031 17.0301V13.5312H3.98247V17.0301C3.98242 17.3504 3.72278 17.61 3.40253 17.61Z" fill="#FFDBB5"/>
<path d="M6.74629 17.61H6.74395C6.42371 17.61 6.16406 17.3503 6.16406 17.0301V13.5312H7.32622V17.0301C7.32618 17.3504 7.06653 17.61 6.74629 17.61Z" fill="#FFDBB5"/>
<path d="M5.42841 19.5094V17.7865C5.42841 17.5894 5.26871 17.4297 5.07163 17.4297C4.87454 17.4297 4.71484 17.5894 4.71484 17.7865V19.5094H5.42841Z" fill="#B5630B"/>
<path d="M6.75329 8.61768H6.16232L5.59979 8.01771L5.07285 8.61768H3.40234V7.86824C3.40234 6.94432 4.15135 6.19531 5.07527 6.19531H5.08031C6.00424 6.19531 6.75324 6.94432 6.75324 7.86824V8.61768H6.75329Z" fill="#CF8230"/>
<path d="M5.07546 6.19531H5.07042C4.8161 6.19531 4.5752 6.2523 4.35938 6.35387C4.92771 6.62117 5.32126 7.19863 5.32126 7.86829V8.3293L5.59489 8.01771L6.15737 8.61772H6.74834V7.86829C6.74839 6.94432 5.99939 6.19531 5.07546 6.19531Z" fill="#C7751E"/>
<path d="M13.6018 3.67063L8.94531 3.60112V1.834C8.94531 0.821123 9.76644 0 10.7793 0H11.7678C12.7807 0 13.6018 0.821123 13.6018 1.834V3.67063Z" fill="#5D76CF"/>
<path d="M11.7703 0H10.7818C10.7075 0 10.6345 0.00494738 10.5625 0.0135102C11.472 0.121972 12.1772 0.895381 12.1772 1.834V4.3596H13.6043V1.834C13.6043 0.821123 12.7833 0 11.7703 0V0Z" fill="#4D69CF"/>
<path d="M8.94922 3.60396V4.61427C8.94922 5.89312 9.99012 6.92984 11.2742 6.92984H11.2809C12.5649 6.92984 13.6058 5.89312 13.6058 4.61427V2.10938H12.6617C12.2535 2.10938 11.8634 2.29666 11.623 2.62652C11.3084 3.05842 10.5868 3.60396 8.94922 3.60396V3.60396Z" fill="#FFDBB5"/>
<path d="M12.6602 2.10547C12.4931 2.10547 12.3292 2.13734 12.1772 2.19709V4.61037C12.1772 5.64247 11.4991 6.51644 10.5625 6.81547C10.7864 6.88697 11.025 6.92593 11.2727 6.92593H11.2794C12.5635 6.92593 13.6044 5.88922 13.6044 4.61037V2.10547H12.6602Z" fill="#FFD1A1"/>
<path d="M11.2751 13.0938H9.69922V22.4744H11.2751H12.8509V13.0938H11.2751Z" fill="#A6D4FF"/>
<path d="M13.9236 13.0954H8.625V8.75809C8.625 7.75044 9.44184 6.93359 10.4495 6.93359H12.0991C13.1068 6.93359 13.9236 7.75044 13.9236 8.75809V13.0954H13.9236Z" fill="#FFD52B"/>
<path d="M9.31007 15.0104H9.30731C8.93045 15.0104 8.625 14.7049 8.625 14.3281V9.39844H9.99243V14.328C9.99243 14.7049 9.68693 15.0104 9.31007 15.0104V15.0104Z" fill="#FFDBB5"/>
<path d="M13.2398 15.0104H13.237C12.8601 15.0104 12.5547 14.7049 12.5547 14.3281V9.39844H13.9221V14.328C13.9221 14.7049 13.6166 15.0104 13.2398 15.0104Z" fill="#FFDBB5"/>
<path d="M9.36537 23.637H11.2737V22.4688H9.36537C9.04275 22.4688 8.78125 22.7303 8.78125 23.0529C8.78125 23.3755 9.04275 23.637 9.36537 23.637V23.637Z" fill="#5D76CF"/>
<path d="M13.1818 23.637H11.2734V22.4688H13.1818C13.5044 22.4688 13.7659 22.7303 13.7659 23.0529C13.7659 23.3755 13.5044 23.637 13.1818 23.637V23.637Z" fill="#5D76CF"/>
<path d="M11.6315 22.4724V15.2513C11.6315 15.0543 11.4718 14.8945 11.2748 14.8945C11.0777 14.8945 10.918 15.0543 10.918 15.2513V22.4724H11.6315Z" fill="#79B7F2"/>
<path d="M18.0034 5.80366C19.606 5.80366 20.9052 4.50447 20.9052 2.90183C20.9052 1.29919 19.606 0 18.0034 0C16.4008 0 15.1016 1.29919 15.1016 2.90183C15.1016 4.50447 16.4008 5.80366 18.0034 5.80366Z" fill="#5D76CF"/>
<path d="M18.0026 0C17.7564 0 17.5174 0.0309211 17.2891 0.0886723C18.5466 0.406684 19.4773 1.54549 19.4773 2.90183C19.4773 4.25817 18.5466 5.39698 17.2891 5.71499C17.5174 5.77274 17.7564 5.80366 18.0026 5.80366C19.6052 5.80366 20.9045 4.50445 20.9045 2.90183C20.9045 1.29921 19.6052 0 18.0026 0Z" fill="#4D69CF"/>
<path d="M17.3652 2.34766C16.5853 2.34766 15.9531 2.97987 15.9531 3.75975V4.91092C15.9531 6.02784 16.8623 6.93331 17.9837 6.93331H17.9896C19.1111 6.93331 20.0202 6.02784 20.0202 4.91092V3.75975C20.0202 2.97987 19.388 2.34766 18.6081 2.34766H17.3652Z" fill="#EDB374"/>
<path d="M18.624 2.34375H17.3812C17.3502 2.34375 17.3196 2.34508 17.2891 2.34708C18.0259 2.3946 18.609 3.00698 18.609 3.7559V4.90702C18.609 5.7749 18.06 6.51487 17.2891 6.80182C17.5103 6.88416 17.7496 6.92945 17.9997 6.92945H18.0055C19.127 6.92945 20.0361 6.02398 20.0361 4.90707V3.75585C20.0361 2.97597 19.4039 2.34375 18.624 2.34375V2.34375Z" fill="#E3A35D"/>
<path d="M18.0016 13.0977H16.4258V22.4783H18.0016H19.5775V13.0977H18.0016Z" fill="#A6D4FF"/>
<path d="M20.6502 13.0954H15.3516V8.75808C15.3516 7.75044 16.1684 6.93359 17.1761 6.93359H18.8257C19.8333 6.93359 20.6502 7.75044 20.6502 8.75808V13.0954Z" fill="#FF428E"/>
<path d="M16.0366 15.0104H16.0339C15.657 15.0104 15.3516 14.7049 15.3516 14.3281V9.39844H16.719V14.328C16.7189 14.7049 16.4134 15.0104 16.0366 15.0104Z" fill="#EDB374"/>
<path d="M16.0958 23.641H18.9248V22.4727H16.0958C15.7732 22.4727 15.5117 22.7342 15.5117 23.0568C15.5117 23.3794 15.7733 23.641 16.0958 23.641V23.641Z" fill="#FF428E"/>
<path d="M20.165 15.539C18.9563 15.539 17.9766 14.5592 17.9766 13.3506V11.7398C17.9766 10.533 18.9549 9.55469 20.1617 9.55469H20.1683C21.3751 9.55469 22.3534 10.533 22.3534 11.7398V13.3506C22.3534 14.5592 21.3736 15.539 20.165 15.539V15.539Z" fill="#5D76CF"/>
<path d="M20.1661 9.55469H20.1595C19.9108 9.55469 19.672 9.59684 19.4492 9.67338C20.3072 9.96827 20.9241 10.7817 20.9241 11.7398V13.3506C20.9241 14.3093 20.3074 15.1234 19.4492 15.4193C19.6729 15.4965 19.9128 15.539 20.1628 15.539C21.3714 15.539 22.3512 14.5592 22.3512 13.3506V11.7398C22.3512 10.533 21.3729 9.55469 20.1661 9.55469V9.55469Z" fill="#4D69CF"/>
<path d="M18.8242 19.6367H20.1635V22.713H18.8242V19.6367Z" fill="#FFDBB5"/>
<path d="M20.1641 19.6367H21.5034V22.713H20.1641V19.6367Z" fill="#FFD1A1"/>
<path d="M18.9141 11.75V12.7966C18.9141 13.4805 19.4708 14.035 20.1576 14.035H20.1611C20.8479 14.035 21.4046 13.4805 21.4046 12.7966V11.75H18.9141Z" fill="#FFDBB5"/>
<path d="M20.1617 11.7461V12.7927C20.1617 13.2513 19.9112 13.6515 19.5391 13.8655C19.7218 13.9707 19.9337 14.0311 20.1599 14.0311H20.1635C20.8503 14.0311 21.407 13.4766 21.407 12.7927V11.7461H20.1617Z" fill="#FFD1A1"/>
<path d="M20.8627 14.0703H19.4608C18.6044 14.0703 17.9102 14.7646 17.9102 15.6209V17.6649H18.8224V19.9822H21.5011V17.6649H22.4133V15.6209C22.4134 14.7645 21.7191 14.0703 20.8627 14.0703V14.0703Z" fill="#FFD52B"/>
<path d="M18.4924 19.0336H18.49C18.1697 19.0336 17.9102 18.7739 17.9102 18.4537V15.9062H19.0723V18.4537C19.0723 18.774 18.8126 19.0336 18.4924 19.0336V19.0336Z" fill="#FFDBB5"/>
<path d="M21.8361 19.0336H21.8338C21.5135 19.0336 21.2539 18.7739 21.2539 18.4537V15.9062H22.4161V18.4537C22.4161 18.774 22.1564 19.0336 21.8361 19.0336V19.0336Z" fill="#FFDBB5"/>
<path d="M18.6232 23.637H20.1657V22.4688H18.6232C18.3006 22.4688 18.0391 22.7303 18.0391 23.0529C18.0391 23.3755 18.3006 23.637 18.6232 23.637V23.637Z" fill="#A6D4FF"/>
<path d="M21.7105 23.637H20.168V22.4688H21.7105C22.0331 22.4688 22.2946 22.7303 22.2946 23.0529C22.2946 23.3755 22.0331 23.637 21.7105 23.637V23.637Z" fill="#A6D4FF"/>
<path d="M23.9076 23.2852H1.32944C1.13235 23.2852 0.972656 23.4449 0.972656 23.6419C0.972656 23.839 1.13235 23.9987 1.32944 23.9987H23.9076C24.1047 23.9987 24.2644 23.839 24.2644 23.6419C24.2644 23.4449 24.1046 23.2852 23.9076 23.2852Z" fill="#E9F0F5"/>
</svg>
