<svg width="18" height="18" viewBox="0 0 18 18" fill="none" xmlns="http://www.w3.org/2000/svg">
<path d="M2.16197 9.83C2.12722 9.54051 2.10937 9.25294 2.10937 8.99998C2.10937 5.22413 5.22413 2.10937 8.99998 2.10937C10.7612 2.10937 12.4101 2.8195 13.623 3.92692L13.0148 4.54572C12.8777 4.68278 12.825 4.88314 12.8777 5.07306C12.941 5.25228 13.0887 5.38947 13.2785 5.43163C13.3846 5.45292 16.8719 6.57668 16.6499 6.53205C16.9324 6.62612 17.3501 6.32482 17.2723 5.90981C17.2508 5.80352 16.4788 1.92961 16.5234 2.15153C16.4812 1.96174 16.3441 1.80354 16.1543 1.75081C15.975 1.69807 15.7745 1.75081 15.6375 1.88786L15.1207 2.39405C13.5281 0.907057 11.3413 0 8.99998 0C4.05353 0 0 4.05353 0 8.99998V9.02099C0 9.31831 0.0135956 9.54806 0.0293884 9.72384C0.0503997 9.95675 0.222061 10.1475 0.4514 10.1935L1.53479 10.4101C1.88745 10.4807 2.20454 10.185 2.16197 9.83Z" fill="#448AFF"/>
<path d="M17.5517 7.80646L16.4652 7.58508C16.1121 7.51312 15.7928 7.80906 15.8362 8.16571C15.8738 8.47346 15.8906 8.7727 15.8906 9.0008C15.8906 12.7765 12.7758 15.8914 8.99997 15.8914C7.23873 15.8914 5.58982 15.1813 4.37693 14.0633L4.98516 13.4551C5.12222 13.318 5.17495 13.1176 5.12222 12.9277C5.05891 12.7484 4.91128 12.6113 4.72149 12.5692C4.61534 12.5477 1.12801 11.4241 1.35007 11.4687C1.17072 11.4372 0.991365 11.4899 0.875459 11.6164C0.748842 11.7324 0.696108 11.9222 0.727694 12.091C0.749117 12.1971 1.52132 16.0359 1.47669 15.814C1.51871 16.0039 1.6559 16.1621 1.84569 16.2147C2.06583 16.2699 2.24957 16.2032 2.36246 16.0776L2.86879 15.5714C4.46125 17.0586 6.64808 18.0008 8.99997 18.0008C13.9464 18.0008 18 13.9473 18 9.0008V8.96908C18 8.73535 17.9914 8.50587 17.9719 8.27777C17.9519 8.04472 17.7809 7.85328 17.5517 7.80646Z" fill="#448AFF"/>
</svg>
