<svg width="24" height="24" viewBox="0 0 24 24" fill="none" xmlns="http://www.w3.org/2000/svg">
<path d="M24 12C24 18.6273 18.6273 24 12 24C5.37272 24 0 18.6273 0 12C0 5.37272 5.37272 0 12 0C18.6273 0 24 5.37272 24 12Z" fill="#48C8EF"/>
<path d="M9.25171 17.1383L6.66772 14.553C6.14722 14.0322 6.14722 13.1881 6.66772 12.6676C7.18823 12.1471 8.03231 12.1471 8.55314 12.6676L9.41707 13.5302L15.4558 8.497C16.0216 8.02499 16.863 8.10149 17.3344 8.66757C17.8064 9.23332 17.7299 10.0748 17.1638 10.5461L9.25171 17.1383Z" fill="white"/>
</svg>
