<svg width="24" height="23" viewBox="0 0 24 23" fill="none" xmlns="http://www.w3.org/2000/svg">
<path d="M14.2861 18.5337V20.2797C14.2861 20.4763 14.1201 20.6355 13.915 20.6355H0.371068C0.166053 20.6355 0 20.4763 0 20.2797V18.5337C0 16.709 1.53761 15.2004 3.44072 15.2173C4.5132 15.2259 5.38048 14.399 5.38048 13.3788V13.0751L5.38744 13.0586C5.50154 13.104 5.61843 13.1449 5.73717 13.1809C3.94306 12.621 2.55109 11.0195 2.55109 8.98933V7.98202C2.29042 8.00203 2.02788 8.01226 1.76396 8.01226C1.55895 8.01182 1.3915 7.8526 1.3915 7.65603V4.42507C1.3915 1.98127 3.45789 0 6.00666 0H8.27945C10.8282 0 12.8946 1.98127 12.8946 4.42507V7.75877C12.8946 8.34803 12.3969 8.85013 11.735 8.85013V8.98933C11.735 10.8247 10.5638 12.3973 8.89867 13.0582L8.90562 13.0751V13.3788C8.90562 14.3986 9.77248 15.2259 10.8454 15.2173C12.7485 15.2004 14.2861 16.709 14.2861 18.5337Z" fill="#A2D0FF"/>
<path d="M14.2861 18.5375V20.279C14.2861 20.4749 14.12 20.6338 13.915 20.6338H0.371068C0.166146 20.6338 0 20.4749 0 20.279V18.5375C0 16.7175 1.53752 15.2129 3.44063 15.2297C3.71954 15.2322 3.98564 15.1779 4.22553 15.0781V15.0786C4.78534 16.2957 6.11728 17.0359 7.51412 16.879C8.62593 16.7544 9.60277 16.0739 10.0606 15.0786V15.0781C10.3005 15.1779 10.5666 15.2322 10.8455 15.2297C12.7486 15.2129 14.2861 16.7175 14.2861 18.5375Z" fill="#B9DCFF"/>
<path d="M12.6974 4.3652V7.65379C12.6974 8.23531 12.2168 8.7304 11.5773 8.7304V6.70411C11.5773 6.55644 11.4828 6.4247 11.341 6.37451C10.5664 6.1004 9.90306 5.56762 9.47925 4.85419C9.35649 4.64751 9.06038 4.62382 8.90088 4.80488C7.14106 6.80282 4.62276 7.90439 1.94562 7.90373C1.74781 7.90369 1.58594 7.74641 1.58594 7.55272V4.3652C1.58594 1.95438 3.58187 0 6.04394 0H8.23935C10.7014 0 12.6974 1.95438 12.6974 4.3652Z" fill="#D1E7FF"/>
<path d="M11.903 9.04375C11.903 10.8964 10.6884 12.4837 8.96158 13.1507C5.84764 14.357 2.37891 12.2199 2.37891 9.04375V8.02609C5.00842 7.82746 7.35523 6.69856 9.02964 4.88658C9.20083 4.70132 9.51878 4.72556 9.65058 4.93704C10.1056 5.66722 10.818 6.21227 11.6493 6.49265C11.8016 6.54401 11.903 6.67881 11.903 6.82991V9.04375Z" fill="#B9DCFF"/>
<path d="M4.64554 15.4663C4.92249 15.8712 4.6817 16.4044 4.17593 16.5239C2.9566 16.8122 1.3588 17.5624 1.3588 19.6792V20.6338H0.388229C0.173829 20.6338 0 20.4749 0 20.2789V18.5374C0 17.2151 0.851094 16.0529 2.12943 15.5217H2.12992C3.28582 15.0479 3.61441 15.3852 4.42095 15.0781C4.48613 15.2136 4.5613 15.3431 4.64554 15.4663Z" fill="#D1E7FF"/>
<path d="M9.63993 15.4663C9.36298 15.8712 9.60378 16.4044 10.1095 16.5239C11.3289 16.8122 12.9267 17.5624 12.9267 19.6792V20.6338H13.8972C14.1116 20.6338 14.2855 20.4749 14.2855 20.2789V18.5374C14.2855 17.2151 13.4344 16.0529 12.156 15.5217H12.1556C10.9997 15.0479 10.6711 15.3852 9.86452 15.0781C9.79935 15.2136 9.72418 15.3431 9.63993 15.4663Z" fill="#A2D0FF"/>
<path d="M8.72938 13.7727C7.72995 14.432 6.63163 14.4832 5.55469 13.7727C5.60969 13.413 5.60053 13.18 5.60053 12.7229L5.60661 12.6992C6.58352 13.3383 7.69864 13.3396 8.67745 12.6992L8.68354 12.7229C8.68354 13.1802 8.67437 13.4131 8.72938 13.7727Z" fill="#8BC4FF"/>
<path d="M9.98664 0.32146C10.5372 0.539923 10.3548 1.33703 9.76055 1.32293C9.6694 1.32078 7.39031 1.32161 7.43566 1.32161C4.95339 1.32161 2.94109 3.28412 2.94109 5.70496V7.40425C2.94109 7.68333 2.71559 7.91104 2.42983 7.92501C2.27006 7.9328 2.10961 7.93672 1.94867 7.93672C1.74901 7.93628 1.58594 7.77857 1.58594 7.58385V4.38335C1.58594 1.96251 3.59824 0 6.08051 0H8.29392C8.89281 0 9.46423 0.114187 9.98664 0.32146Z" fill="#E8F3FF"/>
<path d="M6.00178 11.4582C6.86862 11.9869 5.94394 13.0284 4.99083 12.5977C3.47608 11.9131 2.37891 10.6616 2.37891 9.06847V8.12897C2.92624 8.09457 3.46286 8.03033 3.98555 7.9375V8.23962C3.98555 9.57167 4.78866 10.7183 6.00178 11.4582Z" fill="#D1E7FF"/>
<path d="M1.32283 6.3841V4.62149C1.32283 2.07322 3.4492 0 6.0628 0H8.26744C10.881 0 13.0074 2.07322 13.0074 4.62149V7.84406C13.0074 8.034 12.8495 8.18799 12.6547 8.18799C12.4599 8.18799 12.3019 8.034 12.3019 7.84406V4.62149C12.3019 2.45248 10.4921 0.68785 8.26744 0.68785H6.0628C3.83819 0.68785 2.02831 2.45248 2.02831 4.62149V6.3841C2.02831 6.57404 1.87037 6.72803 1.67557 6.72803C1.48077 6.72803 1.32283 6.57404 1.32283 6.3841ZM10.6452 14.7102C10.1257 14.7102 9.65438 14.4522 9.38444 14.0201C9.28307 13.8579 9.06596 13.8064 8.89973 13.9053C8.73337 14.0041 8.68059 14.2157 8.78196 14.3779C9.18095 15.0167 9.87753 15.398 10.6452 15.398C12.2676 15.398 13.5806 16.678 13.5806 18.26V20.2916C13.5806 20.4815 13.7386 20.6355 13.9334 20.6355C14.1282 20.6355 14.2861 20.4815 14.2861 20.2916V18.26C14.2861 16.298 12.6577 14.7101 10.6452 14.7102ZM8.86776 15.7138C7.59988 16.7544 5.68184 16.4347 4.84028 15.0487C5.3828 14.6994 5.75843 14.1226 5.81288 13.446C6.24147 13.5687 6.68887 13.6334 7.14307 13.6334C9.7856 13.6334 11.861 11.5191 11.861 9.05954C11.861 9.03624 11.8611 6.68379 11.8608 6.66049C11.8596 6.51737 11.7685 6.3955 11.6414 6.3452C11.5546 6.31076 10.1479 6.00106 9.54326 4.51612C9.44269 4.26905 9.10212 4.22082 8.93496 4.43439C7.34767 6.46295 4.9562 7.63934 2.41104 7.73861C2.21637 7.74618 2.06486 7.90619 2.07267 8.09599C2.08056 8.28846 2.24833 8.43428 2.43921 8.4259C5.00506 8.32586 7.43642 7.20935 9.14162 5.27774C9.6113 6.06103 10.3306 6.6218 11.1555 6.91328V9.0334C11.1555 11.1906 9.35556 12.9455 7.14307 12.9455C5.1488 12.9455 3.44007 11.4955 3.16837 9.57263C3.14174 9.38446 2.96378 9.25248 2.77079 9.27888C2.5778 9.3048 2.44287 9.47835 2.4695 9.66652C2.68172 11.1689 3.6571 12.5098 5.11476 13.1865V13.2768C5.11476 14.0697 4.4558 14.7102 3.64087 14.7102C1.62813 14.7102 0 16.2978 0 18.26V20.2916C0 20.4815 0.15794 20.6355 0.352742 20.6355C0.547544 20.6355 0.705484 20.4815 0.705484 20.2916V18.26C0.705484 16.6781 2.01835 15.398 3.64087 15.398C3.82699 15.398 4.01187 15.3752 4.1923 15.3296C5.22879 17.1357 7.69666 17.574 9.32205 16.24C9.47108 16.1176 9.49018 15.9006 9.36473 15.7554C9.23938 15.61 9.01671 15.5915 8.86776 15.7138Z" fill="#4385F5"/>
<path d="M22.373 20.3947V21.6931C22.373 21.8392 22.2546 21.9576 22.1084 21.9576H12.4521C12.3059 21.9576 12.1875 21.8392 12.1875 21.6931V20.3947C12.1875 19.0379 13.2838 17.9162 14.6406 17.9287C15.4051 17.9351 16.0236 17.3204 16.0236 16.5616V16.3358L16.0285 16.3235C14.8413 15.8321 14.0063 14.6624 14.0063 13.2977V13.3373C13.5496 13.3373 13.1796 12.9673 13.1796 12.5106V9.92025C13.1796 8.09381 14.6601 6.61328 16.4866 6.61328H18.0739C18.8358 6.61328 19.5376 6.87089 20.0964 7.30411L20.0968 7.30378C20.3451 6.89007 20.7982 6.61328 21.3157 6.61328C22.1005 6.61328 22.7367 7.24954 22.7367 8.03429C22.7367 8.84019 22.0679 9.45496 21.3481 9.45496C21.3918 9.75923 21.3809 9.69673 21.3809 12.5106C21.3809 12.9665 21.0118 13.3373 20.5538 13.3373C20.5379 14.6849 19.7075 15.8367 18.5319 16.3235L18.5369 16.3358V16.5616C18.5369 17.32 19.155 17.9351 19.9199 17.9287C21.2767 17.9162 22.373 19.0379 22.373 20.3947Z" fill="#B9DCFF"/>
<path d="M22.373 20.3955V21.6938C22.373 21.8399 22.2545 21.9584 22.1084 21.9584H12.4521C12.306 21.9584 12.1875 21.8399 12.1875 21.6938V20.3955C12.1875 19.0386 13.2837 17.9169 14.6405 17.9294C14.8394 17.9313 15.0291 17.8908 15.2001 17.8164V17.8167C15.6009 18.7278 16.5528 19.2755 17.5448 19.159C18.3375 19.0661 19.0339 18.5588 19.3603 17.8167V17.8164C19.5314 17.8908 19.7211 17.9313 19.9199 17.9294C21.2768 17.9169 22.373 19.0386 22.373 20.3955Z" fill="#D1E7FF"/>
<path d="M20.3013 11.4517C20.4418 11.4597 20.5517 11.5751 20.5517 11.7158C20.5517 13.4048 20.5519 13.3174 20.5514 13.3391C20.5355 14.6867 19.7051 15.8385 18.5295 16.3253C16.3827 17.2164 14.0039 15.6333 14.0039 13.2994V11.7388C14.0039 11.5838 14.1367 11.4612 14.2912 11.4752C15.8781 11.6191 17.4408 11.2184 18.753 10.3344C18.9023 10.2338 19.1078 10.3083 19.1549 10.482C19.3188 11.086 19.7655 11.4212 20.3013 11.4517Z" fill="#D1E7FF"/>
<path d="M21.3482 9.45496C21.3919 9.75923 21.381 9.69673 21.381 12.5106C21.381 12.9665 21.0119 13.3373 20.5539 13.3373C20.5544 13.3157 20.5542 13.4031 20.5542 11.714C20.5542 11.5734 20.4444 11.458 20.3039 11.4501C19.7804 11.4201 19.3251 11.0969 19.1574 10.4801C19.1104 10.3065 18.9047 10.2321 18.7556 10.3326C17.4303 11.2253 15.8659 11.6157 14.2938 11.4735C14.1394 11.4596 14.0064 11.582 14.0064 11.7371V13.3373C13.5497 13.3373 13.1797 12.9673 13.1797 12.5106V9.92025C13.1797 8.09381 14.6602 6.61328 16.4867 6.61328H18.074C18.8359 6.61328 19.5377 6.87089 20.0965 7.30411L20.0969 7.30378C20.3452 6.89007 20.7983 6.61328 21.3158 6.61328C22.1006 6.61328 22.7368 7.24954 22.7368 8.03429C22.7368 8.84019 22.068 9.45496 21.3482 9.45496Z" fill="#E8F3FF"/>
<path d="M15.3373 18.0802C15.5194 18.3803 15.3542 18.7716 15.0149 18.8612C14.2045 19.0751 13.1465 19.6451 13.1465 21.2223V21.9584H12.4521C12.306 21.9584 12.1875 21.8399 12.1875 21.6938V20.3955C12.1875 19.0393 13.2824 17.915 14.6383 17.9295C14.838 17.9315 15.0285 17.8911 15.2002 17.8164V17.8167C15.2404 17.9082 15.2863 17.9962 15.3373 18.0802Z" fill="#E8F3FF"/>
<path d="M19.2235 18.0802C19.0414 18.3803 19.2066 18.7716 19.5459 18.8612C20.3564 19.0751 21.4143 19.6451 21.4143 21.2223V21.9584H22.1088C22.2549 21.9584 22.3733 21.8399 22.3733 21.6938V20.3955C22.3733 19.0393 21.2784 17.915 19.9225 17.9295C19.7228 17.9315 19.5323 17.8911 19.3607 17.8164V17.8167C19.3204 17.9082 19.2745 17.9962 19.2235 18.0802Z" fill="#B9DCFF"/>
<path d="M18.5724 16.8795C17.7577 17.2205 16.8623 17.247 15.9844 16.8795C16.0292 16.6934 16.0217 16.5729 16.0217 16.3365L16.0267 16.3242C16.8231 16.6548 17.7321 16.6554 18.5301 16.3242L18.535 16.3365C18.535 16.573 18.5276 16.6935 18.5724 16.8795Z" fill="#A2D0FF"/>
<path d="M19.3141 6.85383C19.7178 7.01733 19.5837 7.61698 19.1483 7.60636C19.0811 7.60474 17.4453 7.60537 17.4787 7.60537C15.6524 7.60537 14.1718 9.08597 14.1718 10.9123V11.3019C14.1718 11.5413 14.0064 11.5501 14.0064 11.7371V12.7003C14.0064 13.1115 13.4494 13.247 13.266 12.8789C13.2107 12.768 13.1797 12.6429 13.1797 12.5106V9.92025C13.1797 8.09388 14.6603 6.61328 16.4867 6.61328H18.074C18.5128 6.61328 18.9314 6.69887 19.3141 6.85383Z" fill="#E8F3FF"/>
<path d="M22.7362 8.03574C22.7362 8.55526 22.4575 9.00931 22.0418 9.25733C22.0418 8.24646 21.5817 7.31693 20.8281 6.70038C21.7493 6.3632 22.7362 7.04642 22.7362 8.03574Z" fill="#E8F3FF"/>
<path d="M22.0349 9.07801C22.0408 9.18919 21.9788 9.29329 21.8766 9.33744C21.6987 9.41426 21.4987 9.45325 21.3454 9.45325C21.2228 8.58054 20.7591 7.81696 20.0938 7.3024C20.1268 7.26933 20.2616 6.97858 20.6561 6.77232C20.7554 6.72034 20.8763 6.73684 20.9593 6.81234C21.5916 7.38828 21.9881 8.19637 22.0349 9.07801Z" fill="#D1E7FF"/>
<path d="M16.6502 15.491C17.1442 15.8217 16.7677 16.5866 16.2067 16.3898C14.9737 15.9571 14.0039 14.8063 14.0039 13.2979V11.7373C14.0039 11.5822 14.1368 11.4598 14.2913 11.4737C14.418 11.4852 14.5572 11.4943 14.7073 11.4989C14.9791 11.5072 15.1944 11.7316 15.1944 12.0035V12.7688C15.1944 13.9205 15.7816 14.9096 16.6502 15.491Z" fill="#E8F3FF"/>
<path d="M22.6365 20.3938V21.9565C22.6365 22.1026 22.518 22.2211 22.3719 22.2211C22.2258 22.2211 22.1073 22.1026 22.1073 21.9565V20.3938C22.1073 19.177 21.1227 18.1923 19.9058 18.1923C19.33 18.1923 18.8076 17.899 18.5083 17.4076C18.4323 17.2828 18.4718 17.1201 18.5966 17.044C18.7214 16.968 18.8842 17.0076 18.9602 17.1323C19.1627 17.4647 19.5162 17.6631 19.9058 17.6631C21.415 17.6631 22.6365 18.8844 22.6365 20.3938ZM18.5727 18.4352C17.6218 19.2356 16.1833 18.9899 15.552 17.9236C15.9578 17.6556 16.2403 17.2126 16.2815 16.6914C18.5399 17.3563 20.7994 15.6614 20.8175 13.3242C20.8176 13.3209 20.8188 11.434 20.8155 11.4075C20.7986 11.2732 20.6803 11.1679 20.5367 11.1767C20.4903 11.1795 20.1718 11.2343 19.8627 11.0483C19.365 10.7489 19.3625 10.0928 19.3625 10.0863C19.3639 9.87126 19.1208 9.74428 18.9451 9.86862C17.86 10.6367 16.585 11.1623 15.1939 11.3571C15.0492 11.3774 14.9483 11.5111 14.9686 11.6558C14.9871 11.788 15.1004 11.8837 15.2303 11.8837C15.3094 11.8837 17.1043 11.6869 18.8994 10.5372C19.0946 11.2698 19.6426 11.6759 20.2885 11.7126V13.2965C20.2885 14.9558 18.9385 16.3058 17.2792 16.3058C15.6198 16.3058 14.2698 14.9558 14.2698 13.2965V11.4404C14.2698 11.2943 14.1514 11.1758 14.0053 11.1758C13.8592 11.1758 13.7407 11.2943 13.7407 11.4404V13.0054C13.5638 12.9106 13.4431 12.724 13.4431 12.5096V9.91931C13.4431 8.24166 14.808 6.87677 16.4856 6.87677H18.0728C19.7504 6.87677 21.1152 8.24159 21.1152 9.91918V12.5096C21.1152 12.6557 21.2337 12.7742 21.3798 12.7742C21.5259 12.7742 21.6444 12.6557 21.6444 12.5096V9.91918C21.6444 8.8636 21.1839 7.91364 20.4535 7.25922C20.6707 7.01669 20.9792 6.87677 21.3137 6.87677C22.3118 6.87677 22.8378 8.0605 22.1797 8.80206C22.0276 8.97355 22.1519 9.24221 22.3775 9.24221C22.4505 9.24221 22.5232 9.21215 22.5755 9.15326C23.537 8.06969 22.765 6.34766 21.3137 6.34766C20.8208 6.34766 20.3525 6.56826 20.0349 6.9364C19.4714 6.56453 18.797 6.34766 18.0728 6.34766H16.4856C14.5162 6.34766 12.914 7.94992 12.914 9.91931V12.5096C12.914 13.024 13.2718 13.4561 13.7515 13.5708C13.851 14.8603 14.6443 15.9584 15.758 16.4909V16.5606C15.758 17.1704 15.2638 17.6631 14.6525 17.6631C13.1402 17.6631 11.9219 18.8874 11.9219 20.3937V21.9565C11.9219 22.1026 12.0403 22.2211 12.1864 22.2211C12.3325 22.2211 12.451 22.1026 12.451 21.9565V20.3938C12.451 19.177 13.4356 18.1923 14.6525 18.1923C14.7886 18.1923 14.9274 18.1756 15.0661 18.1396C15.4683 18.8584 16.1962 19.3376 17.0146 19.4233V21.9565C17.0146 22.1026 17.1331 22.2211 17.2792 22.2211C17.4253 22.2211 17.5437 22.1026 17.5437 21.9565V19.4228C18.0453 19.3699 18.5239 19.1679 18.9135 18.8399C19.0252 18.7458 19.0396 18.5789 18.9455 18.4672C18.8514 18.3554 18.6844 18.3411 18.5727 18.4352Z" fill="#4385F5"/>
</svg>
