<svg width="157" height="100" viewBox="0 0 157 100" fill="none" xmlns="http://www.w3.org/2000/svg">
<rect y="49" width="157" height="42" rx="21" fill="#EDF3FE"/>
<path d="M52.9298 79.823C60.4859 72.2846 67.8058 64.9653 75.1468 57.6616C93.4703 39.4338 111.81 21.2217 130.123 2.97824C132.604 0.50544 135.433 -0.621408 138.891 0.343715C142.013 1.21494 144.002 3.30691 144.752 6.41096C145.565 9.7602 144.316 12.4782 141.913 14.8571C128.868 27.7793 115.855 40.738 102.837 53.6864C88.5169 67.9232 74.2075 82.1601 59.8825 96.3918C55.0602 101.181 50.6367 101.202 45.8617 96.4596C35.1783 85.8537 24.4738 75.2634 13.8323 64.6157C8.82642 59.6075 10.7417 51.8448 17.3323 50.2328C20.701 49.4085 23.4558 50.598 25.8486 52.9873C34.0973 61.23 42.3828 69.4361 50.6577 77.6527C51.3294 78.3309 52.0273 78.9674 52.9298 79.823Z" fill="#4385F5"/>
</svg>
