<svg width="21" height="20" viewBox="0 0 21 20" fill="none" xmlns="http://www.w3.org/2000/svg">
<path d="M0.0664062 1.41797H20.4443V19.1429H0.0664062V1.41797Z" fill="#CFDFE8"/>
<path d="M0.0664062 1.41797H20.4443V6.38094H0.0664062V1.41797Z" fill="#E9686A"/>
<path d="M3.92969 8.51172H6.74043V11.3477H3.92969V8.51172Z" fill="#7D8D9C"/>
<path d="M8.84766 8.51172H11.6584V11.3477H8.84766V8.51172Z" fill="#7D8D9C"/>
<path d="M13.7656 8.51172H16.5764V11.3477H13.7656V8.51172Z" fill="#7D8D9C"/>
<path d="M8.84766 13.4766H11.6584V16.3125H8.84766V13.4766Z" fill="#7D8D9C"/>
<path d="M13.7656 13.4766H16.5764V16.3125H13.7656V13.4766Z" fill="#7D8D9C"/>
<path d="M7.44224 14.8897C7.44224 13.9108 6.34122 13.1172 4.98284 13.1172C3.62446 13.1172 2.52344 13.9108 2.52344 14.8897C2.52344 15.8685 3.62446 16.6622 4.98284 16.6622C6.34122 16.6622 7.44224 15.8685 7.44224 14.8897Z" fill="white"/>
<path d="M4.98642 15.7477L4.03516 14.7879L4.53187 14.2867L4.98642 14.7453L7.54859 12.1602L8.0453 12.6613L4.98642 15.7477Z" fill="#E9686A"/>
<path d="M1.82812 4.60938H4.63887V5.31837H1.82812V4.60938Z" fill="white"/>
<path d="M6.03906 4.60938H6.74175V5.31837H6.03906V4.60938Z" fill="white"/>
<path d="M9.55469 0H10.9601V2.83598H9.55469V0Z" fill="#394D5C"/>
<path d="M13.0664 0H14.4718V2.83598H13.0664V0Z" fill="#394D5C"/>
<path d="M2.52344 0H3.92881V2.83598H2.52344V0Z" fill="#394D5C"/>
<path d="M6.03906 0H7.44443V2.83598H6.03906V0Z" fill="#394D5C"/>
<path d="M16.5742 0H17.9796V2.83598H16.5742V0Z" fill="#394D5C"/>
</svg>
