<svg width="21" height="22" viewBox="0 0 21 22" fill="none" xmlns="http://www.w3.org/2000/svg">
<circle cx="10.5" cy="11.5" r="8.5" fill="#EFF7FF"/>
<circle cx="9.5" cy="13.5" r="7.5" fill="#D8E5FA"/>
<path d="M4.26235 0.000924662L0 3.64062L0.80143 4.61104L5.06378 0.971336L4.26235 0.000924662Z" fill="#4385F5"/>
<path d="M16.0475 0.00615141L15.2461 0.976562L19.5085 4.61626L20.3099 3.64585L16.0475 0.00615141Z" fill="#4385F5"/>
<path d="M17.1071 4.9471C15.3857 3.22723 13.0122 2.16458 10.3849 2.16406C7.75762 2.16458 5.38729 3.22671 3.66847 4.94658C1.95068 6.66696 0.890625 9.03936 0.890625 11.6641C0.890625 14.2888 1.95068 16.6612 3.66847 18.3815C5.38729 20.1014 7.75762 21.1635 10.3849 21.1641C13.0122 21.1635 15.3857 20.1014 17.1071 18.381C18.828 16.6601 19.8901 14.2882 19.8906 11.6641C19.8906 9.03988 18.828 6.668 17.1071 4.9471ZM18.6099 11.6641V11.6651C18.6099 13.9326 17.6901 15.9899 16.2043 17.4762C14.7191 18.963 12.6613 19.8844 10.3911 19.8844H10.3906H10.3901C8.12257 19.8844 6.06527 18.9635 4.57901 17.4767C3.09224 15.9899 2.17131 13.9326 2.17131 11.6656V11.6651V11.6646V11.6641C2.17131 9.39652 3.09224 7.33923 4.57901 5.85297C6.06475 4.36619 8.12205 3.44526 10.3896 3.44526H10.3901H10.3906H10.3911C12.6587 3.44526 14.716 4.36619 16.2022 5.85297C17.689 7.33871 18.6099 9.396 18.6099 11.6641Z" fill="#4385F5"/>
<path d="M10.3641 12.0463V6.42578H9.40234V12.49L14.0865 15.3563L14.5577 14.5729L10.3641 12.0463Z" fill="#4385F5"/>
</svg>
