<svg width="21" height="21" viewBox="0 0 21 21" fill="none" xmlns="http://www.w3.org/2000/svg">
<circle cx="9.5" cy="9.5" r="9.5" transform="rotate(-90 9.5 9.5)" fill="#EFF7FF"/>
<ellipse cx="12" cy="11" rx="8" ry="8" transform="rotate(-90 12 11)" fill="#D8E5FA"/>
<path d="M9.37582 0C9.79271 0 10.2092 0 10.6261 0C10.9604 0.0430612 11.297 0.0735955 11.629 0.131532C14.0269 0.550009 16.039 1.66882 17.6082 3.52906C19.5831 5.87041 20.3429 8.58444 19.8657 11.6058C19.4519 14.2274 18.1496 16.3597 16.037 17.9636C13.8516 19.623 11.3706 20.2642 8.65127 19.9095C6.66391 19.6504 4.91182 18.8393 3.40946 17.5102C1.66285 15.9651 0.573071 14.0422 0.155794 11.7451C0.088466 11.3752 0.0512789 10.9998 0 10.6271C0 10.2102 0 9.79368 0 9.37677C0.0297496 9.13288 0.0551934 8.88822 0.0904232 8.64473C0.405926 6.46505 1.32347 4.5774 2.86653 3.00489C4.3638 1.47896 6.1707 0.525346 8.27861 0.153454C8.64187 0.0896455 9.00983 0.050499 9.37582 0ZM9.99313 18.7535C14.8098 18.7606 18.7411 14.8385 18.752 10.0145C18.763 5.19827 14.8443 1.266 10.0186 1.25034C5.19796 1.23468 1.25027 5.17321 1.24988 9.99841C1.24948 14.8189 5.17174 18.7461 9.99313 18.7535Z" fill="#4385F5"/>
<path d="M8.13183 12.2398C8.69551 11.6741 9.24157 11.1249 9.7892 10.5768C11.1561 9.20904 12.5242 7.84244 13.8903 6.47348C14.0755 6.28793 14.2865 6.20337 14.5444 6.27579C14.7773 6.34117 14.9257 6.49814 14.9817 6.73107C15.0424 6.98239 14.9492 7.18634 14.7699 7.36485C13.7968 8.33451 12.826 9.30691 11.8548 10.2785C10.7866 11.3468 9.71913 12.4151 8.65049 13.4831C8.29076 13.8424 7.96077 13.844 7.60456 13.4882C6.80758 12.6923 6.00904 11.8976 5.2152 11.0986C4.84176 10.7228 4.98464 10.1403 5.47629 10.0194C5.72759 9.95753 5.9331 10.0468 6.1116 10.2261C6.72695 10.8446 7.34503 11.4604 7.96234 12.0769C8.01244 12.1278 8.0645 12.1756 8.13183 12.2398Z" fill="#4385F5"/>
</svg>
