<svg width="22" height="21" viewBox="0 0 22 21" fill="none" xmlns="http://www.w3.org/2000/svg">
<rect x="0.898438" y="3" width="17" height="17" fill="#EFF7FF"/>
<rect x="3.89844" y="3" width="17" height="17" fill="#D1E7FF"/>
<path d="M19.6299 2.64054H18.2551V1.55094C18.2551 1.23718 17.9984 0.980469 17.6846 0.980469C17.3709 0.980469 17.1141 1.23718 17.1141 1.55094V2.64054H11.5235V1.55094C11.5235 1.23718 11.2668 0.980469 10.9531 0.980469C10.6393 0.980469 10.3826 1.23718 10.3826 1.55094V2.64054H4.73491V1.55094C4.73491 1.23718 4.4782 0.980469 4.16444 0.980469C3.85068 0.980469 3.59397 1.23718 3.59397 1.55094V2.64054H2.27618C1.02114 2.64054 0 3.69591 0 4.95095V18.2144C0 19.4752 1.01544 20.4963 2.27618 20.4963H19.6242C20.885 20.4963 21.9004 19.4752 21.9004 18.2201V4.95095C21.9061 3.69591 20.885 2.64054 19.6299 2.64054ZM20.7652 18.2144C20.7652 18.8419 20.2631 19.3496 19.6356 19.3554H19.6299H2.27618C1.64866 19.3554 1.14094 18.8476 1.14094 18.2201V18.2144V4.95095C1.14094 4.31773 1.64866 3.78148 2.27618 3.78148H3.59397V4.60867C3.59397 4.92243 3.85068 5.17914 4.16444 5.17914C4.4782 5.17914 4.73491 4.92243 4.73491 4.60867V3.78148H10.3826V4.60867C10.3826 4.92243 10.6393 5.17914 10.9531 5.17914C11.2668 5.17914 11.5235 4.92243 11.5235 4.60867V3.78148H17.1141V4.60867C17.1141 4.92243 17.3709 5.17914 17.6846 5.17914C17.9984 5.17914 18.2551 4.92243 18.2551 4.60867V3.78148H19.6299C20.2631 3.78148 20.7652 4.32343 20.7652 4.95095V18.2144Z" fill="#4385F5"/>
<path d="M9.45161 7.48828H8.45328C8.13952 7.48828 7.88281 7.74499 7.88281 8.05875C7.88281 8.37251 8.13952 8.62922 8.45328 8.62922H9.45161C9.76537 8.62922 10.0221 8.37251 10.0221 8.05875C10.0221 7.74499 9.76537 7.48828 9.45161 7.48828Z" fill="#4385F5"/>
<path d="M13.4243 7.48828H12.4259C12.1122 7.48828 11.8555 7.74499 11.8555 8.05875C11.8555 8.37251 12.1122 8.62922 12.4259 8.62922H13.4243C13.738 8.62922 13.9947 8.37251 13.9947 8.05875C13.9947 7.74499 13.7437 7.48828 13.4243 7.48828Z" fill="#4385F5"/>
<path d="M17.4282 7.48828H16.4298C16.1161 7.48828 15.8594 7.74499 15.8594 8.05875C15.8594 8.37251 16.1161 8.62922 16.4298 8.62922H17.4282C17.7419 8.62922 17.9986 8.37251 17.9986 8.05875C17.9986 7.74499 17.7419 7.48828 17.4282 7.48828Z" fill="#4385F5"/>
<path d="M9.45161 11.4258H8.45328C8.13952 11.4258 7.88281 11.6825 7.88281 11.9963C7.88281 12.31 8.13952 12.5667 8.45328 12.5667H9.45161C9.76537 12.5667 10.0221 12.31 10.0221 11.9963C10.0221 11.6825 9.76537 11.4258 9.45161 11.4258Z" fill="#4385F5"/>
<path d="M5.45341 11.4258H4.44938C4.13562 11.4258 3.87891 11.6825 3.87891 11.9963C3.87891 12.31 4.13562 12.5667 4.44938 12.5667H5.4477C5.76146 12.5667 6.01817 12.31 6.01817 11.9963C6.01817 11.6825 5.76717 11.4258 5.45341 11.4258Z" fill="#4385F5"/>
<path d="M13.4243 11.4258H12.4259C12.1122 11.4258 11.8555 11.6825 11.8555 11.9963C11.8555 12.31 12.1122 12.5667 12.4259 12.5667H13.4243C13.738 12.5667 13.9947 12.31 13.9947 11.9963C13.9947 11.6825 13.7437 11.4258 13.4243 11.4258Z" fill="#4385F5"/>
<path d="M17.4282 11.4258H16.4298C16.1161 11.4258 15.8594 11.6825 15.8594 11.9963C15.8594 12.31 16.1161 12.5667 16.4298 12.5667H17.4282C17.7419 12.5667 17.9986 12.31 17.9986 11.9963C17.9986 11.6825 17.7419 11.4258 17.4282 11.4258Z" fill="#4385F5"/>
<path d="M9.45161 15.3047H8.45328C8.13952 15.3047 7.88281 15.5614 7.88281 15.8752C7.88281 16.1889 8.13952 16.4456 8.45328 16.4456H9.45161C9.76537 16.4456 10.0221 16.1889 10.0221 15.8752C10.0221 15.5614 9.76537 15.3047 9.45161 15.3047Z" fill="#4385F5"/>
<path d="M5.45341 15.3047H4.44938C4.13562 15.3047 3.87891 15.5614 3.87891 15.8752C3.87891 16.1889 4.13562 16.4456 4.44938 16.4456H5.4477C5.76146 16.4456 6.01817 16.1889 6.01817 15.8752C6.01817 15.5614 5.76717 15.3047 5.45341 15.3047Z" fill="#4385F5"/>
<path d="M13.4243 15.3047H12.4259C12.1122 15.3047 11.8555 15.5614 11.8555 15.8752C11.8555 16.1889 12.1122 16.4456 12.4259 16.4456H13.4243C13.738 16.4456 13.9947 16.1889 13.9947 15.8752C13.9947 15.5614 13.7437 15.3047 13.4243 15.3047Z" fill="#4385F5"/>
</svg>
