<svg width="285" height="286" viewBox="0 0 285 286" fill="none" xmlns="http://www.w3.org/2000/svg">
<path d="M39.3086 113.016H245.688V284.998H39.3086V113.016Z" fill="#F0DE9C"/>
<path d="M39.3086 122.844H58.9638V250.602H39.3086V122.844Z" fill="#37A0C5"/>
<path d="M226.035 122.844H245.69V250.602H226.035V122.844Z" fill="#37A0C5"/>
<path d="M162.156 122.844H171.984V162.154H162.156V122.844Z" fill="#F0C033"/>
<path d="M137.584 285.001H108.102V230.949H122.843V250.604H137.584V285.001Z" fill="#AF7D4D"/>
<path d="M113.017 122.844V284.999H103.189V181.809H58.9648V171.982H103.189V122.844H113.017Z" fill="#F0C033"/>
<path d="M246.3 142.5C242.695 142.5 239.19 141.317 236.324 139.132C233.457 136.946 231.387 133.88 230.433 130.404L216.207 78.6211H245.69L261.658 120.138C262.617 122.631 262.954 125.319 262.642 127.971C262.329 130.624 261.376 133.16 259.864 135.361C258.352 137.562 256.327 139.363 253.964 140.607C251.601 141.85 248.97 142.5 246.3 142.5Z" fill="#C6D6E2"/>
<path d="M212.169 142.5H211.216C207.315 142.5 203.542 141.115 200.568 138.591C197.594 136.068 195.614 132.57 194.98 128.721L186.723 78.6211H216.205L228.036 121.686C228.707 124.129 228.805 126.693 228.323 129.179C227.84 131.666 226.79 134.007 225.255 136.021C223.719 138.036 221.74 139.668 219.47 140.792C217.2 141.916 214.702 142.5 212.169 142.5Z" fill="#8CCEE9"/>
<path d="M177.864 142.5H176.326C172.118 142.5 168.07 140.888 165.014 137.996C161.958 135.103 160.126 131.149 159.895 126.947L157.242 78.6211H186.725L194.1 123.37C194.488 125.725 194.359 128.137 193.722 130.438C193.085 132.738 191.954 134.873 190.41 136.693C188.865 138.513 186.943 139.975 184.776 140.978C182.61 141.981 180.251 142.5 177.864 142.5Z" fill="#C6D6E2"/>
<path d="M143.365 142.5H141.635C139.398 142.5 137.184 142.044 135.13 141.16C133.075 140.276 131.222 138.982 129.685 137.357C128.147 135.733 126.956 133.812 126.186 131.712C125.416 129.612 125.082 127.377 125.204 125.143L127.759 78.6211H157.241L159.796 125.143C159.918 127.377 159.584 129.612 158.814 131.712C158.044 133.812 156.853 135.733 155.316 137.357C153.778 138.982 151.925 140.276 149.87 141.16C147.816 142.044 145.602 142.5 143.365 142.5Z" fill="#8CCEE9"/>
<path d="M127.76 78.6211L125.107 126.947C124.876 131.149 123.045 135.103 119.989 137.996C116.933 140.888 112.885 142.5 108.677 142.5H107.139C104.751 142.5 102.393 141.981 100.226 140.978C98.0598 139.975 96.1375 138.513 94.5927 136.693C93.048 134.873 91.9178 132.738 91.2806 130.438C90.6434 128.137 90.5144 125.725 90.9026 123.37L98.2775 78.6211H127.76Z" fill="#C6D6E2"/>
<path d="M98.2762 78.6211L90.0193 128.721C89.385 132.57 87.4044 136.068 84.4307 138.591C81.457 141.115 77.6835 142.5 73.7833 142.5H72.83C70.2972 142.5 67.7987 141.916 65.5289 140.792C63.2591 139.668 61.2794 138.036 59.7439 136.021C58.2084 134.007 57.1586 131.666 56.6762 129.179C56.1938 126.693 56.2919 124.129 56.9628 121.686L68.7934 78.6211H98.2762Z" fill="#8CCEE9"/>
<path d="M68.7938 78.6211L54.5683 130.404C53.6135 133.88 51.5437 136.946 48.6771 139.132C45.8105 141.317 42.3057 142.5 38.7011 142.5C36.0306 142.5 33.4002 141.85 31.037 140.607C28.6739 139.363 26.6489 137.562 25.1371 135.361C23.6252 133.16 22.6718 130.624 22.3592 127.971C22.0466 125.319 22.3842 122.631 23.3429 120.138L39.311 78.6211H68.7938Z" fill="#C6D6E2"/>
<path d="M196.551 285.001H226.034V230.949H211.292V250.604H196.551V285.001Z" fill="#AF7D4D"/>
<path d="M152.328 226.035H181.811V240.777H152.328V226.035Z" fill="#C6D6E2"/>
<path d="M162.156 240.777H171.984V285.001H162.156V240.777Z" fill="#F0C033"/>
<path d="M39.3086 0H245.688V78.6207H39.3086V0Z" fill="#37A0C5"/>
<path d="M147.414 14.7419V29.4833C147.414 30.7865 146.896 32.0364 145.974 32.9579C145.053 33.8794 143.803 34.3971 142.5 34.3971C141.197 34.3971 139.947 33.8794 139.025 32.9579C138.104 32.0364 137.586 30.7865 137.586 29.4833V14.7419C137.586 13.4387 138.104 12.1889 139.025 11.2673C139.947 10.3458 141.197 9.82812 142.5 9.82813C143.803 9.82812 145.053 10.3458 145.974 11.2673C146.896 12.1889 147.414 13.4387 147.414 14.7419Z" fill="#F0DE9C"/>
<path d="M176.895 49.1367C176.894 53.0463 175.341 56.7956 172.577 59.5601C169.812 62.3246 166.063 63.8778 162.153 63.8781H122.843C118.934 63.8766 115.185 62.3231 112.421 59.5588C109.657 56.7946 108.103 53.0459 108.102 49.1367H176.895Z" fill="#F0DE9C"/>
<path d="M147.414 20.0677V29.4838C147.414 30.7871 146.896 32.0369 145.974 32.9584C145.053 33.8799 143.803 34.3976 142.5 34.3976C141.197 34.3976 139.947 33.8799 139.025 32.9584C138.104 32.0369 137.586 30.7871 137.586 29.4838V20.0677C140.839 19.5191 144.161 19.5191 147.414 20.0677Z" fill="#F0C033"/>
<path d="M167.068 49.1386H117.93C117.93 47.4885 118.095 45.8424 118.421 44.2248C119.557 38.6776 122.573 33.6928 126.961 30.113C131.348 26.5333 136.836 24.5781 142.499 24.5781C148.161 24.5781 153.65 26.5333 158.037 30.113C162.424 33.6928 165.44 38.6776 166.576 44.2248C166.902 45.8424 167.067 47.4885 167.068 49.1386Z" fill="#F0DE9C"/>
<path d="M167.068 49.1364H117.93C117.93 47.4863 118.095 45.8403 118.421 44.2227H166.576C166.902 45.8403 167.067 47.4863 167.068 49.1364Z" fill="#F0C033"/>
<path d="M88.4481 38.8775C82.2293 38.8752 76.1507 37.0289 70.9811 33.572C70.308 33.1233 69.7561 32.5154 69.3744 31.8022C68.9927 31.089 68.793 30.2925 68.793 29.4836V14.7422H78.6206V26.6776C81.6628 28.2335 85.0311 29.0448 88.4481 29.0448C91.8652 29.0448 95.2334 28.2335 98.2757 26.6776V14.7422H108.103V29.4836C108.103 30.2925 107.904 31.0889 107.522 31.8022C107.14 32.5154 106.588 33.1233 105.915 33.572C100.746 37.0288 94.667 38.8752 88.4481 38.8775Z" fill="#C6D6E2"/>
<path d="M83.5352 14.7422H93.3627V68.7939H83.5352V14.7422Z" fill="#C6D6E2"/>
<path d="M191.637 39.3125H201.464V68.7953H191.637V39.3125Z" fill="#C6D6E2"/>
<path d="M196.55 44.2249C204.691 44.2249 211.291 37.625 211.291 29.4836C211.291 21.3421 204.691 14.7422 196.55 14.7422C188.409 14.7422 181.809 21.3421 181.809 29.4836C181.809 37.625 188.409 44.2249 196.55 44.2249Z" fill="#C6D6E2"/>
<path d="M196.551 250.602H284.999V284.998H196.551V250.602Z" fill="#349B66"/>
<path d="M0 250.602H88.4483V284.998H0V250.602Z" fill="#349B66"/>
<path d="M176.899 49.1367C176.899 53.0463 175.345 56.7956 172.581 59.5601C169.816 62.3246 166.067 63.8778 162.158 63.8781H122.847C120.319 63.8787 117.833 63.2286 115.629 61.9904C113.425 60.7522 111.577 58.9677 110.262 56.8084C112.57 58.2225 115.226 58.9688 117.933 58.9643H157.244C160.292 58.9653 163.265 58.0205 165.754 56.2603C168.242 54.5001 170.123 52.0111 171.137 49.1367H176.899Z" fill="#F0C033"/>
</svg>
