<svg width="39" height="39" viewBox="0 0 39 39" fill="none" xmlns="http://www.w3.org/2000/svg">
<path d="M39 19.5C39 30.2685 30.2685 39 19.5 39C8.73151 39 0 30.2685 0 19.5C0 8.73152 8.73151 6.89227e-07 19.5 6.89227e-07C30.2713 -0.00283238 39 8.72868 39 19.5Z" fill="#EFEFEF"/>
<path d="M10.624 19.6332C9.84491 19.6332 9.20747 18.9957 9.20747 18.2166V13.3069C9.20747 12.5278 9.84491 11.8904 10.624 11.8904C11.4031 11.8904 12.0405 12.5278 12.0405 13.3069V18.2166C12.0405 18.9957 11.4031 19.6332 10.624 19.6332Z" fill="#403408"/>
<path d="M28.3788 19.6332C27.5997 19.6332 26.9623 18.9957 26.9623 18.2166V13.3069C26.9623 12.5278 27.5997 11.8904 28.3788 11.8904C29.1579 11.8904 29.7953 12.5278 29.7953 13.3069V18.2166C29.7953 18.9957 29.1579 19.6332 28.3788 19.6332Z" fill="#403408"/>
<path fill-rule="evenodd" clip-rule="evenodd" d="M12.5136 27.206L11.5602 26.9338C11.4098 27.4604 11.7148 28.0091 12.2414 28.1595C12.7669 28.3095 13.3145 28.0061 13.4662 27.4815C13.4662 27.4815 13.4662 27.4815 13.4662 27.4815C13.4663 27.481 13.4666 27.48 13.4671 27.4785C13.4685 27.4739 13.4713 27.4647 13.4756 27.4512C13.4843 27.4242 13.499 27.3801 13.5202 27.3214C13.5628 27.2038 13.6313 27.0288 13.7303 26.8156C13.9293 26.387 14.2453 25.8168 14.7108 25.2503C15.6275 24.1346 17.1202 23.0272 19.534 23.0272C21.9479 23.0272 23.4236 24.1261 24.3228 25.2279C24.7801 25.7883 25.0885 26.3522 25.2819 26.7761C25.3781 26.987 25.4443 27.16 25.4853 27.2761C25.5058 27.3341 25.5199 27.3776 25.5282 27.4041C25.5323 27.4174 25.535 27.4264 25.5363 27.4309C25.537 27.4331 25.5373 27.4342 25.5373 27.4341L25.537 27.4331L25.5368 27.4323C25.6834 27.9589 26.2287 28.2677 26.7559 28.1221C27.2838 27.9764 27.5935 27.4303 27.4478 26.9024L26.492 27.1663C27.4478 26.9024 27.4477 26.902 27.4475 26.9014L27.4472 26.9003L27.4465 26.8977L27.4446 26.8911C27.4432 26.8861 27.4414 26.8798 27.4392 26.8724C27.4348 26.8574 27.4289 26.8376 27.4213 26.8133C27.4061 26.7647 27.3843 26.6979 27.3553 26.6156C27.2972 26.4511 27.2094 26.2233 27.0862 25.9532C26.8408 25.4151 26.4488 24.6964 25.8592 23.974C24.6648 22.5105 22.6615 21.0441 19.534 21.0441C16.4034 21.0441 14.3859 22.5219 13.1786 23.9913C12.582 24.7174 12.1825 25.4398 11.9315 25.9806C11.8055 26.2521 11.7154 26.4811 11.6555 26.6462C11.6256 26.7289 11.6032 26.7959 11.5875 26.8447C11.5797 26.869 11.5735 26.8889 11.569 26.9038C11.5667 26.9113 11.5649 26.9176 11.5634 26.9226L11.5615 26.9291L11.5608 26.9317L11.5604 26.9328C11.5603 26.9333 11.5602 26.9338 12.5136 27.206ZM25.5364 27.4311C25.5365 27.4315 25.5366 27.4319 25.5368 27.4323L25.5366 27.4319L25.5364 27.4311Z" fill="#403408"/>
</svg>
