<svg width="40" height="40" viewBox="0 0 40 40" fill="none" xmlns="http://www.w3.org/2000/svg">
<path d="M20.001 0C8.9537 0 1.08523e-07 8.9537 1.08523e-07 19.999C-0.000273515 22.6256 0.516882 25.2266 1.52193 27.6533C2.52698 30.0801 4.00024 32.2851 5.85756 34.1424C7.71488 35.9998 9.91989 37.473 12.3467 38.4781C14.7734 39.4831 17.3744 40.0003 20.001 40C31.0442 40 40 31.0463 40 19.999C39.9979 8.9537 31.0421 0 20.001 0ZM19.999 35.8294C17.9198 35.8294 15.861 35.4199 13.9401 34.6242C12.0192 33.8285 10.2739 32.6623 8.80368 31.1922C7.3335 29.722 6.16729 27.9766 5.37163 26.0557C4.57597 24.1348 4.16645 22.076 4.16645 19.9969C4.16645 17.9177 4.57597 15.8589 5.37163 13.938C6.16729 12.0171 7.3335 10.2718 8.80368 8.8016C10.2739 7.33142 12.0192 6.1652 13.9401 5.36954C15.861 4.57389 17.9198 4.16437 19.999 4.16437C24.198 4.16437 28.2251 5.83243 31.1942 8.8016C34.1634 11.7708 35.8315 15.7978 35.8315 19.9969C35.8315 24.1959 34.1634 28.223 31.1942 31.1922C28.2251 34.1613 24.198 35.8294 19.999 35.8294ZM25.2091 19.4782C26.934 19.4782 28.3339 17.847 28.3339 15.8325C28.3339 13.818 26.934 12.1869 25.2091 12.1869C23.4842 12.1869 22.0843 13.818 22.0843 15.8325C22.0843 17.847 23.4821 19.4782 25.2091 19.4782ZM14.793 19.4782C16.5179 19.4782 17.9178 17.847 17.9178 15.8325C17.9178 13.818 16.5179 12.1869 14.793 12.1869C13.0681 12.1869 11.6681 13.818 11.6681 15.8325C11.6681 17.847 13.066 19.4782 14.793 19.4782ZM20.0031 22.603C12.8702 22.603 10.3745 27.4257 10.2703 27.6319C10.0847 28.0026 10.0539 28.4319 10.1848 28.8253C10.3156 29.2187 10.5974 29.5441 10.9682 29.7297C11.3389 29.9153 11.7682 29.9461 12.1616 29.8152C12.555 29.6844 12.8803 29.4026 13.066 29.0318C13.0827 28.9964 14.7784 25.7278 20.0031 25.7278C25.1341 25.7278 26.8736 28.9089 26.9361 29.0297C27.0268 29.2149 27.1532 29.3804 27.3081 29.5165C27.463 29.6526 27.6433 29.7567 27.8386 29.8227C28.034 29.8888 28.2404 29.9156 28.4462 29.9015C28.6519 29.8874 28.8528 29.8327 29.0373 29.7406C29.2218 29.6485 29.3862 29.5208 29.5211 29.3648C29.656 29.2089 29.7587 29.0278 29.8232 28.8319C29.8878 28.6361 29.9129 28.4294 29.8973 28.2238C29.8816 28.0182 29.8253 27.8177 29.7318 27.634C29.6297 27.4277 27.1361 22.603 20.0031 22.603Z" fill="black"/>
</svg>
