<svg width="37" height="37" viewBox="0 0 37 37" fill="none" xmlns="http://www.w3.org/2000/svg">
<path d="M37 18.4978C37 28.7156 28.7201 36.9955 18.5022 36.9955C8.27991 37 0 28.7156 0 18.4978C0 8.27991 8.27991 0 18.4978 0C28.7156 0 37 8.27991 37 18.4978Z" fill="url(#paint0_linear)"/>
<path d="M29.0826 20.2387C29.0826 21.6396 28.2099 22.7764 27.1312 22.7764C26.0526 22.7764 25.1799 21.6396 25.1799 20.2387C25.1799 18.8379 26.0526 17.701 27.1312 17.701C28.2099 17.701 29.0826 18.8379 29.0826 20.2387Z" fill="#1C191A"/>
<path d="M9.93141 22.8212C11.0091 22.8212 11.8828 21.685 11.8828 20.2835C11.8828 18.882 11.0091 17.7458 9.93141 17.7458C8.8537 17.7458 7.98004 18.882 7.98004 20.2835C7.98004 21.685 8.8537 22.8212 9.93141 22.8212Z" fill="#1C191A"/>
<path d="M7.24603 16.7657C7.34449 16.5151 7.63988 16.175 8.06059 15.9243C8.4813 15.6692 9.0139 15.5036 9.55993 15.5036C9.83742 15.5036 10.1194 15.5439 10.4013 15.6379C10.7281 15.7453 11.0772 15.5708 11.1846 15.244C11.292 14.9173 11.1174 14.5682 10.7907 14.4608C10.3745 14.3221 9.95826 14.2594 9.55545 14.2594C8.75431 14.2594 8.01584 14.4966 7.4161 14.8591C6.81637 15.2217 6.34195 15.705 6.09579 16.2913C5.966 16.6091 6.11369 16.9716 6.43146 17.1014C6.75371 17.2312 7.11623 17.079 7.24603 16.7657Z" fill="#1C191A"/>
<path d="M30.4164 16.242C30.1702 15.6602 29.6958 15.1768 29.096 14.8098C28.4963 14.4473 27.7534 14.2101 26.9567 14.2101C26.5539 14.2101 26.1332 14.2727 25.7214 14.4115C25.3947 14.5189 25.2202 14.8725 25.3276 15.1992C25.435 15.5259 25.7886 15.7005 26.1153 15.5931C26.3972 15.4991 26.6792 15.4588 26.9567 15.4588C27.5072 15.4588 28.0398 15.6289 28.456 15.8795C28.8767 16.1301 29.1721 16.4703 29.2706 16.7209C29.4004 17.0387 29.7629 17.1864 30.0807 17.0566C30.3985 16.9268 30.5462 16.5553 30.4164 16.242Z" fill="#1C191A"/>
<path d="M13.1091 29.4228H23.8819C24.2534 29.4228 24.5533 29.1229 24.5533 28.7514C24.5533 28.3799 24.2534 28.0801 23.8819 28.0801H13.1091C12.7376 28.0801 12.4378 28.3799 12.4378 28.7514C12.4378 29.1229 12.7421 29.4228 13.1091 29.4228Z" fill="#1C191A"/>
<defs>
<linearGradient id="paint0_linear" x1="7.41629" y1="33.0662" x2="43.0015" y2="-13.8537" gradientUnits="userSpaceOnUse">
<stop stop-color="#FD8807"/>
<stop offset="0.28" stop-color="#FFD052"/>
<stop offset="0.5755" stop-color="#FEF8C7"/>
<stop offset="1" stop-color="white"/>
</linearGradient>
</defs>
</svg>
