<svg width="19" height="20" viewBox="0 0 19 20" fill="none" xmlns="http://www.w3.org/2000/svg">
    <path d="M18.6719 5.625V18.8281C18.6719 19.4742 18.1461 20 17.5 20H1.17188C0.525781 20 0 19.4742 0 18.8281V1.17188C0 0.525781 0.525781 0 1.17188 0H5C6.51172 0.676562 8.01523 0.926172 9.33594 0.962891C11.8313 1.03281 13.6719 0.344141 13.6719 0.344141L18.502 5.21211C18.6109 5.32187 18.6719 5.47031 18.6719 5.625Z" fill="#4D5788"/>
    <path d="M18.6719 5.6251V18.8282C18.6719 19.4743 18.1461 20.0001 17.5 20.0001H9.33594V0.962988C11.8312 1.03291 13.6719 0.344238 13.6719 0.344238L18.502 5.21221C18.6109 5.32197 18.6719 5.47041 18.6719 5.6251Z" fill="#313A6B"/>
    <path d="M13.6719 0.344141V6.25C13.6719 6.57344 13.4094 6.83594 13.0859 6.83594H5.58594C5.2625 6.83594 5 6.57344 5 6.25V0H13.0859C13.2422 0 13.3918 0.0625 13.502 0.173047L13.6719 0.344141Z" fill="#F3D652"/>
    <path d="M13.6719 0.344141V6.25C13.6719 6.57344 13.4094 6.83594 13.0859 6.83594H9.33594V0H13.0859C13.2422 0 13.3918 0.0625 13.502 0.173047L13.6719 0.344141Z" fill="#E9BC3E"/>
    <path d="M11.1719 0V3.75C11.1719 4.07344 10.9094 4.33594 10.5859 4.33594C10.2625 4.33594 10 4.07344 10 3.75V0H11.1719Z" fill="#DC455B"/>
    <path d="M16.1719 10V16.875C16.1719 17.1984 15.9094 17.4609 15.5859 17.4609H3.08594C2.7625 17.4609 2.5 17.1984 2.5 16.875V10C2.5 9.67656 2.7625 9.41406 3.08594 9.41406H15.5859C15.9094 9.41406 16.1719 9.67656 16.1719 10Z" fill="#DFE5F2"/>
    <path d="M16.1719 10V16.875C16.1719 17.1984 15.9094 17.4609 15.5859 17.4609H9.33594V9.41406H15.5859C15.9094 9.41406 16.1719 9.67656 16.1719 10Z" fill="#C7CDDE"/>
    <path d="M7.46094 13.0859H5.58594C5.26234 13.0859 5 12.8236 5 12.5C5 12.1764 5.26234 11.9141 5.58594 11.9141H7.46094C7.78453 11.9141 8.04688 12.1764 8.04688 12.5C8.04688 12.8236 7.78453 13.0859 7.46094 13.0859Z" fill="#313A6B"/>
</svg>
