<svg width="11" height="10" viewBox="0 0 11 10" fill="none" xmlns="http://www.w3.org/2000/svg">
<path d="M7.11251 8.52144V9.25217H3.41016V8.52144C3.81862 8.05018 4.04345 7.44742 4.04345 6.82373V6.81641H6.47922V6.82373C6.47922 7.44742 6.70405 8.05018 7.11251 8.52144Z" fill="#9BB9C3"/>
<path d="M7.84316 8.76874V9.01232C7.84316 9.14686 7.73412 9.2559 7.59958 9.2559H2.92291C2.78838 9.2559 2.67934 9.14686 2.67934 9.01232V8.76874C2.67934 8.63421 2.78838 8.52517 2.92291 8.52517H7.59958C7.73412 8.52517 7.84316 8.63421 7.84316 8.76874ZM10.2789 0H0.243576C0.109038 0 0 0.109038 0 0.243576V7.06371C0 7.19825 0.109038 7.30729 0.243576 7.30729H10.2789C10.4135 7.30729 10.5225 7.19825 10.5225 7.06371V0.243576C10.5225 0.109038 10.4135 0 10.2789 0Z" fill="#87A0AF"/>
<path d="M10.28 7.30729H0.731857C0.59732 7.30729 0.488281 7.19825 0.488281 7.06371V0.243576C0.488281 0.109038 0.59732 0 0.731857 0H10.28C10.4146 0 10.5236 0.109038 10.5236 0.243576V7.06371C10.5236 7.19825 10.4146 7.30729 10.28 7.30729Z" fill="#9BB9C3"/>
<path d="M9.67362 6.82378H0.856163C0.788894 6.82378 0.734375 6.76926 0.734375 6.70199V0.856163C0.734375 0.788894 0.788894 0.734375 0.856163 0.734375H9.67362C9.74089 0.734375 9.79541 0.788894 9.79541 0.856163V6.70199C9.79541 6.76926 9.74089 6.82378 9.67362 6.82378Z" fill="#00808A"/>
<path d="M9.66736 6.82378H1.22335C1.15608 6.82378 1.10156 6.76926 1.10156 6.70199V0.856163C1.10156 0.788894 1.15608 0.734375 1.22335 0.734375H9.66736C9.73463 0.734375 9.78915 0.788894 9.78915 0.856163V6.70199C9.78915 6.76926 9.73463 6.82378 9.66736 6.82378Z" fill="#0995A3"/>
<path d="M6.32957 4.02212C6.32957 4.25552 6.14032 4.44477 5.90692 4.44477C5.67362 4.44477 5.48438 4.25552 5.48438 4.02212C5.48438 3.78873 5.67362 3.59948 5.90692 3.59948C6.14032 3.59948 6.32957 3.78873 6.32957 4.02212V4.02212ZM5.90692 4.65599C5.67362 4.65599 5.48438 4.84524 5.48438 5.07864C5.48438 5.31203 5.67362 5.50128 5.90692 5.50128C6.14032 5.50128 6.32957 5.31203 6.32957 5.07864C6.32957 4.84524 6.14032 4.65599 5.90692 4.65599V4.65599ZM5.90692 2.54297C5.67362 2.54297 5.48438 2.73222 5.48438 2.96561C5.48438 3.19901 5.67362 3.38816 5.90692 3.38816C6.14032 3.38816 6.32957 3.19901 6.32957 2.96561C6.32957 2.73222 6.14032 2.54297 5.90692 2.54297V2.54297ZM8.83298 2.54297H6.78446C6.64993 2.54297 6.54089 2.65201 6.54089 2.78654V3.14458C6.54089 3.27912 6.64993 3.38816 6.78446 3.38816H8.83298C8.96752 3.38816 9.07655 3.27912 9.07655 3.14458V2.78654C9.07655 2.65201 8.96742 2.54297 8.83298 2.54297ZM8.83298 3.59948H6.78446C6.64993 3.59948 6.54089 3.70861 6.54089 3.84306V4.20119C6.54089 4.33563 6.64993 4.44477 6.78446 4.44477H8.83298C8.96752 4.44477 9.07655 4.33563 9.07655 4.20119V3.84306C9.07655 3.70861 8.96742 3.59948 8.83298 3.59948ZM8.83298 4.65599H6.78446C6.64993 4.65599 6.54089 4.76513 6.54089 4.89957V5.2577C6.54089 5.39214 6.64993 5.50128 6.78446 5.50128H8.83298C8.96752 5.50128 9.07655 5.39214 9.07655 5.2577V4.89957C9.07655 4.76513 8.96742 4.65599 8.83298 4.65599Z" fill="#016A74"/>
<path d="M10.28 7.30772H0.731857C0.59732 7.30772 0.488281 7.19869 0.488281 7.06415V6.08984H10.5236V7.06415C10.5236 7.19869 10.4146 7.30772 10.28 7.30772Z" fill="#D8DEE1"/>
<path d="M0.832726 0.976562H2.00998V1.49378C2.00998 1.82023 1.71921 2.08483 1.36051 2.08483C1.00171 2.08483 0.710938 1.82023 0.710938 1.49378V1.08741C0.710938 1.02613 0.765457 0.976562 0.832726 0.976562ZM3.30912 1.49378C3.30912 1.82023 3.59988 2.08483 3.95868 2.08483C4.31739 2.08483 4.60825 1.82023 4.60825 1.49378V0.976562H3.30912V1.49378ZM5.90729 1.49378C5.90729 1.82023 6.19806 2.08483 6.55686 2.08483C6.91557 2.08483 7.20633 1.82023 7.20633 1.49378V0.976562H5.90729V1.49378ZM9.68272 0.976562H8.50547V1.49378C8.50547 1.82023 8.79624 2.08483 9.15494 2.08483C9.51374 2.08483 9.80451 1.82023 9.80451 1.49378V1.08741C9.80451 1.02613 9.74999 0.976562 9.68272 0.976562Z" fill="#FC544D"/>
<path d="M2.01181 0.976562H3.31086V1.49378C3.31086 1.82023 3.02009 2.08483 2.66129 2.08483C2.30258 2.08483 2.01172 1.82023 2.01172 1.49378V0.976562H2.01181ZM4.6099 1.49378C4.6099 1.82023 4.90076 2.08483 5.25947 2.08483C5.61817 2.08483 5.90903 1.82023 5.90903 1.49378V0.976562H4.60999V1.49378H4.6099ZM7.20808 0.976562V1.49378C7.20808 1.82023 7.49884 2.08483 7.85764 2.08483C8.21635 2.08483 8.50721 1.82023 8.50721 1.49378V0.976562H7.20808Z" fill="#FFDF8E"/>
<path d="M10.0158 1.21901H0.516319C0.44905 1.21901 0.394531 1.16449 0.394531 1.09722V0.610069C0.394531 0.5428 0.44905 0.488281 0.516319 0.488281H10.0158C10.0831 0.488281 10.1376 0.5428 10.1376 0.610069V1.09722C10.1376 1.16449 10.0831 1.21901 10.0158 1.21901Z" fill="#D73131"/>
<path d="M10.0158 0.731857H0.516319C0.44905 0.731857 0.394531 0.677338 0.394531 0.610069C0.394531 0.5428 0.44905 0.488281 0.516319 0.488281H10.0158C10.0831 0.488281 10.1376 0.5428 10.1376 0.610069C10.1376 0.677338 10.0831 0.731857 10.0158 0.731857Z" fill="#E84444"/>
<path d="M4.62743 4.02075C4.62743 4.89515 3.91858 5.60399 3.04418 5.60399C2.16978 5.60399 1.46094 4.89515 1.46094 4.02075C1.46094 3.14634 2.16978 2.4375 3.04418 2.4375C3.91858 2.4375 4.62743 3.14634 4.62743 4.02075Z" fill="#FC544D"/>
<path d="M4.31603 2.61313V3.37678C4.31603 3.59676 4.19053 3.78734 4.00719 3.88106V5.27477C3.85495 5.39114 3.68102 5.48038 3.49244 5.53557V3.88106C3.30919 3.78734 3.18359 3.59676 3.18359 3.37678V2.61313C3.18359 2.58944 3.20281 2.57031 3.22651 2.57031C3.35448 2.57031 3.45819 2.67402 3.45819 2.8019V3.26517C3.45819 3.30789 3.49273 3.34243 3.53535 3.34243C3.57798 3.34243 3.61261 3.30789 3.61261 3.26517V2.79115C3.61261 2.70713 3.6559 2.62902 3.72707 2.58449C3.74106 2.57574 3.75866 2.57574 3.77255 2.58449C3.84382 2.62902 3.88711 2.70713 3.88711 2.79115V3.26517C3.88711 3.30789 3.92165 3.34243 3.96437 3.34243C4.007 3.34243 4.04153 3.30789 4.04153 3.26517V2.8019C4.04153 2.67402 4.14524 2.57031 4.27322 2.57031C4.29691 2.57022 4.31603 2.58944 4.31603 2.61313V2.61313Z" fill="#E1EBF0"/>
<path d="M3.76258 3.89798V5.43279C3.67552 5.47732 3.58389 5.51405 3.48846 5.54193V3.88742C3.30521 3.7937 3.17961 3.60312 3.17961 3.38314V2.61949C3.17961 2.5958 3.19883 2.57667 3.22253 2.57667C3.34574 2.57667 3.44641 2.67277 3.45364 2.79408V3.19437C3.45364 3.19437 3.45383 3.24365 3.45411 3.25117C3.45411 3.25117 3.45535 3.28675 3.45744 3.29389C3.47409 3.43908 3.54574 3.56753 3.65107 3.65802C3.72119 3.71834 3.76258 3.8055 3.76258 3.89798V3.89798ZM2.83004 2.87106C2.77381 2.64603 2.57163 2.48828 2.33975 2.48828C2.10778 2.48828 1.9056 2.64603 1.84936 2.87106L1.79037 3.10693C1.77915 3.15184 1.77344 3.19798 1.77344 3.24432V3.38047C1.77344 3.60045 1.89903 3.79103 2.08228 3.88475V5.28113C2.23452 5.39749 2.40854 5.48674 2.59703 5.54193V3.88475C2.78038 3.79103 2.90597 3.60045 2.90597 3.38047V3.24422C2.90597 3.19798 2.90026 3.15184 2.88904 3.10693L2.83004 2.87106Z" fill="#B4D2D7"/>
<path d="M2.90904 3.24432V3.38047C2.90904 3.43014 2.90257 3.47819 2.89058 3.52405C2.79658 3.62158 2.67317 3.68076 2.53797 3.68076C2.24301 3.68076 2.00391 3.39941 2.00391 3.05231C2.00391 2.80617 2.12427 2.59323 2.29943 2.49009C2.3137 2.48885 2.32817 2.48828 2.34282 2.48828C2.57469 2.48828 2.77688 2.64603 2.83321 2.87106L2.8921 3.10693C2.90333 3.15184 2.90904 3.19798 2.90904 3.24432ZM2.48078 4.14783C2.41428 4.14783 2.36042 4.20169 2.36042 4.2681V5.4503C2.43711 5.48722 2.51732 5.51767 2.60019 5.54193V4.25364C2.59296 4.19408 2.54234 4.14783 2.48078 4.14783V4.14783Z" fill="#E1EBF0"/>
</svg>
