<svg width="14" height="14" viewBox="0 0 14 14" fill="none" xmlns="http://www.w3.org/2000/svg">
<path d="M1.75 1.75H5.25V0H0V5.25H1.75V1.75Z" fill="black"/>
<path d="M5.25 12.25H1.75V8.75H0V14H5.25V12.25Z" fill="black"/>
<path d="M8.75 1.75H12.25V5.25H14V0H8.75V1.75Z" fill="black"/>
<path d="M8.75 12.25H12.25V8.75H14V14H8.75V12.25Z" fill="black"/>
<path d="M7 3.9375C6.59783 3.9375 6.19959 4.01671 5.82803 4.17062C5.45647 4.32452 5.11887 4.55011 4.83449 4.83449C4.55011 5.11887 4.32452 5.45647 4.17062 5.82803C4.01671 6.19959 3.9375 6.59783 3.9375 7C3.9375 7.40217 4.01671 7.80041 4.17062 8.17197C4.32452 8.54353 4.55011 8.88113 4.83449 9.16551C5.11887 9.44989 5.45647 9.67548 5.82803 9.82938C6.19959 9.98329 6.59783 10.0625 7 10.0625C7.81223 10.0625 8.59118 9.73984 9.16551 9.16551C9.73984 8.59118 10.0625 7.81223 10.0625 7C10.0625 6.18777 9.73984 5.40882 9.16551 4.83449C8.59118 4.26016 7.81223 3.9375 7 3.9375Z" fill="black"/>
</svg>
