<svg width="20" height="19" viewBox="0 0 20 19" fill="none" xmlns="http://www.w3.org/2000/svg">
<path d="M18.7723 10.7592L15.5442 15.4344C14.9209 16.2693 13.919 16.7702 12.8726 16.7702H3.33669L2.75781 10.915L3.33669 10.3919C4.18268 9.64605 4.73925 9.13404 5.83013 8.87798C7.13248 8.57747 8.42748 8.94477 9.2846 9.72397C9.50723 9.91324 9.64081 10.0913 9.91909 10.0913H10.0527C12.6352 10.0913 10.3013 10.0913 12.8726 10.0913C13.4849 10.0913 13.9858 10.5923 13.9858 11.2045C13.9858 11.8167 13.4849 12.3176 12.8726 12.3176H10.6092C10.2975 12.3176 10.0527 12.5625 10.0527 12.8742C10.0527 13.1859 10.2975 13.4308 10.6092 13.4308H13.24C13.4515 13.4308 13.8522 13.2972 14.0637 13.0746L17.0692 9.33441C17.4477 8.92254 18.0822 8.85575 18.5386 9.1897C19.0394 9.55704 19.1397 10.2694 18.7723 10.7592Z" fill="#FEDBAB"/>
<path d="M10.0625 12.8766V10.0938C12.645 10.0938 10.3111 10.0938 12.8825 10.0938C13.4947 10.0938 13.9956 10.5947 13.9956 11.2069C13.9956 11.8191 13.4947 12.32 12.8825 12.32H10.6191C10.3074 12.32 10.0625 12.5649 10.0625 12.8766Z" fill="#FEC478"/>
<path d="M18.7821 10.7629L15.5541 15.4381C14.9307 16.273 13.9288 16.7739 12.8825 16.7739H10.0625V12.8779C10.0625 13.1896 10.3074 13.4345 10.6191 13.4345H13.2498C13.4613 13.4345 13.8621 13.3009 14.0736 13.0783L17.0791 9.3381C17.4575 8.92624 18.092 8.85945 18.5484 9.1934C19.0493 9.56077 19.1495 10.2731 18.7821 10.7629Z" fill="#FEC478"/>
<path d="M3.39835 18.6896L0.0589093 12.0107C-0.0786014 11.7357 0.0328246 11.4014 0.307846 11.2639L1.53839 10.6486C2.36294 10.2372 3.36681 10.572 3.77882 11.3954L6.12252 16.0828C6.53531 16.9084 6.20129 17.9104 5.37571 18.3232L4.14516 18.9385C3.86736 19.0765 3.53512 18.9623 3.39835 18.6896Z" fill="#17ACE8"/>
<path d="M10.0562 3.33984C8.2195 3.33984 6.67969 4.87966 6.67969 6.71639V7.31007C6.67969 7.62179 6.92454 7.86664 7.23626 7.86664H12.8762C13.1879 7.86664 13.4328 7.62179 13.4328 7.31007V6.71639C13.4328 4.87966 11.893 3.33984 10.0562 3.33984Z" fill="#1689FC"/>
<path d="M13.4312 6.71639V7.31007C13.4312 7.62179 13.1864 7.86664 12.8747 7.86664H10.0547V3.33984C11.8914 3.33984 13.4312 4.87966 13.4312 6.71639Z" fill="#136EF1"/>
<path d="M10.0564 0C8.83194 0 7.79297 1.00187 7.79297 2.22629C7.79297 3.45072 8.83194 4.45259 10.0564 4.45259C11.2808 4.45259 12.3198 3.45072 12.3198 2.22629C12.3198 1.00187 11.2808 0 10.0564 0Z" fill="#17ACE8"/>
<path d="M12.3181 2.22629C12.3181 3.45072 11.2791 4.45259 10.0547 4.45259V0C11.2791 0 12.3181 1.00187 12.3181 2.22629Z" fill="#1689FC"/>
</svg>
