<svg width="13" height="21" viewBox="0 0 13 21" fill="none" xmlns="http://www.w3.org/2000/svg">
<path d="M13 1.83962V19.0912C13 20.1054 12.1059 20.9308 11.0071 20.9308H1.99292C0.894057 20.9308 0 20.1054 0 19.0912V1.83962C0 0.825377 0.894057 0 1.99292 0H11.0071C12.1059 0 13 0.825377 13 1.83962Z" fill="#212121"/>
<path d="M11.0071 0H1.99292C0.894057 0 0 0.825377 0 1.83962V19.0912C0 20.1054 0.894057 20.9308 1.99292 20.9308H11.0071C12.1059 20.9308 13 20.1054 13 19.0912V1.83962C13 0.825377 12.1059 0 11.0071 0ZM11.7736 17.0472H1.22642V1.83962C1.22642 1.50154 1.57022 1.22641 1.99292 1.22641H11.0071C11.4298 1.22641 11.7736 1.50154 11.7736 1.83962V17.0472Z" fill="#D7DADD"/>
<ellipse cx="6.49888" cy="18.8817" rx="0.928572" ry="0.928572" fill="#B3BAC5"/>
</svg>
