<svg width="10" height="17" viewBox="0 0 10 17" fill="none" xmlns="http://www.w3.org/2000/svg">
<path d="M8.52337 0H1.47663C0.662402 0 0 0.662402 0 1.47659V15.19C0 16.0042 0.662435 16.6666 1.47663 16.6666H8.52337C9.33757 16.6666 10 16.0042 10 15.19V1.47659C10 0.662402 9.33757 0 8.52337 0V0Z" fill="black"/>
<path d="M10 15.1901V1.4766C10 0.662402 9.33757 0 8.52337 0H5V16.6667H8.52337C9.33757 16.6667 10 16.0043 10 15.1901Z" fill="#282D32"/>
<path d="M8.46569 0.976562H7.90797V1.53428C7.90797 2.38164 7.22106 3.06855 6.3737 3.06855H3.6263C2.77894 3.06855 2.09202 2.38164 2.09202 1.53428V0.976562H1.53431C1.22679 0.976562 0.976562 1.22676 0.976562 1.53428V15.1324C0.976562 15.4399 1.22679 15.6901 1.53431 15.6901H8.46569C8.77321 15.6901 9.02344 15.4399 9.02344 15.1324V1.53428C9.02344 1.22676 8.77321 0.976562 8.46569 0.976562V0.976562Z" fill="#C8CDD4"/>
<path d="M9.02344 15.1324V1.53428C9.02344 1.22676 8.77321 0.976562 8.46569 0.976562H7.90798V1.53428C7.90798 2.38164 7.22106 3.06855 6.3737 3.06855H5V15.6901H8.46569C8.77321 15.6901 9.02344 15.4399 9.02344 15.1324V15.1324Z" fill="#E6E9ED"/>
<path d="M6.04515 14.5742H3.95312C3.68346 14.5742 3.46484 14.3556 3.46484 14.0859C3.46484 13.8163 3.68346 13.5977 3.95312 13.5977H6.04515C6.31481 13.5977 6.53343 13.8163 6.53343 14.0859C6.53343 14.3556 6.31481 14.5742 6.04515 14.5742Z" fill="#E6E9ED"/>
<path d="M6.53428 14.0859C6.53428 13.8163 6.31566 13.5977 6.046 13.5977H5V14.5742H6.046C6.31566 14.5742 6.53428 14.3556 6.53428 14.0859Z" fill="#C8CDD4"/>
</svg>
