<svg width="22" height="22" viewBox="0 0 22 22" fill="none" xmlns="http://www.w3.org/2000/svg">
<circle cx="11" cy="11" r="10.5" fill="#FEDCDF" stroke="#FF5252"/>
<path d="M18 13.1623L17.6208 11.2814L16.3186 10L13.5628 10.4718C13.0568 10.9574 11.4673 12.3307 9.38048 12.6947C8.45695 12.8625 7.50563 12.7982 6.6135 12.5078C5.04821 12.0002 4.13491 11.3499 3.60192 10.7526C3.49929 10.6308 3.32496 10.5965 3.18299 10.6699C3.04114 10.7434 2.96991 10.905 3.01202 11.0583C3.04138 11.172 3.07447 11.2848 3.11116 11.3966C3.13366 11.4648 3.1576 11.5329 3.18299 11.6004C4.24849 14.4403 7.5564 15.7248 10.3846 15.9573C13.1457 16.1834 16.3173 15.5487 18 13.1623Z" fill="#FF5252"/>
<path d="M15.8874 11.0214C15.8874 11.0214 13.3729 12.0493 12.0278 10.0038C11.9869 9.94029 11.9914 9.86076 12.0395 9.80156C12.0874 9.74224 12.1695 9.71459 12.2484 9.73115C12.9111 9.8721 14.1653 10.0031 14.9443 9.23295C16.0416 8.14801 19.0513 11.1608 18.8013 11.9525C18.6139 12.5463 18.5941 13.2802 18.9635 13.7061C19.012 13.77 19.0122 13.8543 18.9639 13.9185C18.9157 13.9825 18.829 14.0129 18.7459 13.9949C18.1652 13.8876 17.4384 13.5045 17.381 12.2678C17.381 12.2678 17.1995 13.918 15.4373 13.4857C15.3706 13.4698 15.3171 13.4246 15.2951 13.3651C15.273 13.3058 15.2855 13.2403 15.328 13.1911C15.7321 12.7311 16.5884 11.6066 15.8874 11.0214Z" fill="#4C8056"/>
<path d="M17.9494 10C17.8247 9.99988 17.7104 9.94405 17.6533 9.85537C17.5964 9.76668 17.6061 9.65998 17.6788 9.57895C18.2038 9.0241 18.4266 8.32369 18.2967 7.63599C18.1137 6.85855 17.3918 6.13623 16.1511 5.48917C15.9969 5.40873 15.9537 5.24373 16.0543 5.12065C16.155 4.99757 16.3616 4.96295 16.5157 5.04339C17.9153 5.77289 18.7343 6.61205 18.9522 7.53777C19.1166 8.36856 18.8528 9.21702 18.2206 9.88976C18.1578 9.95925 18.0568 10.0004 17.9494 10Z" fill="#4C8056"/>
<path d="M9.4173 14.0155C9.29507 14.0155 9.17043 14.0125 9.04352 14.0065C8.89376 13.9991 8.77827 13.8719 8.78548 13.7221C8.79713 13.5744 8.92201 13.4614 9.0702 13.4647C10.5466 13.5512 12.0098 13.1452 13.2306 12.3103C13.3484 12.2197 13.5172 12.2405 13.6094 12.357C13.7016 12.4737 13.6828 12.6428 13.5673 12.7365C12.3525 13.5877 10.9006 14.0352 9.4173 14.0155Z" fill="#FF9692"/>
<path d="M14.4845 11.9786C14.4845 12.1286 14.363 12.2503 14.213 12.2503C14.063 12.2503 13.9414 12.1286 13.9414 11.9786C13.9414 11.8287 14.063 11.707 14.213 11.707C14.363 11.707 14.4845 11.8287 14.4845 11.9786Z" fill="#FF9692"/>
</svg>
