<svg width="21" height="21" viewBox="0 0 21 21" fill="none" xmlns="http://www.w3.org/2000/svg">
<circle cx="10.5" cy="10.5" r="10" stroke="#E64C3C"/>
<path d="M16 10.0757C15.7994 8.78977 15.2819 7.57336 14.4939 6.53491C14.4578 6.48639 14.3937 6.46762 14.3369 6.48902C14.2801 6.51029 14.2446 6.56658 14.2498 6.62681C14.4667 9.14125 10.6786 9.43561 11.4439 6.3891C11.7071 5.34121 11.9214 3.82327 10.9174 3.07249C10.8387 3.01309 10.7194 2.96445 10.6515 3.03472C10.5185 3.17515 10.6949 3.37498 10.7275 3.51541C10.7701 3.6948 10.747 3.88351 10.6623 4.04748C10.2608 4.88742 9.24588 5.16827 8.73303 5.92455C8.23639 6.6592 8.17131 7.5883 8.25272 8.43636C8.28754 8.73957 8.27746 9.04624 8.22282 9.34658C8.12592 9.84877 7.67527 10.2055 7.16182 10.1865C6.06287 10.1001 6.15509 8.61456 6.2365 7.84489C6.24214 7.78609 6.20876 7.7304 6.15401 7.70745C6.09925 7.68463 6.03597 7.6998 5.99767 7.74498C5.50115 8.30669 4.5948 9.77599 5.20263 12.601C5.25523 12.8495 5.33064 13.0927 5.42778 13.3276L8.19136 16L15.0622 14.3004L16 10.0757Z" fill="#F0C419"/>
<path d="M12.361 10.5669C11.9511 9.99711 11.314 9.6225 10.7395 9.24006C10.1102 8.82113 8.94834 7.85341 9.43131 7C8.76289 8.09275 9.53576 9.28691 9.92226 10.3665C10.0461 10.7296 10.0149 11.1275 9.83606 11.467C9.6379 11.8423 9.2833 12.1109 8.86734 12.2007C8.3393 12.2905 7.80064 12.1164 7.42605 11.735C6.86982 11.2121 6.99784 12.7679 7.05261 12.9655C7.12066 13.2212 7.23101 13.4639 7.37902 13.6836L10.28 15L13 12.6019L12.361 10.5669Z" fill="#E57E25"/>
<path d="M17 14.1623L16.6208 12.2814L15.3186 11L12.5628 11.4718C12.0568 11.9574 10.4673 13.3307 8.38048 13.6947C7.45695 13.8625 6.50563 13.7982 5.6135 13.5078C4.04821 13.0002 3.13491 12.3499 2.60192 11.7526C2.49929 11.6308 2.32496 11.5965 2.18299 11.6699C2.04114 11.7434 1.96991 11.905 2.01202 12.0583C2.04138 12.172 2.07447 12.2848 2.11116 12.3966C2.13366 12.4648 2.1576 12.5329 2.18299 12.6004C3.24849 15.4403 6.5564 16.7248 9.38462 16.9573C12.1457 17.1834 15.3173 16.5487 17 14.1623Z" fill="#E64C3C"/>
<path d="M15.3321 11.6172C15.3321 11.6172 13.1768 12.4394 12.0239 10.803C11.9888 10.7522 11.9926 10.6886 12.0338 10.6412C12.0749 10.5938 12.1453 10.5717 12.2129 10.5849C12.7809 10.6977 13.856 10.8025 14.5237 10.1864C15.4642 9.31841 18.044 11.7287 17.8297 12.362C17.669 12.837 17.6521 13.4242 17.9687 13.7649C18.0103 13.816 18.0104 13.8835 17.9691 13.9348C17.9278 13.986 17.8535 14.0103 17.7822 13.9959C17.2845 13.9101 16.6615 13.6036 16.6123 12.6142C16.6123 12.6142 16.4567 13.9344 14.9463 13.5886C14.8891 13.5759 14.8432 13.5397 14.8244 13.4921C14.8054 13.4446 14.8161 13.3923 14.8525 13.3528C15.199 12.9848 15.9329 12.0853 15.3321 11.6172Z" fill="#4C8056"/>
<path d="M16.9494 11C16.8247 10.9999 16.7104 10.9441 16.6533 10.8554C16.5964 10.7667 16.6061 10.66 16.6788 10.5789C17.2038 10.0241 17.4266 9.32369 17.2967 8.63599C17.1137 7.85855 16.3918 7.13623 15.1511 6.48917C14.9969 6.40873 14.9537 6.24373 15.0543 6.12065C15.155 5.99757 15.3616 5.96295 15.5157 6.04339C16.9153 6.77289 17.7343 7.61205 17.9522 8.53777C18.1166 9.36856 17.8528 10.217 17.2206 10.8898C17.1578 10.9592 17.0568 11.0004 16.9494 11Z" fill="#527F72"/>
<path d="M8.4173 15.0155C8.29507 15.0155 8.17043 15.0125 8.04352 15.0065C7.89376 14.9991 7.77827 14.8719 7.78548 14.7221C7.79713 14.5744 7.92201 14.4614 8.0702 14.4647C9.54657 14.5512 11.0098 14.1452 12.2306 13.3103C12.3484 13.2197 12.5172 13.2405 12.6094 13.357C12.7016 13.4737 12.6828 13.6428 12.5673 13.7365C11.3525 14.5877 9.90064 15.0352 8.4173 15.0155Z" fill="#FB7B76"/>
<path d="M13.4865 12.9786C13.4865 13.1286 13.365 13.2503 13.215 13.2503C13.065 13.2503 12.9434 13.1286 12.9434 12.9786C12.9434 12.8287 13.065 12.707 13.215 12.707C13.365 12.707 13.4865 12.8287 13.4865 12.9786Z" fill="#FB7B76"/>
</svg>
