<svg width="19" height="18" viewBox="0 0 19 18" fill="none" xmlns="http://www.w3.org/2000/svg">
<path d="M13.6547 2.79297H17.3786V15.8266H0.621094V2.79297H4.34499H13.6547Z" fill="#F9EAB0"/>
<path d="M12.7238 6.20703H3.41406V7.13801C3.41406 7.65217 3.83087 8.06898 4.34504 8.06898C4.8592 8.06898 5.27601 7.65217 5.27601 7.13801C5.27601 7.65217 5.69282 8.06898 6.20699 8.06898C6.72115 8.06898 7.13796 7.65217 7.13796 7.13801C7.13796 7.65217 7.55477 8.06898 8.06894 8.06898C8.5831 8.06898 8.99991 7.65217 8.99991 7.13801C8.99991 7.65217 9.41672 8.06898 9.93089 8.06898C10.445 8.06898 10.8619 7.65217 10.8619 7.13801C10.8619 7.65217 11.2787 8.06898 11.7928 8.06898C12.307 8.06898 12.7238 7.65217 12.7238 7.13801C12.7238 7.65217 13.1406 8.06898 13.6548 8.06898C14.1689 8.06898 14.5858 7.65217 14.5858 7.13801V6.20703H12.7238Z" fill="#F3D55B"/>
<path d="M7.7591 8.69141H10.2417C10.7559 8.69141 11.1727 9.10822 11.1727 9.62238V15.2082H6.82812V9.62238C6.82812 9.10822 7.24494 8.69141 7.7591 8.69141Z" fill="#CB8252"/>
<path d="M11.1705 15.5164C10.9991 15.5164 10.8602 15.3774 10.8602 15.2061V9.62021C10.8602 9.27743 10.5823 8.99956 10.2395 8.99956H7.75692C7.41415 8.99956 7.13627 9.27743 7.13627 9.62021V15.2061C7.13627 15.3774 6.99734 15.5164 6.82595 15.5164C6.65456 15.5164 6.51562 15.3774 6.51562 15.2061V9.62021C6.51562 8.93466 7.07137 8.37891 7.75692 8.37891H10.2395C10.9251 8.37891 11.4808 8.93466 11.4808 9.62021V15.2061C11.4808 15.3774 11.3419 15.5164 11.1705 15.5164Z" fill="#F3D55B"/>
<path d="M5.58718 11.4805V12.4114C5.58718 12.5828 5.44824 12.7218 5.27686 12.7218H2.17361C2.00222 12.7218 1.86328 12.5828 1.86328 12.4114V11.4805H5.58718Z" fill="#A59078"/>
<path d="M5.58718 9.62238V11.4843H1.86328V9.62238C1.86328 9.10822 2.28009 8.69141 2.79426 8.69141H4.65621C5.17037 8.69141 5.58718 9.10822 5.58718 9.62238Z" fill="#2FA8CC"/>
<path d="M16.1341 11.4805V12.4114C16.1341 12.5828 15.9951 12.7218 15.8237 12.7218H12.7205C12.5491 12.7218 12.4102 12.5828 12.4102 12.4114V11.4805H16.1341Z" fill="#A59078"/>
<path d="M9.93142 12.7235C9.76003 12.7235 9.62109 12.5846 9.62109 12.4132V11.4822C9.62109 11.3108 9.76003 11.1719 9.93142 11.1719C10.1028 11.1719 10.2417 11.3108 10.2417 11.4822V12.4132C10.2417 12.5846 10.1028 12.7235 9.93142 12.7235Z" fill="#805333"/>
<path d="M4.95101 8.7411C3.8866 8.88384 1.86328 9.42381 1.86328 11.4844V9.62242C1.86328 9.10826 2.28009 8.69144 2.79426 8.69144H4.65621C4.75663 8.69051 4.85644 8.70731 4.95101 8.7411Z" fill="#67B9CC"/>
<path d="M16.1341 9.62238V11.4843H12.4102V9.62238C12.4102 9.10822 12.827 8.69141 13.3411 8.69141H15.2031C15.7172 8.69141 16.1341 9.10822 16.1341 9.62238Z" fill="#2FA8CC"/>
<path d="M15.4979 8.7411C14.4335 8.88384 12.4102 9.42381 12.4102 11.4844V9.62242C12.4102 9.10826 12.827 8.69144 13.3411 8.69144H15.2031C15.3035 8.69051 15.4033 8.70731 15.4979 8.7411Z" fill="#67B9CC"/>
<path d="M0.621094 3.41406H17.3786V4.03471H0.621094V3.41406Z" fill="#F3D55B"/>
<path d="M18.0004 2.79643C17.9978 3.13815 17.7214 3.41455 17.3797 3.41708H13.0352V2.17578H17.3797C17.7221 2.1768 17.9993 2.45408 18.0004 2.79643Z" fill="#71C285"/>
<path d="M18.0016 15.8238V16.7547C18.0016 16.9261 17.8627 17.0651 17.6913 17.0651H12.1055V15.2031H17.381C17.7233 15.2041 18.0006 15.4814 18.0016 15.8238Z" fill="#CBB292"/>
<path d="M5.89617 15.2031V17.0651H0.310325C0.138937 17.0651 0 16.9261 0 16.7547V15.8238C0.00102246 15.4814 0.278299 15.2041 0.62065 15.2031H5.89617Z" fill="#CBB292"/>
<path d="M5.27601 5.58594V6.51691C5.27601 7.03108 4.8592 7.44789 4.34504 7.44789C3.83087 7.44789 3.41406 7.03108 3.41406 6.51691V5.58594H5.27601Z" fill="#4FBA6F"/>
<path d="M7.13539 5.58594V6.51691C7.13539 7.03108 6.71858 7.44789 6.20441 7.44789C5.69025 7.44789 5.27344 7.03108 5.27344 6.51691V5.58594H7.13539Z" fill="#24AE5F"/>
<path d="M8.99867 5.58594V6.51691C8.99867 7.03108 8.58186 7.44789 8.06769 7.44789C7.55353 7.44789 7.13672 7.03108 7.13672 6.51691V5.58594H8.99867Z" fill="#4FBA6F"/>
<path d="M10.8619 5.58594V6.51691C10.8619 7.03108 10.4451 7.44789 9.93097 7.44789C9.41681 7.44789 9 7.03108 9 6.51691V5.58594H10.8619Z" fill="#24AE5F"/>
<path d="M12.7213 5.58594V6.51691C12.7213 7.03108 12.3045 7.44789 11.7903 7.44789C11.2762 7.44789 10.8594 7.03108 10.8594 6.51691V5.58594H12.7213Z" fill="#4FBA6F"/>
<path d="M14.5846 5.58594V6.51691C14.5846 7.03108 14.1678 7.44789 13.6536 7.44789C13.1395 7.44789 12.7227 7.03108 12.7227 6.51691V5.58594H14.5846Z" fill="#24AE5F"/>
<path d="M14.5858 5.58461H3.41406L4.34504 3.72266H13.6548L14.5858 5.58461Z" fill="#71C285"/>
<path d="M4.96521 2.17578V3.41709H0.620658C0.278307 3.41607 0.00103106 3.13879 8.60023e-06 2.79644C-0.000867469 2.63178 0.0652206 2.47384 0.1831 2.35888C0.298064 2.241 0.456003 2.17491 0.620658 2.17579L4.96521 2.17578Z" fill="#71C285"/>
<path d="M13.0328 0C13.3752 0.00102246 13.6525 0.278299 13.6535 0.62065V3.7239H4.34375V0.62065C4.34477 0.278299 4.62205 0.00102246 4.9644 0H13.0328Z" fill="#7ED09E"/>
<path d="M12.7191 1.55424H10.8572C10.6858 1.55424 10.5469 1.41531 10.5469 1.24392C10.5469 1.07253 10.6858 0.933594 10.8572 0.933594H12.7191C12.8905 0.933594 13.0295 1.07253 13.0295 1.24392C13.0295 1.41531 12.8905 1.55424 12.7191 1.55424Z" fill="white"/>
<path d="M12.0989 2.79643H11.4783C11.3069 2.79643 11.168 2.65749 11.168 2.48611C11.168 2.31472 11.3069 2.17578 11.4783 2.17578H12.0989C12.2703 2.17578 12.4093 2.31472 12.4093 2.48611C12.4093 2.65749 12.2703 2.79643 12.0989 2.79643Z" fill="white"/>
<path d="M5.89844 15.2031H12.1049V17.0651H5.89844V15.2031Z" fill="#A59078"/>
<path d="M7.76952 0.968743V1.49607C7.76952 1.54269 7.751 1.58739 7.71803 1.62036C7.68507 1.65332 7.64036 1.67184 7.59374 1.67184C7.54712 1.67184 7.50242 1.65332 7.46945 1.62036C7.43649 1.58739 7.41797 1.54269 7.41797 1.49607V0.968743C7.41797 0.922125 7.43649 0.877416 7.46945 0.844452C7.50242 0.811488 7.54712 0.792969 7.59374 0.792969C7.64036 0.792969 7.68507 0.811488 7.71803 0.844452C7.751 0.877416 7.76952 0.922125 7.76952 0.968743Z" fill="#F0DE9C"/>
<path d="M8.82413 2.19922C8.82411 2.33907 8.76855 2.47319 8.66966 2.57208C8.57077 2.67097 8.43665 2.72653 8.2968 2.72654H6.8906C6.75077 2.72649 6.61667 2.67092 6.51779 2.57204C6.41891 2.47315 6.36333 2.33906 6.36328 2.19922H8.82413Z" fill="#F0DE9C"/>
<path d="M7.76952 1.15925V1.49608C7.76952 1.5427 7.751 1.58741 7.71803 1.62037C7.68507 1.65334 7.64036 1.67185 7.59374 1.67185C7.54712 1.67185 7.50242 1.65334 7.46945 1.62037C7.43649 1.58741 7.41797 1.5427 7.41797 1.49608V1.15925C7.53433 1.13962 7.65316 1.13962 7.76952 1.15925V1.15925Z" fill="#F0C033"/>
<path d="M8.47259 2.19888H6.71484C6.71487 2.13985 6.72076 2.08097 6.73242 2.02311C6.77306 1.82468 6.88096 1.64636 7.0379 1.51831C7.19483 1.39025 7.39117 1.32031 7.59372 1.32031C7.79627 1.32031 7.9926 1.39025 8.14954 1.51831C8.30647 1.64636 8.41438 1.82468 8.45501 2.02311C8.46668 2.08097 8.47256 2.13985 8.47259 2.19888V2.19888Z" fill="#F0DE9C"/>
<path d="M8.47259 2.19921H6.71484C6.71487 2.14018 6.72076 2.0813 6.73242 2.02344H8.45501C8.46668 2.0813 8.47256 2.14018 8.47259 2.19921V2.19921Z" fill="#F0C033"/>
<path d="M5.65622 1.83602C5.43376 1.83593 5.21632 1.76989 5.0314 1.64623C5.00732 1.63018 4.98758 1.60843 4.97392 1.58292C4.96027 1.55741 4.95312 1.52892 4.95313 1.49998V0.972656H5.30467V1.3996C5.4135 1.45526 5.53399 1.48428 5.65622 1.48428C5.77846 1.48428 5.89894 1.45526 6.00777 1.3996V0.972656H6.35932V1.49998C6.35932 1.52892 6.35218 1.55741 6.33852 1.58292C6.32487 1.60843 6.30512 1.63018 6.28105 1.64623C6.09612 1.76989 5.87868 1.83593 5.65622 1.83602V1.83602Z" fill="#C6D6E2"/>
<path d="M5.48047 0.972656H5.83202V2.90618H5.48047V0.972656Z" fill="#C6D6E2"/>
<path d="M9.34766 1.85156H9.69921V2.90621H9.34766V1.85156Z" fill="#C6D6E2"/>
<path d="M9.52342 2.0273C9.81465 2.0273 10.0507 1.79121 10.0507 1.49998C10.0507 1.20875 9.81465 0.972656 9.52342 0.972656C9.23218 0.972656 8.99609 1.20875 8.99609 1.49998C8.99609 1.79121 9.23218 2.0273 9.52342 2.0273Z" fill="#C6D6E2"/>
<path d="M8.82122 2.19922C8.82121 2.33907 8.76565 2.47319 8.66676 2.57208C8.56787 2.67097 8.43375 2.72653 8.2939 2.72654H6.8877C6.79727 2.72656 6.70835 2.70331 6.6295 2.65902C6.55066 2.61473 6.48453 2.55089 6.4375 2.47365C6.52009 2.52423 6.61508 2.55093 6.71193 2.55077H8.11812C8.22716 2.5508 8.33352 2.51701 8.42254 2.45404C8.51156 2.39108 8.57885 2.30204 8.61513 2.19922H8.82122Z" fill="#F0C033"/>
</svg>
