<svg width="20" height="14" viewBox="0 0 20 14" fill="none" xmlns="http://www.w3.org/2000/svg">
<path d="M9.02686 0H2.01357L0 6.495L0.518823 6.88864C1.33459 7.50777 2.30718 7.83562 3.32703 7.83505C4.11333 7.83505 4.87127 7.63992 5.55135 7.26709C6.23144 7.63992 6.98938 7.83562 7.77568 7.83505C8.20386 7.83505 8.6237 7.77713 9.02686 7.6641V9.25046C9.02686 9.90952 8.76216 10.5062 8.33398 10.9397C7.90524 11.3727 7.31524 11.6404 6.66352 11.6404H6.5245V13.6086H6.66352C8.00701 13.6086 9.20925 12.9833 10 12.0053C10.7907 12.9827 11.993 13.6086 13.3365 13.6086H13.4755V11.6404H13.3365C12.6848 11.6404 12.0948 11.3727 11.666 10.9397C11.2378 10.5062 10.9731 9.90952 10.9731 9.25046V7.6641C11.3763 7.77713 11.7961 7.83505 12.2243 7.83505C13.0106 7.83505 13.7686 7.63992 14.4486 7.26709C15.1287 7.63992 15.8867 7.83562 16.673 7.83505C17.6928 7.83505 18.6654 7.50777 19.4812 6.88864L20 6.495L17.9859 0H17.8836H10.9731H9.02686ZM13.8648 5.31409C13.3821 5.68017 12.8038 5.8635 12.2243 5.8635C11.6449 5.8635 11.0666 5.68017 10.5839 5.31409L10 4.87153L9.41612 5.31465C8.93344 5.68074 8.35511 5.86406 7.77568 5.86406C7.19624 5.86406 6.61792 5.68074 6.13524 5.31465L5.55135 4.87209L4.96747 5.31522C4.48479 5.6813 3.90647 5.86462 3.32703 5.86462C2.95279 5.86462 2.57855 5.78702 2.23044 5.63406L3.52444 1.96931H16.4761L17.7701 5.63406C17.422 5.78702 17.0478 5.86462 16.6735 5.86462C16.0941 5.86462 15.5152 5.6813 15.0331 5.31522L14.4492 4.87266L13.8648 5.31409Z" fill="#9E9E9E"/>
</svg>
