<svg width="28" height="21" viewBox="0 0 28 21" fill="none" xmlns="http://www.w3.org/2000/svg">
<path d="M28 1.69037L28 18.4515C28 19.3811 27.2395 20.1416 26.3099 20.1416L1.69012 20.1416C0.760539 20.1416 -3.32442e-08 19.3811 -7.38774e-08 18.4515L-8.06529e-07 1.69037C-8.47162e-07 0.76079 0.760538 0.000249829 1.69012 0.000249789L26.3099 0.000248713C27.2395 0.000248672 28 0.760789 28 1.69037Z" fill="#35495E"/>
<path d="M26.3099 18.6572L1.69012 18.6572C0.760539 18.6572 -9.81286e-08 17.8967 -1.38762e-07 16.9671L-7.38774e-08 18.4515C-3.32442e-08 19.3811 0.760539 20.1416 1.69012 20.1416L26.3099 20.1416C27.2395 20.1416 28 19.3811 28 18.4515L28 16.9671C28 17.8967 27.2395 18.6572 26.3099 18.6572Z" fill="#444443"/>
<path d="M2.47266 1.8826L2.47266 18.2593C2.47266 18.4791 2.65083 18.6572 2.87062 18.6572L23.9417 18.6572C24.1614 18.6572 24.3396 18.4791 24.3396 18.2593L24.3396 1.8826C24.3396 1.66281 24.1614 1.48464 23.9417 1.48464L2.87062 1.48464C2.65083 1.4847 2.47266 1.66287 2.47266 1.8826Z" fill="#B0D3F0"/>
<path d="M23.9417 2.76141L2.87062 2.76141C2.65083 2.76141 2.47266 2.93958 2.47266 3.15937L2.47266 1.46925C2.47266 1.24946 2.65083 1.07129 2.87062 1.07129L23.9417 1.07129C24.1614 1.07129 24.3396 1.24946 24.3396 1.46925L24.3396 3.15937C24.3396 2.93958 24.1614 2.76141 23.9417 2.76141Z" fill="#7CB2DF"/>
<path d="M27.3992 10.0709C27.3992 10.7389 26.8558 11.2822 26.1879 11.2822C25.5199 11.2822 24.9766 10.7388 24.9766 10.0709C24.9766 9.403 25.5199 8.85957 26.1879 8.85957C26.8558 8.85957 27.3992 9.40295 27.3992 10.0709ZM25.8216 10.0709C25.8216 10.2728 25.9859 10.4371 26.1879 10.4371C26.3898 10.4371 26.5541 10.2729 26.5541 10.0709C26.5541 9.86899 26.3899 9.70466 26.1879 9.70466C25.986 9.70466 25.8216 9.86894 25.8216 10.0709Z" fill="#A5A5A4"/>
<path d="M1.70826 10.0706C1.70826 10.0982 1.70548 10.1258 1.69979 10.1528C1.6947 10.1799 1.68628 10.2063 1.67556 10.2323C1.66544 10.2576 1.65243 10.2819 1.63668 10.305C1.62148 10.3281 1.60398 10.3495 1.58429 10.3692C1.56515 10.389 1.54311 10.4064 1.52008 10.4216C1.4975 10.4368 1.47273 10.4498 1.44741 10.4605C1.42203 10.4712 1.39496 10.4791 1.36849 10.4847C1.34087 10.4904 1.31331 10.4932 1.28569 10.4932C1.25808 10.4932 1.23046 10.4903 1.20284 10.4847C1.17637 10.4791 1.14936 10.4712 1.12398 10.4605C1.09861 10.4498 1.07383 10.4368 1.0513 10.4216C1.02762 10.4064 1.00624 10.3889 0.9871 10.3692C0.967358 10.3495 0.949913 10.3281 0.934108 10.305C0.918905 10.2819 0.905944 10.2577 0.895225 10.2323C0.885108 10.2064 0.876686 10.1799 0.871546 10.1528C0.843382 10.0159 0.888499 9.86945 0.9871 9.7714C1.00624 9.75226 1.02762 9.73421 1.0513 9.71901C1.07389 9.7038 1.09861 9.69084 1.12398 9.68012C1.14936 9.66941 1.17637 9.66153 1.20284 9.6559C1.23046 9.65081 1.25808 9.64802 1.28569 9.64802C1.31331 9.64802 1.34087 9.65081 1.36849 9.6559C1.39496 9.66153 1.42203 9.66941 1.44741 9.68012C1.47273 9.69084 1.49755 9.7038 1.52008 9.71901C1.54311 9.73421 1.56515 9.75226 1.58429 9.7714C1.6632 9.85031 1.70826 9.95903 1.70826 10.0706Z" fill="#A5A5A4"/>
<path d="M2.47266 1.47877L2.47266 18.2535C2.47266 18.4786 2.65083 18.6611 2.87062 18.6611L4.00363 18.6611L4.00363 1.07113L2.87062 1.07113C2.65083 1.07119 2.47266 1.25369 2.47266 1.47877Z" fill="#90BAE1"/>
<path d="M22.5076 15.1886L22.5076 16.3194C22.5076 16.423 22.4228 16.5078 22.3192 16.5078L21.1885 16.5078C21.0848 16.5078 21 16.423 21 16.3194L21 15.1886C21 15.085 21.0848 15.0002 21.1885 15.0002L22.3192 15.0002C22.4229 15.0002 22.5076 15.085 22.5076 15.1886Z" fill="#CB9080"/>
<path d="M19.5076 7.18864L19.5076 8.31936C19.5076 8.42299 19.4228 8.50781 19.3192 8.50781L18.1885 8.50781C18.0848 8.50781 18 8.42299 18 8.31936L18 7.18864C18 7.08501 18.0848 7.00019 18.1885 7.00019L19.3192 7.00019C19.4229 7.00019 19.5076 7.08501 19.5076 7.18864Z" fill="#CB9080"/>
<path d="M22.5076 7.18864L22.5076 8.31936C22.5076 8.42299 22.4228 8.50781 22.3192 8.50781L21.1885 8.50781C21.0848 8.50781 21 8.42299 21 8.31936L21 7.18864C21 7.08501 21.0848 7.00019 21.1885 7.00019L22.3192 7.00019C22.4229 7.00019 22.5076 7.08495 22.5076 7.18864Z" fill="#4482C3"/>
<path d="M22.5076 4.18864L22.5076 5.31936C22.5076 5.42299 22.4228 5.50781 22.3192 5.50781L21.1885 5.50781C21.0848 5.50781 21 5.42299 21 5.31936L21 4.18864C21 4.08501 21.0848 4.00019 21.1885 4.00019L22.3192 4.00019C22.4229 4.00019 22.5076 4.08501 22.5076 4.18864Z" fill="#CB9080"/>
<path d="M16.5076 15.1886L16.5076 16.3194C16.5076 16.423 16.4228 16.5078 16.3192 16.5078L15.1885 16.5078C15.0848 16.5078 15 16.423 15 16.3194L15 15.1886C15 15.085 15.0848 15.0002 15.1885 15.0002L16.3192 15.0002C16.4229 15.0002 16.5076 15.085 16.5076 15.1886Z" fill="#14A085"/>
<path d="M16.5076 10.1886L16.5076 11.3194C16.5076 11.423 16.4228 11.5078 16.3192 11.5078L15.1885 11.5078C15.0848 11.5078 15 11.423 15 11.3194L15 10.1886C15 10.085 15.0848 10.0002 15.1885 10.0002L16.3192 10.0002C16.4229 10.0002 16.5076 10.085 16.5076 10.1886Z" fill="#E6E7E8"/>
<path d="M16.5076 7.18864L16.5076 8.31936C16.5076 8.42299 16.4228 8.50781 16.3192 8.50781L15.1885 8.50781C15.0848 8.50781 15 8.42299 15 8.31936L15 7.18864C15 7.08501 15.0848 7.00019 15.1885 7.00019L16.3192 7.00019C16.4229 7.00019 16.5076 7.08495 16.5076 7.18864Z" fill="#14A085"/>
<path d="M16.5076 4.18864L16.5076 5.31936C16.5076 5.42299 16.4228 5.50781 16.3192 5.50781L15.1885 5.50781C15.0848 5.50781 15 5.42299 15 5.31936L15 4.18864C15 4.08501 15.0848 4.00019 15.1885 4.00019L16.3192 4.00019C16.4229 4.00019 16.5076 4.08501 16.5076 4.18864Z" fill="#CB9080"/>
<path d="M19.5076 15.1886L19.5076 16.3194C19.5076 16.423 19.4228 16.5078 19.3192 16.5078L18.1885 16.5078C18.0848 16.5078 18 16.423 18 16.3194L18 15.1886C18 15.085 18.0848 15.0002 18.1885 15.0002L19.3192 15.0002C19.4229 15.0002 19.5076 15.085 19.5076 15.1886Z" fill="#CB9080"/>
<path d="M13.5076 15.1886L13.5076 16.3194C13.5076 16.423 13.4228 16.5078 13.3192 16.5078L12.1885 16.5078C12.0848 16.5078 12 16.423 12 16.3194L12 15.1886C12 15.085 12.0848 15.0002 12.1885 15.0002L13.3192 15.0002C13.4228 15.0002 13.5076 15.085 13.5076 15.1886Z" fill="#EFEFEF"/>
<path d="M13.5076 10.1886L13.5076 11.3194C13.5076 11.423 13.4228 11.5078 13.3192 11.5078L12.1885 11.5078C12.0848 11.5078 12 11.423 12 11.3194L12 10.1886C12 10.085 12.0848 10.0002 12.1885 10.0002L13.3192 10.0002C13.4228 10.0002 13.5076 10.085 13.5076 10.1886Z" fill="#CB9080"/>
<path d="M13.5076 7.18864L13.5076 8.31936C13.5076 8.42299 13.4228 8.50781 13.3192 8.50781L12.1885 8.50781C12.0848 8.50781 12 8.42299 12 8.31936L12 7.18864C12 7.08501 12.0848 7.00019 12.1885 7.00019L13.3192 7.00019C13.4228 7.00019 13.5076 7.08495 13.5076 7.18864Z" fill="#4482C3"/>
<path d="M13.5818 4.18864L13.5818 5.31936C13.5818 5.42299 13.497 5.50781 13.3934 5.50781L12.2627 5.50781C12.159 5.50781 12.0742 5.42299 12.0742 5.31936L12.0742 4.18864C12.0742 4.08501 12.159 4.00019 12.2627 4.00019L13.3934 4.00019C13.497 4.00019 13.5818 4.08501 13.5818 4.18864Z" fill="#EFEFEF"/>
<path d="M10.5076 15.1886L10.5076 16.3194C10.5076 16.423 10.4228 16.5078 10.3192 16.5078L9.18845 16.5078C9.08482 16.5078 9 16.423 9 16.3194L9 15.1886C9 15.085 9.08482 15.0002 9.18845 15.0002L10.3192 15.0002C10.4228 15.0002 10.5076 15.085 10.5076 15.1886Z" fill="#14A085"/>
<path d="M10.5076 10.1886L10.5076 11.3194C10.5076 11.423 10.4228 11.5078 10.3192 11.5078L9.18845 11.5078C9.08482 11.5078 9 11.423 9 11.3194L9 10.1886C9 10.085 9.08482 10.0002 9.18845 10.0002L10.3192 10.0002C10.4228 10.0002 10.5076 10.085 10.5076 10.1886Z" fill="#4482C3"/>
<path d="M10.5076 7.18864L10.5076 8.31936C10.5076 8.42299 10.4228 8.50781 10.3192 8.50781L9.18845 8.50781C9.08482 8.50781 9 8.42299 9 8.31936L9 7.18864C9 7.08501 9.08482 7.00019 9.18845 7.00019L10.3192 7.00019C10.4228 7.00019 10.5076 7.08495 10.5076 7.18864Z" fill="#E6E7E8"/>
<path d="M10.5428 4.18864L10.5428 5.31936C10.5428 5.42299 10.458 5.50781 10.3543 5.50781L9.22361 5.50781C9.11998 5.50781 9.03516 5.42299 9.03516 5.31936L9.03516 4.18864C9.03516 4.08501 9.11998 4.00019 9.22361 4.00019L10.3543 4.00019C10.458 4.00019 10.5428 4.08501 10.5428 4.18864Z" fill="#4482C3"/>
<path d="M7.50762 15.1886L7.50762 16.3194C7.50762 16.423 7.4228 16.5078 7.31917 16.5078L6.18845 16.5078C6.08482 16.5078 6 16.423 6 16.3194L6 15.1886C6 15.085 6.08482 15.0002 6.18845 15.0002L7.31917 15.0002C7.4228 15.0002 7.50762 15.085 7.50762 15.1886Z" fill="#CB9080"/>
<path d="M19.5076 4.18864L19.5076 5.31936C19.5076 5.42299 19.4228 5.50781 19.3192 5.50781L18.1885 5.50781C18.0848 5.50781 18 5.42299 18 5.31936L18 4.18864C18 4.08501 18.0848 4.00019 18.1885 4.00019L19.3192 4.00019C19.4228 4.00019 19.5076 4.08495 19.5076 4.18864Z" fill="#E6E7E8"/>
<path d="M7.50762 10.1886L7.50762 11.3194C7.50762 11.423 7.4228 11.5078 7.31917 11.5078L6.18845 11.5078C6.08482 11.5078 6 11.423 6 11.3194L6 10.1886C6 10.085 6.08482 10.0002 6.18845 10.0002L7.31917 10.0002C7.4228 10.0002 7.50762 10.085 7.50762 10.1886Z" fill="#E6E7E8"/>
<path d="M7.50762 7.18864L7.50762 8.31936C7.50762 8.42299 7.4228 8.50781 7.31917 8.50781L6.18845 8.50781C6.08482 8.50781 6 8.42299 6 8.31936L6 7.18864C6 7.08501 6.08482 7.00019 6.18845 7.00019L7.31917 7.00019C7.4228 7.00019 7.50762 7.08495 7.50762 7.18864Z" fill="#CB9080"/>
<path d="M7.50762 4.18864L7.50762 5.31936C7.50762 5.42299 7.4228 5.50781 7.31917 5.50781L6.18845 5.50781C6.08482 5.50781 6 5.42299 6 5.31936L6 4.18864C6 4.08501 6.08482 4.00019 6.18845 4.00019L7.31917 4.00019C7.4228 4.00019 7.50762 4.08501 7.50762 4.18864Z" fill="#EFEFEF"/>
</svg>
