<svg width="11" height="8" viewBox="0 0 11 8" fill="none" xmlns="http://www.w3.org/2000/svg">
<path d="M5.03125 3.88281H5.96388V5.79458H5.03125V3.88281Z" fill="#77AAD4"/>
<path d="M5.5 3.88281H5.96632V5.79458H5.5V3.88281Z" fill="#4A8EC6"/>
<path d="M7.36331 7.70473H3.63281V7.1165C4.40409 7.1165 5.03175 6.52267 5.03175 5.79297H5.96437C5.96437 6.52267 6.59203 7.1165 7.36331 7.1165V7.70473Z" fill="#77AAD4"/>
<path d="M5.96631 5.79297H5.5V7.70473H7.36525V7.1165C6.59397 7.1165 5.96631 6.52267 5.96631 5.79297Z" fill="#4A8EC6"/>
<path d="M9.2305 4.71352C8.78937 4.71352 8.36534 4.60793 7.987 4.40617C7.60898 4.60793 7.18463 4.71352 6.7435 4.71352C6.30237 4.71352 5.87833 4.60793 5.5 4.40617C5.12198 4.60793 4.69763 4.71352 4.2565 4.71352C3.81537 4.71352 3.39134 4.60793 3.013 4.40617C2.63498 4.60793 2.21063 4.71352 1.7695 4.71352C1.21583 4.71352 0.68921 4.54764 0.246213 4.23323L0 4.05852L1.09241 0.527344H9.90759L11 4.05852L10.7538 4.23323C10.3108 4.54764 9.78417 4.71352 9.2305 4.71352Z" fill="#D2E3F1"/>
<path d="M3.01172 7.11719H7.98573V7.99954H3.01172V7.11719V7.11719Z" fill="#A4C6E2"/>
<path d="M9.90759 0.527344H5.5V4.40617C5.87834 4.60793 6.30237 4.71352 6.7435 4.71352C7.18463 4.71352 7.60898 4.60793 7.987 4.40617C8.36534 4.60793 8.78937 4.71352 9.2305 4.71352C9.78417 4.71352 10.3108 4.54764 10.7538 4.23323L11 4.05852L9.90759 0.527344Z" fill="#A4C6E2"/>
<path d="M5.5 7.11719H7.987V7.99954H5.5V7.11719V7.11719Z" fill="#77AAD4"/>
</svg>
