<svg width="55" height="70" viewBox="0 0 55 70" fill="none" xmlns="http://www.w3.org/2000/svg">
<path d="M27.3119 36.052C19.5716 36.052 11.8314 36.0584 4.09116 36.0393C3.46667 36.0377 2.79992 35.9637 2.22728 35.7353C0.882606 35.1998 0.133705 34.1423 0.0260354 32.6932C-0.0170324 32.1171 -0.0146398 31.5187 0.0946248 30.9546C0.322725 29.7713 1.0485 28.935 2.14354 28.4361C2.3828 28.3271 2.4793 28.1997 2.49366 27.938C3.05673 17.1478 10.7882 7.96427 21.5918 5.49272C21.993 5.40121 22.0712 5.22297 22.0943 4.85773C22.2642 2.19202 24.4893 0.0570739 27.1292 0.00137259C30.0028 -0.0591031 32.3038 1.88487 32.614 4.63492C32.6977 5.37416 32.7033 5.35347 33.5344 5.58105C42.3338 7.98814 48.2715 13.4485 51.1858 22.1084C51.8222 23.9999 52.1269 25.9637 52.2386 27.9539C52.2537 28.2204 52.363 28.3342 52.5943 28.4448C53.982 29.1101 54.6791 30.2305 54.7301 31.7591C54.7572 32.5739 54.7158 33.3808 54.3034 34.1128C53.5665 35.4226 52.4212 36.0473 50.9306 36.0496C47.4788 36.0552 44.027 36.0528 40.5752 36.0528C36.1535 36.0528 31.7327 36.052 27.3119 36.052ZM49.8523 28.0716C49.7606 27.3324 49.6808 26.6393 49.5867 25.9486C49.5062 25.359 49.499 25.359 48.9096 25.359C37.9018 25.359 26.8948 25.359 15.887 25.3582C15.7673 25.3582 15.6477 25.3622 15.5288 25.3566C14.9187 25.3279 14.437 24.8815 14.3796 24.2951C14.3166 23.6482 14.697 23.1055 15.3255 22.9758C15.5177 22.936 15.7203 22.932 15.9189 22.932C26.7137 22.9304 37.5086 22.9304 48.3042 22.9304C48.4821 22.9304 48.6592 22.9304 48.8458 22.9304C48.8386 22.8206 48.8426 22.78 48.8322 22.7434C48.8035 22.6416 48.7708 22.5405 48.7373 22.4402C47.545 18.8746 45.5694 15.807 42.8059 13.2567C39.5447 10.2456 35.7069 8.37964 31.3355 7.60301C30.2142 7.40407 29.884 6.90435 30.1376 5.78714C30.5802 3.83044 28.7507 2.04641 26.7648 2.48326C25.1433 2.83975 24.1687 4.47896 24.6186 5.9447C24.8754 6.78101 24.4503 7.39134 23.5777 7.56322C23.2133 7.63483 22.848 7.70008 22.4843 7.77568C13.3172 9.68305 6.29878 17.1812 5.04822 26.4086C4.97484 26.952 4.94215 27.5003 4.88791 28.0716C19.8907 28.0716 34.824 28.0716 49.8523 28.0716ZM27.3111 33.6139C35.092 33.6139 42.8721 33.6139 50.653 33.6139C50.8125 33.6139 50.9721 33.6195 51.1308 33.6083C51.5399 33.5797 51.8916 33.4126 52.0862 33.0497C52.4124 32.441 52.4029 31.7861 52.1309 31.1734C51.8765 30.5989 51.3318 30.5169 50.7519 30.5169C35.1638 30.5225 19.5764 30.5209 3.98827 30.5217C3.84232 30.5217 3.69477 30.5145 3.55042 30.5304C3.12771 30.5766 2.79434 30.7763 2.58618 31.1511C1.90906 32.3718 2.62845 33.6155 4.00821 33.6155C11.7764 33.6139 19.5437 33.6139 27.3111 33.6139Z" fill="#E0E0E0"/>
<path d="M27.3371 60.6776C27.6202 60.9274 27.8786 61.1518 28.133 61.381C29.1683 62.3144 29.2791 63.7857 28.354 64.8305C27.1935 66.1411 26.0139 67.4341 24.8216 68.7153C23.8829 69.7242 22.3827 69.7744 21.3084 68.8434C17.9307 65.9167 14.5603 62.9812 11.1866 60.0489C10.4457 59.4052 9.7024 58.7638 8.96467 58.1169C7.75638 57.0578 7.67822 55.5801 8.7581 54.4048C9.70001 53.3791 10.6467 52.3582 11.5687 51.315C12.2115 50.5877 12.8495 49.8811 13.9725 49.9137C13.9246 49.7665 13.9079 49.6789 13.8688 49.6033C12.6972 47.3419 11.41 45.1512 9.84836 43.1301C8.64964 41.5784 8.76847 39.5644 10.1291 38.2642C11.4809 36.9719 13.6431 36.921 15.1034 38.1639C17.2385 39.9821 19.2068 41.9675 21.0221 44.104C21.2797 44.4072 21.5437 44.7064 21.7821 45.0231C22.8357 46.4212 24.2386 46.7833 25.8855 46.4013C27.05 46.1316 28.0963 45.5865 29.0965 44.9507C32.0067 43.1014 34.905 41.2346 37.8265 39.4044C38.9494 38.701 40.1059 38.0477 41.2751 37.4239C42.7952 36.6122 44.7389 37.1111 45.7007 38.51C46.6697 39.9201 46.4544 41.833 45.156 42.9383C44.5626 43.4436 43.8767 43.8399 43.2658 44.326C40.5286 46.5032 38.061 48.9715 35.6771 51.5171C32.9494 54.4295 30.2912 57.4071 27.6035 60.3577C27.5229 60.4452 27.4511 60.5399 27.3371 60.6776ZM25.4676 59.0574C25.5904 58.9269 25.6726 58.8426 25.7515 58.7551C27.7749 56.5087 29.7552 54.2226 31.8289 52.024C35.4753 48.1575 39.0595 44.2178 43.47 41.1622C43.8209 40.9195 43.9309 40.5201 43.8089 40.1397C43.6933 39.78 43.3304 39.4593 42.9436 39.496C42.6285 39.5254 42.3023 39.6448 42.0224 39.7999C38.3879 41.8123 34.8939 44.0523 31.4341 46.3464C30.0703 47.2504 28.6794 48.0899 27.105 48.588C24.1899 49.5102 21.763 48.8466 19.9581 46.6703C19.0362 45.5586 18.099 44.4542 17.0917 43.4213C15.9353 42.2365 14.7046 41.1232 13.4836 40.0028C12.9891 39.5493 12.2793 39.5938 11.8215 40.0339C11.3725 40.4652 11.3294 41.0413 11.7378 41.5736C14.2333 44.821 16.1299 48.409 17.7944 52.1306C17.9084 52.3852 18.0911 52.6327 18.3 52.8181C19.7603 54.1096 21.2366 55.3836 22.7081 56.6623C23.6165 57.4533 24.5273 58.2418 25.4676 59.0574ZM26.5315 63.2112C22.3396 59.5731 18.1732 55.9581 13.99 52.3279C12.7889 53.6369 11.6269 54.9021 10.4362 56.2C14.6408 59.842 18.812 63.4547 23.0056 67.0864C24.1987 65.775 25.3552 64.5042 26.5315 63.2112Z" fill="#E0E0E0"/>
</svg>
