<svg width="20" height="28" viewBox="0 0 20 28" fill="none" xmlns="http://www.w3.org/2000/svg">
<path d="M3.69727 11.7031H15.7962V14.4932H3.69727V11.7031Z" fill="#BECECC"/>
<path d="M13.9941 11.7031H15.7967V14.4932H13.9941V11.7031Z" fill="#AAC1BE"/>
<path d="M16.263 7.2693C16.263 9.30573 14.6122 10.9566 12.5757 10.9566C10.5395 10.9566 8.88867 9.30573 8.88867 7.2693C8.88867 5.23288 10.5395 3.58203 12.5757 3.58203C14.6122 3.58203 16.263 5.23288 16.263 7.2693Z" fill="#FFAA00"/>
<path d="M16.2638 7.2695C16.2638 9.30614 14.6129 10.957 12.5765 10.957C11.5759 10.957 10.668 10.5584 10.0039 9.91089C10.5283 10.1974 11.1297 10.3603 11.7693 10.3603C13.8055 10.3603 15.4563 8.7095 15.4563 6.67307C15.4563 5.63702 15.0291 4.70116 14.3414 4.03125C15.4866 4.65673 16.2638 5.87222 16.2638 7.2695Z" fill="#FF9500"/>
<path d="M15.0958 7.26872C15.0958 8.66194 13.9664 9.79113 12.5732 9.79113C11.1802 9.79113 10.0508 8.66194 10.0508 7.26872C10.0508 5.8755 11.1802 4.74609 12.5732 4.74609C13.9664 4.74609 15.0958 5.8755 15.0958 7.26872Z" fill="#FFCD6B"/>
<path d="M15.0973 7.26881C15.0973 8.66203 13.9683 9.79144 12.5751 9.79144C11.8268 9.79144 11.155 9.46588 10.6934 8.9485C10.9939 9.07539 11.3244 9.14524 11.6713 9.14524C13.0645 9.14524 14.1939 8.01562 14.1939 6.6224C14.1939 5.9777 13.9521 5.3894 13.5537 4.94336C14.461 5.32574 15.0973 6.22294 15.0973 7.26881Z" fill="#FFC143"/>
<path d="M12.5761 1.30671C12.8059 1.30671 12.9922 1.12043 12.9922 0.890576V0.416129C12.9922 0.186276 12.8059 0 12.5761 0C12.3464 0 12.1602 0.186276 12.1602 0.416129V0.890576C12.1602 1.12022 12.3464 1.30671 12.5761 1.30671Z" fill="#FFAA00"/>
<path d="M11.2794 2.67818C11.5091 2.67818 11.6953 2.49191 11.6953 2.26205V1.088C11.6953 0.858151 11.5091 0.671875 11.2794 0.671875C11.0496 0.671875 10.8633 0.858151 10.8633 1.088V2.26205C10.8633 2.49191 11.0496 2.67818 11.2794 2.67818Z" fill="#FFAA00"/>
<path d="M13.0194 10.137C12.8228 10.137 12.6483 9.99755 12.6109 9.79739C12.5686 9.57159 12.7175 9.35413 12.9433 9.31205C13.1561 9.2721 13.3607 9.1999 13.5515 9.09693C13.754 8.98799 14.0061 9.06361 14.115 9.2659C14.2242 9.46799 14.1486 9.72048 13.9463 9.82943C13.6797 9.9732 13.3936 10.0742 13.0963 10.1298C13.0704 10.1347 13.0448 10.137 13.0194 10.137ZM11.1635 9.76299C11.0846 9.76299 11.005 9.74056 10.9342 9.69378C10.6824 9.52716 10.4581 9.32358 10.268 9.08839C10.1236 8.9098 10.1511 8.6479 10.3297 8.50328C10.5085 8.35866 10.7704 8.38644 10.9148 8.56502C11.0515 8.73399 11.2124 8.88032 11.3933 8.99995C11.5849 9.12662 11.6375 9.38489 11.5108 9.57651C11.4307 9.69741 11.2983 9.76299 11.1635 9.76299ZM14.9584 8.4219C14.9165 8.4219 14.8742 8.4157 14.8324 8.40224C14.6132 8.33282 14.4921 8.0989 14.5617 7.87995C14.6269 7.67423 14.66 7.45954 14.66 7.24144C14.66 7.01159 14.8462 6.82531 15.0761 6.82531C15.306 6.82531 15.4922 7.01159 15.4922 7.24144C15.4922 7.54499 15.4459 7.84448 15.3549 8.13159C15.2985 8.30868 15.1346 8.4219 14.9584 8.4219ZM10.0415 7.43135C10.0291 7.43135 10.0168 7.43071 10.0041 7.42964C9.77536 7.40934 9.60618 7.20726 9.62668 6.97847C9.65339 6.67642 9.72644 6.38205 9.84351 6.10349C9.93259 5.89158 10.1765 5.79204 10.3882 5.88111C10.6001 5.97019 10.6997 6.21415 10.6106 6.42584C10.5269 6.62515 10.4745 6.83599 10.4553 7.05217C10.4361 7.26835 10.2545 7.43135 10.0415 7.43135ZM14.6506 6.25452C14.5164 6.25452 14.3848 6.18979 14.3047 6.07017C14.1838 5.89009 14.0366 5.72987 13.8668 5.59444C13.6874 5.4511 13.6581 5.1892 13.8014 5.00976C13.9448 4.83011 14.2065 4.80084 14.3861 4.94418C14.6224 5.13281 14.8274 5.35583 14.9958 5.60661C15.1237 5.79759 15.0727 6.05585 14.8819 6.18403C14.8108 6.23166 14.7302 6.25452 14.6506 6.25452ZM11.5623 5.33746C11.4008 5.33746 11.2472 5.24282 11.1795 5.08496C11.0893 4.87369 11.1872 4.6291 11.3984 4.53873C11.6764 4.41996 11.9703 4.34498 12.2719 4.31636C12.5007 4.29457 12.7036 4.46226 12.7257 4.69104C12.7474 4.91962 12.5795 5.12277 12.351 5.14456C12.1348 5.16506 11.9244 5.21868 11.7257 5.3037C11.6723 5.32656 11.617 5.33746 11.5623 5.33746Z" fill="#CB8000"/>
<path d="M13.8693 2.67818C14.0991 2.67818 14.2854 2.49191 14.2854 2.26205V1.088C14.2854 0.858151 14.0991 0.671875 13.8693 0.671875C13.6394 0.671875 13.4531 0.858151 13.4531 1.088V2.26205C13.4531 2.49191 13.6394 2.67818 13.8693 2.67818Z" fill="#FFAA00"/>
<path d="M15.2859 27.999H4.15766C1.87087 27.999 0 26.1279 0 23.8414V18.3998C0 16.1131 1.87109 14.2422 4.15766 14.2422H15.2859C17.5727 14.2422 19.4436 16.1133 19.4436 18.3998V23.8414C19.4436 26.1281 17.5727 27.999 15.2859 27.999Z" fill="#BBDEFB"/>
<path d="M19.4465 18.3998V23.8411C19.4465 26.1281 17.5755 27.9992 15.2889 27.9992H13.9941C16.2814 27.9992 18.1524 26.1281 18.1524 23.8411V18.3998C18.1524 16.1133 16.2814 14.2422 13.9941 14.2422H15.2889C17.5755 14.2422 19.4465 16.1133 19.4465 18.3998Z" fill="#90CAF9"/>
<path d="M17.665 11.8121H1.83055C1.46249 11.8121 1.16406 11.5139 1.16406 11.1458V9.88719C1.16406 9.51913 1.46249 9.2207 1.83055 9.2207H17.665C18.0331 9.2207 18.3315 9.51913 18.3315 9.88719V11.1458C18.3315 11.5137 18.0331 11.8121 17.665 11.8121Z" fill="#BBDEFB"/>
<path d="M18.3291 9.88677V11.1456C18.3291 11.5139 18.0307 11.8117 17.6628 11.8117H16.1934C16.561 11.8117 16.8596 11.5139 16.8596 11.1456V9.88677C16.8596 9.51913 16.5612 9.2207 16.1934 9.2207H17.6628C18.0307 9.2207 18.3291 9.51913 18.3291 9.88677Z" fill="#90CAF9"/>
<path d="M10.0972 19.7478C10.0972 21.7842 8.44636 23.4351 6.40993 23.4351C4.3735 23.4351 2.72266 21.7842 2.72266 19.7478C2.72266 17.7114 4.3735 16.0605 6.40993 16.0605C8.44636 16.0605 10.0972 17.7114 10.0972 19.7478Z" fill="#FFAA00"/>
<path d="M10.0939 19.7463C10.0939 21.7829 8.44302 23.4338 6.40659 23.4338C5.406 23.4338 4.49813 23.0351 3.83398 22.3877C4.3582 22.6741 4.95976 22.8369 5.59912 22.8369C7.63554 22.8369 9.28639 21.1861 9.28639 19.1498C9.28639 18.1138 8.85915 17.1779 8.1713 16.5078C9.31672 17.1335 10.0939 18.349 10.0939 19.7463Z" fill="#FF9500"/>
<path d="M8.9298 19.747C8.9298 21.1402 7.80061 22.2696 6.40739 22.2696C5.01417 22.2696 3.88477 21.1402 3.88477 19.747C3.88477 18.354 5.01417 17.2246 6.40739 17.2246C7.80061 17.2246 8.9298 18.354 8.9298 19.747Z" fill="#FFCD6B"/>
<path d="M8.93152 19.7454C8.93152 21.1386 7.80233 22.268 6.40911 22.268C5.66102 22.268 4.98897 21.9424 4.52734 21.4251C4.82812 21.5519 5.15859 21.6218 5.5055 21.6218C6.89851 21.6218 8.02813 20.4922 8.02813 19.099C8.02813 18.4543 7.78631 17.866 7.3877 17.4199C8.29494 17.8023 8.93152 18.6993 8.93152 19.7454Z" fill="#FFC143"/>
<path d="M8.52039 19.7479C8.52039 19.9661 8.48728 20.181 8.42192 20.3865C8.35249 20.6054 8.47361 20.8393 8.69257 20.909C8.73465 20.9222 8.77695 20.9284 8.81861 20.9284C8.99506 20.9284 9.1589 20.8154 9.21508 20.6383C9.3063 20.3512 9.35244 20.0517 9.35244 19.7479C9.35244 19.5183 9.16616 19.332 8.93631 19.332C8.70667 19.332 8.52039 19.5183 8.52039 19.7479Z" fill="#CB8000"/>
<path d="M7.40868 21.6045C7.21792 21.7075 7.01349 21.7797 6.80051 21.8194C6.57471 21.8617 6.42582 22.079 6.46812 22.305C6.5055 22.5049 6.68024 22.6446 6.87656 22.6446C6.90198 22.6446 6.92761 22.6423 6.95346 22.6374C7.25103 22.5818 7.53707 22.4808 7.80366 22.337C8.00596 22.2279 8.08137 21.9756 7.97242 21.7733C7.86348 21.5712 7.61098 21.4956 7.40868 21.6045Z" fill="#CB8000"/>
<path d="M6.58157 17.1989C6.55978 16.9701 6.35684 16.8022 6.12805 16.8242C5.82621 16.853 5.53227 16.9278 5.25435 17.0466C5.04309 17.1372 4.94525 17.3815 5.03561 17.5928C5.10311 17.7507 5.2567 17.8453 5.4182 17.8453C5.47289 17.8453 5.52843 17.8344 5.58162 17.8118C5.7805 17.7267 5.9907 17.6731 6.20688 17.6526C6.43567 17.6308 6.60336 17.4277 6.58157 17.1989Z" fill="#CB8000"/>
<path d="M4.3127 19.5592C4.33214 19.3428 4.38426 19.1321 4.468 18.9328C4.55708 18.7211 4.45753 18.4772 4.24584 18.3881C4.03414 18.299 3.79019 18.3986 3.70111 18.6105C3.58405 18.889 3.51099 19.1834 3.48407 19.4855C3.46378 19.7142 3.63275 19.9163 3.86154 19.9366C3.87414 19.9377 3.88653 19.9383 3.89892 19.9383C4.1119 19.9383 4.29348 19.7753 4.3127 19.5592Z" fill="#CB8000"/>
<path d="M5.24915 21.5072C5.06822 21.3876 4.90736 21.2412 4.77065 21.0723C4.62624 20.8937 4.36435 20.8661 4.18555 21.0105C4.00696 21.1551 3.97941 21.417 4.12381 21.5956C4.31393 21.8308 4.53823 22.0344 4.79009 22.2012C4.8608 22.2478 4.94048 22.2702 5.0193 22.2702C5.15431 22.2702 5.28654 22.2047 5.36665 22.0838C5.49332 21.8921 5.44077 21.6339 5.24915 21.5072Z" fill="#CB8000"/>
<path d="M8.24397 17.4523C8.06453 17.3089 7.80284 17.3382 7.65929 17.5178C7.51595 17.6973 7.54522 17.9592 7.72487 18.1025C7.89449 18.238 8.04167 18.398 8.16258 18.5782C8.24269 18.6979 8.37428 18.7626 8.50843 18.7626C8.58811 18.7626 8.66864 18.7397 8.73978 18.6921C8.93054 18.5641 8.98159 18.3057 8.85364 18.1147C8.6853 17.8639 8.48023 17.6409 8.24397 17.4523Z" fill="#CB8000"/>
<path d="M16.722 22.4568C16.722 24.493 15.0714 26.1439 13.0349 26.1439C10.9985 26.1439 9.34766 24.493 9.34766 22.4568C9.34766 20.4204 10.9985 18.7695 13.0349 18.7695C15.0714 18.7695 16.722 20.4204 16.722 22.4568Z" fill="#FFAA00"/>
<path d="M16.7249 22.4592C16.7249 24.4958 15.0741 26.1466 13.0377 26.1466C12.0371 26.1466 11.129 25.748 10.4648 25.1003C10.9893 25.387 11.5908 25.5498 12.2302 25.5498C14.2666 25.5498 15.9175 23.899 15.9175 21.8625C15.9175 20.8267 15.4902 19.8906 14.8024 19.2207C15.9478 19.8464 16.7249 21.0619 16.7249 22.4592Z" fill="#FF9500"/>
<path d="M15.5548 22.456C15.5548 23.8492 14.4254 24.9786 13.0324 24.9786C11.6392 24.9786 10.5098 23.8492 10.5098 22.456C10.5098 21.063 11.6392 19.9336 13.0324 19.9336C14.4254 19.9336 15.5548 21.063 15.5548 22.456Z" fill="#FFCD6B"/>
<path d="M15.5565 22.4583C15.5565 23.8515 14.4273 24.9809 13.0341 24.9809C12.286 24.9809 11.614 24.6551 11.1523 24.1379C11.4531 24.2646 11.7836 24.3345 12.1303 24.3345C13.5235 24.3345 14.6531 23.2051 14.6531 21.8119C14.6531 21.1672 14.4111 20.5786 14.0127 20.1328C14.9199 20.5152 15.5565 21.4122 15.5565 22.4583Z" fill="#FFC143"/>
<path d="M13.0931 25.0138C13.1304 25.214 13.3052 25.3535 13.5015 25.3535C13.5269 25.3535 13.5528 25.3511 13.5786 25.3464C13.876 25.2909 14.162 25.1896 14.4286 25.0461C14.6309 24.9369 14.7063 24.6846 14.5974 24.4823C14.4884 24.28 14.2361 24.2046 14.0338 24.3136C13.8429 24.4163 13.6384 24.4887 13.4257 24.5285C13.1997 24.5708 13.051 24.788 13.0931 25.0138Z" fill="#CB8000"/>
<path d="M12.753 19.5332C12.4512 19.5618 12.1572 19.6368 11.8795 19.7555C11.6683 19.8459 11.5702 20.0905 11.6606 20.3018C11.7281 20.4596 11.8819 20.5543 12.0434 20.5543C12.0979 20.5543 12.1534 20.5434 12.2068 20.5205C12.4055 20.4355 12.6159 20.3821 12.8321 20.3614C13.0606 20.3396 13.2285 20.1364 13.2067 19.9078C13.1847 19.6791 12.9818 19.5114 12.753 19.5332Z" fill="#CB8000"/>
<path d="M10.936 22.2681C10.9552 22.052 11.0073 21.8411 11.091 21.6418C11.1801 21.4301 11.0806 21.1862 10.8689 21.0971C10.6572 21.008 10.4132 21.1076 10.3242 21.3195C10.2069 21.598 10.134 21.8924 10.1071 22.1944C10.0868 22.4232 10.2558 22.6253 10.4848 22.6456C10.4974 22.6467 10.5098 22.6473 10.5222 22.6473C10.7352 22.6473 10.9167 22.4843 10.936 22.2681Z" fill="#CB8000"/>
<path d="M14.3498 20.8114C14.5194 20.9469 14.6666 21.1071 14.7875 21.2872C14.8679 21.4068 14.9994 21.4715 15.1334 21.4715C15.2131 21.4715 15.2936 21.4487 15.3647 21.401C15.5557 21.2731 15.6066 21.0146 15.4786 20.8238C15.3105 20.5728 15.1054 20.35 14.8691 20.1612C14.6895 20.0178 14.4278 20.0473 14.2845 20.2268C14.1409 20.4062 14.1702 20.6681 14.3498 20.8114Z" fill="#CB8000"/>
<path d="M11.8761 24.2143C11.6951 24.0947 11.5343 23.9484 11.3976 23.7794C11.2532 23.6008 10.9913 23.573 10.8125 23.7177C10.6339 23.8623 10.6063 24.1242 10.7509 24.3028C10.9411 24.5379 11.1651 24.7415 11.417 24.9084C11.4877 24.9549 11.5674 24.9774 11.6462 24.9774C11.7812 24.9774 11.9137 24.9118 11.9936 24.7909C12.1202 24.5993 12.0679 24.3412 11.8761 24.2143Z" fill="#CB8000"/>
<path d="M15.1434 22.4569C15.1434 22.675 15.1103 22.8897 15.045 23.0954C14.9755 23.3144 15.0967 23.5483 15.3156 23.6177C15.3575 23.6312 15.4 23.6374 15.4417 23.6374C15.6181 23.6374 15.7819 23.5244 15.8381 23.3471C15.9291 23.06 15.9755 22.7605 15.9755 22.4569C15.9755 22.2273 15.7892 22.041 15.5594 22.041C15.3295 22.041 15.1434 22.2273 15.1434 22.4569Z" fill="#CB8000"/>
</svg>
