<svg width="22" height="24" viewBox="0 0 22 24" fill="none" xmlns="http://www.w3.org/2000/svg">
    <path d="M18.3306 4.89062V15.6678H0.3125V9.60046V6.55148L0.496358 5.7854L1.17663 5.04997L3.01521 4.89062H12.5391H18.3306Z" fill="#3E2723"/>
    <path d="M4.35744 8.3732L1.39426 7.97177L0.640439 7.4202L0 6.54688V19.99C0.000810469 20.522 0.212534 21.0321 0.588766 21.4083C0.964998 21.7845 1.47505 21.9963 2.00712 21.9971H19.9026C19.9482 21.9975 19.9934 21.9888 20.0356 21.9716C20.0778 21.9543 20.1162 21.9288 20.1484 21.8966C20.1806 21.8643 20.2061 21.826 20.2234 21.7838C20.2406 21.7416 20.2493 21.6964 20.2489 21.6508V8.21079L4.35744 8.3732Z" fill="#5D4037"/>
    <path d="M19.8897 8.55246H1.99421C1.47506 8.53217 0.983924 8.31168 0.62379 7.9372C0.263657 7.56272 0.0625 7.06335 0.0625 6.54381C0.0625 6.02426 0.263657 5.52489 0.62379 5.15041C0.983924 4.77593 1.47506 4.55544 1.99421 4.53516H17.9837C18.0756 4.53516 18.1636 4.57164 18.2286 4.63658C18.2935 4.70151 18.33 4.78959 18.33 4.88142C18.33 4.97326 18.2935 5.06133 18.2286 5.12627C18.1636 5.19121 18.0756 5.22769 17.9837 5.22769H1.99421C1.65614 5.24401 1.33731 5.38979 1.10382 5.63482C0.870331 5.87986 0.740087 6.20534 0.740087 6.54381C0.740087 6.88227 0.870331 7.20776 1.10382 7.45279C1.33731 7.69782 1.65614 7.84361 1.99421 7.85992H19.8897C19.9816 7.85992 20.0696 7.8964 20.1346 7.96134C20.1995 8.02628 20.236 8.11435 20.236 8.20619C20.236 8.29803 20.1995 8.3861 20.1346 8.45104C20.0696 8.51597 19.9816 8.55246 19.8897 8.55246Z" fill="#64798A"/>
    <path d="M14.1283 13.6172C13.6488 13.6172 13.1889 13.8077 12.8498 14.1467C12.5108 14.4858 12.3203 14.9456 12.3203 15.4251C12.3203 15.9046 12.5108 16.3645 12.8498 16.7035C13.1889 17.0426 13.6488 17.2331 14.1283 17.2331H20.2262V13.6172H14.1283Z" fill="#A1887F"/>
    <path d="M14.1235 16.3681C14.6447 16.3681 15.0673 15.9455 15.0673 15.4243C15.0673 14.903 14.6447 14.4805 14.1235 14.4805C13.6022 14.4805 13.1797 14.903 13.1797 15.4243C13.1797 15.9455 13.6022 16.3681 14.1235 16.3681Z" fill="#5D4037"/>
    <path d="M14.1165 6.76032C14.6479 6.76032 15.0787 6.32953 15.0787 5.79813C15.0787 5.26672 14.6479 4.83594 14.1165 4.83594C13.5851 4.83594 13.1543 5.26672 13.1543 5.79813C13.1543 6.32953 13.5851 6.76032 14.1165 6.76032Z" fill="#EBF0F3"/>
    <path d="M10.0483 8.44304H10.5968L10.4742 8.32047C10.5373 8.27054 10.6122 8.23782 10.6918 8.22548C10.7475 8.22103 10.8035 8.22827 10.8563 8.24674C10.9091 8.26521 10.9574 8.2945 10.9982 8.33273L11.1637 8.13661C11.0782 8.05745 10.9719 8.0043 10.8572 7.9834C10.7447 7.96219 10.6284 7.97499 10.5232 8.02017C10.4424 8.05518 10.3671 8.10162 10.2995 8.15806L10.036 7.89453L9.86133 8.0692L10.1249 8.32966C10.1126 8.36643 10.0758 8.40627 10.0483 8.44304Z" fill="#44C4A1"/>
    <path d="M2 0.118071V7.88193C2 7.94705 2.0859 8 2.19196 8H10.808C10.9139 8 11 7.94716 11 7.88193V0.118071C11 0.0528359 10.9141 0 10.808 0H2.19196C2.0859 0 2 0.0528359 2 0.118071Z" fill="#8CBAFA"/>
    <path d="M3 0H5V8H3V0Z" fill="#575B7A"/>
    <path d="M18.004 8.44112L19.7383 6.70979C19.8525 6.59496 19.9166 6.43963 19.9166 6.27772C19.9166 6.11581 19.8525 5.96048 19.7383 5.84565L14.0663 0.176698C13.9516 0.0634816 13.797 0 13.6358 0C13.4746 0 13.3199 0.0634816 13.2053 0.176698L4.93164 8.45031L18.004 8.44112Z" fill="#44C4A1"/>
    <path d="M16.9982 8.44361L18.3036 7.13822C18.1107 6.94515 18.0023 6.68338 18.0023 6.41044C18.0023 6.13751 18.1107 5.87574 18.3036 5.68267L14.2342 1.61328C14.0412 1.80621 13.7794 1.91458 13.5065 1.91458C13.2335 1.91458 12.9718 1.80621 12.7787 1.61328L5.94531 8.44361H16.9982Z" fill="#EBF0F3"/>
    <path d="M15.8331 8.44051L17.2764 6.99722C17.1468 6.61464 17.1468 6.20004 17.2764 5.81746L14.0957 2.63672C13.7131 2.76631 13.2985 2.76631 12.9159 2.63672L7.09375 8.44051H15.8331Z" fill="#44C4A1"/>
    <path d="M13.278 8.44027C13.1603 7.90992 12.8652 7.43558 12.4415 7.0956C12.0178 6.75561 11.4908 6.57031 10.9476 6.57031C10.4043 6.57031 9.87735 6.75561 9.45364 7.0956C9.02994 7.43558 8.73488 7.90992 8.61719 8.44027H13.278Z" fill="#EBF0F3"/>
    <path d="M19.8897 7.86774H1.99421C1.65614 7.85142 1.33731 7.70563 1.10382 7.4606C0.870331 7.21557 0.740087 6.89008 0.740087 6.55162C0.740087 6.21315 0.870331 5.88767 1.10382 5.64264C1.33731 5.3976 1.65614 5.25182 1.99421 5.2355L2 4.5L1.99421 4.54297C1.47506 4.56325 0.983924 4.78375 0.62379 5.15822C0.263657 5.5327 0.0625 6.03207 0.0625 6.55162C0.0625 7.07117 0.263657 7.57053 0.62379 7.94501C0.983924 8.31949 1.47506 8.53999 1.99421 8.56027H19.8897C19.9816 8.56027 20.0696 8.52379 20.1346 8.45885C20.1995 8.39391 20.236 8.30584 20.236 8.214C20.236 8.12217 20.1995 8.03409 20.1346 7.96915C20.0696 7.90422 19.9816 7.86774 19.8897 7.86774Z" fill="#A1887F"/>
    <circle cx="15.9999" cy="17.9999" r="3.6" fill="white"/>
    <path d="M10 18C10 19.1867 10.3519 20.3467 11.0112 21.3334C11.6705 22.3201 12.6075 23.0891 13.7039 23.5433C14.8003 23.9974 16.0067 24.1162 17.1705 23.8847C18.3344 23.6532 19.4035 23.0818 20.2426 22.2426C21.0818 21.4035 21.6532 20.3344 21.8847 19.1705C22.1162 18.0067 21.9974 16.8003 21.5433 15.7039C21.0891 14.6075 20.3201 13.6705 19.3334 13.0112C18.3467 12.3519 17.1867 12 16 12C14.4087 12 12.8826 12.6321 11.7574 13.7574C10.6321 14.8826 10 16.4087 10 18ZM17.116 15.786L18.832 17.586C18.8574 17.612 18.8777 17.6425 18.892 17.676C18.9175 17.7042 18.9378 17.7367 18.952 17.772C18.9837 17.8438 19.0001 17.9215 19.0001 18C19.0001 18.0785 18.9837 18.1562 18.952 18.228C18.9234 18.3016 18.8806 18.3689 18.826 18.426L17.026 20.226C16.913 20.339 16.7598 20.4025 16.6 20.4025C16.4402 20.4025 16.287 20.339 16.174 20.226C16.061 20.113 15.9975 19.9598 15.9975 19.8C15.9975 19.6402 16.061 19.487 16.174 19.374L16.954 18.6H13.6C13.4409 18.6 13.2883 18.5368 13.1757 18.4243C13.0632 18.3117 13 18.1591 13 18C13 17.8409 13.0632 17.6883 13.1757 17.5757C13.2883 17.4632 13.4409 17.4 13.6 17.4H16.996L16.246 16.614C16.1362 16.4986 16.0767 16.3444 16.0807 16.1851C16.0846 16.0259 16.1516 15.8748 16.267 15.765C16.3824 15.6552 16.5366 15.5957 16.6958 15.5997C16.8551 15.6036 17.0062 15.6706 17.116 15.786Z" fill="#1976D2"/>
</svg>
