<svg width="22" height="22" viewBox="0 0 22 22" fill="none" xmlns="http://www.w3.org/2000/svg">
<circle cx="11" cy="11" r="10.5" stroke="#4CAF50"/>
<path d="M17.9797 10.2003C17.9588 9.98216 17.7861 9.80945 17.5679 9.78859C17.4457 9.77693 14.5548 9.52187 12.8714 11.2053C12.5063 11.5704 12.2326 11.9922 12.0276 12.4302C11.69 11.0479 11.0895 9.90098 10.2651 9.07662C9.24909 8.06057 7.74317 7.38458 5.91024 7.12175C4.54641 6.92617 3.48443 7.02387 3.4399 7.02818C3.22172 7.04904 3.04902 7.22175 3.02816 7.43992C3.02388 7.48445 2.92618 8.5464 3.12173 9.91026C3.38456 11.7432 4.06052 13.2491 5.0766 14.2652C6.09264 15.2812 7.59856 15.9572 9.43149 16.22C10.1065 16.3168 10.7075 16.3418 11.1478 16.3418C11.5468 16.3417 11.8135 16.3213 11.8841 16.3152C11.9445 16.3204 12.1284 16.3339 12.396 16.3339C13.3323 16.3339 15.2919 16.168 16.5629 14.8969C18.2464 13.2135 17.9914 10.3226 17.9797 10.2003Z" fill="#4CAF50"/>
<path d="M15.1864 12.7251C15.0078 12.5465 14.7183 12.5465 14.5396 12.7251L12.03 15.2348L8.14009 11.3449C7.96153 11.1663 7.67195 11.1663 7.49333 11.3449C7.31471 11.5234 7.31474 11.813 7.49333 11.9916L11.6808 16.1791C11.7701 16.2684 11.8872 16.3131 12.0042 16.3131C12.0128 16.3131 12.0214 16.3124 12.03 16.3118C12.0385 16.3123 12.0472 16.3131 12.0557 16.3131C12.1728 16.3131 12.2898 16.2684 12.3791 16.1791L15.1863 13.3718C15.365 13.1932 15.365 12.9036 15.1864 12.7251Z" fill="#8CDC52"/>
<path d="M17.5697 9.78594C17.4474 9.77428 14.5565 9.51922 12.8731 11.2027C12.5081 11.5677 12.2343 11.9895 12.0293 12.4276C12.0249 12.4093 12.0202 12.3913 12.0156 12.3731V16.3214C12.1073 16.3264 12.2373 16.3313 12.3978 16.3313C13.334 16.3313 15.2936 16.1653 16.5647 14.8942C18.2481 13.2108 17.9931 10.3199 17.9814 10.1976C17.9606 9.9795 17.7878 9.8068 17.5697 9.78594Z" fill="#8CDC52"/>
<path d="M14.5378 12.7277L12.0281 15.2374L12.0156 15.2249V16.315C12.0198 16.3148 12.0239 16.3147 12.0281 16.3144C12.0367 16.3149 12.0453 16.3157 12.0539 16.3157C12.1709 16.3157 12.288 16.271 12.3772 16.1817L15.1845 13.3744C15.3631 13.1959 15.3631 12.9063 15.1845 12.7277C15.0059 12.5491 14.7164 12.5491 14.5378 12.7277Z" fill="#5DC378"/>
</svg>
