<svg width="21" height="21" viewBox="0 0 21 21" fill="none" xmlns="http://www.w3.org/2000/svg">
<circle cx="10.5" cy="10.5" r="10" fill="#C8E6C9" stroke="#4D841E"/>
<path d="M14.5641 11L14.5583 11.0067C14.3461 11.3137 14.1625 11.6073 14 11.8854L14.0019 11.8877C14.2103 12.0345 14.4799 12.0434 14.6998 11.8788C14.8681 11.7542 14.9713 11.5562 14.9981 11.3448L15 11.3382C14.8279 11.287 14.675 11.1624 14.5641 11Z" fill="#3B601C"/>
<path d="M12 10L11.3906 11.8754C10.9167 12.2072 10.3021 11.8194 10.0938 11.3795L10 10.6226C10.138 10.6525 10.2786 10.6674 10.4219 10.6674C10.9922 10.6711 11.5312 10.4288 12 10Z" fill="#4E7A25"/>
<path d="M7.9867 10C8.29787 10.1512 8.63697 10.2828 9 10.3895C8.82048 10.9231 7.29654 11.1934 6.36303 10.8413C6.1516 10.6581 6.00798 10.5318 6 10.5247C6.49867 10.5193 6.99734 10.4429 7.42021 10.2917C7.65558 10.2063 7.84707 10.1085 7.9867 10Z" fill="#3B601C"/>
<path d="M4.93391 10.0293L6 11.8775L5.987 11.8834C5.28494 12.1763 4.45287 11.898 4.12785 11.2654C3.92633 10.8699 3.97183 10.4276 4.2026 10.082L4.22535 10C4.26761 10.0088 4.31311 10.0176 4.35861 10.0264C4.55363 10.0557 4.74865 10.0557 4.93391 10.0293Z" fill="#3B601C"/>
<path d="M4.62257 11.3009C4.48476 10.9994 4.47615 10.6692 4.57664 10.3792C4.56228 10.3764 4.5508 10.3764 4.53644 10.3735C4.49625 10.3678 4.45892 10.3591 4.41873 10.3477L4.39863 10.428C4.19191 10.7668 4.15459 11.2004 4.33259 11.588C4.61683 12.2081 5.35183 12.4809 5.97486 12.1938L5.98922 12.188L5.89734 12.0129C5.37767 12.0761 4.85513 11.8033 4.62257 11.3009Z" fill="#4D841E"/>
<path d="M8.17686 9.83203C7.99023 10.5125 7.18059 10.8771 6.55469 10.59C6.59775 10.6733 6.64943 10.7737 6.70973 10.8915C7.37869 11.4599 8.47545 11.0264 8.60752 10.1622C8.45822 10.0675 8.31467 9.95549 8.17686 9.83203Z" fill="#315112"/>
<path d="M10 11L10.1125 11.5446C10.3666 11.8675 11.1286 12.1521 11.7138 11.9085L12 11.3831C11.2733 11.5911 10.3826 11.3284 10 11Z" fill="#2C4415"/>
<path d="M14.9766 11.5117C14.7153 11.6782 14.4081 11.7069 14.1354 11.6179C14.0636 11.7213 13.9918 11.8218 13.9258 11.9223L13.9287 11.9251C14.2416 12.1146 14.6464 12.1261 14.9766 11.9137C15.2293 11.7529 15.3843 11.4973 15.4245 11.2246L15.4274 11.216C15.3843 11.2045 15.3412 11.1901 15.301 11.1758C15.2235 11.3079 15.1144 11.4256 14.9766 11.5117Z" fill="#4D841E"/>
<path d="M12.1991 10L10.3577 13.6068L9.82045 10.8094C9.37805 10.7461 8.95576 10.5959 8.5823 10.3665L8.815 12.9371C8.81787 13.525 8.21172 13.6885 7.91008 13.1928L6.2008 10.1687L5 10.5379L8.24907 16.2855C8.43292 16.7153 8.88394 17 9.39242 17H10.7167C11.254 17 11.7136 16.6731 11.8888 16.2064C12.3628 14.9514 12.7506 13.6753 13.9572 12.0328L15 10.646L12.1991 10Z" fill="#CADD78"/>
<path d="M11.2197 17.1752H9.89616C9.39084 17.1752 8.93721 16.8651 8.75346 16.3971L5.54645 10.207L5.04688 10.3764L8.27973 16.6124C8.46348 17.0804 8.91424 17.3905 9.42243 17.3905H10.746C11.0073 17.3905 11.2628 17.3044 11.4724 17.1465C11.3891 17.1666 11.3059 17.1752 11.2197 17.1752Z" fill="#ADBC55"/>
<path d="M9.13008 10.4436C8.9492 10.3661 8.77693 10.2742 8.61328 10.168L8.84584 12.9673C8.84871 13.0936 8.82 13.2199 8.76258 13.3319C9.0382 13.4094 9.32244 13.1884 9.32244 12.7491L9.13008 10.4436Z" fill="#ADBC55"/>
<path d="M12.2855 9.59766L10.3906 13.7004L10.4739 14.1684C10.5083 14.4383 10.6203 14.49 10.7466 14.4498C10.8529 14.4182 10.9333 14.3321 10.9735 14.2287L13.0005 9.60053L12.2855 9.59766Z" fill="#ADBC55"/>
<path d="M5.54582 7.35359C4.84456 7.92521 4.76826 8.80189 5.41865 9.41474C5.58579 9.57139 5.78199 9.69506 6 9.7885C5.60759 9.96438 5.13524 10.0413 4.65199 9.97812C3.57285 9.84071 2.84616 9.06572 3.02783 8.2495C3.20951 7.43328 4.23414 6.88364 5.31328 7.02105L5.36415 7.01006C5.40775 7.13098 5.46588 7.24366 5.54582 7.35359Z" fill="#3B601C"/>
<path d="M14.76 10.2036C14.3891 10.342 13.981 10.3603 13.6015 10.2637C13.2905 10.1853 12.9994 10.026 12.7654 9.79365C12.7226 9.75187 12.6855 9.71009 12.6484 9.6657L12.6427 9.66831C12.0406 10.1488 11.293 10.4334 10.4855 10.4334C9.53244 10.4334 8.71349 10.0391 8.0686 9.39153C7.96588 9.55081 7.83176 9.69442 7.66626 9.81715C7.11554 10.2219 6.37363 10.2637 5.80579 9.9686C5.63458 9.87982 5.48049 9.76231 5.34923 9.61348C4.84131 9.0338 4.89838 8.20085 5.4491 7.65512C5.38633 7.55067 5.34067 7.44361 5.30643 7.33133C4.96972 6.1772 6.21384 4.73846 7.87742 5.56619C8.81621 3.26577 12.2889 3.76189 13.065 5.36775C14.2607 4.82985 15.5419 5.93698 15.0939 6.80127H15.1367C16.1297 6.80127 16.9344 7.53761 16.9344 8.44368C16.9344 8.74135 16.8459 9.02336 16.6947 9.26358C16.883 9.44637 17 9.69704 17 9.9686C17 10.5378 16.4949 11 15.8729 11C15.3592 11 14.897 10.6292 14.76 10.2036Z" fill="#4D841E"/>
<path d="M15.7309 10.1591C15.217 10.1591 14.7519 9.75144 14.6112 9.28058C14.2379 9.43275 13.8274 9.45285 13.4455 9.34662C13.1326 9.26049 12.8397 9.08822 12.6043 8.82982C12.5612 8.78389 12.5239 8.73795 12.4866 8.68914L12.4808 8.69201C11.875 9.22029 11.1228 9.53324 10.3103 9.53324C9.35133 9.53324 8.52733 9.09971 7.87846 8.38768C7.7751 8.56281 7.64016 8.72072 7.47364 8.85566C6.91952 9.30068 6.17303 9.34662 5.60168 9.02219C5.42942 8.92457 5.27151 8.79537 5.14231 8.63172C5.03321 8.49678 4.95282 8.35035 4.89252 8.19531C4.70016 8.72072 4.77194 9.32078 5.14231 9.78015C5.27438 9.9438 5.42942 10.073 5.60168 10.1706C6.17303 10.4922 6.91952 10.4491 7.47364 10.0041C7.64016 9.86916 7.77797 9.71125 7.87846 9.53611C8.52733 10.2453 9.35133 10.6817 10.3103 10.6817C11.1228 10.6817 11.875 10.3687 12.4808 9.84045L12.4866 9.83757C12.5239 9.88638 12.5612 9.93232 12.6043 9.97826C12.8397 10.2338 13.1326 10.4061 13.4455 10.4951C13.8274 10.6013 14.2379 10.5812 14.6112 10.429C14.749 10.8999 15.2141 11.3076 15.7309 11.3076C16.3568 11.3076 16.865 10.7994 16.865 10.1735C16.865 9.9639 16.8076 9.76867 16.7099 9.59927C16.5118 9.93519 16.1501 10.1591 15.7309 10.1591Z" fill="#67A829"/>
<path d="M5.16565 9.80686C5.14842 9.80398 5.13119 9.80111 5.11397 9.79824C4.26125 9.65469 3.68703 8.84504 3.83059 7.99232C3.86217 7.80283 3.9282 7.6277 4.01721 7.47266C3.62674 7.6966 3.33676 8.08994 3.25637 8.56654C3.11281 9.41926 3.68703 10.2289 4.53975 10.3725C4.9216 10.4356 5.29485 10.3581 5.60492 10.1744C5.44127 10.0825 5.29197 9.95902 5.16565 9.80686Z" fill="#4D841E"/>
</svg>
