<svg width="15" height="15" viewBox="0 0 15 15" fill="none" xmlns="http://www.w3.org/2000/svg">
<path d="M15 2.34375V5.6543C15 5.97794 14.7377 6.24023 14.4141 6.24023C14.0904 6.24023 13.8281 5.97794 13.8281 5.6543V2.34375C13.8281 1.69762 13.3024 1.17188 12.6562 1.17188H2.34375C1.69762 1.17188 1.17188 1.69762 1.17188 2.34375V11.4551C1.17188 12.1012 1.69762 12.627 2.34375 12.627H7.79297C8.11661 12.627 8.37891 12.8893 8.37891 13.2129C8.37891 13.5365 8.11661 13.7988 7.79297 13.7988H2.34375C1.05137 13.7988 0 12.7475 0 11.4551V2.34375C0 1.05137 1.05137 0 2.34375 0H12.6562C13.9486 0 15 1.05137 15 2.34375ZM2.8418 10.2832C2.51816 10.2832 2.25586 10.5455 2.25586 10.8691C2.25586 11.1928 2.51816 11.4551 2.8418 11.4551C3.16544 11.4551 3.42773 11.1928 3.42773 10.8691C3.42773 10.5455 3.16544 10.2832 2.8418 10.2832ZM5.18555 10.2832C4.86191 10.2832 4.59961 10.5455 4.59961 10.8691C4.59961 11.1928 4.86191 11.4551 5.18555 11.4551C5.50919 11.4551 5.77148 11.1928 5.77148 10.8691C5.77148 10.5455 5.50919 10.2832 5.18555 10.2832ZM7.5293 10.2832C7.20566 10.2832 6.94336 10.5455 6.94336 10.8691C6.94336 11.1928 7.20566 11.4551 7.5293 11.4551C7.85294 11.4551 8.11523 11.1928 8.11523 10.8691C8.11523 10.5455 7.85294 10.2832 7.5293 10.2832ZM3.42773 2.92969C3.42773 2.60605 3.16544 2.34375 2.8418 2.34375C2.51816 2.34375 2.25586 2.60605 2.25586 2.92969C2.25586 3.25333 2.51816 3.51562 2.8418 3.51562C3.16544 3.51562 3.42773 3.25333 3.42773 2.92969ZM5.77148 2.92969C5.77148 2.60605 5.50919 2.34375 5.18555 2.34375C4.86191 2.34375 4.59961 2.60605 4.59961 2.92969C4.59961 3.25333 4.86191 3.51562 5.18555 3.51562C5.50919 3.51562 5.77148 3.25333 5.77148 2.92969ZM8.11523 2.92969C8.11523 2.60605 7.85294 2.34375 7.5293 2.34375C7.20566 2.34375 6.94336 2.60605 6.94336 2.92969C6.94336 3.25333 7.20566 3.51562 7.5293 3.51562C7.85294 3.51562 8.11523 3.25333 8.11523 2.92969ZM10.459 2.92969C10.459 2.60605 10.1967 2.34375 9.87305 2.34375C9.54941 2.34375 9.28711 2.60605 9.28711 2.92969C9.28711 3.25333 9.54941 3.51562 9.87305 3.51562C10.1967 3.51562 10.459 3.25333 10.459 2.92969ZM12.8027 2.92969C12.8027 2.60605 12.5404 2.34375 12.2168 2.34375C11.8932 2.34375 11.6309 2.60605 11.6309 2.92969C11.6309 3.25333 11.8932 3.51562 12.2168 3.51562C12.5404 3.51562 12.8027 3.25333 12.8027 2.92969ZM15 8.39848V8.77693C15 9.55639 14.2171 10.2054 13.6455 10.6793C13.5761 10.7368 13.51 10.7917 13.4526 10.8408C13.5065 10.8865 13.5675 10.9371 13.6313 10.99C14.2089 11.4685 15 12.1238 15 12.9028V13.2812C15 13.8736 14.5179 14.3555 13.9252 14.3555H10.6256C10.0329 14.3555 9.55078 13.8736 9.55078 13.2812V12.9028C9.55078 12.1121 10.3635 11.4276 10.9571 10.9278C10.9998 10.8918 11.041 10.8571 11.0793 10.8246C11.0265 10.7798 10.9672 10.7307 10.9053 10.6793C10.3337 10.2054 9.55078 9.55639 9.55078 8.77693V8.39848C9.55078 7.80613 10.0329 7.32422 10.6256 7.32422H13.9253C14.5179 7.32422 15 7.80613 15 8.39848ZM13.8281 8.49609H10.7227V8.77693C10.7227 8.77796 10.7283 8.89137 10.9686 9.15607C11.1653 9.37271 11.4245 9.58752 11.6532 9.77703C11.7398 9.8489 11.8215 9.91665 11.8951 9.98062C12.1297 10.1844 12.2754 10.5075 12.2754 10.8236C12.2754 11.1459 12.1394 11.4565 11.9117 11.6543C11.8507 11.7074 11.7833 11.7641 11.712 11.8242C11.488 12.0127 11.2094 12.2475 10.9988 12.4797C10.7309 12.7752 10.7228 12.902 10.7227 12.9032V13.1836H13.8281V12.9028C13.828 12.9021 13.82 12.7855 13.5728 12.5157C13.3732 12.2979 13.1132 12.0824 12.8838 11.8925C12.796 11.8197 12.7131 11.751 12.639 11.6867C12.3709 11.4537 12.2754 11.0881 12.2754 10.8236C12.2754 10.5075 12.4211 10.1846 12.6557 9.98062C12.7293 9.91665 12.811 9.8489 12.8976 9.77715C13.1263 9.58752 13.3855 9.37271 13.5821 9.15607C13.8224 8.89137 13.8281 8.77796 13.8281 8.77693V8.49609Z" fill="#737A8D"/>
</svg>
