<svg width="39" height="39" viewBox="0 0 39 39" fill="none" xmlns="http://www.w3.org/2000/svg">
<path opacity="0.1" d="M32.1518 14.4609C31.246 14.0594 30.5177 13.331 30.1162 12.4253C30.0071 12.1791 29.7596 12.0235 29.4904 12.0235L8.06429 12.0235C7.795 12.0235 7.54752 12.1792 7.43843 12.4254C7.03693 13.3311 6.30856 14.0595 5.4029 14.4609C5.15669 14.57 5.00111 14.8175 5.00106 15.0868L5.00106 24.5136C5.00106 24.7829 5.15674 25.0304 5.4029 25.1395C6.30861 25.541 7.03698 26.2693 7.43843 27.175C7.54757 27.4212 7.79505 27.5768 8.06429 27.5768L29.4903 27.5768C29.7596 27.5768 30.0071 27.4212 30.1162 27.175C30.5177 26.2693 31.2461 25.5409 32.1517 25.1395C32.3979 25.0303 32.5535 24.7828 32.5535 24.5136L32.5535 15.0868C32.5535 14.8175 32.398 14.57 32.1518 14.4609Z" fill="#0000CC"/>
<path d="M33.1732 13.4374C32.2675 13.0359 31.5392 12.3076 31.1377 11.4019C31.0286 11.1557 30.7811 11.0001 30.5119 11.0001L9.08582 11.0001C8.81653 11.0001 8.56905 11.1557 8.45996 11.4019C8.05847 12.3076 7.33009 13.036 6.42444 13.4374C6.17822 13.5466 6.02264 13.794 6.0226 14.0633L6.0226 23.4901C6.0226 23.7594 6.17827 24.0069 6.42444 24.116C7.33014 24.5175 8.05852 25.2458 8.45997 26.1515C8.5691 26.3977 8.81658 26.5533 9.08582 26.5533L30.5119 26.5533C30.7811 26.5533 31.0286 26.3977 31.1377 26.1515C31.5392 25.2458 32.2676 24.5174 33.1732 24.116C33.4195 24.0068 33.575 23.7594 33.5751 23.4901L33.5751 14.0633C33.575 13.794 33.4195 13.5466 33.1732 13.4374Z" fill="#FF4452"/>
<path d="M9.80503 24.3403C9.38279 23.7255 8.85016 23.1928 8.2354 22.7706C8.14301 22.7072 8.08898 22.6011 8.08902 22.489L8.08903 15.0638C8.08903 14.9517 8.14301 14.8457 8.2354 14.7822C8.85021 14.36 9.38285 13.8274 9.80503 13.2126C9.86851 13.1202 9.97453 13.0662 10.0866 13.0662L29.511 13.0662C29.6231 13.0662 29.7291 13.1202 29.7926 13.2126C30.2148 13.8274 30.7474 14.36 31.3622 14.7822C31.4546 14.8457 31.5086 14.9517 31.5086 15.0638L31.5086 22.489C31.5086 22.6011 31.4546 22.7071 31.3622 22.7706C30.7474 23.1928 30.2148 23.7255 29.7926 24.3402C29.7291 24.4326 29.6231 24.4866 29.511 24.4866L10.0866 24.4867C9.97443 24.4867 9.86846 24.4327 9.80503 24.3403Z" fill="white"/>
<path d="M29.5111 13.0644L19.7989 13.0644L19.7989 24.4849L29.5111 24.4849C29.6233 24.4849 29.7292 24.4309 29.7927 24.3385C30.215 23.7237 30.7476 23.1911 31.3624 22.7689C31.4547 22.7054 31.5088 22.5994 31.5087 22.4873L31.5088 15.062C31.5088 14.9499 31.4548 14.8439 31.3624 14.7804C30.7476 14.3582 30.215 13.8256 29.7928 13.2108C29.7292 13.1184 29.6233 13.0644 29.5111 13.0644Z" fill="#FF9D33"/>
<path d="M10.7683 16.9369L10.0107 16.1793C9.87625 16.0449 9.87625 15.8269 10.0107 15.6925L10.7683 14.9348C10.9027 14.8004 11.1207 14.8004 11.2551 14.9348L12.0128 15.6925C12.1472 15.8269 12.1472 16.0449 12.0128 16.1793L11.2551 16.9369C11.1207 17.0713 10.9028 17.0714 10.7683 16.9369ZM10.7408 15.9359L11.0117 16.2068L11.2826 15.9359L11.0117 15.665L10.7408 15.9359Z" fill="#0000CC"/>
<path d="M13.6004 19.769L12.8427 19.0113C12.7083 18.8769 12.7083 18.6589 12.8427 18.5245L13.6004 17.7668C13.7348 17.6324 13.9527 17.6324 14.0871 17.7668L14.8448 18.5245C14.9792 18.6589 14.9792 18.8769 14.8448 19.0113L14.0871 19.769C13.9527 19.9034 13.7348 19.9034 13.6004 19.769ZM13.5729 18.7679L13.8438 19.0388L14.1146 18.7679L13.8437 18.497L13.5729 18.7679Z" fill="#0000CC"/>
<path d="M10.5454 19.2324C10.411 19.098 10.411 18.88 10.5454 18.7456L13.8211 15.47C13.9555 15.3356 14.1734 15.3356 14.3078 15.47C14.4422 15.6044 14.4422 15.8223 14.3078 15.9567L11.0322 19.2324C10.8978 19.3668 10.6798 19.3668 10.5454 19.2324Z" fill="#0000CC"/>
<path d="M10.3605 21.0556L13.2879 21.0556C13.4782 21.0556 13.6324 21.2098 13.6323 21.4C13.6323 21.5902 13.4782 21.7444 13.2879 21.7444L10.3605 21.7444C10.1703 21.7444 10.0161 21.5902 10.0161 21.4C10.0161 21.2098 10.1703 21.0556 10.3605 21.0556Z" fill="#FF9D33"/>
<path d="M10.3566 22.3877L17.4168 22.3876C17.6071 22.3876 17.7613 22.5418 17.7612 22.732C17.7612 22.9222 17.6071 23.0764 17.4168 23.0764L10.3566 23.0764C10.1663 23.0764 10.0121 22.9222 10.0122 22.732C10.0122 22.5419 10.1663 22.3877 10.3566 22.3877Z" fill="#FF9D33"/>
<path d="M23.0718 21.5677C24.6124 23.1083 27.1102 23.1083 28.6508 21.5677C30.1914 20.0271 30.1914 17.5293 28.6508 15.9887C27.1102 14.4481 24.6124 14.4481 23.0718 15.9887C21.5312 17.5293 21.5312 20.0271 23.0718 21.5677Z" fill="white"/>
<path d="M21.7971 16.7923C22.3708 17.366 23.301 17.366 23.8748 16.7923C24.4485 16.2186 24.4485 15.2883 23.8748 14.7146C23.301 14.1409 22.3708 14.1409 21.7971 14.7146C21.2234 15.2884 21.2234 16.2186 21.7971 16.7923Z" fill="#FF4452"/>
<path d="M24.6255 20.4111C24.5632 20.3488 24.5247 20.2628 24.5246 20.1677C24.5246 19.9776 24.6787 19.8235 24.8688 19.8235L26.3132 19.8235C26.4069 19.8236 26.495 19.7871 26.5613 19.7208C26.6275 19.6546 26.664 19.5665 26.664 19.4728C26.664 19.2794 26.5066 19.1219 26.3132 19.122L25.4156 19.122C24.8426 19.1219 24.3763 18.6558 24.3763 18.0827C24.3763 17.5097 24.8425 17.0435 25.4156 17.0435L26.86 17.0435C27.05 17.0436 27.2041 17.1976 27.2042 17.3877C27.2042 17.5778 27.0501 17.732 26.86 17.7319L25.4156 17.7319C25.2222 17.7319 25.0648 17.8892 25.0648 18.0827C25.0648 18.2761 25.2222 18.4335 25.4156 18.4336L26.3132 18.4335C26.8862 18.4335 27.3524 18.8997 27.3524 19.4728C27.3523 19.7504 27.2442 20.0113 27.048 20.2076C26.8517 20.4038 26.5908 20.5119 26.3132 20.5119L24.8688 20.5119C24.7738 20.5119 24.6878 20.4734 24.6255 20.4111Z" fill="#FF7300"/>
<path d="M25.62 20.932C25.5577 20.8697 25.5192 20.7837 25.5191 20.6886L25.5191 16.8735C25.5191 16.6834 25.6732 16.5292 25.8633 16.5293C26.0534 16.5293 26.2075 16.6834 26.2075 16.8735L26.2075 20.6886C26.2075 20.8787 26.0534 21.0328 25.8633 21.0328C25.7683 21.0327 25.6823 20.9943 25.62 20.932Z" fill="#FF7300"/>
<path d="M18.0109 14.8754C18.1613 15.0257 18.4051 15.0257 18.5555 14.8754C18.7058 14.725 18.7058 14.4812 18.5555 14.3309C18.4051 14.1805 18.1613 14.1805 18.0109 14.3309C17.8606 14.4812 17.8606 14.725 18.0109 14.8754Z" fill="#FF4452"/>
<path d="M18.007 16.0433C18.1574 16.1937 18.4012 16.1937 18.5516 16.0433C18.7019 15.893 18.7019 15.6492 18.5516 15.4988C18.4012 15.3485 18.1574 15.3485 18.007 15.4988C17.8567 15.6492 17.8567 15.893 18.007 16.0433Z" fill="#FF4452"/>
<path d="M18.0051 17.2074C18.1554 17.3578 18.3992 17.3578 18.5496 17.2074C18.7 17.057 18.7 16.8132 18.5496 16.6629C18.3992 16.5125 18.1555 16.5125 18.0051 16.6629C17.8547 16.8132 17.8547 17.057 18.0051 17.2074Z" fill="#FF4452"/>
</svg>
