<svg width="79" height="82" viewBox="0 0 79 82" fill="none" xmlns="http://www.w3.org/2000/svg">
<path d="M67.5053 26.04C60.8147 26.04 55.3251 20.6078 55.3251 13.796C55.3251 10.2608 56.7832 7.15668 59.0992 4.91483C53.6095 1.81073 47.1763 0 40.4 0C19.0417 0 1.71484 17.4175 1.71484 38.8875C1.71484 60.3575 19.0417 77.775 40.4 77.775C61.7583 77.775 78.9993 60.3575 78.9993 38.8875C78.9993 33.1966 77.7984 27.7645 75.5683 22.9359C73.4239 24.8328 70.5932 26.04 67.5053 26.04Z" fill="#F8ADAE"/>
<path d="M67.506 26.04C60.8154 26.04 55.3257 20.6078 55.3257 13.796C55.3257 10.6057 56.5266 7.76025 58.4995 5.5184C52.7524 2.0694 45.9761 0 38.6851 0C17.3268 0 0 17.4175 0 38.8875C0 60.3575 17.3268 77.775 38.6851 77.775C60.0434 77.775 77.2845 60.3575 77.2845 38.8875C77.2845 33.5415 76.2552 28.5405 74.2823 23.8843C72.3952 25.2639 70.0793 26.04 67.506 26.04Z" fill="#FAC6C6"/>
<g opacity="0.41">
<path opacity="0.41" d="M34.3424 22.927L27.5078 53.6406L46.5098 57.9134L53.3444 27.1998L34.3424 22.927Z" fill="#EE5A52"/>
<path opacity="0.41" d="M52.6667 30.2663C50.9512 29.9214 49.9219 28.1969 50.265 26.5586L53.3529 27.2484L52.6667 30.2663Z" fill="white"/>
<path opacity="0.41" d="M33.7109 25.9557C35.4265 26.3006 37.0562 25.2659 37.3993 23.5414L34.3114 22.8516L33.7109 25.9557Z" fill="white"/>
</g>
<path d="M40.9997 82.0002C57.1539 82.0002 70.2495 81.4598 70.2495 80.7931C70.2495 80.1264 57.1539 79.5859 40.9997 79.5859C24.8455 79.5859 11.75 80.1264 11.75 80.7931C11.75 81.4598 24.8455 82.0002 40.9997 82.0002Z" fill="#F0EFEF"/>
<path d="M38.7558 21.2664L28.9375 51.1523L47.4274 57.2905L57.2457 27.4045L38.7558 21.2664Z" fill="#EE5A52"/>
<path d="M56.2703 30.3492C54.6405 29.8318 53.7828 28.0211 54.2974 26.3828L57.2996 27.3313L56.2703 30.3492Z" fill="white"/>
<path d="M37.8281 24.2285C39.4579 24.7459 41.2592 23.8836 41.7738 22.2453L38.7717 21.2969L37.8281 24.2285Z" fill="white"/>
<path d="M67.5051 23.6241C72.9056 23.6241 77.2836 19.2233 77.2836 13.7945C77.2836 8.36573 72.9056 3.96484 67.5051 3.96484C62.1045 3.96484 57.7266 8.36573 57.7266 13.7945C57.7266 19.2233 62.1045 23.6241 67.5051 23.6241Z" fill="#EE5A52"/>
<path opacity="0.15" d="M41.0009 51.1323C44.1749 51.1323 46.7479 48.5458 46.7479 45.3552C46.7479 42.1646 44.1749 39.5781 41.0009 39.5781C37.8269 39.5781 35.2539 42.1646 35.2539 45.3552C35.2539 48.5458 37.8269 51.1323 41.0009 51.1323Z" fill="white"/>
<path d="M67.2497 53.1127L41.6026 62.7699C40.5733 63.1148 39.4582 62.5974 39.0293 61.5627L33.6254 46.9907C33.2823 45.956 33.7969 44.8351 34.8263 44.4039L60.4734 34.833C61.5027 34.4881 62.6178 35.0054 63.0467 36.0401L68.4506 50.6122C68.7937 51.5606 68.279 52.7678 67.2497 53.1127Z" fill="white"/>
<path d="M43.5803 45.9424L38.1953 47.9609L39.6938 52.0006L45.0788 49.9821L43.5803 45.9424Z" fill="#FCDDDD"/>
<path d="M65.0168 50.1839L62.7009 51.0462C62.1005 51.3049 61.5 50.96 61.2427 50.3564C60.9854 49.7528 61.3285 49.1492 61.9289 48.8906L64.2449 48.0283C64.8453 47.7696 65.4457 48.1145 65.7031 48.7181C65.9604 49.3217 65.6173 50.0115 65.0168 50.1839Z" fill="#34617C"/>
<path d="M52.1504 49.4072L49.0625 50.7006V49.0623L52.0647 47.9414L52.1504 49.4072Z" fill="#FCDDDD"/>
<path d="M55.842 48.0283L52.8398 49.3217V47.6834L55.842 46.5625V48.0283Z" fill="#FCDDDD"/>
<path d="M59.6153 46.6491L56.5273 47.9425L56.6131 46.3905L59.6153 45.2695V46.6491Z" fill="#FCDDDD"/>
<path d="M63.3887 45.2702L60.3008 46.5636L60.3866 45.0115L63.303 43.8906L63.3887 45.2702Z" fill="#FCDDDD"/>
<path d="M57.6425 80.7087H54.5545L54.4688 58.1177L60.902 55.6172V77.5183C60.902 79.2428 59.4438 80.7087 57.6425 80.7087Z" fill="#889FB0"/>
<path d="M56.1838 80.7081H23.5888C22.1306 80.7081 20.9297 79.501 20.9297 78.0351V52.5988C20.9297 51.1329 22.1306 49.9258 23.5888 49.9258H56.1838C57.642 49.9258 58.8428 51.1329 58.8428 52.5988V78.0351C58.9286 79.501 57.7277 80.7081 56.1838 80.7081Z" fill="#34617C"/>
<path d="M54.81 79.1565H53.9522V79.5876H54.81V79.1565ZM56.2682 78.5529C56.0967 78.7254 55.8393 78.8978 55.582 78.9841L55.7536 79.4152C56.0109 79.329 56.354 79.1565 56.5255 78.9841L56.2682 78.5529ZM57.0402 77.2596C56.9544 77.5182 56.8686 77.7769 56.7829 77.9494L57.126 78.1218C57.2975 77.8631 57.3833 77.5182 57.4691 77.2596H57.0402ZM57.0402 75.5351V76.3973H57.4691V75.5351H57.0402ZM57.0402 73.8968V74.759H57.4691V73.8968H57.0402ZM57.0402 72.1723V73.0345H57.4691V72.1723H57.0402ZM57.0402 70.4478V71.31H57.4691V70.4478H57.0402ZM57.0402 68.7233V69.5855H57.4691V68.7233H57.0402ZM57.0402 66.9988V67.861H57.4691V66.9988H57.0402ZM57.0402 65.2743V66.1365H57.4691V65.2743H57.0402ZM57.0402 63.5498V64.412H57.4691V63.5498H57.0402ZM57.0402 61.8253V62.6875H57.4691V61.8253H57.0402ZM57.0402 60.1008V60.963H57.4691V60.1008H57.0402ZM57.0402 58.4625V59.3248H57.4691V58.4625H57.0402ZM57.0402 56.738V57.6003H57.4691V56.738H57.0402ZM57.0402 55.0135V55.8758H57.4691V55.0135H57.0402ZM57.0402 53.289C57.0402 53.3752 57.0402 53.5477 57.0402 53.6339V54.065H57.4691V53.6339C57.4691 53.4615 57.4691 53.3752 57.4691 53.2028L57.0402 53.289ZM56.2682 51.9956C56.4398 52.1681 56.6113 52.3405 56.7829 52.5992L57.126 52.4268C56.9544 52.1681 56.7829 51.9094 56.5255 51.737L56.2682 51.9956ZM54.81 51.3921C55.0673 51.3921 55.3247 51.4783 55.582 51.5645L55.7536 51.1334C55.4962 51.0472 55.1531 50.9609 54.81 50.9609V51.3921ZM53.1803 51.3921H54.038V50.9609H53.1803V51.3921ZM51.4647 51.3921H52.3225V50.9609H51.4647V51.3921ZM49.7492 51.3921H50.607V50.9609H49.7492V51.3921ZM48.0337 51.3921H48.8914V50.9609H48.0337V51.3921ZM46.3182 51.3921H47.1759V50.9609H46.3182V51.3921ZM44.6026 51.3921H45.4604V50.9609H44.6026V51.3921ZM42.8871 51.3921H43.7449V50.9609H42.8871V51.3921ZM41.1716 51.3921H42.0293V50.9609H41.1716V51.3921ZM39.456 51.3921H40.3138V50.9609H39.456V51.3921ZM37.8263 51.3921H38.6841V50.9609H37.8263V51.3921ZM36.1108 51.3921H36.9685V50.9609H36.1108V51.3921ZM34.3952 51.3921H35.253V50.9609H34.3952V51.3921ZM32.6797 51.3921H33.5375V50.9609H32.6797V51.3921ZM30.9642 51.3921H31.822V50.9609H30.9642V51.3921ZM29.2487 51.3921H30.1064V50.9609H29.2487V51.3921ZM27.5331 51.3921H28.3909V50.9609H27.5331V51.3921ZM25.8176 51.3921H26.6754V50.9609H25.8176V51.3921ZM24.1879 51.5645C24.4452 51.4783 24.7025 51.3921 24.9598 51.3921V50.9609C24.6167 50.9609 24.3594 51.0472 24.0163 51.1334L24.1879 51.5645ZM23.0728 52.513C23.2443 52.2543 23.3301 52.0819 23.5874 51.9094L23.3301 51.5645C23.0728 51.737 22.9012 51.9956 22.7297 52.2543L23.0728 52.513ZM22.7297 54.065V53.6339C22.7297 53.4615 22.7297 53.3752 22.7297 53.2028L22.3008 53.1166C22.3008 53.289 22.3008 53.4615 22.3008 53.5477V53.9788H22.7297V54.065ZM22.7297 55.7895V54.9273H22.3008V55.7895H22.7297ZM22.7297 57.514V56.6518H22.3008V57.514H22.7297ZM22.7297 59.2385V58.3763H22.3008V59.2385H22.7297ZM22.7297 60.963V60.1008H22.3008V60.963H22.7297ZM22.7297 62.6875V61.8253H22.3008V62.6875H22.7297ZM22.7297 64.412V63.5498H22.3008V64.412H22.7297ZM22.7297 66.1365V65.2743H22.3008V66.1365H22.7297ZM22.7297 67.861V66.9988H22.3008V67.861H22.7297ZM22.7297 69.4993V68.6371H22.3008V69.4993H22.7297ZM22.7297 71.2238V70.3616H22.3008V71.2238H22.7297ZM22.7297 72.9483V72.0861H22.3008V72.9483H22.7297ZM22.7297 74.6728V73.8106H22.3008V74.6728H22.7297ZM22.7297 76.3973V75.5351H22.3008V76.3973H22.7297ZM23.0728 77.9494C22.987 77.6907 22.9012 77.5182 22.8154 77.1733L22.3866 77.2596C22.4723 77.6045 22.5581 77.8631 22.6439 78.1218L23.0728 77.9494ZM24.1879 78.9841C23.9305 78.8978 23.759 78.7254 23.5016 78.5529L23.2443 78.8978C23.5017 79.0703 23.759 79.2427 24.0163 79.4152L24.1879 78.9841ZM25.8176 79.1565H25.0456H24.9598V79.5876H25.0456H25.8176V79.1565ZM27.5331 79.1565H26.6754V79.5876H27.5331V79.1565ZM29.2487 79.1565H28.3909V79.5876H29.2487V79.1565ZM30.8784 79.1565H30.0207V79.5876H30.8784V79.1565ZM32.5939 79.1565H31.7362V79.5876H32.5939V79.1565ZM34.3095 79.1565H33.4517V79.5876H34.3095V79.1565ZM36.025 79.1565H35.1672V79.5876H36.025V79.1565ZM37.7405 79.1565H36.8828V79.5876H37.7405V79.1565ZM39.456 79.1565H38.5983V79.5876H39.456V79.1565ZM41.1716 79.1565H40.3138V79.5876H41.1716V79.1565ZM42.8871 79.1565H42.0293V79.5876H42.8871V79.1565ZM44.6026 79.1565H43.7449V79.5876H44.6026V79.1565ZM46.2324 79.1565H45.3746V79.5876H46.2324V79.1565ZM47.9479 79.1565H47.0901V79.5876H47.9479V79.1565ZM49.6634 79.1565H48.8057V79.5876H49.6634V79.1565ZM51.379 79.1565H50.5212V79.5876H51.379V79.1565ZM53.0945 79.1565H52.2367V79.5876H53.0945V79.1565Z" fill="#9E9D9E"/>
<path d="M60.9011 70.3619H52.2377C49.7502 70.3619 47.7773 68.3788 47.7773 65.8782C47.7773 63.3777 49.7502 61.3945 52.2377 61.3945H60.9011V70.3619Z" fill="#EE5A52"/>
<path d="M51.5516 67.5148C52.4517 67.5148 53.1814 66.7814 53.1814 65.8766C53.1814 64.9718 52.4517 64.2383 51.5516 64.2383C50.6515 64.2383 49.9219 64.9718 49.9219 65.8766C49.9219 66.7814 50.6515 67.5148 51.5516 67.5148Z" fill="white"/>
<path d="M65.7463 15.8386L63.825 13.9173L63 14.7423L65.7463 17.4887L71.41 11.825L70.585 11L65.7463 15.8386Z" fill="white"/>
</svg>
