<svg width="18" height="18" viewBox="0 0 18 18" fill="none" xmlns="http://www.w3.org/2000/svg">
<path d="M2.25 2.25H6.75V0H0V6.75H2.25V2.25Z" fill="#757575"/>
<path d="M6.75 15.75H2.25V11.25H0V18H6.75V15.75Z" fill="#757575"/>
<path d="M11.25 2.25H15.75V6.75H18V0H11.25V2.25Z" fill="#757575"/>
<path d="M11.25 15.75H15.75V11.25H18V18H11.25V15.75Z" fill="#757575"/>
<path d="M9 5.0625C8.48292 5.0625 7.9709 5.16435 7.49318 5.36222C7.01546 5.5601 6.5814 5.85014 6.21577 6.21577C5.85014 6.5814 5.5601 7.01546 5.36222 7.49318C5.16435 7.9709 5.0625 8.48292 5.0625 9C5.0625 9.51708 5.16435 10.0291 5.36222 10.5068C5.5601 10.9845 5.85014 11.4186 6.21577 11.7842C6.5814 12.1499 7.01546 12.4399 7.49318 12.6378C7.9709 12.8357 8.48292 12.9375 9 12.9375C10.0443 12.9375 11.0458 12.5227 11.7842 11.7842C12.5227 11.0458 12.9375 10.0443 12.9375 9C12.9375 7.95571 12.5227 6.95419 11.7842 6.21577C11.0458 5.47734 10.0443 5.0625 9 5.0625Z" fill="#757575"/>
</svg>
